M48
;Layer_Color=9474304
;FILE_FORMAT=4:4
METRIC,LZ
;TYPE=PLATED
T01F00S00C0.3000
T02F00S00C0.5000
T04F00S00C0.7620
T05F00S00C0.8000
T06F00S00C0.9000
T07F00S00C1.0000
T08F00S00C1.1000
T09F00S00C1.7000
T11F00S00C3.2000
T12F00S00C3.9000
%
T01
X00046Y00031
X00076
X00106
X00136
X00121Y00061
X00091
X00061
X00031
X00046Y00091
X00076
X00091Y00121
X00121
X00136Y00151
X00106
X00076
X00046
X00016
X00031Y00121
X00061
X00016Y00091
X00136
X00256
X00286
X00316
X00346
X00376
X00406
X00436
X00466
X00241Y00121
X00811
X00841
X00856Y00151
X00826
Y00091
X00796
X00916Y00031
X00961Y00061
X00946Y00091
X00961Y00121
X00946Y00151
X00961Y00181
X00946Y00211
X00961Y00241
X00946Y00271
X00961Y00301
X00946Y00331
X00961Y00361
X00946Y00391
X00961Y00421
Y00481
X00946Y00511
X00961Y00541
X00931
X00901
X00871
X00886Y00511
X00916
X00931Y00481
X00901
X00871
X00841
X00856Y00511
Y00451
X00886
X00916
X00931Y00421
X00901
X00871
X00886Y00391
X00916
X00931Y00361
X00901
X00871
X00886Y00331
X00916
X00931Y00301
X00901
X00871
X00841
X00811
X00781
X00751
X00721
X00736Y00331
X00766
X00796
X00826
X00856
X00811Y00361
X00751
X00721
X00691
X00661
X00676Y00331
X00706
Y00271
X00721Y00241
X00691
X00661
Y00301
X00691Y00421
X00721
X00725Y00405
X00766Y00391
X00781Y00421
X00736Y00451
X00706
X00676
X00691Y00481
X00721
X00736Y00511
X00766
X00796
X00811Y00541
X00781
X00751
X00721
X00691
X00661
X00631
X00601
X00616Y00511
X00646
X00676
X00706
X00661Y00481
X00631
X00601
X00616Y00451
X00586
X00571Y00421
X00586Y00511
X00736Y00211
X00751Y00181
X00781
X00811
X00841
X00931Y00241
X00916Y00271
X00505Y0039
X00511Y00421
X00481
X00445Y00425
X00436Y00451
X00406
X00421Y00481
X00451
X004485Y004915
X00481Y00481
X00361
X00346Y00451
Y00391
Y00331
X00376
X00391Y00361
X00361Y00301
X00331
X00346Y00271
X00316Y00331
X00286
X00256
X00226
X00196
X00166
Y00391
X00226
X00256
X00286
X00301Y00361
X00271
X00241
Y00421
X00271
X00286Y00451
X00256
X0025Y00445
X00301Y00481
Y00541
X00331
X00361
X00391
X00271
X00211
X00196Y00511
X00151Y00481
X00166Y00451
X00181Y00181
X00211
X00151
X00121
X00091
X00061
X00031
X00046Y00211
X00076
X00106
X00121Y00241
X00091
X00061
X00031
X00046Y00271
X00076
X00106
X00121Y00301
X00091
X00061
X00031
X00046Y00331
X00076
X00106
X00136
Y00391
X00106
X00091Y00421
X00061
X00031
X00046Y00451
X00076
X00106
X00136
X00121Y00481
X00091
X00061
X00031
X00046Y00511
X00076
X00091Y00541
X00061
X00016Y00511
Y00451
Y00391
Y00331
Y00271
Y00211
X00061Y00361
X00091
X00106Y00571
X00136
Y00631
X00106
X00076
X00046
X00016
X00031Y00661
X00046Y00691
X00106
X00091Y00661
Y00601
X00061
X00076Y00571
X00046
X00016
X00151Y00601
X00166Y00631
X00196
X00226
X00241Y00661
X00271
X00301
X00331
X00361
X00391
X00421
X00526Y00631
X00496Y00571
X00466
X00586
X00616
X00646
X00721Y00601
X00751
X00766Y00631
X00736
X00706
X00721Y00661
X00751
X00811
X00841
X00856Y00631
X00826
X00841Y00601
X00811
X00931
X00916Y00631
X00931Y00661
X00916Y00691
Y00571
X00541Y00661
X00961
X00946Y00631
X00961Y00601
X00946Y00571
T02
X0017Y0006
X0021Y00035
X00235Y00055
X0026Y00035
X00285Y0005
X00305Y00035
X0033Y0005
X00355Y00035
X00385Y0005
X0041Y00035
X0044Y00045
X0046Y00035
X00495Y0005
X0052Y0004
X00495Y00095
X00505Y0012
X0053Y0011
X00505Y00155
X00438Y001533
X0043Y001443
X0042Y001413
X004067
X003934
X003801
X003685Y001443
X00362Y001533
X00338
X0033Y001443
X0032Y001413
X003067
X002934
X002801
X002685Y001443
X00262Y001533
X00545Y00155
X00565Y001
X006Y00115
X00635Y0012
X00655Y001
X0069Y00095
X00705Y00115
X00665Y00145
X0067Y0005
X0069Y00035
X0073Y0005
X0075Y00035
X0079Y0005
X0082Y0004
X00845Y00055
X00865Y00035
X00885Y0007
X00615Y00055
X0063Y00035
X0058
X00555Y00055
X0056Y00175
Y002
X006Y00235
X0061Y00265
X006Y0029
X00625Y00305
X0064Y00195
X0066Y00205
X0068Y0019
X00685Y00165
X00645
X0053Y00175
X00525Y00195
X005Y002
X00505Y00175
X00438Y001638
X0043Y0017
X0042Y001733
X004067
X003934
X003801
X0037Y0017
X00362Y001638
X00338
X0033Y0017
X0032Y001733
X003067
X002934
X002801
X0027Y0017
X00262Y001638
X00265Y002
X0025Y00215
X00265Y00235
Y0027
X00245Y00255
Y0029
X00435Y00285
Y00245
X0044Y00205
X00465Y00265
X00455Y00305
T04
X001476Y00495
X00173
X001984
X002238
X002492
X002746
X003
X003254
X003508
X003762
X004016
X001222
X000968
X000714
X00046
Y006474
X000714
X000968
X001222
X001476
X00173
X001984
X002238
X002492
X002746
X003
X003254
X003508
X003762
X004016
T05
X003309Y003713
X0035
X003691
T06
X0069Y00595
Y0062
Y00645
Y0067
Y00695
X00785
Y0067
Y00645
Y0062
Y00595
X00875
Y0062
Y00645
Y0067
Y00695
T07
X0095Y00345
Y00455
X0004Y003875
Y003625
T08
X005427Y004661
Y004915
Y005169
Y005423
X005173
Y005169
Y004915
Y004661
Y005677
Y005931
Y006185
Y006439
X005427
Y006185
Y005931
Y005677
T09
X0085Y00375
Y00425
T11
X00025Y00025
X0094
X00025Y0071
X0094
T12
X00766Y00136
X00204Y00244
M30
