G04*
G04 #@! TF.GenerationSoftware,Altium Limited,Altium Designer,25.5.2 (35)*
G04*
G04 Layer_Color=16711935*
%FSLAX44Y44*%
%MOMM*%
G71*
G04*
G04 #@! TF.SameCoordinates,C6DB7368-8D77-49A3-A4FC-CDEE88798AA4*
G04*
G04*
G04 #@! TF.FilePolarity,Negative*
G04*
G01*
G75*
%ADD46R,5.1192X5.1192*%
%ADD47O,2.8032X1.5032*%
%ADD48C,1.0032*%
%ADD49O,9.2032X4.7032*%
%ADD50O,2.7032X1.9532*%
%ADD51C,1.7112*%
%ADD52R,2.7532X2.7532*%
%ADD53C,2.7532*%
%ADD54C,1.6032*%
%ADD55C,2.2032*%
%ADD56C,1.7032*%
%ADD57C,1.7272*%
%ADD58R,1.7272X1.7272*%
%ADD59R,1.7032X1.7032*%
%ADD60C,0.8032*%
%ADD80C,5.1192*%
D46*
X204000Y244000D02*
D03*
X766000Y136000D02*
D03*
D47*
X110000Y284000D02*
D03*
Y95000D02*
D03*
X860000Y285000D02*
D03*
Y96000D02*
D03*
D48*
X270000Y170000D02*
D03*
X262000Y163800D02*
D03*
Y153300D02*
D03*
X268500Y144300D02*
D03*
X280100Y141300D02*
D03*
X293400D02*
D03*
X306700D02*
D03*
X320000D02*
D03*
X330000Y144300D02*
D03*
X338000Y153300D02*
D03*
Y163800D02*
D03*
X330000Y170000D02*
D03*
X280100Y173300D02*
D03*
X293400D02*
D03*
X306700D02*
D03*
X320000D02*
D03*
X370000Y170000D02*
D03*
X362000Y163800D02*
D03*
Y153300D02*
D03*
X368500Y144300D02*
D03*
X380100Y141300D02*
D03*
X393400D02*
D03*
X406700D02*
D03*
X420000D02*
D03*
X430000Y144300D02*
D03*
X438000Y153300D02*
D03*
Y163800D02*
D03*
X430000Y170000D02*
D03*
X380100Y173300D02*
D03*
X393400D02*
D03*
X406700D02*
D03*
X420000D02*
D03*
D49*
X300000Y157300D02*
D03*
X400000D02*
D03*
D50*
X40000Y387500D02*
D03*
Y362500D02*
D03*
X875000Y645000D02*
D03*
Y620000D02*
D03*
Y670000D02*
D03*
Y595000D02*
D03*
Y695000D02*
D03*
X785000Y645000D02*
D03*
Y620000D02*
D03*
Y595000D02*
D03*
Y670000D02*
D03*
Y695000D02*
D03*
X690000Y645000D02*
D03*
Y620000D02*
D03*
Y670000D02*
D03*
Y595000D02*
D03*
Y695000D02*
D03*
D51*
X950000Y455000D02*
D03*
Y345000D02*
D03*
D52*
X850000Y425000D02*
D03*
D53*
Y375000D02*
D03*
D54*
X940000Y25000D02*
D03*
Y710000D02*
D03*
X25000Y25000D02*
D03*
Y710000D02*
D03*
D55*
X517300Y466100D02*
D03*
X542700D02*
D03*
Y593100D02*
D03*
Y567700D02*
D03*
X517300Y643900D02*
D03*
Y618500D02*
D03*
Y593100D02*
D03*
Y567700D02*
D03*
Y542300D02*
D03*
Y516900D02*
D03*
Y491500D02*
D03*
X542700D02*
D03*
Y516900D02*
D03*
Y542300D02*
D03*
Y618500D02*
D03*
Y643900D02*
D03*
D56*
X350000Y371300D02*
D03*
X330900D02*
D03*
D57*
X376200Y495000D02*
D03*
X325400Y647400D02*
D03*
X46000Y495000D02*
D03*
X71400D02*
D03*
X122200D02*
D03*
X147600D02*
D03*
X96800D02*
D03*
X173000D02*
D03*
X198400D02*
D03*
X223800D02*
D03*
X249200D02*
D03*
X274600D02*
D03*
X300000D02*
D03*
X325400D02*
D03*
X350800D02*
D03*
X46000Y647400D02*
D03*
X71400D02*
D03*
X401600Y495000D02*
D03*
X376200Y647400D02*
D03*
X350800D02*
D03*
X300000D02*
D03*
X274600D02*
D03*
X249200D02*
D03*
X223800D02*
D03*
X198400D02*
D03*
X173000D02*
D03*
X147600D02*
D03*
X122200D02*
D03*
X96800D02*
D03*
D58*
X401600D02*
D03*
D59*
X369100Y371300D02*
D03*
D60*
X250000Y445000D02*
D03*
X445000Y425000D02*
D03*
X505000Y390000D02*
D03*
X725000Y405000D02*
D03*
X448500Y491500D02*
D03*
D80*
X204000Y135000D02*
D03*
X766000Y245000D02*
D03*
M02*
