G04*
G04 #@! TF.GenerationSoftware,Altium Limited,Altium Designer,25.5.2 (35)*
G04*
G04 Layer_Color=8421504*
%FSLAX44Y44*%
%MOMM*%
G71*
G04*
G04 #@! TF.SameCoordinates,C6DB7368-8D77-49A3-A4FC-CDEE88798AA4*
G04*
G04*
G04 #@! TF.FilePolarity,Positive*
G04*
G01*
G75*
G04:AMPARAMS|DCode=16|XSize=4.12mm|YSize=0.94mm|CornerRadius=0.235mm|HoleSize=0mm|Usage=FLASHONLY|Rotation=270.000|XOffset=0mm|YOffset=0mm|HoleType=Round|Shape=RoundedRectangle|*
%AMROUNDEDRECTD16*
21,1,4.1200,0.4700,0,0,270.0*
21,1,3.6500,0.9400,0,0,270.0*
1,1,0.4700,-0.2350,-1.8250*
1,1,0.4700,-0.2350,1.8250*
1,1,0.4700,0.2350,1.8250*
1,1,0.4700,0.2350,-1.8250*
%
%ADD16ROUNDEDRECTD16*%
%ADD17R,2.0000X3.8000*%
%ADD18R,2.0000X1.5000*%
%ADD19R,0.8000X0.9000*%
%ADD20R,2.5000X1.7000*%
%ADD21R,1.3500X1.1500*%
%ADD22R,1.4000X1.3000*%
%ADD23R,1.0000X0.9000*%
%ADD24R,1.6500X1.2000*%
%ADD25R,1.0500X0.6000*%
%ADD26R,0.9000X0.7000*%
%ADD27R,0.9500X0.8500*%
%ADD28R,1.5000X1.0000*%
%ADD29R,1.2000X1.6500*%
G36*
X490200Y125600D02*
Y139300D01*
X504100D01*
Y125600D01*
X490200D01*
D02*
G37*
G36*
Y147300D02*
Y161000D01*
X504100D01*
Y147300D01*
X490200D01*
D02*
G37*
G36*
X512100Y125600D02*
Y139300D01*
X526000D01*
Y125600D01*
X512100D01*
D02*
G37*
G36*
Y147300D02*
Y161000D01*
X526000D01*
Y147300D01*
X512100D01*
D02*
G37*
G36*
X490200Y169000D02*
Y182700D01*
X504100D01*
Y169000D01*
X490200D01*
D02*
G37*
G36*
Y190700D02*
Y204400D01*
X504100D01*
Y190700D01*
X490200D01*
D02*
G37*
G36*
X512100Y169000D02*
Y182700D01*
X526000D01*
Y169000D01*
X512100D01*
D02*
G37*
G36*
Y190700D02*
Y204400D01*
X526000D01*
Y190700D01*
X512100D01*
D02*
G37*
G36*
X534000Y125600D02*
Y139300D01*
X547900D01*
Y125600D01*
X534000D01*
D02*
G37*
G36*
Y147300D02*
Y161000D01*
X547900D01*
Y147300D01*
X534000D01*
D02*
G37*
G36*
X555900Y125600D02*
Y139300D01*
X569800D01*
Y125600D01*
X555900D01*
D02*
G37*
G36*
Y147300D02*
Y161000D01*
X569800D01*
Y147300D01*
X555900D01*
D02*
G37*
G36*
X534000Y169000D02*
Y182700D01*
X547900D01*
Y169000D01*
X534000D01*
D02*
G37*
G36*
Y190700D02*
Y204400D01*
X547900D01*
Y190700D01*
X534000D01*
D02*
G37*
G36*
X555900Y169000D02*
Y182700D01*
X569800D01*
Y169000D01*
X555900D01*
D02*
G37*
G36*
Y190700D02*
Y204400D01*
X569800D01*
Y190700D01*
X555900D01*
D02*
G37*
G36*
X620200Y125600D02*
Y139300D01*
X634100D01*
Y125600D01*
X620200D01*
D02*
G37*
G36*
Y147300D02*
Y161000D01*
X634100D01*
Y147300D01*
X620200D01*
D02*
G37*
G36*
X642100Y125600D02*
Y139300D01*
X656000D01*
Y125600D01*
X642100D01*
D02*
G37*
G36*
Y147300D02*
Y161000D01*
X656000D01*
Y147300D01*
X642100D01*
D02*
G37*
G36*
X620200Y169000D02*
Y182700D01*
X634100D01*
Y169000D01*
X620200D01*
D02*
G37*
G36*
Y190700D02*
Y204400D01*
X634100D01*
Y190700D01*
X620200D01*
D02*
G37*
G36*
X642100Y169000D02*
Y182700D01*
X656000D01*
Y169000D01*
X642100D01*
D02*
G37*
G36*
Y190700D02*
Y204400D01*
X656000D01*
Y190700D01*
X642100D01*
D02*
G37*
G36*
X664000Y125600D02*
Y139300D01*
X677900D01*
Y125600D01*
X664000D01*
D02*
G37*
G36*
Y147300D02*
Y161000D01*
X677900D01*
Y147300D01*
X664000D01*
D02*
G37*
G36*
X685900Y125600D02*
Y139300D01*
X699800D01*
Y125600D01*
X685900D01*
D02*
G37*
G36*
Y147300D02*
Y161000D01*
X699800D01*
Y147300D01*
X685900D01*
D02*
G37*
G36*
X664000Y169000D02*
Y182700D01*
X677900D01*
Y169000D01*
X664000D01*
D02*
G37*
G36*
Y190700D02*
Y204400D01*
X677900D01*
Y190700D01*
X664000D01*
D02*
G37*
G36*
X685900Y169000D02*
Y182700D01*
X699800D01*
Y169000D01*
X685900D01*
D02*
G37*
G36*
Y190700D02*
Y204400D01*
X699800D01*
Y190700D01*
X685900D01*
D02*
G37*
D16*
X555400Y267000D02*
D03*
X504600D02*
D03*
X685400D02*
D03*
X634600D02*
D03*
D17*
X748500Y405000D02*
D03*
D18*
X811500D02*
D03*
Y428000D02*
D03*
Y382000D02*
D03*
D19*
X659500Y417500D02*
D03*
X650000Y397500D02*
D03*
X640500Y417500D02*
D03*
D20*
X622500Y370000D02*
D03*
X582500D02*
D03*
D21*
X660000Y458750D02*
D03*
X157500Y423750D02*
D03*
X115000D02*
D03*
X635000Y458750D02*
D03*
X115000Y406250D02*
D03*
Y373750D02*
D03*
X157500Y406250D02*
D03*
Y371250D02*
D03*
X660000Y441250D02*
D03*
X635000D02*
D03*
X157500Y353750D02*
D03*
X115000Y356250D02*
D03*
D22*
X815000Y462000D02*
D03*
X750000Y478000D02*
D03*
X815000Y478000D02*
D03*
X750000Y462000D02*
D03*
D23*
X345000Y403250D02*
D03*
X370000Y416750D02*
D03*
X345000D02*
D03*
X370000Y403250D02*
D03*
D24*
X202500Y429000D02*
D03*
Y343500D02*
D03*
Y371500D02*
D03*
Y401000D02*
D03*
D25*
X415000Y405500D02*
D03*
Y424500D02*
D03*
X470000D02*
D03*
Y405500D02*
D03*
X255000Y422000D02*
D03*
Y403000D02*
D03*
D26*
X794500Y460000D02*
D03*
X775500Y453500D02*
D03*
Y466500D02*
D03*
D27*
X317500Y416500D02*
D03*
Y403500D02*
D03*
D28*
X537500Y364000D02*
D03*
Y396000D02*
D03*
D29*
X611500Y407500D02*
D03*
X583500D02*
D03*
M02*
