M48
;Layer_Color=9474304
;FILE_FORMAT=2:5
INCH,TZ
;TYPE=PLATED
T01F00S00C0.01181
T02F00S00C0.01968
T04F00S00C0.03000
T05F00S00C0.03150
T06F00S00C0.03543
T07F00S00C0.03937
T08F00S00C0.04331
T09F00S00C0.06693
T11F00S00C0.12598
T12F00S00C0.15354
%
T01
X18110Y12205
X29921
X41732
X53543
X47638Y24016
X35827
X24016
X12205
X18110Y35827
X29921
X35827Y47638
X47638
X53543Y59449
X41732
X29921
X18110
X6299
X12205Y47638
X24016
X6299Y35827
X53543
X100787
X112598
X124409
X136220
X148031
X159842
X171653
X183465
X94882Y47638
X319291
X331102
X337008Y59449
X325197
Y35827
X313386
X360630Y12205
X378346Y24016
X372441Y35827
X378346Y47638
X372441Y59449
X378346Y71260
X372441Y83071
X378346Y94882
X372441Y106693
X378346Y118504
X372441Y130315
X378346Y142126
X372441Y153937
X378346Y165748
Y189370
X372441Y201181
X378346Y212992
X366535
X354724
X342913
X348819Y201181
X360630
X366535Y189370
X354724
X342913
X331102
X337008Y201181
Y177559
X348819
X360630
X366535Y165748
X354724
X342913
X348819Y153937
X360630
X366535Y142126
X354724
X342913
X348819Y130315
X360630
X366535Y118504
X354724
X342913
X331102
X319291
X307480
X295669
X283858
X289764Y130315
X301575
X313386
X325197
X337008
X319291Y142126
X295669
X283858
X272047
X260236
X266142Y130315
X277953
Y106693
X283858Y94882
X272047
X260236
Y118504
X272047Y165748
X283858
X285433Y159449
X301575Y153937
X307480Y165748
X289764Y177559
X277953
X266142
X272047Y189370
X283858
X289764Y201181
X301575
X313386
X319291Y212992
X307480
X295669
X283858
X272047
X260236
X248425
X236614
X242520Y201181
X254331
X266142
X277953
X260236Y189370
X248425
X236614
X242520Y177559
X230709
X224803Y165748
X230709Y201181
X289764Y83071
X295669Y71260
X307480
X319291
X331102
X366535Y94882
X360630Y106693
X198819Y153543
X201181Y165748
X189370
X175197Y167323
X171653Y177559
X159842
X165748Y189370
X177559
X176575Y193504
X189370Y189370
X142126
X136220Y177559
Y153937
Y130315
X148031
X153937Y142126
X142126Y118504
X130315
X136220Y106693
X124409Y130315
X112598
X100787
X88976
X77165
X65354
Y153937
X88976
X100787
X112598
X118504Y142126
X106693
X94882
Y165748
X106693
X112598Y177559
X100787
X98425Y175197
X118504Y189370
Y212992
X130315
X142126
X153937
X106693
X83071
X77165Y201181
X59449Y189370
X65354Y177559
X71260Y71260
X83071
X59449
X47638
X35827
X24016
X12205
X18110Y83071
X29921
X41732
X47638Y94882
X35827
X24016
X12205
X18110Y106693
X29921
X41732
X47638Y118504
X35827
X24016
X12205
X18110Y130315
X29921
X41732
X53543
Y153937
X41732
X35827Y165748
X24016
X12205
X18110Y177559
X29921
X41732
X53543
X47638Y189370
X35827
X24016
X12205
X18110Y201181
X29921
X35827Y212992
X24016
X6299Y201181
Y177559
Y153937
Y130315
Y106693
Y83071
X24016Y142126
X35827
X41732Y224803
X53543
Y248425
X41732
X29921
X18110
X6299
X12205Y260236
X18110Y272047
X41732
X35827Y260236
Y236614
X24016
X29921Y224803
X18110
X6299
X59449Y236614
X65354Y248425
X77165
X88976
X94882Y260236
X106693
X118504
X130315
X142126
X153937
X165748
X207086Y248425
X195275Y224803
X183465
X230709
X242520
X254331
X283858Y236614
X295669
X301575Y248425
X289764
X277953
X283858Y260236
X295669
X319291
X331102
X337008Y248425
X325197
X331102Y236614
X319291
X366535
X360630Y248425
X366535Y260236
X360630Y272047
Y224803
X212992Y260236
X378346
X372441Y248425
X378346Y236614
X372441Y224803
T02
X66929Y23622
X82677Y13780
X92520Y21654
X102362Y13780
X112205Y19685
X120079Y13780
X129921Y19685
X139764Y13780
X151575Y19685
X161417Y13780
X173228Y17717
X181102Y13780
X194882Y19685
X204724Y15748
X194882Y37402
X198819Y47244
X208661Y43307
X198819Y61024
X172441Y60354
X169291Y56811
X165354Y55630
X160118
X154882
X149646
X145079Y56811
X142520Y60354
X133071
X129921Y56811
X125984Y55630
X120748
X115512
X110276
X105709Y56811
X103150Y60354
X214567Y61024
X222441Y39370
X236221Y45276
X250000Y47244
X257874Y39370
X271654Y37402
X277559Y45276
X261811Y57087
X263779Y19685
X271654Y13780
X287402Y19685
X295276Y13780
X311024Y19685
X322835Y15748
X332677Y21654
X340551Y13780
X348425Y27559
X242126Y21654
X248031Y13780
X228346
X218504Y21654
X220472Y68898
Y78740
X236221Y92520
X240158Y104331
X236221Y114173
X246063Y120079
X251969Y76772
X259842Y80709
X267717Y74803
X269685Y64961
X253937
X208661Y68898
X206693Y76772
X196850Y78740
X198819Y68898
X172441Y64488
X169291Y66929
X165354Y68228
X160118
X154882
X149646
X145669Y66929
X142520Y64488
X133071
X129921Y66929
X125984Y68228
X120748
X115512
X110276
X106299Y66929
X103150Y64488
X104331Y78740
X98425Y84646
X104331Y92520
Y106299
X96457Y100394
Y114173
X171260Y112205
Y96457
X173228Y80709
X183071Y104331
X179134Y120079
T04
X58110Y194882
X68110
X78110
X88110
X98110
X108110
X118110
X128110
X138110
X148110
X158110
X48110
X38110
X28110
X18110
Y254882
X28110
X38110
X48110
X58110
X68110
X78110
X88110
X98110
X108110
X118110
X128110
X138110
X148110
X158110
T05
X130276Y146181
X137795
X145315
T06
X271654Y234252
Y244094
Y253937
Y263779
Y273622
X309055
Y263779
Y253937
Y244094
Y234252
X344488
Y244094
Y253937
Y263779
Y273622
T07
X374016Y135827
Y179134
X15748Y152559
Y142717
T08
X213661Y183504
Y193504
Y203504
Y213504
X203661
Y203504
Y193504
Y183504
Y223504
Y233504
Y243504
Y253504
X213661
Y243504
Y233504
Y223504
T09
X334646Y147638
Y167323
T11
X9843Y9843
X370079
X9843Y279528
X370079
T12
X301575Y53543
X80315Y96063
M30
