M48
;Layer_Color=9474304
;FILE_FORMAT=2:4
INCH,TZ
;TYPE=PLATED
T01F00S00C0.0118
T02F00S00C0.0197
T04F00S00C0.0300
T05F00S00C0.0354
T06F00S00C0.0394
T07F00S00C0.0433
T08F00S00C0.1260
T09F00S00C0.1535
%
T01
X630Y2992
X1811
X2992
X4173
X5354
X4764Y1811
X3583
X2402
X2992Y630
X4173
X5354
Y5354
X4173
X2992
X1811
X630
X1220Y4173
X2402
X3583
Y6535
X2402
X1220
X630Y7717
X1811
X2992
X4173
X5354
X4764Y6535
X5945
X7126
X6535Y5354
X5945Y4173
X7126
X8307
X9488
X10669
X11850
X13031
X14213
X15394
X16575
X17756
X18937
X20118
X19528Y2992
X18346
X17165
X15984
X14803
X13622
X12441
X11260
X10079
X8898
X7717
X6535
X5945Y1811
X7126
X8307
X9488
X10669
X11850
X13031
X14213
X15394
X16575
X17756
X18937
X20118
X19528Y630
X18346
X17165
X15984
X14803
X13622
X12441
X11260
X10079
X8898
X7717
X6535
X10079Y5354
X11260
X12441
X13622
X14803
X15984
X17165
X18346
X19528
X20709
X20118Y6535
X18937
X17756
X16575
X15394
X14213
X13031
X11850
X10669
X9488
X13622Y7717
X14803
X20709Y2992
Y630
X21890
X23071
X24252
X25433
X26614
X27795
X27205Y1811
X26024
X24843
X23661
X22480
X21299
X21890Y2992
X23071
X24252
X25433
X26614
X27795
X28976
X28386Y1811
X29567
Y4173
X28386
X27205
X26024
X24843
X23661
X22480
X21299
X21890Y5354
X23071
X24252
X25433
X26614
X27795
X28976
X28386Y6535
X27205
X26024
X24843
X23661
X22480
X21299
X23071Y7717
X24252
X25433
X26614
X27795
X28976
X29567Y6535
Y8898
X28386
X27205
X26024
X24843
X23661
X23071Y10079
X24252
X25433
X26614
X27795
X28976
X28386Y11260
X27205
X26024
X24843
X23661
X23071Y12441
X24252
X25433
X26614
X27795
X28976
X28386Y13622
X27205
X26024
X24843
X23661
X22480
X21299
X23071Y14803
X24252
X25433
X26614
X27795
X28976
X28386Y15984
X27205
X26024
X24843
X23661
X22480
X21890Y17165
X23071
X22480Y18346
X21299
X21890Y19528
X23071
X24252
X25433
X26614
X27795
X28976
X28386Y18346
X27205
X26024
X24843
X23661
Y20709
X22480
X21299
X24843
X26024
X27205
X28386
X29567
X28976Y21890
X27795
X28386Y23071
X29567
Y18346
X28976Y17165
X27795
X26614
X25433
X29567Y15984
Y13622
Y11260
X20118Y13622
X19528Y14803
Y17165
X20709
X20118Y18346
X18937
X18346Y19528
X17165
X15984
X14803
X13622
X12441
X11850Y20709
X10669
X10079Y21890
X11260
X13622
X14803
X15984
X17165
X16575Y20709
X15394
X14213
X13031
X14213Y18346
Y23071
X15394
X16575
X18937
Y20709
X17756
X20118
X19528Y19528
X20709
X14213Y11260
Y8898
X4764
X3583
X2402
X1220
X630Y10079
X1811
X2992
X4173
X3583Y11260
X2402
X1220
X630Y12441
X1811
X2992
X4173
X3583Y13622
X2402
X1220
X630Y14803
X1811
X2992
X4173
X3583Y15984
X2402
X1220
X630Y17165
X1811
X2992
X4173
X3583Y18346
X2402
X1220
X630Y19528
X1811
X2992
X4173
X3583Y20709
X2402
X1220
X630Y21890
X1811
X2992
X4173
X3583Y23071
X2402
X1220
X4764Y20709
Y18346
Y15984
Y13622
X4173Y24252
X2992
X2402Y25433
X1811Y26614
X630
Y24252
Y28976
X1811
X2992
X4173
X5354
X3583Y27795
X2402
X2992Y26614
X4764Y25433
Y34882
X3583
X2402
X1811Y33701
X630
X2992Y36063
X4173
X5354
X6535
X7717
X8898
X10079
X11260
X12441
X13622
X14803
X15984
X15394Y34882
X14213
X13031
X12441Y33701
X13622
X14803
X15984
X17165
X18346
X18937Y34882
X19528Y36063
X20709
X16575Y34882
Y32520
X15394
X14213
X13031
X12441Y31339
X13622
X14803
X15984
X17165
X16575Y30157
X15394
X14213
X13031
X12441Y28976
X11260
X10079
X8898
X7717
X6535
X5945Y27795
X7126
X7717Y26614
X8898
X10079
X9488Y25433
X8307
X7126
X5945
X6535Y24252
X7717
X8898
X8858Y23622
X10079Y24252
X11260
X12441
X13622
Y26614
X12441
X13031Y27795
X14213
X15394
X14803Y28976
X13622
X15984
X19528
Y31339
X18346Y26614
Y24252
X17165
X15984
X19528
X10669Y30157
X9488
Y34882
X8307
X7126
X5945
X10669
X22480
X23661
X23071Y36063
X21890
X24252
X25433
X26614
X26024Y34882
X27205
X28386
X29567
Y32520
X27205
X27795Y33701
Y28976
X29567Y27795
Y25433
Y30157
X23071Y28976
X23031Y27362
X23071Y26614
X22480Y25433
X23661
T02
X22047Y8661
X22146Y10236
Y11319
X19193Y11220
X19094Y12205
X18406Y13091
X17421
X17520Y12008
X16634
X15551
Y10827
X16732Y10728
X16535Y9744
X17618
X17717Y11024
X19094Y10039
X19193Y9055
X19882Y8268
X20866Y9252
X17717Y8366
X15748
X15453Y9547
X12894Y9252
X13189Y8661
X12303
X11614Y8563
X11417Y9154
Y9941
X11614Y10630
X10925
X10728Y10138
Y9350
Y8661
X11024Y8071
X11909
X12795
X12106Y9350
X12205Y10236
X12598Y10728
X13189Y10335
X13091Y13780
Y14567
X12500Y14665
X12402Y14173
Y13484
X11811Y13878
Y14468
X11220Y14272
X11417Y14961
X11220Y15748
X11909Y15846
X12500Y15650
X13189Y15846
X15453Y16339
X16535
Y17520
X15453
Y15157
X16634
X17913
X18012Y16240
Y17520
X17323Y17028
X18110Y13878
X16634Y13780
X15256
X15846Y13091
X11319Y13386
X10728Y13681
X10630Y14665
Y15453
X10335Y17028
X10236Y17815
X9350Y16339
X8366Y16240
X7382Y16339
X7283Y15354
X6004
Y16634
X6890Y17028
X7579Y17717
X8661Y15354
X8268Y14370
X7480Y14173
X7677Y12894
X8465Y13287
X9449
X9350Y14173
X9252Y12402
X10433Y12598
X10236Y11614
X9646Y10532
X9744Y9646
X9646Y8563
X8563Y8268
X7382Y8366
X6102Y8465
X6496Y9252
X6004Y9646
X5807Y10532
X6594Y10335
X5906Y11417
X6594Y12402
X6004Y13189
X6102Y13976
X7677Y11220
T04
X11811Y22575
Y23575
X17811
Y22575
Y24575
Y25575
Y26575
Y27575
Y28575
Y29575
Y30575
Y31575
Y32575
Y33575
Y34575
Y35575
Y36575
X11811
Y35575
Y34575
Y33575
Y32575
Y31575
Y30575
Y29575
Y28575
Y27575
Y26575
Y25575
Y24575
T05
X21260Y24606
Y25591
Y26575
Y27559
Y28543
Y31496
Y32480
Y33465
Y34449
Y35433
X24803
Y34449
Y33465
Y32480
Y31496
Y28543
Y27559
Y26575
Y25591
Y24606
T06
X1378Y24114
Y25098
T07
X1181Y27315
Y28315
Y29315
Y30315
Y31315
Y32315
Y33315
Y34315
X28937Y33693
Y32693
Y31693
Y30693
Y29693
Y28693
Y27693
Y26693
Y25693
Y24693
T08
X1181Y984
X28937
X1181Y36220
X28937
T09
X8031Y5531
Y9823
X20906Y11043
Y15335
M30
