G04*
G04 #@! TF.GenerationSoftware,Altium Limited,Altium Designer,25.5.2 (35)*
G04*
G04 Layer_Physical_Order=2*
G04 Layer_Color=16711680*
%FSLAX44Y44*%
%MOMM*%
G71*
G04*
G04 #@! TF.SameCoordinates,C6DB7368-8D77-49A3-A4FC-CDEE88798AA4*
G04*
G04*
G04 #@! TF.FilePolarity,Positive*
G04*
G01*
G75*
%ADD62C,0.5000*%
%ADD63R,4.9160X4.9160*%
%ADD64O,2.6000X1.3000*%
%ADD65C,0.8000*%
%ADD66O,9.0000X4.5000*%
%ADD67O,2.5000X1.7500*%
%ADD68C,1.5080*%
%ADD69R,2.5500X2.5500*%
%ADD70C,2.5500*%
%ADD71C,1.4000*%
%ADD72C,2.0000*%
%ADD73C,1.5000*%
%ADD74C,1.5240*%
%ADD75R,1.5240X1.5240*%
%ADD76R,1.5000X1.5000*%
%ADD77C,0.7000*%
%ADD78C,0.6000*%
%ADD79C,4.9160*%
G36*
X935000Y225000D02*
Y60000D01*
X875000Y-0D01*
X185000Y0D01*
X165000Y20000D01*
X165000D01*
X145000Y40000D01*
Y40000D01*
Y150000D01*
Y150000D01*
X170000Y175000D01*
X210000Y175000D01*
X230000Y155000D01*
Y90000D01*
X250000Y70000D01*
X855000D01*
X875000Y90000D01*
X875000Y160000D01*
X830000Y205000D01*
X750000D01*
X735000Y220000D01*
Y220000D01*
Y265000D01*
Y265000D01*
X745000Y275000D01*
X885000D01*
X935000Y225000D01*
D02*
G37*
G36*
X970000Y0D02*
X879324D01*
X878741Y1408D01*
X936166Y58834D01*
X936650Y60000D01*
Y225000D01*
X936166Y226166D01*
X886167Y276166D01*
X885000Y276650D01*
X871196D01*
X870902Y277257D01*
X870785Y278174D01*
X872223Y279277D01*
X873509Y280953D01*
X874317Y282905D01*
X874593Y285000D01*
X874317Y287095D01*
X873509Y289047D01*
X872223Y290723D01*
X870547Y292009D01*
X868595Y292817D01*
X866500Y293093D01*
X853500D01*
X851405Y292817D01*
X849453Y292009D01*
X847777Y290723D01*
X846491Y289047D01*
X845683Y287095D01*
X845407Y285000D01*
X845683Y282905D01*
X846491Y280953D01*
X847777Y279277D01*
X849215Y278174D01*
X849098Y277257D01*
X848804Y276650D01*
X745000D01*
X743834Y276166D01*
X733834Y266166D01*
X733350Y265000D01*
Y220000D01*
X733834Y218834D01*
X748834Y203834D01*
X750000Y203350D01*
X829317D01*
X873350Y159317D01*
X873350Y102586D01*
X871826Y102027D01*
X870547Y103009D01*
X868595Y103818D01*
X866500Y104093D01*
X853500D01*
X851405Y103818D01*
X849453Y103009D01*
X847777Y101723D01*
X846491Y100047D01*
X845683Y98095D01*
X845407Y96000D01*
X845683Y93905D01*
X846491Y91953D01*
X847777Y90277D01*
X849453Y88991D01*
X851405Y88183D01*
X853500Y87907D01*
X866500D01*
X868595Y88183D01*
X868765Y88253D01*
X869628Y86961D01*
X854317Y71650D01*
X250683D01*
X231650Y90683D01*
Y155000D01*
X231166Y156166D01*
X211166Y176166D01*
X210000Y176650D01*
X170000Y176650D01*
X168834Y176166D01*
X143834Y151166D01*
X143350Y150000D01*
Y40000D01*
X143834Y38834D01*
X163834Y18834D01*
X163834Y18834D01*
X181259Y1408D01*
X180676Y0D01*
X0D01*
Y735000D01*
X970000D01*
Y0D01*
D02*
G37*
%LPC*%
G36*
X941726Y727524D02*
X938274D01*
X934889Y726851D01*
X931699Y725530D01*
X928829Y723612D01*
X926388Y721171D01*
X924470Y718301D01*
X923149Y715111D01*
X922476Y711726D01*
Y708274D01*
X923149Y704889D01*
X924470Y701699D01*
X926388Y698829D01*
X928829Y696388D01*
X931699Y694470D01*
X934889Y693149D01*
X938274Y692476D01*
X941726D01*
X945111Y693149D01*
X948301Y694470D01*
X951171Y696388D01*
X953612Y698829D01*
X955530Y701699D01*
X956851Y704889D01*
X957524Y708274D01*
Y711726D01*
X956851Y715111D01*
X955530Y718301D01*
X953612Y721171D01*
X951171Y723612D01*
X948301Y725530D01*
X945111Y726851D01*
X941726Y727524D01*
D02*
G37*
G36*
X26726D02*
X23274D01*
X19888Y726851D01*
X16699Y725530D01*
X13829Y723612D01*
X11388Y721171D01*
X9470Y718301D01*
X8149Y715111D01*
X7476Y711726D01*
Y708274D01*
X8149Y704889D01*
X9470Y701699D01*
X11388Y698829D01*
X13829Y696388D01*
X16699Y694470D01*
X19888Y693149D01*
X23274Y692476D01*
X26726D01*
X30111Y693149D01*
X33301Y694470D01*
X36171Y696388D01*
X38612Y698829D01*
X40530Y701699D01*
X41851Y704889D01*
X42524Y708274D01*
Y711726D01*
X41851Y715111D01*
X40530Y718301D01*
X38612Y721171D01*
X36171Y723612D01*
X33301Y725530D01*
X30111Y726851D01*
X26726Y727524D01*
D02*
G37*
G36*
X878750Y705363D02*
X871250D01*
X868568Y705010D01*
X866069Y703974D01*
X863923Y702327D01*
X862276Y700181D01*
X861240Y697682D01*
X860887Y695000D01*
X861240Y692318D01*
X862276Y689819D01*
X863923Y687673D01*
X866069Y686026D01*
X868568Y684990D01*
X871250Y684637D01*
X878750D01*
X881432Y684990D01*
X883931Y686026D01*
X886077Y687673D01*
X887724Y689819D01*
X888760Y692318D01*
X889113Y695000D01*
X888760Y697682D01*
X887724Y700181D01*
X886077Y702327D01*
X883931Y703974D01*
X881432Y705010D01*
X878750Y705363D01*
D02*
G37*
G36*
X788750D02*
X781250D01*
X778568Y705010D01*
X776069Y703974D01*
X773923Y702327D01*
X772276Y700181D01*
X771240Y697682D01*
X770887Y695000D01*
X771240Y692318D01*
X772276Y689819D01*
X773923Y687673D01*
X776069Y686026D01*
X778568Y684990D01*
X781250Y684637D01*
X788750D01*
X791432Y684990D01*
X793931Y686026D01*
X796077Y687673D01*
X797724Y689819D01*
X798760Y692318D01*
X799113Y695000D01*
X798760Y697682D01*
X797724Y700181D01*
X796077Y702327D01*
X793931Y703974D01*
X791432Y705010D01*
X788750Y705363D01*
D02*
G37*
G36*
X693750D02*
X686250D01*
X683568Y705010D01*
X681069Y703974D01*
X678923Y702327D01*
X677276Y700181D01*
X676240Y697682D01*
X675887Y695000D01*
X676240Y692318D01*
X677276Y689819D01*
X678923Y687673D01*
X681069Y686026D01*
X683568Y684990D01*
X686250Y684637D01*
X693750D01*
X696432Y684990D01*
X698931Y686026D01*
X701077Y687673D01*
X702724Y689819D01*
X703760Y692318D01*
X704113Y695000D01*
X703760Y697682D01*
X702724Y700181D01*
X701077Y702327D01*
X698931Y703974D01*
X696432Y705010D01*
X693750Y705363D01*
D02*
G37*
G36*
Y681387D02*
X691270D01*
Y671270D01*
X704970D01*
X704749Y672947D01*
X703612Y675694D01*
X701802Y678052D01*
X699444Y679862D01*
X696697Y680999D01*
X693750Y681387D01*
D02*
G37*
G36*
X688730D02*
X686250D01*
X683303Y680999D01*
X680556Y679862D01*
X678198Y678052D01*
X676388Y675694D01*
X675251Y672947D01*
X675030Y671270D01*
X688730D01*
Y681387D01*
D02*
G37*
G36*
X788750D02*
X786270D01*
Y671270D01*
X799970D01*
X799749Y672947D01*
X798612Y675694D01*
X796802Y678052D01*
X794444Y679862D01*
X791697Y680999D01*
X788750Y681387D01*
D02*
G37*
G36*
X783730D02*
X781250D01*
X778303Y680999D01*
X775556Y679862D01*
X773198Y678052D01*
X771388Y675694D01*
X770251Y672947D01*
X770030Y671270D01*
X783730D01*
Y681387D01*
D02*
G37*
G36*
X878750D02*
X876270D01*
Y671270D01*
X889970D01*
X889749Y672947D01*
X888612Y675694D01*
X886802Y678052D01*
X884444Y679862D01*
X881697Y680999D01*
X878750Y681387D01*
D02*
G37*
G36*
X873730D02*
X871250D01*
X868303Y680999D01*
X865556Y679862D01*
X863198Y678052D01*
X861388Y675694D01*
X860251Y672947D01*
X860030Y671270D01*
X873730D01*
Y681387D01*
D02*
G37*
G36*
X889970Y668730D02*
X876270D01*
Y658613D01*
X878750D01*
X881697Y659001D01*
X884444Y660138D01*
X886802Y661948D01*
X888612Y664306D01*
X889749Y667053D01*
X889970Y668730D01*
D02*
G37*
G36*
X873730D02*
X860030D01*
X860251Y667053D01*
X861388Y664306D01*
X863198Y661948D01*
X865556Y660138D01*
X868303Y659001D01*
X871250Y658613D01*
X873730D01*
Y668730D01*
D02*
G37*
G36*
X799970Y668730D02*
X786270D01*
Y658613D01*
X788750D01*
X791697Y659001D01*
X794444Y660138D01*
X796802Y661948D01*
X798612Y664306D01*
X799749Y667053D01*
X799970Y668730D01*
D02*
G37*
G36*
X783730D02*
X770030D01*
X770251Y667053D01*
X771388Y664306D01*
X773198Y661948D01*
X775556Y660138D01*
X778303Y659001D01*
X781250Y658613D01*
X783730D01*
Y668730D01*
D02*
G37*
G36*
X704970Y668730D02*
X691270D01*
Y658613D01*
X693750D01*
X696697Y659001D01*
X699444Y660138D01*
X701802Y661948D01*
X703612Y664306D01*
X704749Y667053D01*
X704970Y668730D01*
D02*
G37*
G36*
X688730D02*
X675030D01*
X675251Y667053D01*
X676388Y664306D01*
X678198Y661948D01*
X680556Y660138D01*
X683303Y659001D01*
X686250Y658613D01*
X688730D01*
Y668730D01*
D02*
G37*
G36*
X326738Y657560D02*
X326670D01*
Y648670D01*
X335560D01*
Y648738D01*
X334868Y651322D01*
X333530Y653638D01*
X331638Y655530D01*
X329322Y656868D01*
X326738Y657560D01*
D02*
G37*
G36*
X324130D02*
X324062D01*
X321478Y656868D01*
X319162Y655530D01*
X317270Y653638D01*
X315932Y651322D01*
X315240Y648738D01*
Y648670D01*
X324130D01*
Y657560D01*
D02*
G37*
G36*
X377404Y656544D02*
X374996D01*
X372671Y655921D01*
X370586Y654717D01*
X368883Y653015D01*
X367679Y650929D01*
X367056Y648604D01*
Y646196D01*
X367679Y643870D01*
X368883Y641786D01*
X370586Y640083D01*
X372671Y638879D01*
X374996Y638256D01*
X377404D01*
X379729Y638879D01*
X381815Y640083D01*
X383517Y641786D01*
X384721Y643870D01*
X385344Y646196D01*
Y648604D01*
X384721Y650929D01*
X383517Y653015D01*
X381815Y654717D01*
X379729Y655921D01*
X377404Y656544D01*
D02*
G37*
G36*
X352004D02*
X349596D01*
X347271Y655921D01*
X345186Y654717D01*
X343483Y653015D01*
X342279Y650929D01*
X341656Y648604D01*
Y646196D01*
X342279Y643870D01*
X343483Y641786D01*
X345186Y640083D01*
X347271Y638879D01*
X349596Y638256D01*
X352004D01*
X354329Y638879D01*
X356415Y640083D01*
X358117Y641786D01*
X359321Y643870D01*
X359944Y646196D01*
Y648604D01*
X359321Y650929D01*
X358117Y653015D01*
X356415Y654717D01*
X354329Y655921D01*
X352004Y656544D01*
D02*
G37*
G36*
X301204D02*
X298796D01*
X296471Y655921D01*
X294386Y654717D01*
X292683Y653015D01*
X291479Y650929D01*
X290856Y648604D01*
Y646196D01*
X291479Y643870D01*
X292683Y641786D01*
X294386Y640083D01*
X296471Y638879D01*
X298796Y638256D01*
X301204D01*
X303529Y638879D01*
X305615Y640083D01*
X307317Y641786D01*
X308521Y643870D01*
X309144Y646196D01*
Y648604D01*
X308521Y650929D01*
X307317Y653015D01*
X305615Y654717D01*
X303529Y655921D01*
X301204Y656544D01*
D02*
G37*
G36*
X275804D02*
X273396D01*
X271071Y655921D01*
X268986Y654717D01*
X267283Y653015D01*
X266079Y650929D01*
X265456Y648604D01*
Y646196D01*
X266079Y643870D01*
X267283Y641786D01*
X268986Y640083D01*
X271071Y638879D01*
X273396Y638256D01*
X275804D01*
X278130Y638879D01*
X280215Y640083D01*
X281917Y641786D01*
X283121Y643870D01*
X283744Y646196D01*
Y648604D01*
X283121Y650929D01*
X281917Y653015D01*
X280215Y654717D01*
X278130Y655921D01*
X275804Y656544D01*
D02*
G37*
G36*
X250404D02*
X247996D01*
X245671Y655921D01*
X243585Y654717D01*
X241883Y653015D01*
X240679Y650929D01*
X240056Y648604D01*
Y646196D01*
X240679Y643870D01*
X241883Y641786D01*
X243585Y640083D01*
X245671Y638879D01*
X247996Y638256D01*
X250404D01*
X252729Y638879D01*
X254815Y640083D01*
X256517Y641786D01*
X257721Y643870D01*
X258344Y646196D01*
Y648604D01*
X257721Y650929D01*
X256517Y653015D01*
X254815Y654717D01*
X252729Y655921D01*
X250404Y656544D01*
D02*
G37*
G36*
X225004D02*
X222596D01*
X220271Y655921D01*
X218186Y654717D01*
X216483Y653015D01*
X215279Y650929D01*
X214656Y648604D01*
Y646196D01*
X215279Y643870D01*
X216483Y641786D01*
X218186Y640083D01*
X220271Y638879D01*
X222596Y638256D01*
X225004D01*
X227330Y638879D01*
X229415Y640083D01*
X231117Y641786D01*
X232321Y643870D01*
X232944Y646196D01*
Y648604D01*
X232321Y650929D01*
X231117Y653015D01*
X229415Y654717D01*
X227330Y655921D01*
X225004Y656544D01*
D02*
G37*
G36*
X199604D02*
X197196D01*
X194871Y655921D01*
X192785Y654717D01*
X191083Y653015D01*
X189879Y650929D01*
X189256Y648604D01*
Y646196D01*
X189879Y643870D01*
X191083Y641786D01*
X192785Y640083D01*
X194871Y638879D01*
X197196Y638256D01*
X199604D01*
X201929Y638879D01*
X204015Y640083D01*
X205717Y641786D01*
X206921Y643870D01*
X207544Y646196D01*
Y648604D01*
X206921Y650929D01*
X205717Y653015D01*
X204015Y654717D01*
X201929Y655921D01*
X199604Y656544D01*
D02*
G37*
G36*
X174204D02*
X171796D01*
X169471Y655921D01*
X167386Y654717D01*
X165683Y653015D01*
X164479Y650929D01*
X163856Y648604D01*
Y646196D01*
X164479Y643870D01*
X165683Y641786D01*
X167386Y640083D01*
X169471Y638879D01*
X171796Y638256D01*
X174204D01*
X176530Y638879D01*
X178615Y640083D01*
X180317Y641786D01*
X181521Y643870D01*
X182144Y646196D01*
Y648604D01*
X181521Y650929D01*
X180317Y653015D01*
X178615Y654717D01*
X176530Y655921D01*
X174204Y656544D01*
D02*
G37*
G36*
X148804D02*
X146396D01*
X144071Y655921D01*
X141986Y654717D01*
X140283Y653015D01*
X139079Y650929D01*
X138456Y648604D01*
Y646196D01*
X139079Y643870D01*
X140283Y641786D01*
X141986Y640083D01*
X144071Y638879D01*
X146396Y638256D01*
X148804D01*
X151130Y638879D01*
X153215Y640083D01*
X154917Y641786D01*
X156121Y643870D01*
X156744Y646196D01*
Y648604D01*
X156121Y650929D01*
X154917Y653015D01*
X153215Y654717D01*
X151130Y655921D01*
X148804Y656544D01*
D02*
G37*
G36*
X123404D02*
X120996D01*
X118671Y655921D01*
X116586Y654717D01*
X114883Y653015D01*
X113679Y650929D01*
X113056Y648604D01*
Y646196D01*
X113679Y643870D01*
X114883Y641786D01*
X116586Y640083D01*
X118671Y638879D01*
X120996Y638256D01*
X123404D01*
X125730Y638879D01*
X127815Y640083D01*
X129517Y641786D01*
X130721Y643870D01*
X131344Y646196D01*
Y648604D01*
X130721Y650929D01*
X129517Y653015D01*
X127815Y654717D01*
X125730Y655921D01*
X123404Y656544D01*
D02*
G37*
G36*
X98004D02*
X95596D01*
X93271Y655921D01*
X91186Y654717D01*
X89483Y653015D01*
X88279Y650929D01*
X87656Y648604D01*
Y646196D01*
X88279Y643870D01*
X89483Y641786D01*
X91186Y640083D01*
X93271Y638879D01*
X95596Y638256D01*
X98004D01*
X100330Y638879D01*
X102415Y640083D01*
X104117Y641786D01*
X105321Y643870D01*
X105944Y646196D01*
Y648604D01*
X105321Y650929D01*
X104117Y653015D01*
X102415Y654717D01*
X100330Y655921D01*
X98004Y656544D01*
D02*
G37*
G36*
X72604D02*
X70196D01*
X67871Y655921D01*
X65785Y654717D01*
X64083Y653015D01*
X62879Y650929D01*
X62256Y648604D01*
Y646196D01*
X62879Y643870D01*
X64083Y641786D01*
X65785Y640083D01*
X67871Y638879D01*
X70196Y638256D01*
X72604D01*
X74929Y638879D01*
X77015Y640083D01*
X78717Y641786D01*
X79921Y643870D01*
X80544Y646196D01*
Y648604D01*
X79921Y650929D01*
X78717Y653015D01*
X77015Y654717D01*
X74929Y655921D01*
X72604Y656544D01*
D02*
G37*
G36*
X47204D02*
X44796D01*
X42471Y655921D01*
X40385Y654717D01*
X38683Y653015D01*
X37479Y650929D01*
X36856Y648604D01*
Y646196D01*
X37479Y643870D01*
X38683Y641786D01*
X40385Y640083D01*
X42471Y638879D01*
X44796Y638256D01*
X47204D01*
X49530Y638879D01*
X51615Y640083D01*
X53317Y641786D01*
X54521Y643870D01*
X55144Y646196D01*
Y648604D01*
X54521Y650929D01*
X53317Y653015D01*
X51615Y654717D01*
X49530Y655921D01*
X47204Y656544D01*
D02*
G37*
G36*
X335560Y646130D02*
X326670D01*
Y637240D01*
X326738D01*
X329322Y637932D01*
X331638Y639270D01*
X333530Y641162D01*
X334868Y643478D01*
X335560Y646062D01*
Y646130D01*
D02*
G37*
G36*
X324130D02*
X315240D01*
Y646062D01*
X315932Y643478D01*
X317270Y641162D01*
X319162Y639270D01*
X321478Y637932D01*
X324062Y637240D01*
X324130D01*
Y646130D01*
D02*
G37*
G36*
X878750Y655363D02*
X871250D01*
X868568Y655010D01*
X866069Y653974D01*
X863923Y652327D01*
X862276Y650181D01*
X861240Y647682D01*
X860887Y645000D01*
X861240Y642318D01*
X862276Y639819D01*
X863923Y637673D01*
X866069Y636026D01*
X868568Y634991D01*
X871250Y634637D01*
X878750D01*
X881432Y634991D01*
X883931Y636026D01*
X886077Y637673D01*
X887724Y639819D01*
X888760Y642318D01*
X889113Y645000D01*
X888760Y647682D01*
X887724Y650181D01*
X886077Y652327D01*
X883931Y653974D01*
X881432Y655010D01*
X878750Y655363D01*
D02*
G37*
G36*
X788750D02*
X781250D01*
X778568Y655010D01*
X776069Y653974D01*
X773923Y652327D01*
X772276Y650181D01*
X771240Y647682D01*
X770887Y645000D01*
X771240Y642318D01*
X772276Y639819D01*
X773923Y637673D01*
X776069Y636026D01*
X778568Y634991D01*
X781250Y634637D01*
X788750D01*
X791432Y634991D01*
X793931Y636026D01*
X796077Y637673D01*
X797724Y639819D01*
X798760Y642318D01*
X799113Y645000D01*
X798760Y647682D01*
X797724Y650181D01*
X796077Y652327D01*
X793931Y653974D01*
X791432Y655010D01*
X788750Y655363D01*
D02*
G37*
G36*
X693750D02*
X686250D01*
X683568Y655010D01*
X681069Y653974D01*
X678923Y652327D01*
X677276Y650181D01*
X676240Y647682D01*
X675887Y645000D01*
X676240Y642318D01*
X677276Y639819D01*
X678923Y637673D01*
X681069Y636026D01*
X683568Y634991D01*
X686250Y634637D01*
X693750D01*
X696432Y634991D01*
X698931Y636026D01*
X701077Y637673D01*
X702724Y639819D01*
X703760Y642318D01*
X704113Y645000D01*
X703760Y647682D01*
X702724Y650181D01*
X701077Y652327D01*
X698931Y653974D01*
X696432Y655010D01*
X693750Y655363D01*
D02*
G37*
G36*
X544217Y655424D02*
X541183D01*
X538252Y654639D01*
X535624Y653121D01*
X533479Y650976D01*
X531961Y648348D01*
X531176Y645417D01*
Y642383D01*
X531961Y639452D01*
X533479Y636824D01*
X535624Y634678D01*
X538252Y633161D01*
X541183Y632376D01*
X544217D01*
X547148Y633161D01*
X549776Y634678D01*
X551922Y636824D01*
X553439Y639452D01*
X554224Y642383D01*
Y645417D01*
X553439Y648348D01*
X551922Y650976D01*
X549776Y653121D01*
X547148Y654639D01*
X544217Y655424D01*
D02*
G37*
G36*
X518817D02*
X515783D01*
X512852Y654639D01*
X510224Y653121D01*
X508078Y650976D01*
X506561Y648348D01*
X505776Y645417D01*
Y642383D01*
X506561Y639452D01*
X508078Y636824D01*
X510224Y634678D01*
X512852Y633161D01*
X515783Y632376D01*
X518817D01*
X521748Y633161D01*
X524376Y634678D01*
X526521Y636824D01*
X528039Y639452D01*
X528824Y642383D01*
Y645417D01*
X528039Y648348D01*
X526521Y650976D01*
X524376Y653121D01*
X521748Y654639D01*
X518817Y655424D01*
D02*
G37*
G36*
X555000Y674103D02*
X515000D01*
X513430Y673791D01*
X512099Y672901D01*
X398301Y559103D01*
X258400D01*
X256830Y558791D01*
X255499Y557901D01*
X201290Y503692D01*
X199604Y504144D01*
X197196D01*
X194871Y503521D01*
X192785Y502317D01*
X191083Y500615D01*
X189879Y498530D01*
X189256Y496204D01*
Y493796D01*
X189879Y491470D01*
X191083Y489385D01*
X192785Y487683D01*
X194871Y486479D01*
X197196Y485856D01*
X199604D01*
X201929Y486479D01*
X204015Y487683D01*
X205717Y489385D01*
X206921Y491470D01*
X207544Y493796D01*
Y496204D01*
X207092Y497890D01*
X260100Y550897D01*
X400000D01*
X401570Y551209D01*
X402901Y552099D01*
X516699Y665897D01*
X553301D01*
X555897Y663301D01*
Y637499D01*
X547458Y629060D01*
X547148Y629239D01*
X544217Y630024D01*
X541183D01*
X538252Y629239D01*
X535624Y627721D01*
X533479Y625576D01*
X531961Y622948D01*
X531176Y620017D01*
Y616983D01*
X531961Y614052D01*
X533479Y611424D01*
X535624Y609278D01*
X538252Y607761D01*
X541183Y606976D01*
X544217D01*
X547148Y607761D01*
X549776Y609278D01*
X551922Y611424D01*
X553439Y614052D01*
X554224Y616983D01*
Y620017D01*
X553439Y622948D01*
X553260Y623258D01*
X562901Y632899D01*
X563791Y634230D01*
X564103Y635800D01*
Y665000D01*
X563791Y666570D01*
X562901Y667901D01*
X557901Y672901D01*
X556570Y673791D01*
X555000Y674103D01*
D02*
G37*
G36*
X878750Y630363D02*
X871250D01*
X868568Y630009D01*
X866069Y628974D01*
X863923Y627327D01*
X862276Y625181D01*
X861240Y622682D01*
X860887Y620000D01*
X861240Y617318D01*
X862276Y614819D01*
X863923Y612673D01*
X866069Y611026D01*
X868568Y609991D01*
X871250Y609637D01*
X878750D01*
X881432Y609991D01*
X883931Y611026D01*
X886077Y612673D01*
X887724Y614819D01*
X888760Y617318D01*
X889113Y620000D01*
X888760Y622682D01*
X887724Y625181D01*
X886077Y627327D01*
X883931Y628974D01*
X881432Y630009D01*
X878750Y630363D01*
D02*
G37*
G36*
X788750D02*
X781250D01*
X778568Y630009D01*
X776069Y628974D01*
X773923Y627327D01*
X772276Y625181D01*
X771240Y622682D01*
X770887Y620000D01*
X771240Y617318D01*
X772276Y614819D01*
X773923Y612673D01*
X776069Y611026D01*
X778568Y609991D01*
X781250Y609637D01*
X788750D01*
X791432Y609991D01*
X793931Y611026D01*
X796077Y612673D01*
X797724Y614819D01*
X798760Y617318D01*
X799113Y620000D01*
X798760Y622682D01*
X797724Y625181D01*
X796077Y627327D01*
X793931Y628974D01*
X791432Y630009D01*
X788750Y630363D01*
D02*
G37*
G36*
X693750D02*
X686250D01*
X683568Y630009D01*
X681069Y628974D01*
X678923Y627327D01*
X677276Y625181D01*
X676240Y622682D01*
X675887Y620000D01*
X676240Y617318D01*
X677276Y614819D01*
X678923Y612673D01*
X681069Y611026D01*
X683568Y609991D01*
X686250Y609637D01*
X693750D01*
X696432Y609991D01*
X698931Y611026D01*
X701077Y612673D01*
X702724Y614819D01*
X703760Y617318D01*
X704113Y620000D01*
X703760Y622682D01*
X702724Y625181D01*
X701077Y627327D01*
X698931Y628974D01*
X696432Y630009D01*
X693750Y630363D01*
D02*
G37*
G36*
X518817Y630024D02*
X515783D01*
X512852Y629239D01*
X510224Y627721D01*
X508078Y625576D01*
X506561Y622948D01*
X505776Y620017D01*
Y616983D01*
X506561Y614052D01*
X508078Y611424D01*
X510224Y609278D01*
X512852Y607761D01*
X515783Y606976D01*
X518817D01*
X521748Y607761D01*
X524376Y609278D01*
X526521Y611424D01*
X528039Y614052D01*
X528824Y616983D01*
Y620017D01*
X528039Y622948D01*
X526521Y625576D01*
X524376Y627721D01*
X521748Y629239D01*
X518817Y630024D01*
D02*
G37*
G36*
X560000Y689103D02*
X505000D01*
X503430Y688791D01*
X502099Y687901D01*
X388301Y574103D01*
X222600D01*
X221030Y573791D01*
X219699Y572901D01*
X150490Y503692D01*
X148804Y504144D01*
X146396D01*
X144071Y503521D01*
X141986Y502317D01*
X140283Y500615D01*
X139079Y498530D01*
X138456Y496204D01*
Y493796D01*
X139079Y491470D01*
X140283Y489385D01*
X141986Y487683D01*
X144071Y486479D01*
X146396Y485856D01*
X148804D01*
X151130Y486479D01*
X153215Y487683D01*
X154917Y489385D01*
X156121Y491470D01*
X156744Y493796D01*
Y496204D01*
X156292Y497890D01*
X224300Y565897D01*
X390000D01*
X391570Y566209D01*
X392901Y567099D01*
X506699Y680897D01*
X558301D01*
X570897Y668300D01*
Y627099D01*
X547458Y603660D01*
X547148Y603839D01*
X544217Y604624D01*
X541183D01*
X538252Y603839D01*
X535624Y602322D01*
X533479Y600176D01*
X531961Y597548D01*
X531176Y594617D01*
Y591583D01*
X531961Y588652D01*
X533479Y586024D01*
X535624Y583879D01*
X538252Y582361D01*
X541183Y581576D01*
X544217D01*
X547148Y582361D01*
X549776Y583879D01*
X551922Y586024D01*
X553439Y588652D01*
X554224Y591583D01*
Y594617D01*
X553439Y597548D01*
X553260Y597858D01*
X577901Y622499D01*
X578791Y623830D01*
X579103Y625400D01*
Y670000D01*
X578791Y671570D01*
X577901Y672901D01*
X562901Y687901D01*
X561570Y688791D01*
X560000Y689103D01*
D02*
G37*
G36*
X878750Y605363D02*
X871250D01*
X868568Y605009D01*
X866069Y603974D01*
X863923Y602327D01*
X862276Y600181D01*
X861240Y597682D01*
X860887Y595000D01*
X861240Y592318D01*
X862276Y589819D01*
X863923Y587673D01*
X866069Y586026D01*
X868568Y584991D01*
X871250Y584637D01*
X878750D01*
X881432Y584991D01*
X883931Y586026D01*
X886077Y587673D01*
X887724Y589819D01*
X888760Y592318D01*
X889113Y595000D01*
X888760Y597682D01*
X887724Y600181D01*
X886077Y602327D01*
X883931Y603974D01*
X881432Y605009D01*
X878750Y605363D01*
D02*
G37*
G36*
X788750D02*
X781250D01*
X778568Y605009D01*
X776069Y603974D01*
X773923Y602327D01*
X772276Y600181D01*
X771240Y597682D01*
X770887Y595000D01*
X771240Y592318D01*
X772276Y589819D01*
X773923Y587673D01*
X776069Y586026D01*
X778568Y584991D01*
X781250Y584637D01*
X788750D01*
X791432Y584991D01*
X793931Y586026D01*
X796077Y587673D01*
X797724Y589819D01*
X798760Y592318D01*
X799113Y595000D01*
X798760Y597682D01*
X797724Y600181D01*
X796077Y602327D01*
X793931Y603974D01*
X791432Y605009D01*
X788750Y605363D01*
D02*
G37*
G36*
X693750D02*
X686250D01*
X683568Y605009D01*
X681069Y603974D01*
X678923Y602327D01*
X677276Y600181D01*
X676240Y597682D01*
X675887Y595000D01*
X676240Y592318D01*
X677276Y589819D01*
X678923Y587673D01*
X681069Y586026D01*
X683568Y584991D01*
X686250Y584637D01*
X693750D01*
X696432Y584991D01*
X698931Y586026D01*
X701077Y587673D01*
X702724Y589819D01*
X703760Y592318D01*
X704113Y595000D01*
X703760Y597682D01*
X702724Y600181D01*
X701077Y602327D01*
X698931Y603974D01*
X696432Y605009D01*
X693750Y605363D01*
D02*
G37*
G36*
X518817Y604624D02*
X515783D01*
X512852Y603839D01*
X510224Y602322D01*
X508078Y600176D01*
X506561Y597548D01*
X505776Y594617D01*
Y591583D01*
X506561Y588652D01*
X508078Y586024D01*
X510224Y583879D01*
X512852Y582361D01*
X515783Y581576D01*
X518817D01*
X521748Y582361D01*
X524376Y583879D01*
X526521Y586024D01*
X528039Y588652D01*
X528824Y591583D01*
Y594617D01*
X528039Y597548D01*
X526521Y600176D01*
X524376Y602322D01*
X521748Y603839D01*
X518817Y604624D01*
D02*
G37*
G36*
X570000Y699103D02*
X500000D01*
X498430Y698791D01*
X497099Y697901D01*
X393301Y594103D01*
X217200D01*
X215630Y593791D01*
X214299Y592901D01*
X125090Y503692D01*
X123404Y504144D01*
X120996D01*
X118671Y503521D01*
X116586Y502317D01*
X114883Y500615D01*
X113679Y498530D01*
X113056Y496204D01*
Y493796D01*
X113679Y491470D01*
X114883Y489385D01*
X116586Y487683D01*
X118671Y486479D01*
X120996Y485856D01*
X123404D01*
X125730Y486479D01*
X127815Y487683D01*
X129517Y489385D01*
X130721Y491470D01*
X131344Y493796D01*
Y496204D01*
X130892Y497890D01*
X218899Y585897D01*
X395000D01*
X396570Y586209D01*
X397901Y587099D01*
X501699Y690897D01*
X568301D01*
X585897Y673300D01*
Y616699D01*
X547458Y578260D01*
X547148Y578439D01*
X544217Y579224D01*
X541183D01*
X538252Y578439D01*
X535624Y576922D01*
X533479Y574776D01*
X531961Y572148D01*
X531176Y569217D01*
Y566183D01*
X531961Y563252D01*
X533479Y560624D01*
X535624Y558479D01*
X538252Y556961D01*
X541183Y556176D01*
X544217D01*
X547148Y556961D01*
X549776Y558479D01*
X551922Y560624D01*
X553439Y563252D01*
X554224Y566183D01*
Y569217D01*
X553439Y572148D01*
X553260Y572458D01*
X592901Y612099D01*
X593791Y613430D01*
X594103Y615000D01*
Y675000D01*
X593791Y676570D01*
X592901Y677901D01*
X572901Y697901D01*
X571570Y698791D01*
X570000Y699103D01*
D02*
G37*
G36*
X518817Y579224D02*
X515783D01*
X512852Y578439D01*
X510224Y576922D01*
X508078Y574776D01*
X506561Y572148D01*
X505776Y569217D01*
Y566183D01*
X506561Y563252D01*
X508078Y560624D01*
X510224Y558479D01*
X512852Y556961D01*
X515783Y556176D01*
X518817D01*
X521748Y556961D01*
X524376Y558479D01*
X526521Y560624D01*
X528039Y563252D01*
X528824Y566183D01*
Y569217D01*
X528039Y572148D01*
X526521Y574776D01*
X524376Y576922D01*
X521748Y578439D01*
X518817Y579224D01*
D02*
G37*
G36*
X575000Y709103D02*
X495000D01*
X493430Y708791D01*
X492099Y707901D01*
X388301Y604103D01*
X201800D01*
X200230Y603791D01*
X198899Y602901D01*
X99690Y503692D01*
X98004Y504144D01*
X95596D01*
X93271Y503521D01*
X91186Y502317D01*
X89483Y500615D01*
X88279Y498530D01*
X87656Y496204D01*
Y493796D01*
X88279Y491470D01*
X89483Y489385D01*
X91186Y487683D01*
X93271Y486479D01*
X95596Y485856D01*
X98004D01*
X100330Y486479D01*
X102415Y487683D01*
X104117Y489385D01*
X105321Y491470D01*
X105944Y493796D01*
Y496204D01*
X105492Y497890D01*
X203499Y595897D01*
X390000D01*
X391570Y596209D01*
X392901Y597099D01*
X496699Y700897D01*
X573301D01*
X595897Y678300D01*
Y601300D01*
X547458Y552860D01*
X547148Y553039D01*
X544217Y553824D01*
X541183D01*
X538252Y553039D01*
X535624Y551521D01*
X533479Y549376D01*
X531961Y546748D01*
X531176Y543817D01*
Y540783D01*
X531961Y537852D01*
X533479Y535224D01*
X535624Y533078D01*
X538252Y531561D01*
X541183Y530776D01*
X544217D01*
X547148Y531561D01*
X549776Y533078D01*
X551922Y535224D01*
X553439Y537852D01*
X554224Y540783D01*
Y543817D01*
X553439Y546748D01*
X553260Y547058D01*
X602901Y596699D01*
X603791Y598030D01*
X604103Y599600D01*
Y680000D01*
X603791Y681570D01*
X602901Y682901D01*
X577901Y707901D01*
X576570Y708791D01*
X575000Y709103D01*
D02*
G37*
G36*
X518817Y553824D02*
X515783D01*
X512852Y553039D01*
X510224Y551521D01*
X508078Y549376D01*
X506561Y546748D01*
X505776Y543817D01*
Y540783D01*
X506561Y537852D01*
X508078Y535224D01*
X510224Y533078D01*
X512852Y531561D01*
X515783Y530776D01*
X518817D01*
X521748Y531561D01*
X524376Y533078D01*
X526521Y535224D01*
X528039Y537852D01*
X528824Y540783D01*
Y543817D01*
X528039Y546748D01*
X526521Y549376D01*
X524376Y551521D01*
X521748Y553039D01*
X518817Y553824D01*
D02*
G37*
G36*
X585000Y719103D02*
X490131D01*
X488561Y718791D01*
X487230Y717901D01*
X412152Y642823D01*
X410744Y643407D01*
Y656544D01*
X392456D01*
Y638256D01*
X405593D01*
X406176Y636848D01*
X383431Y614103D01*
X186400D01*
X184830Y613791D01*
X183499Y612901D01*
X74290Y503692D01*
X72604Y504144D01*
X70196D01*
X67871Y503521D01*
X65785Y502317D01*
X64083Y500615D01*
X62879Y498530D01*
X62256Y496204D01*
Y493796D01*
X62879Y491470D01*
X64083Y489385D01*
X65785Y487683D01*
X67871Y486479D01*
X70196Y485856D01*
X72604D01*
X74929Y486479D01*
X77015Y487683D01*
X78717Y489385D01*
X79921Y491470D01*
X80544Y493796D01*
Y496204D01*
X80092Y497890D01*
X188099Y605897D01*
X385131D01*
X386701Y606209D01*
X388032Y607099D01*
X491830Y710897D01*
X583301D01*
X610897Y683301D01*
Y590899D01*
X547458Y527460D01*
X547148Y527639D01*
X544217Y528424D01*
X541183D01*
X538252Y527639D01*
X535624Y526121D01*
X533479Y523976D01*
X531961Y521348D01*
X531176Y518417D01*
Y515383D01*
X531961Y512452D01*
X533479Y509824D01*
X535624Y507678D01*
X538252Y506161D01*
X541183Y505376D01*
X544217D01*
X547148Y506161D01*
X549776Y507678D01*
X551922Y509824D01*
X553439Y512452D01*
X554224Y515383D01*
Y518417D01*
X553439Y521348D01*
X553260Y521658D01*
X617901Y586299D01*
X618791Y587630D01*
X619103Y589200D01*
Y685000D01*
X618791Y686570D01*
X617901Y687901D01*
X587901Y717901D01*
X586570Y718791D01*
X585000Y719103D01*
D02*
G37*
G36*
X518817Y528424D02*
X515783D01*
X512852Y527639D01*
X510224Y526121D01*
X508078Y523976D01*
X506561Y521348D01*
X505776Y518417D01*
Y515383D01*
X506561Y512452D01*
X508078Y509824D01*
X510224Y507678D01*
X512852Y506161D01*
X515783Y505376D01*
X518817D01*
X521748Y506161D01*
X524376Y507678D01*
X526521Y509824D01*
X528039Y512452D01*
X528824Y515383D01*
Y518417D01*
X528039Y521348D01*
X526521Y523976D01*
X524376Y526121D01*
X521748Y527639D01*
X518817Y528424D01*
D02*
G37*
G36*
X377538Y505160D02*
X377470D01*
Y496270D01*
X386360D01*
Y496338D01*
X385668Y498922D01*
X384330Y501238D01*
X382438Y503130D01*
X380122Y504468D01*
X377538Y505160D01*
D02*
G37*
G36*
X374930D02*
X374862D01*
X372278Y504468D01*
X369962Y503130D01*
X368070Y501238D01*
X366732Y498922D01*
X366040Y496338D01*
Y496270D01*
X374930D01*
Y505160D01*
D02*
G37*
G36*
X402804Y504144D02*
X400396D01*
X398071Y503521D01*
X395985Y502317D01*
X394283Y500615D01*
X393079Y498530D01*
X392456Y496204D01*
Y493796D01*
X392908Y492110D01*
X387099Y486301D01*
X386209Y484970D01*
X385897Y483400D01*
Y400000D01*
X386209Y398430D01*
X387099Y397099D01*
X442099Y342099D01*
X443430Y341209D01*
X445000Y340897D01*
X770000D01*
X771570Y341209D01*
X772901Y342099D01*
X841528Y410726D01*
X864274D01*
Y439274D01*
X835726D01*
Y416528D01*
X768301Y349103D01*
X446699D01*
X394103Y401699D01*
Y481701D01*
X398710Y486308D01*
X400396Y485856D01*
X402804D01*
X405130Y486479D01*
X407215Y487683D01*
X408917Y489385D01*
X410121Y491470D01*
X410744Y493796D01*
Y496204D01*
X410121Y498530D01*
X408917Y500615D01*
X407215Y502317D01*
X405130Y503521D01*
X402804Y504144D01*
D02*
G37*
G36*
X352004D02*
X349596D01*
X347271Y503521D01*
X345186Y502317D01*
X343483Y500615D01*
X342279Y498530D01*
X341656Y496204D01*
Y493796D01*
X342279Y491470D01*
X343483Y489385D01*
X345186Y487683D01*
X347271Y486479D01*
X349596Y485856D01*
X352004D01*
X354329Y486479D01*
X356415Y487683D01*
X358117Y489385D01*
X359321Y491470D01*
X359944Y493796D01*
Y496204D01*
X359321Y498530D01*
X358117Y500615D01*
X356415Y502317D01*
X354329Y503521D01*
X352004Y504144D01*
D02*
G37*
G36*
X326604D02*
X324196D01*
X321871Y503521D01*
X319785Y502317D01*
X318083Y500615D01*
X316879Y498530D01*
X316256Y496204D01*
Y493796D01*
X316879Y491470D01*
X318083Y489385D01*
X319785Y487683D01*
X321871Y486479D01*
X324196Y485856D01*
X326604D01*
X328929Y486479D01*
X331015Y487683D01*
X332717Y489385D01*
X333921Y491470D01*
X334544Y493796D01*
Y496204D01*
X333921Y498530D01*
X332717Y500615D01*
X331015Y502317D01*
X328929Y503521D01*
X326604Y504144D01*
D02*
G37*
G36*
X301204D02*
X298796D01*
X296471Y503521D01*
X294386Y502317D01*
X292683Y500615D01*
X291479Y498530D01*
X290856Y496204D01*
Y493796D01*
X291479Y491470D01*
X292683Y489385D01*
X294386Y487683D01*
X296471Y486479D01*
X298796Y485856D01*
X301204D01*
X303529Y486479D01*
X305615Y487683D01*
X307317Y489385D01*
X308521Y491470D01*
X309144Y493796D01*
Y496204D01*
X308521Y498530D01*
X307317Y500615D01*
X305615Y502317D01*
X303529Y503521D01*
X301204Y504144D01*
D02*
G37*
G36*
X275804D02*
X273396D01*
X271071Y503521D01*
X268986Y502317D01*
X267283Y500615D01*
X266079Y498530D01*
X265456Y496204D01*
Y493796D01*
X266079Y491470D01*
X267283Y489385D01*
X268986Y487683D01*
X271071Y486479D01*
X273396Y485856D01*
X275804D01*
X278130Y486479D01*
X280215Y487683D01*
X281917Y489385D01*
X283121Y491470D01*
X283744Y493796D01*
Y496204D01*
X283121Y498530D01*
X281917Y500615D01*
X280215Y502317D01*
X278130Y503521D01*
X275804Y504144D01*
D02*
G37*
G36*
X250404D02*
X247996D01*
X245671Y503521D01*
X243585Y502317D01*
X241883Y500615D01*
X240679Y498530D01*
X240056Y496204D01*
Y493796D01*
X240679Y491470D01*
X241883Y489385D01*
X243585Y487683D01*
X245671Y486479D01*
X247996Y485856D01*
X250404D01*
X252729Y486479D01*
X254815Y487683D01*
X256517Y489385D01*
X257721Y491470D01*
X258344Y493796D01*
Y496204D01*
X257721Y498530D01*
X256517Y500615D01*
X254815Y502317D01*
X252729Y503521D01*
X250404Y504144D01*
D02*
G37*
G36*
X225004D02*
X222596D01*
X220271Y503521D01*
X218186Y502317D01*
X216483Y500615D01*
X215279Y498530D01*
X214656Y496204D01*
Y493796D01*
X215279Y491470D01*
X216483Y489385D01*
X218186Y487683D01*
X220271Y486479D01*
X222596Y485856D01*
X225004D01*
X227330Y486479D01*
X229415Y487683D01*
X231117Y489385D01*
X232321Y491470D01*
X232944Y493796D01*
Y496204D01*
X232321Y498530D01*
X231117Y500615D01*
X229415Y502317D01*
X227330Y503521D01*
X225004Y504144D01*
D02*
G37*
G36*
X47204D02*
X44796D01*
X42471Y503521D01*
X40385Y502317D01*
X38683Y500615D01*
X37479Y498530D01*
X36856Y496204D01*
Y493796D01*
X37479Y491470D01*
X38683Y489385D01*
X40385Y487683D01*
X42471Y486479D01*
X44796Y485856D01*
X47204D01*
X49530Y486479D01*
X51615Y487683D01*
X53317Y489385D01*
X54521Y491470D01*
X55144Y493796D01*
Y496204D01*
X54521Y498530D01*
X53317Y500615D01*
X51615Y502317D01*
X49530Y503521D01*
X47204Y504144D01*
D02*
G37*
G36*
X386360Y493730D02*
X377470D01*
Y484840D01*
X377538D01*
X380122Y485532D01*
X382438Y486870D01*
X384330Y488762D01*
X385668Y491078D01*
X386360Y493662D01*
Y493730D01*
D02*
G37*
G36*
X374930D02*
X366040D01*
Y493662D01*
X366732Y491078D01*
X368070Y488762D01*
X369962Y486870D01*
X372278Y485532D01*
X374862Y484840D01*
X374930D01*
Y493730D01*
D02*
G37*
G36*
X544217Y503024D02*
X541183D01*
X538252Y502239D01*
X535624Y500722D01*
X533479Y498576D01*
X531961Y495948D01*
X531176Y493017D01*
Y489983D01*
X531961Y487052D01*
X533479Y484424D01*
X535624Y482279D01*
X538252Y480761D01*
X540695Y480107D01*
X540665Y478537D01*
X537860Y477785D01*
X535000Y476134D01*
X532665Y473800D01*
X531015Y470940D01*
X530789Y470098D01*
X529211D01*
X528985Y470940D01*
X527335Y473800D01*
X525000Y476134D01*
X522140Y477785D01*
X519335Y478537D01*
X519305Y480107D01*
X521748Y480761D01*
X524376Y482279D01*
X526521Y484424D01*
X528039Y487052D01*
X528824Y489983D01*
Y493017D01*
X528039Y495948D01*
X526521Y498576D01*
X524376Y500722D01*
X521748Y502239D01*
X518817Y503024D01*
X515783D01*
X512852Y502239D01*
X510224Y500722D01*
X508078Y498576D01*
X506561Y495948D01*
X506469Y495603D01*
X450417D01*
X449400Y496024D01*
X447600D01*
X445937Y495335D01*
X444665Y494063D01*
X443976Y492400D01*
Y490600D01*
X444665Y488937D01*
X445937Y487665D01*
X447600Y486976D01*
X449400D01*
X450417Y487397D01*
X506469D01*
X506561Y487052D01*
X508078Y484424D01*
X510224Y482279D01*
X512852Y480761D01*
X515295Y480107D01*
X515265Y478537D01*
X512460Y477785D01*
X509600Y476134D01*
X507266Y473800D01*
X505615Y470940D01*
X504760Y467751D01*
Y467370D01*
X517300D01*
Y466100D01*
X518570D01*
Y453560D01*
X518951D01*
X522140Y454415D01*
X525000Y456065D01*
X527335Y458400D01*
X528985Y461260D01*
X529211Y462102D01*
X530789D01*
X531015Y461260D01*
X532665Y458400D01*
X535000Y456065D01*
X537860Y454415D01*
X541049Y453560D01*
X541430D01*
Y466100D01*
X542700D01*
Y467370D01*
X555240D01*
Y467751D01*
X554385Y470940D01*
X552734Y473800D01*
X550400Y476134D01*
X547540Y477785D01*
X544735Y478537D01*
X544705Y480107D01*
X547148Y480761D01*
X549776Y482279D01*
X551922Y484424D01*
X553439Y487052D01*
X554224Y489983D01*
Y490683D01*
X554544Y490897D01*
X560372D01*
X560897Y490372D01*
Y461699D01*
X548301Y449103D01*
X465000D01*
X463430Y448791D01*
X462099Y447901D01*
X443454Y429256D01*
X442437Y428835D01*
X441165Y427563D01*
X440476Y425900D01*
Y424100D01*
X441165Y422437D01*
X442437Y421165D01*
X444100Y420476D01*
X445900D01*
X447563Y421165D01*
X448835Y422437D01*
X449256Y423454D01*
X466699Y440897D01*
X550000D01*
X551570Y441209D01*
X552901Y442099D01*
X567901Y457099D01*
X568791Y458430D01*
X569103Y460000D01*
Y492071D01*
X568791Y493641D01*
X567901Y494972D01*
X564972Y497901D01*
X563641Y498791D01*
X562071Y499103D01*
X553129D01*
X551682Y498815D01*
X549776Y500722D01*
X547148Y502239D01*
X544217Y503024D01*
D02*
G37*
G36*
X555240Y464830D02*
X543970D01*
Y453560D01*
X544351D01*
X547540Y454415D01*
X550400Y456065D01*
X552734Y458400D01*
X554385Y461260D01*
X555240Y464449D01*
Y464830D01*
D02*
G37*
G36*
X516030D02*
X504760D01*
Y464449D01*
X505615Y461260D01*
X507266Y458400D01*
X509600Y456065D01*
X512460Y454415D01*
X515649Y453560D01*
X516030D01*
Y464830D01*
D02*
G37*
G36*
X951193Y464064D02*
X948807D01*
X946501Y463446D01*
X944435Y462253D01*
X942747Y460565D01*
X941554Y458498D01*
X940936Y456193D01*
Y453807D01*
X941554Y451501D01*
X942747Y449435D01*
X944435Y447747D01*
X946501Y446554D01*
X948807Y445936D01*
X951193D01*
X953499Y446554D01*
X955565Y447747D01*
X957253Y449435D01*
X958446Y451501D01*
X959064Y453807D01*
Y456193D01*
X958446Y458498D01*
X957253Y460565D01*
X955565Y462253D01*
X953499Y463446D01*
X951193Y464064D01*
D02*
G37*
G36*
X174204Y504144D02*
X171796D01*
X169471Y503521D01*
X167386Y502317D01*
X165683Y500615D01*
X164479Y498530D01*
X163856Y496204D01*
Y493796D01*
X164479Y491470D01*
X165683Y489385D01*
X167386Y487683D01*
X169471Y486479D01*
X171796Y485856D01*
X174204D01*
X175890Y486308D01*
X220099Y442099D01*
X221430Y441209D01*
X223000Y440897D01*
X248083D01*
X249100Y440476D01*
X250900D01*
X252563Y441165D01*
X253835Y442437D01*
X254524Y444100D01*
Y445900D01*
X253835Y447563D01*
X252563Y448835D01*
X250900Y449524D01*
X249100D01*
X248083Y449103D01*
X224699D01*
X181692Y492110D01*
X182144Y493796D01*
Y496204D01*
X181521Y498530D01*
X180317Y500615D01*
X178615Y502317D01*
X176530Y503521D01*
X174204Y504144D01*
D02*
G37*
G36*
X725900Y409524D02*
X724100D01*
X722437Y408835D01*
X721165Y407563D01*
X720744Y406546D01*
X708301Y394103D01*
X506917D01*
X505900Y394524D01*
X504100D01*
X502437Y393835D01*
X501165Y392563D01*
X500476Y390900D01*
Y389100D01*
X501165Y387437D01*
X502437Y386165D01*
X504100Y385476D01*
X505900D01*
X506917Y385897D01*
X710000D01*
X711570Y386209D01*
X712901Y387099D01*
X726546Y400744D01*
X727563Y401165D01*
X728835Y402437D01*
X729524Y404100D01*
Y405900D01*
X728835Y407563D01*
X727563Y408835D01*
X725900Y409524D01*
D02*
G37*
G36*
X43750Y397863D02*
X36250D01*
X33568Y397509D01*
X31069Y396474D01*
X28923Y394827D01*
X27276Y392681D01*
X26240Y390182D01*
X25887Y387500D01*
X26240Y384818D01*
X27276Y382319D01*
X28923Y380173D01*
X31069Y378526D01*
X33568Y377491D01*
X36250Y377137D01*
X43750D01*
X46432Y377491D01*
X48931Y378526D01*
X51077Y380173D01*
X52724Y382319D01*
X53759Y384818D01*
X54113Y387500D01*
X53759Y390182D01*
X52724Y392681D01*
X51077Y394827D01*
X48931Y396474D01*
X46432Y397509D01*
X43750Y397863D01*
D02*
G37*
G36*
X851506Y390290D02*
X851270D01*
Y376270D01*
X865290D01*
Y376506D01*
X864702Y379460D01*
X863550Y382243D01*
X861877Y384747D01*
X859747Y386876D01*
X857243Y388550D01*
X854460Y389702D01*
X851506Y390290D01*
D02*
G37*
G36*
X848730D02*
X848494D01*
X845540Y389702D01*
X842757Y388550D01*
X840253Y386876D01*
X838123Y384747D01*
X836450Y382243D01*
X835298Y379460D01*
X834710Y376506D01*
Y376270D01*
X848730D01*
Y390290D01*
D02*
G37*
G36*
X348730Y381340D02*
X348678D01*
X346125Y380656D01*
X343835Y379334D01*
X341966Y377465D01*
X340704Y375278D01*
X340434Y375183D01*
X340408Y375178D01*
X339072Y375194D01*
X338121Y376841D01*
X336441Y378521D01*
X334383Y379709D01*
X332088Y380324D01*
X329712D01*
X327417Y379709D01*
X325359Y378521D01*
X323679Y376841D01*
X322491Y374783D01*
X321876Y372488D01*
Y370112D01*
X322491Y367817D01*
X323679Y365759D01*
X325359Y364079D01*
X327417Y362891D01*
X329712Y362276D01*
X332088D01*
X334383Y362891D01*
X336441Y364079D01*
X338121Y365759D01*
X339072Y367406D01*
X340408Y367422D01*
X340434Y367417D01*
X340704Y367322D01*
X341966Y365135D01*
X343835Y363266D01*
X346125Y361944D01*
X348678Y361260D01*
X348730D01*
Y371300D01*
Y381340D01*
D02*
G37*
G36*
X43750Y373887D02*
X41270D01*
Y363770D01*
X54970D01*
X54749Y365447D01*
X53612Y368194D01*
X51802Y370552D01*
X49444Y372362D01*
X46697Y373499D01*
X43750Y373887D01*
D02*
G37*
G36*
X38730D02*
X36250D01*
X33303Y373499D01*
X30556Y372362D01*
X28198Y370552D01*
X26388Y368194D01*
X25251Y365447D01*
X25030Y363770D01*
X38730D01*
Y373887D01*
D02*
G37*
G36*
X351322Y381340D02*
X351270D01*
Y371300D01*
Y361260D01*
X351322D01*
X353875Y361944D01*
X356165Y363266D01*
X358034Y365135D01*
X358552Y366032D01*
X360076Y365624D01*
Y362276D01*
X378124D01*
Y380324D01*
X360076D01*
Y376976D01*
X358552Y376567D01*
X358034Y377465D01*
X356165Y379334D01*
X353875Y380656D01*
X351322Y381340D01*
D02*
G37*
G36*
X865290Y373730D02*
X851270D01*
Y359710D01*
X851506D01*
X854460Y360298D01*
X857243Y361450D01*
X859747Y363124D01*
X861877Y365253D01*
X863550Y367757D01*
X864702Y370540D01*
X865290Y373494D01*
Y373730D01*
D02*
G37*
G36*
X848730D02*
X834710D01*
Y373494D01*
X835298Y370540D01*
X836450Y367757D01*
X838123Y365253D01*
X840253Y363124D01*
X842757Y361450D01*
X845540Y360298D01*
X848494Y359710D01*
X848730D01*
Y373730D01*
D02*
G37*
G36*
X54970Y361230D02*
X41270D01*
Y351113D01*
X43750D01*
X46697Y351501D01*
X49444Y352638D01*
X51802Y354448D01*
X53612Y356806D01*
X54749Y359553D01*
X54970Y361230D01*
D02*
G37*
G36*
X38730D02*
X25030D01*
X25251Y359553D01*
X26388Y356806D01*
X28198Y354448D01*
X30556Y352638D01*
X33303Y351501D01*
X36250Y351113D01*
X38730D01*
Y361230D01*
D02*
G37*
G36*
X951193Y354064D02*
X948807D01*
X946501Y353446D01*
X944435Y352253D01*
X942747Y350565D01*
X941554Y348499D01*
X940936Y346193D01*
Y343807D01*
X941554Y341501D01*
X942747Y339435D01*
X944435Y337747D01*
X946501Y336554D01*
X948807Y335936D01*
X951193D01*
X953499Y336554D01*
X955565Y337747D01*
X957253Y339435D01*
X958446Y341501D01*
X959064Y343807D01*
Y346193D01*
X958446Y348499D01*
X957253Y350565D01*
X955565Y352253D01*
X953499Y353446D01*
X951193Y354064D01*
D02*
G37*
G36*
X116500Y292093D02*
X103500D01*
X101405Y291817D01*
X99453Y291009D01*
X97777Y289723D01*
X96491Y288047D01*
X95682Y286095D01*
X95407Y284000D01*
X95682Y281905D01*
X96491Y279953D01*
X97777Y278277D01*
X99453Y276991D01*
X101405Y276182D01*
X103500Y275907D01*
X116500D01*
X118595Y276182D01*
X120547Y276991D01*
X122223Y278277D01*
X123509Y279953D01*
X124318Y281905D01*
X124593Y284000D01*
X124318Y286095D01*
X123509Y288047D01*
X122223Y289723D01*
X120547Y291009D01*
X118595Y291817D01*
X116500Y292093D01*
D02*
G37*
G36*
X630000Y331650D02*
X400000D01*
X398834Y331166D01*
X353834Y286166D01*
X353350Y285000D01*
Y125000D01*
X353834Y123834D01*
X363834Y113834D01*
X365000Y113350D01*
X445000D01*
X446166Y113834D01*
X456166Y123834D01*
X456650Y125000D01*
Y204317D01*
X470683Y218350D01*
X630000D01*
X631166Y218834D01*
X656166Y243834D01*
X656650Y245000D01*
Y305000D01*
X656166Y306166D01*
X631166Y331166D01*
X630000Y331650D01*
D02*
G37*
G36*
X300000Y306650D02*
X160000D01*
X158834Y306166D01*
X138834Y286166D01*
X138350Y285000D01*
Y215000D01*
X138834Y213834D01*
X158834Y193834D01*
X160000Y193350D01*
X219317D01*
X238350Y174317D01*
X238350Y135000D01*
X238834Y133834D01*
X258834Y113834D01*
X260000Y113350D01*
X330000D01*
X331166Y113834D01*
X348666Y131334D01*
X349150Y132500D01*
Y257500D01*
X348666Y258666D01*
X301166Y306166D01*
X300000Y306650D01*
D02*
G37*
G36*
X116500Y103093D02*
X103500D01*
X101405Y102817D01*
X99453Y102009D01*
X97777Y100723D01*
X96491Y99047D01*
X95682Y97095D01*
X95407Y95000D01*
X95682Y92905D01*
X96491Y90953D01*
X97777Y89277D01*
X99453Y87991D01*
X101405Y87183D01*
X103500Y86907D01*
X116500D01*
X118595Y87183D01*
X120547Y87991D01*
X122223Y89277D01*
X123509Y90953D01*
X124318Y92905D01*
X124593Y95000D01*
X124318Y97095D01*
X123509Y99047D01*
X122223Y100723D01*
X120547Y102009D01*
X118595Y102817D01*
X116500Y103093D01*
D02*
G37*
G36*
X718750Y216650D02*
X478750D01*
X477584Y216166D01*
X467584Y206166D01*
X467100Y205000D01*
Y97500D01*
X467584Y96334D01*
X480084Y83834D01*
X481250Y83350D01*
X778750Y83350D01*
X779917Y83834D01*
X799917Y103834D01*
X800400Y105000D01*
Y160000D01*
X799917Y161166D01*
X789917Y171166D01*
X788750Y171650D01*
X739433D01*
X730400Y180683D01*
Y205000D01*
X729917Y206166D01*
X719916Y216166D01*
X718750Y216650D01*
D02*
G37*
G36*
X941726Y42524D02*
X938274D01*
X934889Y41851D01*
X931699Y40530D01*
X928829Y38612D01*
X926388Y36171D01*
X924470Y33301D01*
X923149Y30111D01*
X922476Y26726D01*
Y23274D01*
X923149Y19888D01*
X924470Y16699D01*
X926388Y13829D01*
X928829Y11388D01*
X931699Y9470D01*
X934889Y8149D01*
X938274Y7476D01*
X941726D01*
X945111Y8149D01*
X948301Y9470D01*
X951171Y11388D01*
X953612Y13829D01*
X955530Y16699D01*
X956851Y19888D01*
X957524Y23274D01*
Y26726D01*
X956851Y30111D01*
X955530Y33301D01*
X953612Y36171D01*
X951171Y38612D01*
X948301Y40530D01*
X945111Y41851D01*
X941726Y42524D01*
D02*
G37*
G36*
X26726D02*
X23274D01*
X19888Y41851D01*
X16699Y40530D01*
X13829Y38612D01*
X11388Y36171D01*
X9470Y33301D01*
X8149Y30111D01*
X7476Y26726D01*
Y23274D01*
X8149Y19888D01*
X9470Y16699D01*
X11388Y13829D01*
X13829Y11388D01*
X16699Y9470D01*
X19888Y8149D01*
X23274Y7476D01*
X26726D01*
X30111Y8149D01*
X33301Y9470D01*
X36171Y11388D01*
X38612Y13829D01*
X40530Y16699D01*
X41851Y19888D01*
X42524Y23274D01*
Y26726D01*
X41851Y30111D01*
X40530Y33301D01*
X38612Y36171D01*
X36171Y38612D01*
X33301Y40530D01*
X30111Y41851D01*
X26726Y42524D01*
D02*
G37*
%LPD*%
G36*
X655000Y305000D02*
Y245000D01*
X630000Y220000D01*
X470000D01*
X455000Y205000D01*
Y125000D01*
X445000Y115000D01*
X365000D01*
X355000Y125000D01*
Y285000D01*
X400000Y330000D01*
X630000D01*
X655000Y305000D01*
D02*
G37*
G36*
X347500Y257500D02*
Y132500D01*
X330000Y115000D01*
X260000D01*
X240000Y135000D01*
X240000Y175000D01*
X220000Y195000D01*
X160000D01*
X140000Y215000D01*
Y285000D01*
X160000Y305000D01*
X300000D01*
X347500Y257500D01*
D02*
G37*
G36*
X728750Y205000D02*
Y180000D01*
X738750Y170000D01*
X788750D01*
X798750Y160000D01*
Y105000D01*
X778750Y85000D01*
X481250Y85000D01*
X468750Y97500D01*
Y205000D01*
X478750Y215000D01*
X718750D01*
X728750Y205000D01*
D02*
G37*
D62*
X223000Y445000D02*
X250000D01*
X173000Y495000D02*
X223000Y445000D01*
X390000Y400000D02*
Y483400D01*
Y400000D02*
X445000Y345000D01*
X770000D01*
X390000Y483400D02*
X401600Y495000D01*
X445000Y425000D02*
X465000Y445000D01*
X550000D01*
X710000Y390000D02*
X725000Y405000D01*
X505000Y390000D02*
X710000D01*
X770000Y345000D02*
X850000Y425000D01*
X550000Y445000D02*
X565000Y460000D01*
X562071Y495000D02*
X565000Y492071D01*
Y460000D02*
Y492071D01*
X553129Y495000D02*
X562071D01*
X542700Y491500D02*
X545570Y494370D01*
X552499D01*
X553129Y495000D01*
X448500Y491500D02*
X517300D01*
X542700Y516900D02*
X615000Y589200D01*
X585000Y715000D02*
X615000Y685000D01*
Y589200D02*
Y685000D01*
X542700Y542300D02*
X600000Y599600D01*
Y680000D01*
X575000Y705000D02*
X600000Y680000D01*
X490131Y715000D02*
X585000D01*
X495000Y705000D02*
X575000D01*
X542700Y567700D02*
X590000Y615000D01*
Y675000D01*
X570000Y695000D02*
X590000Y675000D01*
X500000Y695000D02*
X570000D01*
X560000Y685000D02*
X575000Y670000D01*
X542700Y593100D02*
X575000Y625400D01*
Y670000D01*
X560000Y635800D02*
Y665000D01*
X555000Y670000D02*
X560000Y665000D01*
X542700Y618500D02*
X560000Y635800D01*
X515000Y670000D02*
X555000D01*
X400000Y555000D02*
X515000Y670000D01*
X258400Y555000D02*
X400000D01*
X198400Y495000D02*
X258400Y555000D01*
X147600Y495000D02*
X222600Y570000D01*
X390000D01*
X505000Y685000D01*
X560000D01*
X395000Y590000D02*
X500000Y695000D01*
X217200Y590000D02*
X395000D01*
X122200Y495000D02*
X217200Y590000D01*
X390000Y600000D02*
X495000Y705000D01*
X201800Y600000D02*
X390000D01*
X96800Y495000D02*
X201800Y600000D01*
X385131Y610000D02*
X490131Y715000D01*
X186400Y610000D02*
X385131D01*
X71400Y495000D02*
X186400Y610000D01*
D63*
X204000Y244000D02*
D03*
X766000Y136000D02*
D03*
D64*
X110000Y284000D02*
D03*
Y95000D02*
D03*
X860000Y285000D02*
D03*
Y96000D02*
D03*
D65*
X270000Y170000D02*
D03*
X262000Y163800D02*
D03*
Y153300D02*
D03*
X268500Y144300D02*
D03*
X280100Y141300D02*
D03*
X293400D02*
D03*
X306700D02*
D03*
X320000D02*
D03*
X330000Y144300D02*
D03*
X338000Y153300D02*
D03*
Y163800D02*
D03*
X330000Y170000D02*
D03*
X280100Y173300D02*
D03*
X293400D02*
D03*
X306700D02*
D03*
X320000D02*
D03*
X370000Y170000D02*
D03*
X362000Y163800D02*
D03*
Y153300D02*
D03*
X368500Y144300D02*
D03*
X380100Y141300D02*
D03*
X393400D02*
D03*
X406700D02*
D03*
X420000D02*
D03*
X430000Y144300D02*
D03*
X438000Y153300D02*
D03*
Y163800D02*
D03*
X430000Y170000D02*
D03*
X380100Y173300D02*
D03*
X393400D02*
D03*
X406700D02*
D03*
X420000D02*
D03*
X170000Y60000D02*
D03*
X885000Y70000D02*
D03*
X865000Y35000D02*
D03*
X845000Y55000D02*
D03*
X820000Y40000D02*
D03*
X790000Y50000D02*
D03*
X750000Y35000D02*
D03*
X730000Y50000D02*
D03*
X690000Y35000D02*
D03*
X670000Y50000D02*
D03*
X630000Y35000D02*
D03*
X615000Y55000D02*
D03*
X580000Y35000D02*
D03*
X555000Y55000D02*
D03*
X520000Y40000D02*
D03*
X495000Y50000D02*
D03*
X460000Y35000D02*
D03*
X440000Y45000D02*
D03*
X410000Y35000D02*
D03*
X385000Y50000D02*
D03*
X355000Y35000D02*
D03*
X330000Y50000D02*
D03*
X305000Y35000D02*
D03*
X285000Y50000D02*
D03*
X260000Y35000D02*
D03*
X235000Y55000D02*
D03*
X210000Y35000D02*
D03*
X245000Y290000D02*
D03*
X265000Y270000D02*
D03*
X245000Y255000D02*
D03*
X265000Y235000D02*
D03*
X250000Y215000D02*
D03*
X265000Y200000D02*
D03*
X705000Y115000D02*
D03*
X655000Y100000D02*
D03*
X600000Y115000D02*
D03*
X565000Y100000D02*
D03*
X505000Y120000D02*
D03*
X495000Y95000D02*
D03*
X530000Y110000D02*
D03*
X635000Y120000D02*
D03*
X690000Y95000D02*
D03*
X640000Y195000D02*
D03*
X680000Y190000D02*
D03*
X685000Y165000D02*
D03*
X645000D02*
D03*
X560000Y200000D02*
D03*
X500000D02*
D03*
X525000Y195000D02*
D03*
X505000Y175000D02*
D03*
Y155000D02*
D03*
X545000D02*
D03*
X530000Y175000D02*
D03*
X560000D02*
D03*
X665000Y145000D02*
D03*
X660000Y205000D02*
D03*
X610000Y265000D02*
D03*
X600000Y290000D02*
D03*
Y235000D02*
D03*
X625000Y305000D02*
D03*
X440000Y205000D02*
D03*
X435000Y245000D02*
D03*
X465000Y265000D02*
D03*
X435000Y285000D02*
D03*
X455000Y305000D02*
D03*
D66*
X300000Y157300D02*
D03*
X400000D02*
D03*
D67*
X40000Y387500D02*
D03*
Y362500D02*
D03*
X875000Y645000D02*
D03*
Y620000D02*
D03*
Y670000D02*
D03*
Y595000D02*
D03*
Y695000D02*
D03*
X785000Y645000D02*
D03*
Y620000D02*
D03*
Y595000D02*
D03*
Y670000D02*
D03*
Y695000D02*
D03*
X690000Y645000D02*
D03*
Y620000D02*
D03*
Y670000D02*
D03*
Y595000D02*
D03*
Y695000D02*
D03*
D68*
X950000Y455000D02*
D03*
Y345000D02*
D03*
D69*
X850000Y425000D02*
D03*
D70*
Y375000D02*
D03*
D71*
X940000Y25000D02*
D03*
Y710000D02*
D03*
X25000Y25000D02*
D03*
Y710000D02*
D03*
D72*
X517300Y466100D02*
D03*
X542700D02*
D03*
Y593100D02*
D03*
Y567700D02*
D03*
X517300Y643900D02*
D03*
Y618500D02*
D03*
Y593100D02*
D03*
Y567700D02*
D03*
Y542300D02*
D03*
Y516900D02*
D03*
Y491500D02*
D03*
X542700D02*
D03*
Y516900D02*
D03*
Y542300D02*
D03*
Y618500D02*
D03*
Y643900D02*
D03*
D73*
X350000Y371300D02*
D03*
X330900D02*
D03*
D74*
X376200Y495000D02*
D03*
X325400Y647400D02*
D03*
X46000Y495000D02*
D03*
X71400D02*
D03*
X122200D02*
D03*
X147600D02*
D03*
X96800D02*
D03*
X173000D02*
D03*
X198400D02*
D03*
X223800D02*
D03*
X249200D02*
D03*
X274600D02*
D03*
X300000D02*
D03*
X325400D02*
D03*
X350800D02*
D03*
X46000Y647400D02*
D03*
X71400D02*
D03*
X401600Y495000D02*
D03*
X376200Y647400D02*
D03*
X350800D02*
D03*
X300000D02*
D03*
X274600D02*
D03*
X249200D02*
D03*
X223800D02*
D03*
X198400D02*
D03*
X173000D02*
D03*
X147600D02*
D03*
X122200D02*
D03*
X96800D02*
D03*
D75*
X401600D02*
D03*
D76*
X369100Y371300D02*
D03*
D77*
X961000Y661000D02*
D03*
X946000Y631000D02*
D03*
X961000Y601000D02*
D03*
X946000Y571000D02*
D03*
X961000Y541000D02*
D03*
X946000Y511000D02*
D03*
X961000Y481000D02*
D03*
Y421000D02*
D03*
X946000Y391000D02*
D03*
X961000Y361000D02*
D03*
X946000Y331000D02*
D03*
X961000Y301000D02*
D03*
X946000Y271000D02*
D03*
X961000Y241000D02*
D03*
X946000Y211000D02*
D03*
X961000Y181000D02*
D03*
X946000Y151000D02*
D03*
X961000Y121000D02*
D03*
X946000Y91000D02*
D03*
X961000Y61000D02*
D03*
X916000Y691000D02*
D03*
X931000Y661000D02*
D03*
X916000Y631000D02*
D03*
X931000Y601000D02*
D03*
X916000Y571000D02*
D03*
X931000Y541000D02*
D03*
X916000Y511000D02*
D03*
X931000Y481000D02*
D03*
X916000Y451000D02*
D03*
X931000Y421000D02*
D03*
X916000Y391000D02*
D03*
X931000Y361000D02*
D03*
X916000Y331000D02*
D03*
X931000Y301000D02*
D03*
X916000Y271000D02*
D03*
X931000Y241000D02*
D03*
X916000Y31000D02*
D03*
X901000Y541000D02*
D03*
X886000Y511000D02*
D03*
X901000Y481000D02*
D03*
X886000Y451000D02*
D03*
X901000Y421000D02*
D03*
X886000Y391000D02*
D03*
X901000Y361000D02*
D03*
X886000Y331000D02*
D03*
X901000Y301000D02*
D03*
X856000Y631000D02*
D03*
X871000Y541000D02*
D03*
X856000Y511000D02*
D03*
X871000Y481000D02*
D03*
X856000Y451000D02*
D03*
X871000Y421000D02*
D03*
Y361000D02*
D03*
X856000Y331000D02*
D03*
X871000Y301000D02*
D03*
X856000Y151000D02*
D03*
X841000Y661000D02*
D03*
X826000Y631000D02*
D03*
X841000Y601000D02*
D03*
Y481000D02*
D03*
X826000Y331000D02*
D03*
X841000Y301000D02*
D03*
Y181000D02*
D03*
X826000Y151000D02*
D03*
X841000Y121000D02*
D03*
X826000Y91000D02*
D03*
X811000Y661000D02*
D03*
Y601000D02*
D03*
Y541000D02*
D03*
X796000Y511000D02*
D03*
X811000Y361000D02*
D03*
X796000Y331000D02*
D03*
X811000Y301000D02*
D03*
Y181000D02*
D03*
Y121000D02*
D03*
X796000Y91000D02*
D03*
X766000Y631000D02*
D03*
X781000Y541000D02*
D03*
X766000Y511000D02*
D03*
X781000Y421000D02*
D03*
X766000Y391000D02*
D03*
Y331000D02*
D03*
X781000Y301000D02*
D03*
Y181000D02*
D03*
X751000Y661000D02*
D03*
X736000Y631000D02*
D03*
X751000Y601000D02*
D03*
Y541000D02*
D03*
X736000Y511000D02*
D03*
Y451000D02*
D03*
X751000Y361000D02*
D03*
X736000Y331000D02*
D03*
X751000Y301000D02*
D03*
X736000Y211000D02*
D03*
X751000Y181000D02*
D03*
X721000Y661000D02*
D03*
X706000Y631000D02*
D03*
X721000Y601000D02*
D03*
Y541000D02*
D03*
X706000Y511000D02*
D03*
X721000Y481000D02*
D03*
X706000Y451000D02*
D03*
X721000Y421000D02*
D03*
Y361000D02*
D03*
X706000Y331000D02*
D03*
X721000Y301000D02*
D03*
X706000Y271000D02*
D03*
X721000Y241000D02*
D03*
X691000Y541000D02*
D03*
X676000Y511000D02*
D03*
X691000Y481000D02*
D03*
X676000Y451000D02*
D03*
X691000Y421000D02*
D03*
Y361000D02*
D03*
X676000Y331000D02*
D03*
X691000Y241000D02*
D03*
X646000Y571000D02*
D03*
X661000Y541000D02*
D03*
X646000Y511000D02*
D03*
X661000Y481000D02*
D03*
Y361000D02*
D03*
Y301000D02*
D03*
Y241000D02*
D03*
X616000Y571000D02*
D03*
X631000Y541000D02*
D03*
X616000Y511000D02*
D03*
X631000Y481000D02*
D03*
X616000Y451000D02*
D03*
X586000Y571000D02*
D03*
X601000Y541000D02*
D03*
X586000Y511000D02*
D03*
X601000Y481000D02*
D03*
X586000Y451000D02*
D03*
X571000Y421000D02*
D03*
X541000Y661000D02*
D03*
X526000Y631000D02*
D03*
X496000Y571000D02*
D03*
X511000Y421000D02*
D03*
X466000Y571000D02*
D03*
X481000Y481000D02*
D03*
Y421000D02*
D03*
X466000Y91000D02*
D03*
X451000Y481000D02*
D03*
X436000Y451000D02*
D03*
Y91000D02*
D03*
X421000Y661000D02*
D03*
Y481000D02*
D03*
X406000Y451000D02*
D03*
Y91000D02*
D03*
X391000Y661000D02*
D03*
Y541000D02*
D03*
Y361000D02*
D03*
X376000Y331000D02*
D03*
Y91000D02*
D03*
X361000Y661000D02*
D03*
Y541000D02*
D03*
Y481000D02*
D03*
X346000Y451000D02*
D03*
Y391000D02*
D03*
Y331000D02*
D03*
X361000Y301000D02*
D03*
X346000Y271000D02*
D03*
Y91000D02*
D03*
X331000Y661000D02*
D03*
Y541000D02*
D03*
X316000Y331000D02*
D03*
X331000Y301000D02*
D03*
X316000Y91000D02*
D03*
X301000Y661000D02*
D03*
Y541000D02*
D03*
Y481000D02*
D03*
X286000Y451000D02*
D03*
Y391000D02*
D03*
X301000Y361000D02*
D03*
X286000Y331000D02*
D03*
Y91000D02*
D03*
X271000Y661000D02*
D03*
Y541000D02*
D03*
X256000Y451000D02*
D03*
X271000Y421000D02*
D03*
X256000Y391000D02*
D03*
X271000Y361000D02*
D03*
X256000Y331000D02*
D03*
Y91000D02*
D03*
X241000Y661000D02*
D03*
X226000Y631000D02*
D03*
X241000Y421000D02*
D03*
X226000Y391000D02*
D03*
X241000Y361000D02*
D03*
X226000Y331000D02*
D03*
X241000Y121000D02*
D03*
X196000Y631000D02*
D03*
X211000Y541000D02*
D03*
X196000Y511000D02*
D03*
Y331000D02*
D03*
X211000Y181000D02*
D03*
X166000Y631000D02*
D03*
Y451000D02*
D03*
Y391000D02*
D03*
Y331000D02*
D03*
X181000Y181000D02*
D03*
X136000Y631000D02*
D03*
X151000Y601000D02*
D03*
X136000Y571000D02*
D03*
X151000Y481000D02*
D03*
X136000Y451000D02*
D03*
Y391000D02*
D03*
Y331000D02*
D03*
X151000Y181000D02*
D03*
X136000Y151000D02*
D03*
Y91000D02*
D03*
Y31000D02*
D03*
X106000Y691000D02*
D03*
Y631000D02*
D03*
Y571000D02*
D03*
X121000Y481000D02*
D03*
X106000Y451000D02*
D03*
Y391000D02*
D03*
Y331000D02*
D03*
X121000Y301000D02*
D03*
X106000Y271000D02*
D03*
X121000Y241000D02*
D03*
X106000Y211000D02*
D03*
X121000Y181000D02*
D03*
X106000Y151000D02*
D03*
X121000Y121000D02*
D03*
Y61000D02*
D03*
X106000Y31000D02*
D03*
X91000Y661000D02*
D03*
X76000Y631000D02*
D03*
X91000Y601000D02*
D03*
X76000Y571000D02*
D03*
X91000Y541000D02*
D03*
X76000Y511000D02*
D03*
X91000Y481000D02*
D03*
X76000Y451000D02*
D03*
X91000Y421000D02*
D03*
Y361000D02*
D03*
X76000Y331000D02*
D03*
X91000Y301000D02*
D03*
X76000Y271000D02*
D03*
X91000Y241000D02*
D03*
X76000Y211000D02*
D03*
X91000Y181000D02*
D03*
X76000Y151000D02*
D03*
X91000Y121000D02*
D03*
X76000Y91000D02*
D03*
X91000Y61000D02*
D03*
X76000Y31000D02*
D03*
X46000Y691000D02*
D03*
Y631000D02*
D03*
X61000Y601000D02*
D03*
X46000Y571000D02*
D03*
X61000Y541000D02*
D03*
X46000Y511000D02*
D03*
X61000Y481000D02*
D03*
X46000Y451000D02*
D03*
X61000Y421000D02*
D03*
Y361000D02*
D03*
X46000Y331000D02*
D03*
X61000Y301000D02*
D03*
X46000Y271000D02*
D03*
X61000Y241000D02*
D03*
X46000Y211000D02*
D03*
X61000Y181000D02*
D03*
X46000Y151000D02*
D03*
X61000Y121000D02*
D03*
X46000Y91000D02*
D03*
X61000Y61000D02*
D03*
X46000Y31000D02*
D03*
X31000Y661000D02*
D03*
X16000Y631000D02*
D03*
Y571000D02*
D03*
Y511000D02*
D03*
X31000Y481000D02*
D03*
X16000Y451000D02*
D03*
X31000Y421000D02*
D03*
X16000Y391000D02*
D03*
Y331000D02*
D03*
X31000Y301000D02*
D03*
X16000Y271000D02*
D03*
X31000Y241000D02*
D03*
X16000Y211000D02*
D03*
X31000Y181000D02*
D03*
X16000Y151000D02*
D03*
X31000Y121000D02*
D03*
X16000Y91000D02*
D03*
X31000Y61000D02*
D03*
D78*
X250000Y445000D02*
D03*
X445000Y425000D02*
D03*
X505000Y390000D02*
D03*
X725000Y405000D02*
D03*
X448500Y491500D02*
D03*
D79*
X204000Y135000D02*
D03*
X766000Y245000D02*
D03*
M02*
