G04*
G04 #@! TF.GenerationSoftware,Altium Limited,Altium Designer,25.5.2 (35)*
G04*
G04 Layer_Physical_Order=1*
G04 Layer_Color=255*
%FSLAX25Y25*%
%MOIN*%
G70*
G04*
G04 #@! TF.SameCoordinates,158EF743-8888-4733-9C83-1880DC859FCE*
G04*
G04*
G04 #@! TF.FilePolarity,Positive*
G04*
G01*
G75*
G04:AMPARAMS|DCode=16|XSize=162.21mil|YSize=37.01mil|CornerRadius=9.25mil|HoleSize=0mil|Usage=FLASHONLY|Rotation=270.000|XOffset=0mil|YOffset=0mil|HoleType=Round|Shape=RoundedRectangle|*
%AMROUNDEDRECTD16*
21,1,0.16221,0.01850,0,0,270.0*
21,1,0.14370,0.03701,0,0,270.0*
1,1,0.01850,-0.00925,-0.07185*
1,1,0.01850,-0.00925,0.07185*
1,1,0.01850,0.00925,0.07185*
1,1,0.01850,0.00925,-0.07185*
%
%ADD16ROUNDEDRECTD16*%
%ADD17R,0.07874X0.14961*%
%ADD18R,0.07874X0.05906*%
%ADD19R,0.03150X0.03543*%
%ADD20R,0.09843X0.06693*%
%ADD21R,0.05315X0.04528*%
%ADD22R,0.05512X0.05118*%
%ADD23R,0.03937X0.03543*%
%ADD24R,0.06496X0.04724*%
%ADD25R,0.04134X0.02362*%
%ADD26R,0.03543X0.02756*%
%ADD27R,0.03740X0.03347*%
%ADD28R,0.05906X0.03937*%
%ADD29R,0.04724X0.06496*%
%ADD61R,0.34528X0.34173*%
%ADD62C,0.01968*%
%ADD63R,0.19354X0.19354*%
%ADD64O,0.10236X0.05118*%
%ADD65C,0.03150*%
%ADD66O,0.35433X0.17717*%
%ADD67O,0.09843X0.06890*%
%ADD68C,0.05937*%
%ADD69R,0.10039X0.10039*%
%ADD70C,0.10039*%
%ADD71C,0.05512*%
%ADD72C,0.07874*%
%ADD73C,0.05906*%
%ADD74C,0.06000*%
%ADD75R,0.06000X0.06000*%
%ADD76R,0.05906X0.05906*%
%ADD77C,0.02756*%
%ADD78C,0.02362*%
G36*
X368110Y88583D02*
Y23622D01*
X344488Y0D01*
X72835D01*
X57087Y15748D01*
Y59055D01*
X66929Y68898D01*
X82677Y68898D01*
X90551Y61024D01*
Y35433D01*
X96457Y29528D01*
X338583D01*
X344488Y35433D01*
X344488Y62992D01*
X326772Y80709D01*
X295276D01*
X289370Y86614D01*
Y104331D01*
X293307Y108268D01*
X348425D01*
X368110Y88583D01*
D02*
G37*
G36*
X381890Y0D02*
X346191D01*
X345961Y554D01*
X368569Y23163D01*
X368760Y23622D01*
Y88583D01*
X368569Y89042D01*
X348884Y108727D01*
X348425Y108917D01*
X342991D01*
X342875Y109156D01*
X342828Y109517D01*
X343395Y109952D01*
X343901Y110612D01*
X344219Y111380D01*
X344328Y112205D01*
X344219Y113029D01*
X343901Y113798D01*
X343395Y114458D01*
X342735Y114964D01*
X341966Y115282D01*
X341142Y115391D01*
X336024D01*
X335199Y115282D01*
X334431Y114964D01*
X333771Y114458D01*
X333264Y113798D01*
X332946Y113029D01*
X332837Y112205D01*
X332946Y111380D01*
X333264Y110612D01*
X333771Y109952D01*
X334337Y109517D01*
X334291Y109156D01*
X334175Y108917D01*
X293307D01*
X292848Y108727D01*
X288911Y104790D01*
X288721Y104331D01*
Y86614D01*
X288911Y86155D01*
X294816Y80249D01*
X295276Y80059D01*
X326503D01*
X343839Y62723D01*
X343839Y40388D01*
X343239Y40168D01*
X342735Y40555D01*
X341966Y40873D01*
X341142Y40982D01*
X336024D01*
X335199Y40873D01*
X334431Y40555D01*
X333771Y40048D01*
X333264Y39388D01*
X332946Y38620D01*
X332837Y37795D01*
X332946Y36971D01*
X333264Y36202D01*
X333771Y35542D01*
X334431Y35036D01*
X335199Y34718D01*
X336024Y34609D01*
X341142D01*
X341966Y34718D01*
X342033Y34745D01*
X342373Y34237D01*
X338314Y30177D01*
X96726D01*
X91201Y35702D01*
Y61024D01*
X91010Y61483D01*
X83136Y69357D01*
X82677Y69547D01*
X66929Y69547D01*
X66470Y69357D01*
X56627Y59514D01*
X56437Y59055D01*
Y15748D01*
X56627Y15289D01*
X71362Y554D01*
X71132Y0D01*
X0D01*
Y289370D01*
X381890D01*
Y0D01*
D02*
G37*
%LPC*%
G36*
X345965Y277702D02*
X343012D01*
X341956Y277563D01*
X340972Y277155D01*
X340127Y276507D01*
X339479Y275662D01*
X339303Y275237D01*
X314241D01*
X314065Y275662D01*
X313416Y276507D01*
X312571Y277155D01*
X311587Y277563D01*
X310531Y277702D01*
X307579D01*
X306523Y277563D01*
X305539Y277155D01*
X304694Y276507D01*
X304046Y275662D01*
X303870Y275237D01*
X276839D01*
X276663Y275662D01*
X276015Y276507D01*
X275170Y277155D01*
X274186Y277563D01*
X273130Y277702D01*
X270177D01*
X269121Y277563D01*
X268137Y277155D01*
X267292Y276507D01*
X266644Y275662D01*
X266236Y274678D01*
X266097Y273622D01*
X266236Y272566D01*
X266644Y271582D01*
X267292Y270737D01*
X268137Y270089D01*
X269121Y269681D01*
X270177Y269542D01*
X273130D01*
X274186Y269681D01*
X275170Y270089D01*
X276015Y270737D01*
X276663Y271582D01*
X276839Y272007D01*
X303870D01*
X304046Y271582D01*
X304694Y270737D01*
X305539Y270089D01*
X306523Y269681D01*
X307579Y269542D01*
X310531D01*
X311587Y269681D01*
X312571Y270089D01*
X313416Y270737D01*
X314065Y271582D01*
X314241Y272007D01*
X339303D01*
X339479Y271582D01*
X340127Y270737D01*
X340972Y270089D01*
X341956Y269681D01*
X343012Y269542D01*
X345965D01*
X347021Y269681D01*
X347445Y269857D01*
X352715Y264587D01*
Y232952D01*
X305402Y185639D01*
X302943D01*
Y183968D01*
X302481Y183505D01*
X298632D01*
Y184630D01*
X299031D01*
Y187689D01*
X291520D01*
Y184630D01*
X291920D01*
Y178731D01*
X293660D01*
Y167529D01*
X290148D01*
Y161064D01*
X286188D01*
X285787Y161230D01*
X285079D01*
X284424Y160959D01*
X283923Y160458D01*
X283652Y159803D01*
Y159095D01*
X283923Y158440D01*
X284424Y157939D01*
X285079Y157668D01*
X285787D01*
X286188Y157834D01*
X290148D01*
Y151368D01*
X299222D01*
Y157834D01*
X314951D01*
Y155896D01*
X324025D01*
Y163002D01*
X314951D01*
Y161064D01*
X299222D01*
Y167529D01*
X296891D01*
Y178731D01*
X298632D01*
Y180274D01*
X302943D01*
Y176565D01*
X307687D01*
Y180521D01*
X304914D01*
X304665Y181121D01*
X305228Y181684D01*
X307687D01*
Y183355D01*
X355473Y231141D01*
X355823Y231665D01*
X355946Y232283D01*
Y265256D01*
X355823Y265874D01*
X355473Y266398D01*
X349729Y272142D01*
X349905Y272566D01*
X350044Y273622D01*
X349905Y274678D01*
X349498Y275662D01*
X348849Y276507D01*
X348005Y277155D01*
X347021Y277563D01*
X345965Y277702D01*
D02*
G37*
G36*
X370758Y286427D02*
X369399D01*
X368066Y286162D01*
X366811Y285642D01*
X365681Y284887D01*
X364720Y283926D01*
X363965Y282796D01*
X363445Y281540D01*
X363179Y280207D01*
Y278848D01*
X363445Y277515D01*
X363965Y276260D01*
X364720Y275130D01*
X365681Y274169D01*
X366811Y273414D01*
X368066Y272894D01*
X369399Y272628D01*
X370758D01*
X372091Y272894D01*
X373347Y273414D01*
X374477Y274169D01*
X375438Y275130D01*
X376193Y276260D01*
X376713Y277515D01*
X376978Y278848D01*
Y280207D01*
X376713Y281540D01*
X376193Y282796D01*
X375438Y283926D01*
X374477Y284887D01*
X373347Y285642D01*
X372091Y286162D01*
X370758Y286427D01*
D02*
G37*
G36*
X10522D02*
X9163D01*
X7830Y286162D01*
X6575Y285642D01*
X5444Y284887D01*
X4484Y283926D01*
X3729Y282796D01*
X3208Y281540D01*
X2943Y280207D01*
Y278848D01*
X3208Y277515D01*
X3729Y276260D01*
X4484Y275130D01*
X5444Y274169D01*
X6575Y273414D01*
X7830Y272894D01*
X9163Y272628D01*
X10522D01*
X11855Y272894D01*
X13111Y273414D01*
X14241Y274169D01*
X15202Y275130D01*
X15957Y276260D01*
X16477Y277515D01*
X16742Y278848D01*
Y280207D01*
X16477Y281540D01*
X15957Y282796D01*
X15202Y283926D01*
X14241Y284887D01*
X13111Y285642D01*
X11855Y286162D01*
X10522Y286427D01*
D02*
G37*
G36*
X273130Y268263D02*
X272153D01*
Y264280D01*
X277547D01*
X277460Y264940D01*
X277012Y266021D01*
X276300Y266950D01*
X275372Y267662D01*
X274290Y268110D01*
X273130Y268263D01*
D02*
G37*
G36*
X271153D02*
X270177D01*
X269017Y268110D01*
X267935Y267662D01*
X267007Y266950D01*
X266295Y266021D01*
X265847Y264940D01*
X265760Y264280D01*
X271153D01*
Y268263D01*
D02*
G37*
G36*
X310531D02*
X309555D01*
Y264280D01*
X314949D01*
X314862Y264940D01*
X314414Y266021D01*
X313702Y266950D01*
X312773Y267662D01*
X311692Y268110D01*
X310531Y268263D01*
D02*
G37*
G36*
X308555D02*
X307579D01*
X306418Y268110D01*
X305337Y267662D01*
X304409Y266950D01*
X303696Y266021D01*
X303248Y264940D01*
X303161Y264280D01*
X308555D01*
Y268263D01*
D02*
G37*
G36*
X345965D02*
X344988D01*
Y264280D01*
X350382D01*
X350295Y264940D01*
X349847Y266021D01*
X349135Y266950D01*
X348206Y267662D01*
X347125Y268110D01*
X345965Y268263D01*
D02*
G37*
G36*
X343988D02*
X343012D01*
X341851Y268110D01*
X340770Y267662D01*
X339842Y266950D01*
X339129Y266021D01*
X338681Y264940D01*
X338594Y264280D01*
X343988D01*
Y268263D01*
D02*
G37*
G36*
X350382Y263280D02*
X344988D01*
Y259296D01*
X345965D01*
X347125Y259449D01*
X348206Y259897D01*
X349135Y260609D01*
X349847Y261538D01*
X350295Y262619D01*
X350382Y263280D01*
D02*
G37*
G36*
X343988D02*
X338594D01*
X338681Y262619D01*
X339129Y261538D01*
X339842Y260609D01*
X340770Y259897D01*
X341851Y259449D01*
X343012Y259296D01*
X343988D01*
Y263280D01*
D02*
G37*
G36*
X314949Y263280D02*
X309555D01*
Y259296D01*
X310531D01*
X311692Y259449D01*
X312773Y259897D01*
X313702Y260609D01*
X314414Y261538D01*
X314862Y262619D01*
X314949Y263280D01*
D02*
G37*
G36*
X308555D02*
X303161D01*
X303248Y262619D01*
X303696Y261538D01*
X304409Y260609D01*
X305337Y259897D01*
X306418Y259449D01*
X307579Y259296D01*
X308555D01*
Y263280D01*
D02*
G37*
G36*
X277547Y263280D02*
X272153D01*
Y259296D01*
X273130D01*
X274290Y259449D01*
X275372Y259897D01*
X276300Y260609D01*
X277012Y261538D01*
X277460Y262619D01*
X277547Y263280D01*
D02*
G37*
G36*
X271153D02*
X265760D01*
X265847Y262619D01*
X266295Y261538D01*
X267007Y260609D01*
X267935Y259897D01*
X269017Y259449D01*
X270177Y259296D01*
X271153D01*
Y263280D01*
D02*
G37*
G36*
X128637Y258882D02*
X128610D01*
Y255382D01*
X132110D01*
Y255409D01*
X131838Y256426D01*
X131311Y257338D01*
X130566Y258083D01*
X129654Y258609D01*
X128637Y258882D01*
D02*
G37*
G36*
X127610D02*
X127584D01*
X126566Y258609D01*
X125654Y258083D01*
X124909Y257338D01*
X124383Y256426D01*
X124110Y255409D01*
Y255382D01*
X127610D01*
Y258882D01*
D02*
G37*
G36*
X161710Y258482D02*
X154510D01*
X154510Y251744D01*
Y251733D01*
Y251733D01*
X154510Y251615D01*
X154309Y251531D01*
X153910Y251366D01*
X151532Y253744D01*
X151710Y254408D01*
Y255356D01*
X151465Y256271D01*
X150991Y257092D01*
X150321Y257763D01*
X149500Y258237D01*
X148584Y258482D01*
X147636D01*
X146721Y258237D01*
X145900Y257763D01*
X145229Y257092D01*
X144756Y256271D01*
X144510Y255356D01*
Y254408D01*
X144756Y253492D01*
X145229Y252671D01*
X145900Y252001D01*
X146721Y251527D01*
X147636Y251282D01*
X148584D01*
X149248Y251460D01*
X188346Y212362D01*
X188870Y212012D01*
X189488Y211889D01*
X199397D01*
X199434Y211753D01*
X200031Y210718D01*
X200876Y209873D01*
X201910Y209276D01*
X203064Y208967D01*
X204259D01*
X205413Y209276D01*
X206447Y209873D01*
X207292Y210718D01*
X207889Y211753D01*
X208198Y212907D01*
Y214101D01*
X207889Y215255D01*
X207292Y216290D01*
X206447Y217134D01*
X205413Y217732D01*
X204259Y218041D01*
X203064D01*
X201910Y217732D01*
X200876Y217134D01*
X200031Y216290D01*
X199434Y215255D01*
X199397Y215119D01*
X190157D01*
X154595Y250682D01*
X154843Y251282D01*
X154961Y251282D01*
X154961Y251282D01*
X154972Y251282D01*
X161710D01*
Y253267D01*
X171614D01*
X199504Y225377D01*
X199434Y225255D01*
X199124Y224101D01*
Y222907D01*
X199434Y221753D01*
X200031Y220718D01*
X200876Y219873D01*
X201910Y219276D01*
X203064Y218967D01*
X204259D01*
X205413Y219276D01*
X206447Y219873D01*
X207292Y220718D01*
X207889Y221753D01*
X208198Y222907D01*
Y224101D01*
X207889Y225255D01*
X207292Y226290D01*
X206447Y227134D01*
X205413Y227732D01*
X204259Y228041D01*
X203064D01*
X201910Y227732D01*
X201788Y227661D01*
X173426Y256024D01*
X172902Y256374D01*
X172283Y256497D01*
X161710D01*
Y258482D01*
D02*
G37*
G36*
X132110Y254382D02*
X128610D01*
Y250882D01*
X128637D01*
X129654Y251154D01*
X130566Y251681D01*
X131311Y252426D01*
X131838Y253338D01*
X132110Y254355D01*
Y254382D01*
D02*
G37*
G36*
X127610D02*
X124110D01*
Y254355D01*
X124383Y253338D01*
X124909Y252426D01*
X125654Y251681D01*
X126566Y251154D01*
X127584Y250882D01*
X127610D01*
Y254382D01*
D02*
G37*
G36*
X236558Y288680D02*
X43810D01*
X43192Y288557D01*
X42668Y288207D01*
X12384Y257923D01*
X12034Y257399D01*
X11911Y256781D01*
Y199466D01*
X12034Y198848D01*
X12384Y198324D01*
X14688Y196020D01*
X14510Y195356D01*
Y194408D01*
X14756Y193492D01*
X15229Y192671D01*
X15900Y192001D01*
X16721Y191527D01*
X17636Y191282D01*
X18584D01*
X19500Y191527D01*
X20321Y192001D01*
X20991Y192671D01*
X21465Y193492D01*
X21710Y194408D01*
Y195356D01*
X21465Y196271D01*
X20991Y197092D01*
X20321Y197763D01*
X19500Y198237D01*
X18584Y198482D01*
X17636D01*
X16973Y198304D01*
X15141Y200135D01*
Y251911D01*
X15741Y252160D01*
X15900Y252001D01*
X16721Y251527D01*
X17636Y251282D01*
X18584D01*
X19500Y251527D01*
X20321Y252001D01*
X20991Y252671D01*
X21465Y253492D01*
X21710Y254408D01*
Y255356D01*
X21532Y256020D01*
X48393Y282881D01*
X63041D01*
X63270Y282326D01*
X39248Y258304D01*
X38584Y258482D01*
X37636D01*
X36721Y258237D01*
X35900Y257763D01*
X35230Y257092D01*
X34756Y256271D01*
X34510Y255356D01*
Y254408D01*
X34756Y253492D01*
X35230Y252671D01*
X35900Y252001D01*
X36721Y251527D01*
X37636Y251282D01*
X38584D01*
X39500Y251527D01*
X40321Y252001D01*
X40991Y252671D01*
X41465Y253492D01*
X41710Y254408D01*
Y255356D01*
X41532Y256020D01*
X65825Y280312D01*
X70472D01*
X70702Y279758D01*
X49248Y258304D01*
X48584Y258482D01*
X47636D01*
X46721Y258237D01*
X45900Y257763D01*
X45230Y257092D01*
X44756Y256271D01*
X44510Y255356D01*
Y254408D01*
X44756Y253492D01*
X45230Y252671D01*
X45900Y252001D01*
X46721Y251527D01*
X47636Y251282D01*
X48584D01*
X49500Y251527D01*
X50321Y252001D01*
X50991Y252671D01*
X51465Y253492D01*
X51710Y254408D01*
Y255356D01*
X51532Y256020D01*
X73256Y277744D01*
X77904D01*
X78133Y277189D01*
X59248Y258304D01*
X58584Y258482D01*
X57636D01*
X56721Y258237D01*
X55900Y257763D01*
X55230Y257092D01*
X54756Y256271D01*
X54510Y255356D01*
Y254408D01*
X54756Y253492D01*
X55230Y252671D01*
X55900Y252001D01*
X56721Y251527D01*
X57636Y251282D01*
X58584D01*
X59500Y251527D01*
X60321Y252001D01*
X60991Y252671D01*
X61465Y253492D01*
X61710Y254408D01*
Y255356D01*
X61532Y256020D01*
X80688Y275175D01*
X85335D01*
X85565Y274621D01*
X69248Y258304D01*
X68584Y258482D01*
X67636D01*
X66721Y258237D01*
X65900Y257763D01*
X65229Y257092D01*
X64756Y256271D01*
X64510Y255356D01*
Y254408D01*
X64756Y253492D01*
X65229Y252671D01*
X65900Y252001D01*
X66721Y251527D01*
X67636Y251282D01*
X68584D01*
X69500Y251527D01*
X70321Y252001D01*
X70991Y252671D01*
X71465Y253492D01*
X71710Y254408D01*
Y255356D01*
X71532Y256020D01*
X88120Y272607D01*
X92767D01*
X92996Y272052D01*
X79248Y258304D01*
X78584Y258482D01*
X77636D01*
X76721Y258237D01*
X75900Y257763D01*
X75230Y257092D01*
X74756Y256271D01*
X74510Y255356D01*
Y254408D01*
X74756Y253492D01*
X75230Y252671D01*
X75900Y252001D01*
X76721Y251527D01*
X77636Y251282D01*
X78584D01*
X79500Y251527D01*
X80321Y252001D01*
X80991Y252671D01*
X81465Y253492D01*
X81710Y254408D01*
Y255356D01*
X81532Y256020D01*
X95551Y270038D01*
X184843D01*
X199504Y255377D01*
X199434Y255255D01*
X199124Y254101D01*
Y252907D01*
X199434Y251753D01*
X200031Y250718D01*
X200876Y249873D01*
X201910Y249276D01*
X203064Y248967D01*
X204259D01*
X205413Y249276D01*
X206447Y249873D01*
X207292Y250718D01*
X207889Y251753D01*
X208198Y252907D01*
Y254101D01*
X207889Y255255D01*
X207292Y256290D01*
X206447Y257135D01*
X205413Y257732D01*
X204259Y258041D01*
X203064D01*
X201910Y257732D01*
X201788Y257661D01*
X187397Y272052D01*
X187627Y272607D01*
X192274D01*
X209504Y255377D01*
X209434Y255255D01*
X209124Y254101D01*
Y252907D01*
X209434Y251753D01*
X210031Y250718D01*
X210876Y249873D01*
X211910Y249276D01*
X213064Y248967D01*
X214259D01*
X215413Y249276D01*
X216447Y249873D01*
X217292Y250718D01*
X217889Y251753D01*
X218198Y252907D01*
Y254101D01*
X217889Y255255D01*
X217292Y256290D01*
X216447Y257135D01*
X215413Y257732D01*
X214259Y258041D01*
X213064D01*
X211910Y257732D01*
X211788Y257661D01*
X194829Y274621D01*
X195058Y275175D01*
X211294D01*
X263201Y223267D01*
X263725Y222917D01*
X264344Y222794D01*
X333169D01*
X333787Y222917D01*
X334312Y223267D01*
X341531Y230487D01*
X341956Y230311D01*
X343012Y230172D01*
X345965D01*
X347021Y230311D01*
X348005Y230719D01*
X348849Y231367D01*
X349498Y232212D01*
X349905Y233196D01*
X350044Y234252D01*
X349905Y235308D01*
X349498Y236292D01*
X348849Y237137D01*
X348005Y237785D01*
X347021Y238193D01*
X345965Y238332D01*
X343012D01*
X341956Y238193D01*
X340972Y237785D01*
X340127Y237137D01*
X339479Y236292D01*
X339071Y235308D01*
X338932Y234252D01*
X339071Y233196D01*
X339247Y232771D01*
X332500Y226025D01*
X265013D01*
X213848Y277189D01*
X214078Y277744D01*
X216035D01*
X265698Y228081D01*
X266222Y227730D01*
X266840Y227607D01*
X302058D01*
X302676Y227730D01*
X303200Y228081D01*
X305750Y230631D01*
X306523Y230311D01*
X307579Y230172D01*
X310531D01*
X311587Y230311D01*
X312571Y230719D01*
X313416Y231367D01*
X314065Y232212D01*
X314472Y233196D01*
X314611Y234252D01*
X314472Y235308D01*
X314065Y236292D01*
X313416Y237137D01*
X312571Y237785D01*
X311587Y238193D01*
X310531Y238332D01*
X307579D01*
X306523Y238193D01*
X305539Y237785D01*
X304694Y237137D01*
X304046Y236292D01*
X303638Y235308D01*
X303499Y234252D01*
X303638Y233196D01*
X303670Y233119D01*
X301388Y230838D01*
X276207D01*
X276069Y231438D01*
X276663Y232212D01*
X277071Y233196D01*
X277210Y234252D01*
X277071Y235308D01*
X276663Y236292D01*
X276015Y237137D01*
X275170Y237785D01*
X274186Y238193D01*
X273130Y238332D01*
X270177D01*
X269121Y238193D01*
X268697Y238017D01*
X224387Y282326D01*
X224617Y282881D01*
X229106D01*
X266412Y245575D01*
X266236Y245150D01*
X266097Y244094D01*
X266236Y243039D01*
X266644Y242055D01*
X267292Y241210D01*
X268137Y240561D01*
X269121Y240154D01*
X270177Y240015D01*
X273130D01*
X274186Y240154D01*
X275170Y240561D01*
X276015Y241210D01*
X276663Y242055D01*
X276839Y242479D01*
X303870D01*
X304046Y242055D01*
X304694Y241210D01*
X305539Y240561D01*
X306523Y240154D01*
X307579Y240015D01*
X310531D01*
X311587Y240154D01*
X312571Y240561D01*
X313416Y241210D01*
X314065Y242055D01*
X314241Y242479D01*
X339303D01*
X339479Y242055D01*
X340127Y241210D01*
X340972Y240561D01*
X341956Y240154D01*
X343012Y240015D01*
X345965D01*
X347021Y240154D01*
X348005Y240561D01*
X348849Y241210D01*
X349498Y242055D01*
X349905Y243039D01*
X350044Y244094D01*
X349905Y245150D01*
X349498Y246134D01*
X348849Y246979D01*
X348005Y247628D01*
X347021Y248035D01*
X345965Y248174D01*
X343012D01*
X341956Y248035D01*
X340972Y247628D01*
X340127Y246979D01*
X339479Y246134D01*
X339303Y245710D01*
X314241D01*
X314065Y246134D01*
X313416Y246979D01*
X312571Y247628D01*
X311587Y248035D01*
X310531Y248174D01*
X307579D01*
X306523Y248035D01*
X305539Y247628D01*
X304694Y246979D01*
X304046Y246134D01*
X303870Y245710D01*
X276839D01*
X276663Y246134D01*
X276015Y246979D01*
X275170Y247628D01*
X274186Y248035D01*
X273130Y248174D01*
X270177D01*
X269121Y248035D01*
X268697Y247859D01*
X231661Y284895D01*
X231891Y285449D01*
X235888D01*
X266268Y255069D01*
X266236Y254993D01*
X266097Y253937D01*
X266236Y252881D01*
X266644Y251897D01*
X267292Y251052D01*
X268137Y250404D01*
X269121Y249996D01*
X270177Y249857D01*
X273130D01*
X274186Y249996D01*
X275170Y250404D01*
X276015Y251052D01*
X276663Y251897D01*
X276839Y252322D01*
X303870D01*
X304046Y251897D01*
X304694Y251052D01*
X305539Y250404D01*
X306523Y249996D01*
X307579Y249857D01*
X310531D01*
X311587Y249996D01*
X312571Y250404D01*
X313416Y251052D01*
X314065Y251897D01*
X314241Y252322D01*
X339303D01*
X339479Y251897D01*
X340127Y251052D01*
X340972Y250404D01*
X341956Y249996D01*
X343012Y249857D01*
X345965D01*
X347021Y249996D01*
X348005Y250404D01*
X348849Y251052D01*
X349498Y251897D01*
X349905Y252881D01*
X350044Y253937D01*
X349905Y254993D01*
X349498Y255977D01*
X348849Y256822D01*
X348005Y257470D01*
X347021Y257878D01*
X345965Y258017D01*
X343012D01*
X341956Y257878D01*
X340972Y257470D01*
X340127Y256822D01*
X339479Y255977D01*
X339303Y255552D01*
X314241D01*
X314065Y255977D01*
X313416Y256822D01*
X312571Y257470D01*
X311587Y257878D01*
X310531Y258017D01*
X307579D01*
X306523Y257878D01*
X305539Y257470D01*
X304694Y256822D01*
X304046Y255977D01*
X303870Y255552D01*
X276839D01*
X276663Y255977D01*
X276015Y256822D01*
X275170Y257470D01*
X274186Y257878D01*
X273130Y258017D01*
X270177D01*
X269121Y257878D01*
X268349Y257558D01*
X237700Y288207D01*
X237176Y288557D01*
X236558Y288680D01*
D02*
G37*
G36*
X214259Y248041D02*
X213064D01*
X211910Y247732D01*
X210876Y247134D01*
X210031Y246290D01*
X209434Y245255D01*
X209124Y244101D01*
Y242907D01*
X209434Y241753D01*
X210031Y240718D01*
X210876Y239873D01*
X211910Y239276D01*
X213064Y238967D01*
X214259D01*
X215413Y239276D01*
X216447Y239873D01*
X217292Y240718D01*
X217889Y241753D01*
X218198Y242907D01*
Y244101D01*
X217889Y245255D01*
X217292Y246290D01*
X216447Y247134D01*
X215413Y247732D01*
X214259Y248041D01*
D02*
G37*
G36*
X179449Y269332D02*
X120945D01*
X120327Y269209D01*
X119803Y268859D01*
X109248Y258304D01*
X108584Y258482D01*
X107636D01*
X106721Y258237D01*
X105900Y257763D01*
X105229Y257092D01*
X104756Y256271D01*
X104510Y255356D01*
Y254408D01*
X104756Y253492D01*
X105229Y252671D01*
X105900Y252001D01*
X106721Y251527D01*
X107636Y251282D01*
X108584D01*
X109500Y251527D01*
X110321Y252001D01*
X110991Y252671D01*
X111465Y253492D01*
X111710Y254408D01*
Y255356D01*
X111532Y256020D01*
X121614Y266101D01*
X178780D01*
X199504Y245377D01*
X199434Y245255D01*
X199124Y244101D01*
Y242907D01*
X199434Y241753D01*
X200031Y240718D01*
X200876Y239873D01*
X201910Y239276D01*
X203064Y238967D01*
X204259D01*
X205413Y239276D01*
X206447Y239873D01*
X207292Y240718D01*
X207889Y241753D01*
X208198Y242907D01*
Y244101D01*
X207889Y245255D01*
X207292Y246290D01*
X206447Y247134D01*
X205413Y247732D01*
X204259Y248041D01*
X203064D01*
X201910Y247732D01*
X201788Y247661D01*
X180591Y268859D01*
X180067Y269209D01*
X179449Y269332D01*
D02*
G37*
G36*
X214259Y238041D02*
X213064D01*
X211910Y237732D01*
X210876Y237135D01*
X210031Y236290D01*
X209434Y235255D01*
X209124Y234101D01*
Y232907D01*
X209434Y231753D01*
X210031Y230718D01*
X210876Y229873D01*
X211910Y229276D01*
X213064Y228967D01*
X214259D01*
X215413Y229276D01*
X216447Y229873D01*
X217292Y230718D01*
X217889Y231753D01*
X218198Y232907D01*
Y234101D01*
X217889Y235255D01*
X217292Y236290D01*
X216447Y237135D01*
X215413Y237732D01*
X214259Y238041D01*
D02*
G37*
G36*
X173386Y265395D02*
X127008D01*
X126390Y265272D01*
X125866Y264922D01*
X119248Y258304D01*
X118584Y258482D01*
X117636D01*
X116721Y258237D01*
X115900Y257763D01*
X115229Y257092D01*
X114756Y256271D01*
X114510Y255356D01*
Y254408D01*
X114756Y253492D01*
X115229Y252671D01*
X115900Y252001D01*
X116721Y251527D01*
X117636Y251282D01*
X118584D01*
X119500Y251527D01*
X120321Y252001D01*
X120991Y252671D01*
X121465Y253492D01*
X121710Y254408D01*
Y255356D01*
X121532Y256020D01*
X127677Y262164D01*
X172717D01*
X199504Y235377D01*
X199434Y235255D01*
X199124Y234101D01*
Y232907D01*
X199434Y231753D01*
X200031Y230718D01*
X200876Y229873D01*
X201910Y229276D01*
X203064Y228967D01*
X204259D01*
X205413Y229276D01*
X206447Y229873D01*
X207292Y230718D01*
X207889Y231753D01*
X208198Y232907D01*
Y234101D01*
X207889Y235255D01*
X207292Y236290D01*
X206447Y237135D01*
X205413Y237732D01*
X204259Y238041D01*
X203064D01*
X201910Y237732D01*
X201788Y237661D01*
X174528Y264922D01*
X174004Y265272D01*
X173386Y265395D01*
D02*
G37*
G36*
X214259Y228041D02*
X213064D01*
X211910Y227732D01*
X210876Y227134D01*
X210031Y226290D01*
X209434Y225255D01*
X209124Y224101D01*
Y222907D01*
X209434Y221753D01*
X210031Y220718D01*
X210876Y219873D01*
X211910Y219276D01*
X213064Y218967D01*
X214259D01*
X215413Y219276D01*
X216447Y219873D01*
X217292Y220718D01*
X217889Y221753D01*
X218198Y222907D01*
Y224101D01*
X217889Y225255D01*
X217292Y226290D01*
X216447Y227134D01*
X215413Y227732D01*
X214259Y228041D01*
D02*
G37*
G36*
Y218041D02*
X213064D01*
X211910Y217732D01*
X210876Y217134D01*
X210031Y216290D01*
X209434Y215255D01*
X209124Y214101D01*
Y212907D01*
X209434Y211753D01*
X210031Y210718D01*
X210876Y209873D01*
X211910Y209276D01*
X213064Y208967D01*
X214259D01*
X215413Y209276D01*
X216447Y209873D01*
X217292Y210718D01*
X217889Y211753D01*
X218198Y212907D01*
Y214101D01*
X217889Y215255D01*
X217292Y216290D01*
X216447Y217134D01*
X215413Y217732D01*
X214259Y218041D01*
D02*
G37*
G36*
Y208041D02*
X213064D01*
X211910Y207732D01*
X210876Y207135D01*
X210031Y206290D01*
X209434Y205255D01*
X209124Y204101D01*
Y202907D01*
X209434Y201753D01*
X210031Y200718D01*
X210876Y199873D01*
X211910Y199276D01*
X213064Y198967D01*
X214259D01*
X215413Y199276D01*
X216447Y199873D01*
X217292Y200718D01*
X217889Y201753D01*
X218198Y202907D01*
Y204101D01*
X217889Y205255D01*
X217292Y206290D01*
X216447Y207135D01*
X215413Y207732D01*
X214259Y208041D01*
D02*
G37*
G36*
X138584Y258482D02*
X137636D01*
X136721Y258237D01*
X135900Y257763D01*
X135230Y257092D01*
X134756Y256271D01*
X134510Y255356D01*
Y254408D01*
X134756Y253492D01*
X135230Y252671D01*
X135900Y252001D01*
X136721Y251527D01*
X137636Y251282D01*
X138584D01*
X139248Y251460D01*
X188346Y202362D01*
X188870Y202012D01*
X189488Y201889D01*
X199397D01*
X199434Y201753D01*
X200031Y200718D01*
X200876Y199873D01*
X201910Y199276D01*
X203064Y198967D01*
X204259D01*
X205413Y199276D01*
X206447Y199873D01*
X207292Y200718D01*
X207889Y201753D01*
X208198Y202907D01*
Y204101D01*
X207889Y205255D01*
X207292Y206290D01*
X206447Y207135D01*
X205413Y207732D01*
X204259Y208041D01*
X203064D01*
X201910Y207732D01*
X200876Y207135D01*
X200031Y206290D01*
X199434Y205255D01*
X199397Y205119D01*
X190157D01*
X141532Y253744D01*
X141710Y254408D01*
Y255356D01*
X141465Y256271D01*
X140991Y257092D01*
X140321Y257763D01*
X139500Y258237D01*
X138584Y258482D01*
D02*
G37*
G36*
X148637Y198882D02*
X148610D01*
Y195382D01*
X152110D01*
Y195408D01*
X151838Y196426D01*
X151311Y197338D01*
X150566Y198083D01*
X149654Y198609D01*
X148637Y198882D01*
D02*
G37*
G36*
X147610D02*
X147584D01*
X146566Y198609D01*
X145654Y198083D01*
X144909Y197338D01*
X144383Y196426D01*
X144110Y195408D01*
Y195382D01*
X147610D01*
Y198882D01*
D02*
G37*
G36*
X28584Y258482D02*
X27636D01*
X26721Y258237D01*
X25900Y257763D01*
X25229Y257092D01*
X24756Y256271D01*
X24510Y255356D01*
Y254408D01*
X24756Y253492D01*
X25229Y252671D01*
X25900Y252001D01*
X26721Y251527D01*
X27636Y251282D01*
X28584D01*
X29248Y251460D01*
X79094Y201614D01*
X79618Y201264D01*
X80236Y201141D01*
X166654D01*
X174899Y192895D01*
X175065Y192495D01*
X175566Y191994D01*
X176221Y191723D01*
X176929D01*
X177584Y191994D01*
X178085Y192495D01*
X178356Y193150D01*
Y193858D01*
X178085Y194513D01*
X177584Y195014D01*
X177183Y195180D01*
X168465Y203898D01*
X167941Y204248D01*
X167323Y204371D01*
X80905D01*
X31532Y253744D01*
X31710Y254408D01*
Y255356D01*
X31465Y256271D01*
X30991Y257092D01*
X30321Y257763D01*
X29500Y258237D01*
X28584Y258482D01*
D02*
G37*
G36*
X158584Y198482D02*
X157636D01*
X156721Y198237D01*
X155900Y197763D01*
X155229Y197092D01*
X154756Y196271D01*
X154510Y195356D01*
Y194408D01*
X154756Y193492D01*
X155229Y192671D01*
X155900Y192001D01*
X156721Y191527D01*
X157636Y191282D01*
X158584D01*
X159500Y191527D01*
X160321Y192001D01*
X160991Y192671D01*
X161465Y193492D01*
X161710Y194408D01*
Y195356D01*
X161465Y196271D01*
X160991Y197092D01*
X160321Y197763D01*
X159500Y198237D01*
X158584Y198482D01*
D02*
G37*
G36*
X138584D02*
X137636D01*
X136721Y198237D01*
X135900Y197763D01*
X135230Y197092D01*
X134756Y196271D01*
X134510Y195356D01*
Y194408D01*
X134756Y193492D01*
X135230Y192671D01*
X135900Y192001D01*
X136721Y191527D01*
X137636Y191282D01*
X138584D01*
X139500Y191527D01*
X140321Y192001D01*
X140991Y192671D01*
X141465Y193492D01*
X141710Y194408D01*
Y195356D01*
X141465Y196271D01*
X140991Y197092D01*
X140321Y197763D01*
X139500Y198237D01*
X138584Y198482D01*
D02*
G37*
G36*
X98584D02*
X97636D01*
X96721Y198237D01*
X95900Y197763D01*
X95230Y197092D01*
X94756Y196271D01*
X94510Y195356D01*
Y194408D01*
X94688Y193744D01*
X81693Y180749D01*
X76772D01*
X76153Y180626D01*
X75630Y180276D01*
X67756Y172402D01*
X67405Y171878D01*
X67282Y171260D01*
Y164055D01*
X65865Y162638D01*
X65265Y162805D01*
Y162805D01*
X58750D01*
Y157077D01*
X60393D01*
Y149025D01*
X58750D01*
Y143298D01*
X65265D01*
Y149025D01*
X63623D01*
Y157077D01*
X65265D01*
Y158910D01*
X66037D01*
X66655Y159032D01*
X67179Y159383D01*
X70040Y162244D01*
X70390Y162768D01*
X70513Y163386D01*
Y170591D01*
X77441Y177519D01*
X82362D01*
X82980Y177641D01*
X83504Y177992D01*
X96973Y191460D01*
X97636Y191282D01*
X98584D01*
X99500Y191527D01*
X100321Y192001D01*
X100991Y192671D01*
X101465Y193492D01*
X101710Y194408D01*
Y195356D01*
X101465Y196271D01*
X100991Y197092D01*
X100321Y197763D01*
X99500Y198237D01*
X98584Y198482D01*
D02*
G37*
G36*
X88584D02*
X87636D01*
X86721Y198237D01*
X85900Y197763D01*
X85229Y197092D01*
X84756Y196271D01*
X84510Y195356D01*
Y194408D01*
X84688Y193744D01*
X77599Y186655D01*
X66929D01*
X66311Y186532D01*
X65787Y186182D01*
X51894Y172289D01*
X51544Y171765D01*
X51421Y171147D01*
Y163942D01*
X49133Y161654D01*
X48533Y161791D01*
Y162805D01*
X42018D01*
Y157077D01*
X43660D01*
Y150009D01*
X42018D01*
Y146188D01*
X41464Y145958D01*
X33721Y153701D01*
X33197Y154051D01*
X32579Y154174D01*
X20933D01*
X20758Y154599D01*
X20109Y155444D01*
X19264Y156092D01*
X18280Y156500D01*
X17224Y156639D01*
X14272D01*
X13216Y156500D01*
X12232Y156092D01*
X11387Y155444D01*
X10739Y154599D01*
X10331Y153615D01*
X10192Y152559D01*
X10331Y151503D01*
X10739Y150519D01*
X11387Y149674D01*
X12232Y149026D01*
X13216Y148618D01*
X14272Y148479D01*
X17224D01*
X18280Y148618D01*
X19264Y149026D01*
X20109Y149674D01*
X20758Y150519D01*
X20933Y150944D01*
X31910D01*
X42018Y140835D01*
Y137392D01*
X48533D01*
Y137656D01*
X58750D01*
Y136408D01*
X65265D01*
Y137656D01*
X74134D01*
X75876Y135914D01*
Y132274D01*
X83572D01*
Y138198D01*
X78161D01*
X75945Y140414D01*
X75421Y140764D01*
X74803Y140887D01*
X65265D01*
Y142135D01*
X58750D01*
Y140887D01*
X48533D01*
Y143120D01*
X44302D01*
X43695Y143728D01*
X43924Y144282D01*
X48533D01*
Y150009D01*
X46891D01*
Y157077D01*
X48533D01*
Y158326D01*
X49705D01*
X50323Y158449D01*
X50847Y158799D01*
X54292Y162244D01*
X54642Y162768D01*
X54765Y163386D01*
X54652Y163955D01*
Y170477D01*
X67598Y183424D01*
X78268D01*
X78886Y183547D01*
X79410Y183897D01*
X86972Y191460D01*
X87636Y191282D01*
X88584D01*
X89500Y191527D01*
X90321Y192001D01*
X90991Y192671D01*
X91465Y193492D01*
X91710Y194408D01*
Y195356D01*
X91465Y196271D01*
X90991Y197092D01*
X90321Y197763D01*
X89500Y198237D01*
X88584Y198482D01*
D02*
G37*
G36*
X78584D02*
X77636D01*
X76721Y198237D01*
X75900Y197763D01*
X75230Y197092D01*
X74756Y196271D01*
X74510Y195356D01*
Y194408D01*
X74756Y193492D01*
X75230Y192671D01*
X75900Y192001D01*
X76721Y191527D01*
X77636Y191282D01*
X78584D01*
X79500Y191527D01*
X80321Y192001D01*
X80991Y192671D01*
X81465Y193492D01*
X81710Y194408D01*
Y195356D01*
X81465Y196271D01*
X80991Y197092D01*
X80321Y197763D01*
X79500Y198237D01*
X78584Y198482D01*
D02*
G37*
G36*
X68584D02*
X67636D01*
X66721Y198237D01*
X65900Y197763D01*
X65229Y197092D01*
X64756Y196271D01*
X64510Y195356D01*
Y194408D01*
X64756Y193492D01*
X65229Y192671D01*
X65900Y192001D01*
X66721Y191527D01*
X67636Y191282D01*
X68584D01*
X69500Y191527D01*
X70321Y192001D01*
X70991Y192671D01*
X71465Y193492D01*
X71710Y194408D01*
Y195356D01*
X71465Y196271D01*
X70991Y197092D01*
X70321Y197763D01*
X69500Y198237D01*
X68584Y198482D01*
D02*
G37*
G36*
X58584D02*
X57636D01*
X56721Y198237D01*
X55900Y197763D01*
X55230Y197092D01*
X54756Y196271D01*
X54510Y195356D01*
Y194408D01*
X54756Y193492D01*
X55230Y192671D01*
X55900Y192001D01*
X56721Y191527D01*
X57636Y191282D01*
X58584D01*
X59500Y191527D01*
X60321Y192001D01*
X60991Y192671D01*
X61465Y193492D01*
X61710Y194408D01*
Y195356D01*
X61465Y196271D01*
X60991Y197092D01*
X60321Y197763D01*
X59500Y198237D01*
X58584Y198482D01*
D02*
G37*
G36*
X48584D02*
X47636D01*
X46721Y198237D01*
X45900Y197763D01*
X45230Y197092D01*
X44756Y196271D01*
X44510Y195356D01*
Y194408D01*
X44756Y193492D01*
X45230Y192671D01*
X45900Y192001D01*
X46721Y191527D01*
X47636Y191282D01*
X48584D01*
X49500Y191527D01*
X50321Y192001D01*
X50991Y192671D01*
X51465Y193492D01*
X51710Y194408D01*
Y195356D01*
X51465Y196271D01*
X50991Y197092D01*
X50321Y197763D01*
X49500Y198237D01*
X48584Y198482D01*
D02*
G37*
G36*
X38584D02*
X37636D01*
X36721Y198237D01*
X35900Y197763D01*
X35230Y197092D01*
X34756Y196271D01*
X34510Y195356D01*
Y194408D01*
X34756Y193492D01*
X35230Y192671D01*
X35900Y192001D01*
X36721Y191527D01*
X37636Y191282D01*
X38584D01*
X39500Y191527D01*
X40321Y192001D01*
X40991Y192671D01*
X41465Y193492D01*
X41710Y194408D01*
Y195356D01*
X41465Y196271D01*
X40991Y197092D01*
X40321Y197763D01*
X39500Y198237D01*
X38584Y198482D01*
D02*
G37*
G36*
X28584D02*
X27636D01*
X26721Y198237D01*
X25900Y197763D01*
X25229Y197092D01*
X24756Y196271D01*
X24510Y195356D01*
Y194408D01*
X24756Y193492D01*
X25229Y192671D01*
X25900Y192001D01*
X26721Y191527D01*
X27636Y191282D01*
X28584D01*
X29500Y191527D01*
X30321Y192001D01*
X30991Y192671D01*
X31465Y193492D01*
X31710Y194408D01*
Y195356D01*
X31465Y196271D01*
X30991Y197092D01*
X30321Y197763D01*
X29500Y198237D01*
X28584Y198482D01*
D02*
G37*
G36*
X152110Y194382D02*
X148610D01*
Y190882D01*
X148637D01*
X149654Y191155D01*
X150566Y191681D01*
X151311Y192426D01*
X151838Y193338D01*
X152110Y194355D01*
Y194382D01*
D02*
G37*
G36*
X147610D02*
X144110D01*
Y194355D01*
X144383Y193338D01*
X144909Y192426D01*
X145654Y191681D01*
X146566Y191155D01*
X147584Y190882D01*
X147610D01*
Y194382D01*
D02*
G37*
G36*
X299031Y191748D02*
X295776D01*
Y188689D01*
X299031D01*
Y191748D01*
D02*
G37*
G36*
X294776D02*
X291520D01*
Y188689D01*
X294776D01*
Y191748D01*
D02*
G37*
G36*
X214259Y198041D02*
X213064D01*
X211910Y197732D01*
X210876Y197134D01*
X210031Y196290D01*
X209434Y195255D01*
X209124Y194101D01*
Y192907D01*
X209434Y191753D01*
X210031Y190718D01*
X210876Y189873D01*
X211910Y189276D01*
X212872Y189018D01*
X212860Y188400D01*
X211756Y188104D01*
X210630Y187454D01*
X209711Y186535D01*
X209061Y185409D01*
X208972Y185078D01*
X208351D01*
X208262Y185409D01*
X207612Y186535D01*
X206693Y187454D01*
X205567Y188104D01*
X204463Y188400D01*
X204451Y189018D01*
X205413Y189276D01*
X206447Y189873D01*
X207292Y190718D01*
X207889Y191753D01*
X208198Y192907D01*
Y194101D01*
X207889Y195255D01*
X207292Y196290D01*
X206447Y197134D01*
X205413Y197732D01*
X204259Y198041D01*
X203064D01*
X201910Y197732D01*
X200876Y197134D01*
X200031Y196290D01*
X199434Y195255D01*
X199124Y194101D01*
Y192907D01*
X199434Y191753D01*
X200031Y190718D01*
X200876Y189873D01*
X201910Y189276D01*
X202872Y189018D01*
X202860Y188400D01*
X201756Y188104D01*
X200630Y187454D01*
X199711Y186535D01*
X199061Y185409D01*
X198724Y184154D01*
Y184004D01*
X203661D01*
Y183504D01*
X204161D01*
Y178567D01*
X204311D01*
X205567Y178903D01*
X206693Y179553D01*
X207612Y180473D01*
X208262Y181598D01*
X208351Y181930D01*
X208972D01*
X209061Y181598D01*
X209711Y180473D01*
X210630Y179553D01*
X211756Y178903D01*
X213012Y178567D01*
X213161D01*
Y183504D01*
X213661D01*
Y184004D01*
X218598D01*
Y184154D01*
X218262Y185409D01*
X217612Y186535D01*
X216693Y187454D01*
X215567Y188104D01*
X214463Y188400D01*
X214451Y189018D01*
X215413Y189276D01*
X216447Y189873D01*
X217292Y190718D01*
X217889Y191753D01*
X218198Y192907D01*
Y194101D01*
X217889Y195255D01*
X217292Y196290D01*
X216447Y197134D01*
X215413Y197732D01*
X214259Y198041D01*
D02*
G37*
G36*
X263500Y183874D02*
X260343D01*
Y181110D01*
X263500D01*
Y183874D01*
D02*
G37*
G36*
X259343D02*
X256185D01*
Y181110D01*
X259343D01*
Y183874D01*
D02*
G37*
G36*
X218598Y183004D02*
X214161D01*
Y178567D01*
X214311D01*
X215567Y178903D01*
X216693Y179553D01*
X217612Y180473D01*
X218262Y181598D01*
X218598Y182854D01*
Y183004D01*
D02*
G37*
G36*
X203161D02*
X198724D01*
Y182854D01*
X199061Y181598D01*
X199711Y180473D01*
X200630Y179553D01*
X201756Y178903D01*
X203011Y178567D01*
X203161D01*
Y183004D01*
D02*
G37*
G36*
X324622Y181390D02*
X321366D01*
Y178331D01*
X324622D01*
Y181390D01*
D02*
G37*
G36*
X263500Y180110D02*
X260343D01*
Y177347D01*
X263500D01*
Y180110D01*
D02*
G37*
G36*
X259343D02*
X256185D01*
Y177347D01*
X259343D01*
Y180110D01*
D02*
G37*
G36*
X374486Y182702D02*
X373546D01*
X372638Y182459D01*
X371825Y181989D01*
X371160Y181325D01*
X370690Y180511D01*
X370447Y179604D01*
Y178664D01*
X370690Y177757D01*
X371160Y176943D01*
X371825Y176278D01*
X372638Y175809D01*
X373546Y175565D01*
X374486D01*
X375393Y175809D01*
X376207Y176278D01*
X376871Y176943D01*
X377341Y177757D01*
X377584Y178664D01*
Y179604D01*
X377341Y180511D01*
X376871Y181325D01*
X376207Y181989D01*
X375393Y182459D01*
X374486Y182702D01*
D02*
G37*
G36*
X263100Y176584D02*
X256585D01*
Y175336D01*
X253257D01*
Y176584D01*
X246743D01*
Y170857D01*
X253257D01*
Y172105D01*
X256585D01*
Y170857D01*
X258129D01*
Y166742D01*
X257471D01*
Y161998D01*
X261821D01*
Y166742D01*
X261359D01*
Y170857D01*
X263100D01*
Y176584D01*
D02*
G37*
G36*
X83972Y172260D02*
X80224D01*
Y169398D01*
X83972D01*
Y172260D01*
D02*
G37*
G36*
X79224D02*
X75476D01*
Y169398D01*
X79224D01*
Y172260D01*
D02*
G37*
G36*
X98584Y258482D02*
X97636D01*
X96721Y258237D01*
X95900Y257763D01*
X95230Y257092D01*
X94756Y256271D01*
X94510Y255356D01*
Y254408D01*
X94756Y253492D01*
X95230Y252671D01*
X95900Y252001D01*
X96721Y251527D01*
X97636Y251282D01*
X98584D01*
X99248Y251460D01*
X104021Y246687D01*
X104544Y246337D01*
X105163Y246214D01*
X135360D01*
X183424Y198150D01*
Y168907D01*
X182718D01*
Y194882D01*
X182595Y195500D01*
X182245Y196024D01*
X135001Y243268D01*
X134476Y243618D01*
X133858Y243741D01*
X101535D01*
X91532Y253744D01*
X91710Y254408D01*
Y255356D01*
X91465Y256271D01*
X90991Y257092D01*
X90321Y257763D01*
X89500Y258237D01*
X88584Y258482D01*
X87636D01*
X86721Y258237D01*
X85900Y257763D01*
X85229Y257092D01*
X84756Y256271D01*
X84510Y255356D01*
Y254408D01*
X84756Y253492D01*
X85229Y252671D01*
X85900Y252001D01*
X86721Y251527D01*
X87636Y251282D01*
X88584D01*
X89248Y251460D01*
X99724Y240984D01*
X100248Y240634D01*
X100866Y240511D01*
X133189D01*
X179487Y194213D01*
Y162697D01*
X179610Y162079D01*
X179960Y161555D01*
X182372Y159142D01*
Y157865D01*
X187706D01*
Y158030D01*
X207382D01*
X207461Y158046D01*
X208061Y157554D01*
Y153337D01*
X215167D01*
Y154290D01*
X226083D01*
X226701Y154413D01*
X227225Y154763D01*
X229047Y156585D01*
X232687D01*
Y161258D01*
X233130Y161555D01*
X235315Y163739D01*
X237786D01*
Y156585D01*
X239133D01*
Y148425D01*
X239256Y147807D01*
X239558Y147355D01*
Y141723D01*
X240173D01*
Y134531D01*
X219501Y113858D01*
X217736D01*
X217141Y113740D01*
X216637Y113403D01*
X216300Y112898D01*
X216181Y112303D01*
Y97933D01*
X216300Y97338D01*
X216637Y96833D01*
X217141Y96496D01*
X217736Y96378D01*
X219587D01*
X220182Y96496D01*
X220686Y96833D01*
X221023Y97338D01*
X221142Y97933D01*
Y110987D01*
X221314Y111102D01*
X242931Y132719D01*
X243281Y133243D01*
X243404Y133861D01*
Y141723D01*
X245657D01*
Y140523D01*
X245780Y139905D01*
X246130Y139381D01*
X267847Y117664D01*
Y113423D01*
X267818Y113403D01*
X267481Y112898D01*
X267362Y112303D01*
Y97933D01*
X267481Y97338D01*
X267818Y96833D01*
X268322Y96496D01*
X268917Y96378D01*
X270768D01*
X271363Y96496D01*
X271867Y96833D01*
X272204Y97338D01*
X272323Y97933D01*
Y112303D01*
X272204Y112898D01*
X271867Y113403D01*
X271363Y113740D01*
X271078Y113796D01*
Y118333D01*
X270955Y118951D01*
X270605Y119475D01*
X248957Y141123D01*
X249055Y141723D01*
X250600D01*
Y149616D01*
X242363D01*
Y156585D01*
X243710D01*
Y162253D01*
X244265Y162483D01*
X246876Y159872D01*
X247399Y159522D01*
X248018Y159399D01*
X250915D01*
X253731Y156583D01*
Y154124D01*
X258080D01*
Y158868D01*
X256015D01*
X253839Y161044D01*
X254068Y161598D01*
X254740D01*
Y163870D01*
X249590D01*
Y162629D01*
X248687D01*
X244820Y166497D01*
X244296Y166847D01*
X243677Y166970D01*
X234646D01*
X234028Y166847D01*
X233504Y166497D01*
X231319Y164312D01*
X231102D01*
X230946Y164281D01*
X226762D01*
Y158869D01*
X225414Y157521D01*
X215167D01*
Y158474D01*
X213739D01*
X213583Y158505D01*
X213427Y158474D01*
X209343D01*
X209095Y159074D01*
X229015Y178995D01*
X246743D01*
Y177746D01*
X253257D01*
Y183474D01*
X246743D01*
Y182226D01*
X228346D01*
X227728Y182103D01*
X227204Y181752D01*
X206713Y161261D01*
X187706D01*
Y161427D01*
X184657D01*
X182718Y163366D01*
Y165345D01*
X187706D01*
Y168907D01*
X186655D01*
Y198819D01*
X186532Y199437D01*
X186181Y199961D01*
X137171Y248972D01*
X136647Y249322D01*
X136029Y249445D01*
X105832D01*
X101532Y253744D01*
X101710Y254408D01*
Y255356D01*
X101465Y256271D01*
X100991Y257092D01*
X100321Y257763D01*
X99500Y258237D01*
X98584Y258482D01*
D02*
G37*
G36*
X65665Y170095D02*
X62508D01*
Y167331D01*
X65665D01*
Y170095D01*
D02*
G37*
G36*
X61508D02*
X58350D01*
Y167331D01*
X61508D01*
Y170095D01*
D02*
G37*
G36*
X48933D02*
X45776D01*
Y167331D01*
X48933D01*
Y170095D01*
D02*
G37*
G36*
X44776D02*
X41618D01*
Y167331D01*
X44776D01*
Y170095D01*
D02*
G37*
G36*
X83972Y168398D02*
X80224D01*
Y165535D01*
X83972D01*
Y168398D01*
D02*
G37*
G36*
X79224D02*
X75476D01*
Y165535D01*
X79224D01*
Y168398D01*
D02*
G37*
G36*
X128584Y198482D02*
X127636D01*
X126721Y198237D01*
X125900Y197763D01*
X125230Y197092D01*
X124756Y196271D01*
X124510Y195356D01*
Y194408D01*
X124756Y193492D01*
X125230Y192671D01*
X125900Y192001D01*
X126721Y191527D01*
X127636Y191282D01*
X128584D01*
X129248Y191460D01*
X154724Y165984D01*
X155248Y165634D01*
X155866Y165511D01*
X160719D01*
Y165345D01*
X166053D01*
Y165511D01*
X174893D01*
X175049Y165542D01*
X175551D01*
X176206Y165813D01*
X176707Y166314D01*
X176978Y166969D01*
Y167677D01*
X176707Y168332D01*
X176206Y168833D01*
X175551Y169104D01*
X174843D01*
X174188Y168833D01*
X174096Y168741D01*
X166053D01*
Y168907D01*
X160719D01*
Y168741D01*
X156535D01*
X131532Y193744D01*
X131710Y194408D01*
Y195356D01*
X131465Y196271D01*
X130991Y197092D01*
X130321Y197763D01*
X129500Y198237D01*
X128584Y198482D01*
D02*
G37*
G36*
X254740Y167142D02*
X252665D01*
Y164870D01*
X254740D01*
Y167142D01*
D02*
G37*
G36*
X251665D02*
X249590D01*
Y164870D01*
X251665D01*
Y167142D01*
D02*
G37*
G36*
X148638Y166847D02*
X146169D01*
Y164575D01*
X148638D01*
Y166847D01*
D02*
G37*
G36*
X145169D02*
X142701D01*
Y164575D01*
X145169D01*
Y166847D01*
D02*
G37*
G36*
X98779Y176978D02*
X98071D01*
X97416Y176707D01*
X96915Y176206D01*
X96644Y175551D01*
Y174843D01*
X96915Y174188D01*
X97416Y173687D01*
X97635Y173596D01*
X98778Y172453D01*
Y167923D01*
X97727D01*
Y164361D01*
X103061D01*
Y167923D01*
X102009D01*
Y173122D01*
X101886Y173740D01*
X101536Y174264D01*
X100176Y175624D01*
X99935Y176206D01*
X99434Y176707D01*
X98779Y176978D01*
D02*
G37*
G36*
X65665Y166331D02*
X62508D01*
Y163567D01*
X65665D01*
Y166331D01*
D02*
G37*
G36*
X61508D02*
X58350D01*
Y163567D01*
X61508D01*
Y166331D01*
D02*
G37*
G36*
X48933D02*
X45776D01*
Y163567D01*
X48933D01*
Y166331D01*
D02*
G37*
G36*
X44776D02*
X41618D01*
Y163567D01*
X44776D01*
Y166331D01*
D02*
G37*
G36*
X324222Y191348D02*
X317510D01*
Y188125D01*
X317417Y188107D01*
X316893Y187756D01*
X312440Y183304D01*
X312291Y183080D01*
X310424D01*
Y179124D01*
X312883D01*
X317873Y174134D01*
Y172057D01*
X314951D01*
Y164951D01*
X324025D01*
Y172057D01*
X321104D01*
Y174803D01*
X320981Y175421D01*
X320630Y175945D01*
X318799Y177776D01*
X319029Y178331D01*
X320366D01*
Y181890D01*
X320866D01*
Y182390D01*
X324622D01*
Y182621D01*
X325176Y182851D01*
X333030Y174997D01*
Y172942D01*
X329026D01*
Y161703D01*
X340265D01*
Y172942D01*
X336261D01*
Y175666D01*
X336138Y176284D01*
X335788Y176808D01*
X324839Y187756D01*
X324315Y188107D01*
X324222Y188125D01*
Y191348D01*
D02*
G37*
G36*
X108584Y198482D02*
X107636D01*
X106721Y198237D01*
X105900Y197763D01*
X105229Y197092D01*
X104756Y196271D01*
X104510Y195356D01*
Y194408D01*
X104756Y193492D01*
X105229Y192671D01*
X105900Y192001D01*
X106190Y191833D01*
X106244Y191205D01*
X87441Y172402D01*
X87090Y171878D01*
X86967Y171260D01*
Y162086D01*
X84370Y159489D01*
X83572D01*
Y160836D01*
X75876D01*
Y154912D01*
X78109D01*
Y149222D01*
X75876D01*
Y143298D01*
X83572D01*
Y149222D01*
X81340D01*
Y154912D01*
X83572D01*
Y156259D01*
X85039D01*
X85658Y156382D01*
X86182Y156732D01*
X89725Y160275D01*
X90075Y160799D01*
X90198Y161417D01*
Y170591D01*
X109087Y189480D01*
X109438Y190004D01*
X109561Y190622D01*
Y191562D01*
X110321Y192001D01*
X110991Y192671D01*
X111465Y193492D01*
X111710Y194408D01*
Y195356D01*
X111465Y196271D01*
X110991Y197092D01*
X110321Y197763D01*
X109500Y198237D01*
X108584Y198482D01*
D02*
G37*
G36*
X118584D02*
X117636D01*
X116721Y198237D01*
X115900Y197763D01*
X115229Y197092D01*
X114756Y196271D01*
X114510Y195356D01*
Y194408D01*
X114756Y193492D01*
X115229Y192671D01*
X115900Y192001D01*
X116721Y191527D01*
X117636Y191282D01*
X118584D01*
X119248Y191460D01*
X123385Y187323D01*
Y166250D01*
X122530D01*
Y165592D01*
X115914D01*
X115296Y165469D01*
X114772Y165119D01*
X109930Y160277D01*
X103061D01*
Y160442D01*
X97727D01*
Y156880D01*
X103061D01*
Y157046D01*
X110599D01*
X111218Y157169D01*
X111742Y157519D01*
X116583Y162361D01*
X122530D01*
Y161732D01*
X122530Y161703D01*
Y161132D01*
X122530Y161103D01*
Y156585D01*
X123385D01*
Y151457D01*
X123508Y150838D01*
X123858Y150314D01*
X126892Y147280D01*
X126723Y146649D01*
Y145713D01*
X126965Y144810D01*
X127433Y144000D01*
X128094Y143338D01*
X128904Y142870D01*
X129808Y142628D01*
X130743D01*
X131647Y142870D01*
X132457Y143338D01*
X133118Y144000D01*
X133493Y144648D01*
X134019Y144654D01*
X134029Y144652D01*
X134135Y144615D01*
X134632Y143754D01*
X135368Y143018D01*
X136270Y142498D01*
X137275Y142228D01*
X137295D01*
Y146181D01*
Y150134D01*
X137275D01*
X136270Y149864D01*
X135368Y149344D01*
X134632Y148608D01*
X134135Y147747D01*
X134029Y147710D01*
X134019Y147708D01*
X133493Y147714D01*
X133118Y148363D01*
X132457Y149024D01*
X131647Y149492D01*
X130743Y149734D01*
X129808D01*
X129176Y149565D01*
X126615Y152126D01*
Y156585D01*
X127470D01*
Y161103D01*
X127470Y161132D01*
Y161703D01*
X127470Y161732D01*
Y162410D01*
X132834D01*
X132936Y162309D01*
X133115Y161810D01*
X132858Y161531D01*
X132858Y161269D01*
Y159260D01*
X138795D01*
Y161269D01*
X138795Y161531D01*
X138395Y161966D01*
X138395Y162132D01*
Y166446D01*
X133258D01*
Y165641D01*
X127470D01*
Y166250D01*
X126615D01*
Y187992D01*
X126492Y188610D01*
X126142Y189134D01*
X121532Y193744D01*
X121710Y194408D01*
Y195356D01*
X121465Y196271D01*
X120991Y197092D01*
X120321Y197763D01*
X119500Y198237D01*
X118584Y198482D01*
D02*
G37*
G36*
X138795Y158260D02*
X136327D01*
Y155988D01*
X138795D01*
Y158260D01*
D02*
G37*
G36*
X135327D02*
X132858D01*
Y155988D01*
X135327D01*
Y158260D01*
D02*
G37*
G36*
X324425Y154347D02*
X319988D01*
Y150894D01*
X324425D01*
Y154347D01*
D02*
G37*
G36*
X318988D02*
X314551D01*
Y150894D01*
X318988D01*
Y154347D01*
D02*
G37*
G36*
X335239Y153657D02*
X335146D01*
Y148138D01*
X340665D01*
Y148231D01*
X340434Y149394D01*
X339980Y150489D01*
X339321Y151475D01*
X338483Y152314D01*
X337497Y152972D01*
X336402Y153426D01*
X335239Y153657D01*
D02*
G37*
G36*
X334146D02*
X334053D01*
X332890Y153426D01*
X331794Y152972D01*
X330808Y152314D01*
X329970Y151475D01*
X329311Y150489D01*
X328857Y149394D01*
X328626Y148231D01*
Y148138D01*
X334146D01*
Y153657D01*
D02*
G37*
G36*
X324425Y149894D02*
X319988D01*
Y146441D01*
X324425D01*
Y149894D01*
D02*
G37*
G36*
X318988D02*
X314551D01*
Y146441D01*
X318988D01*
Y149894D01*
D02*
G37*
G36*
X17224Y147200D02*
X16248D01*
Y143217D01*
X21642D01*
X21555Y143877D01*
X21107Y144958D01*
X20394Y145887D01*
X19466Y146599D01*
X18385Y147047D01*
X17224Y147200D01*
D02*
G37*
G36*
X15248D02*
X14272D01*
X13111Y147047D01*
X12030Y146599D01*
X11101Y145887D01*
X10389Y144958D01*
X9941Y143877D01*
X9854Y143217D01*
X15248D01*
Y147200D01*
D02*
G37*
G36*
X340665Y147138D02*
X335146D01*
Y141618D01*
X335239D01*
X336402Y141849D01*
X337497Y142303D01*
X338483Y142962D01*
X339321Y143800D01*
X339980Y144786D01*
X340434Y145882D01*
X340665Y147045D01*
Y147138D01*
D02*
G37*
G36*
X334146D02*
X328626D01*
Y147045D01*
X328857Y145882D01*
X329311Y144786D01*
X329970Y143800D01*
X330808Y142962D01*
X331794Y142303D01*
X332890Y141849D01*
X334053Y141618D01*
X334146D01*
Y147138D01*
D02*
G37*
G36*
X21642Y142217D02*
X16248D01*
Y138233D01*
X17224D01*
X18385Y138386D01*
X19466Y138834D01*
X20394Y139546D01*
X21107Y140475D01*
X21555Y141556D01*
X21642Y142217D01*
D02*
G37*
G36*
X15248D02*
X9854D01*
X9941Y141556D01*
X10389Y140475D01*
X11101Y139546D01*
X12030Y138834D01*
X13111Y138386D01*
X14272Y138233D01*
X15248D01*
Y142217D01*
D02*
G37*
G36*
X374486Y139395D02*
X373546D01*
X372638Y139152D01*
X371825Y138682D01*
X371160Y138018D01*
X370690Y137204D01*
X370447Y136297D01*
Y135357D01*
X370690Y134449D01*
X371160Y133636D01*
X371825Y132971D01*
X372638Y132501D01*
X373546Y132258D01*
X374486D01*
X375393Y132501D01*
X376207Y132971D01*
X376871Y133636D01*
X377341Y134449D01*
X377584Y135357D01*
Y136297D01*
X377341Y137204D01*
X376871Y138018D01*
X376207Y138682D01*
X375393Y139152D01*
X374486Y139395D01*
D02*
G37*
G36*
X45866Y114997D02*
X40748D01*
X39923Y114889D01*
X39155Y114570D01*
X38495Y114064D01*
X37989Y113404D01*
X37670Y112636D01*
X37562Y111811D01*
X37670Y110986D01*
X37989Y110218D01*
X38495Y109558D01*
X39155Y109052D01*
X39923Y108733D01*
X40748Y108625D01*
X45866D01*
X46691Y108733D01*
X47459Y109052D01*
X48119Y109558D01*
X48626Y110218D01*
X48944Y110986D01*
X49053Y111811D01*
X48944Y112636D01*
X48626Y113404D01*
X48119Y114064D01*
X47459Y114570D01*
X46691Y114889D01*
X45866Y114997D01*
D02*
G37*
G36*
X148638Y163575D02*
X142701D01*
Y161566D01*
X142701Y161303D01*
X143101Y160869D01*
X143101Y160703D01*
Y156388D01*
X144054D01*
Y149734D01*
X141762D01*
Y148416D01*
X141162Y148255D01*
X140958Y148608D01*
X140222Y149344D01*
X139321Y149864D01*
X138316Y150134D01*
X138295D01*
Y146181D01*
Y142228D01*
X138316D01*
X139321Y142498D01*
X140222Y143018D01*
X140958Y143754D01*
X141162Y144107D01*
X141762Y143947D01*
Y142628D01*
X148868D01*
Y149734D01*
X147285D01*
Y156388D01*
X148238D01*
Y157145D01*
X161614D01*
X162232Y157267D01*
X162756Y157618D01*
X163003Y157865D01*
X163427D01*
X163583Y157834D01*
X163799D01*
X169232Y152401D01*
X169756Y152051D01*
X170374Y151928D01*
X177785D01*
X178014Y151374D01*
X139305Y112664D01*
X139114Y112205D01*
Y49213D01*
X139305Y48753D01*
X143242Y44816D01*
X143701Y44626D01*
X175197D01*
X175656Y44816D01*
X179593Y48753D01*
X179783Y49213D01*
Y80440D01*
X185308Y85965D01*
X248031Y85965D01*
X248491Y86155D01*
X258333Y95998D01*
X258524Y96457D01*
Y118110D01*
X258333Y118570D01*
X252428Y124475D01*
X251969Y124665D01*
X240158D01*
X239698Y124475D01*
X231824Y116601D01*
X231634Y116142D01*
X231634Y98694D01*
X228077Y95138D01*
X206962D01*
X203405Y98694D01*
Y115873D01*
X222710Y135177D01*
X234252D01*
X234711Y135368D01*
X236680Y137336D01*
X236870Y137795D01*
Y149606D01*
X236680Y150066D01*
X234711Y152034D01*
X234252Y152224D01*
X200803D01*
X200449Y152824D01*
X200600Y153189D01*
Y153898D01*
X200329Y154552D01*
X199828Y155053D01*
X199173Y155324D01*
X198465D01*
X198064Y155159D01*
X171043D01*
X166053Y160149D01*
Y161427D01*
X160719D01*
Y160375D01*
X148662D01*
X148431Y160606D01*
X148336Y160975D01*
X148638Y161303D01*
X148638Y161566D01*
Y163575D01*
D02*
G37*
G36*
X118217Y119749D02*
X63099D01*
X62640Y119559D01*
X54766Y111685D01*
X54575Y111225D01*
Y83666D01*
X54766Y83207D01*
X62640Y75333D01*
X63099Y75143D01*
X86452D01*
X93945Y67649D01*
X93945Y52170D01*
X94136Y51711D01*
X102010Y43837D01*
X102469Y43647D01*
X130028D01*
X130487Y43837D01*
X137377Y50727D01*
X137567Y51186D01*
Y100399D01*
X137377Y100858D01*
X118676Y119559D01*
X118217Y119749D01*
D02*
G37*
G36*
X45866Y40588D02*
X40748D01*
X39923Y40479D01*
X39155Y40161D01*
X38495Y39655D01*
X37989Y38995D01*
X37670Y38226D01*
X37562Y37402D01*
X37670Y36577D01*
X37989Y35808D01*
X38495Y35149D01*
X39155Y34642D01*
X39923Y34324D01*
X40748Y34215D01*
X45866D01*
X46691Y34324D01*
X47459Y34642D01*
X48119Y35149D01*
X48626Y35808D01*
X48944Y36577D01*
X49053Y37402D01*
X48944Y38226D01*
X48626Y38995D01*
X48119Y39655D01*
X47459Y40161D01*
X46691Y40479D01*
X45866Y40588D01*
D02*
G37*
G36*
X282972Y84803D02*
X188484D01*
X188025Y84613D01*
X184088Y80676D01*
X183898Y80216D01*
Y37894D01*
X184088Y37435D01*
X189009Y32513D01*
X189469Y32323D01*
X306594Y32323D01*
X307054Y32513D01*
X314928Y40387D01*
X315118Y40846D01*
Y62500D01*
X314928Y62959D01*
X310991Y66896D01*
X310531Y67086D01*
X291115D01*
X287559Y70643D01*
Y80216D01*
X287369Y80676D01*
X283432Y84613D01*
X282972Y84803D01*
D02*
G37*
G36*
X370758Y16742D02*
X369399D01*
X368066Y16477D01*
X366811Y15957D01*
X365681Y15202D01*
X364720Y14241D01*
X363965Y13111D01*
X363445Y11855D01*
X363179Y10522D01*
Y9163D01*
X363445Y7830D01*
X363965Y6575D01*
X364720Y5444D01*
X365681Y4484D01*
X366811Y3729D01*
X368066Y3208D01*
X369399Y2943D01*
X370758D01*
X372091Y3208D01*
X373347Y3729D01*
X374477Y4484D01*
X375438Y5444D01*
X376193Y6575D01*
X376713Y7830D01*
X376978Y9163D01*
Y10522D01*
X376713Y11855D01*
X376193Y13111D01*
X375438Y14241D01*
X374477Y15202D01*
X373347Y15957D01*
X372091Y16477D01*
X370758Y16742D01*
D02*
G37*
G36*
X10522D02*
X9163D01*
X7830Y16477D01*
X6575Y15957D01*
X5444Y15202D01*
X4484Y14241D01*
X3729Y13111D01*
X3208Y11855D01*
X2943Y10522D01*
Y9163D01*
X3208Y7830D01*
X3729Y6575D01*
X4484Y5444D01*
X5444Y4484D01*
X6575Y3729D01*
X7830Y3208D01*
X9163Y2943D01*
X10522D01*
X11855Y3208D01*
X13111Y3729D01*
X14241Y4484D01*
X15202Y5444D01*
X15957Y6575D01*
X16477Y7830D01*
X16742Y9163D01*
Y10522D01*
X16477Y11855D01*
X15957Y13111D01*
X15202Y14241D01*
X14241Y15202D01*
X13111Y15957D01*
X11855Y16477D01*
X10522Y16742D01*
D02*
G37*
%LPD*%
G36*
X45839Y284895D02*
X19248Y258304D01*
X18584Y258482D01*
X18360D01*
X18112Y259082D01*
X44479Y285449D01*
X45609D01*
X45839Y284895D01*
D02*
G37*
G36*
X266412Y235733D02*
X266236Y235308D01*
X266097Y234252D01*
X266236Y233196D01*
X266404Y232792D01*
X265895Y232452D01*
X218589Y279758D01*
X218819Y280312D01*
X221832D01*
X266412Y235733D01*
D02*
G37*
G36*
X236221Y149606D02*
Y137795D01*
X234252Y135827D01*
X222441D01*
X202756Y116142D01*
Y98425D01*
X206693Y94488D01*
X228346D01*
X232283Y98425D01*
X232283Y116142D01*
X240158Y124016D01*
X251969D01*
X257874Y118110D01*
Y96457D01*
X248031Y86614D01*
X185039Y86614D01*
X179134Y80709D01*
Y49213D01*
X175197Y45276D01*
X143701D01*
X139764Y49213D01*
Y112205D01*
X179134Y151575D01*
X234252D01*
X236221Y149606D01*
D02*
G37*
G36*
X136918Y100399D02*
Y51186D01*
X130028Y44296D01*
X102469D01*
X94595Y52170D01*
X94595Y67918D01*
X86721Y75792D01*
X63099D01*
X55225Y83666D01*
Y111225D01*
X63099Y119099D01*
X118217D01*
X136918Y100399D01*
D02*
G37*
G36*
X286910Y80216D02*
Y70374D01*
X290846Y66437D01*
X310531D01*
X314469Y62500D01*
Y40846D01*
X306594Y32972D01*
X189469Y32972D01*
X184547Y37894D01*
Y80216D01*
X188484Y84153D01*
X282972D01*
X286910Y80216D01*
D02*
G37*
D16*
X218661Y105118D02*
D03*
X198661D02*
D03*
X269843D02*
D03*
X249843D02*
D03*
D17*
X294685Y159449D02*
D03*
D18*
X319488D02*
D03*
Y168504D02*
D03*
Y150394D02*
D03*
D19*
X259646Y164370D02*
D03*
X255906Y156496D02*
D03*
X252165Y164370D02*
D03*
D20*
X245079Y145669D02*
D03*
X229331D02*
D03*
D21*
X259842Y180610D02*
D03*
X62008Y166831D02*
D03*
X45276D02*
D03*
X250000Y180610D02*
D03*
X45276Y159941D02*
D03*
Y147146D02*
D03*
X62008Y159941D02*
D03*
Y146161D02*
D03*
X259842Y173721D02*
D03*
X250000D02*
D03*
X62008Y139272D02*
D03*
X45276Y140256D02*
D03*
D22*
X320866Y181890D02*
D03*
X295276Y188189D02*
D03*
X320866Y188189D02*
D03*
X295276Y181890D02*
D03*
D23*
X135827Y158760D02*
D03*
X145669Y164075D02*
D03*
X135827D02*
D03*
X145669Y158760D02*
D03*
D24*
X79724Y168898D02*
D03*
Y135236D02*
D03*
Y146260D02*
D03*
Y157874D02*
D03*
D25*
X163386Y159646D02*
D03*
Y167126D02*
D03*
X185039D02*
D03*
Y159646D02*
D03*
X100394Y166142D02*
D03*
Y158661D02*
D03*
D26*
X312795Y181102D02*
D03*
X305315Y178543D02*
D03*
Y183661D02*
D03*
D27*
X125000Y163976D02*
D03*
Y158858D02*
D03*
D28*
X211614Y143307D02*
D03*
Y155905D02*
D03*
D29*
X240748Y160433D02*
D03*
X229724D02*
D03*
D61*
X208661Y64961D02*
D03*
X259842D02*
D03*
D62*
X32579Y152559D02*
X44882Y140256D01*
X15748Y152559D02*
X32579D01*
X44882Y140256D02*
X45276D01*
X98425Y175090D02*
X100394Y173122D01*
Y166142D02*
Y173122D01*
X98425Y175090D02*
Y175197D01*
X174893Y167126D02*
X175090Y167323D01*
X155866Y167126D02*
X174893D01*
X175090Y167323D02*
X175197D01*
X164469Y159449D02*
X170374Y153543D01*
X198819D01*
X163386Y159646D02*
X163583Y159449D01*
X164469D01*
X65156Y281927D02*
X222502D01*
X270177Y234252D01*
X271654D01*
X285433Y159449D02*
X293307D01*
X309055Y273622D02*
X344488D01*
X250000Y173721D02*
X259842D01*
X259744Y173622D02*
X259842Y173721D01*
X259744Y164469D02*
Y173622D01*
X259646Y164370D02*
X259744Y164469D01*
X255906Y156496D02*
Y156693D01*
X251584Y161014D02*
X255906Y156693D01*
X248018Y161014D02*
X251584D01*
X243677Y165354D02*
X248018Y161014D01*
X234646Y165354D02*
X243677D01*
X231988Y162697D02*
X234646Y165354D01*
X231102Y162697D02*
X231988D01*
X229724Y161319D02*
X231102Y162697D01*
X229724Y160433D02*
Y161319D01*
X207382Y159646D02*
X228346Y180610D01*
X185039Y159646D02*
X207382D01*
X167323Y202756D02*
X176575Y193504D01*
X80236Y202756D02*
X167323D01*
X28110Y254882D02*
X80236Y202756D01*
X78268Y185039D02*
X88110Y194882D01*
X271654Y273622D02*
X309055D01*
X344488D02*
X345965D01*
X354331Y265256D01*
Y232283D02*
Y265256D01*
X305709Y183661D02*
X354331Y232283D01*
X305315Y183661D02*
X305709D01*
X320866Y188189D02*
X322441Y186614D01*
X323697D01*
X334646Y175666D01*
Y167323D02*
Y175666D01*
X294685Y159449D02*
X319488D01*
X294685D02*
X295276Y160039D01*
Y181890D01*
X304921Y183661D02*
X305315D01*
X303150Y181890D02*
X304921Y183661D01*
X295276Y181890D02*
X303150D01*
X313189Y181102D02*
X319488Y174803D01*
Y168504D02*
Y174803D01*
X313189Y181102D02*
X313583Y181496D01*
Y182162D01*
X318035Y186614D01*
X319291D01*
X320866Y188189D01*
X88110Y254882D02*
X100866Y242126D01*
X78110Y254882D02*
X94882Y271654D01*
X133858Y242126D02*
X181102Y194882D01*
Y162697D02*
Y194882D01*
X228346Y180610D02*
X250000D01*
X184153Y159646D02*
X185039D01*
X181102Y162697D02*
X184153Y159646D01*
X100866Y242126D02*
X133858D01*
X185039Y167126D02*
Y198819D01*
X136029Y247830D02*
X185039Y198819D01*
X105163Y247830D02*
X136029D01*
X98110Y254882D02*
X105163Y247830D01*
X189488Y203504D02*
X203661D01*
X138110Y254882D02*
X189488Y203504D01*
Y213504D02*
X203661D01*
X148110Y254882D02*
X189488Y213504D01*
X172283Y254882D02*
X203661Y223504D01*
X158110Y254882D02*
X172283D01*
X173386Y263779D02*
X203661Y233504D01*
X127008Y263779D02*
X173386D01*
X118110Y254882D02*
X127008Y263779D01*
X179449Y267717D02*
X203661Y243504D01*
X120945Y267717D02*
X179449D01*
X108110Y254882D02*
X120945Y267717D01*
X48110Y254882D02*
X72587Y279359D01*
X192943Y274222D02*
X213661Y253504D01*
X216704Y279359D02*
X266840Y229223D01*
X229776Y284496D02*
X270177Y244094D01*
X18110Y254882D02*
X47724Y284496D01*
X236558Y287065D02*
X269685Y253937D01*
X68110Y254882D02*
X87450Y274222D01*
X13526Y256781D02*
X43810Y287065D01*
X211963Y276790D02*
X264344Y224410D01*
X94882Y271654D02*
X185512D01*
X38110Y254882D02*
X65156Y281927D01*
X47724Y284496D02*
X229776D01*
X80019Y276790D02*
X211963D01*
X185512Y271654D02*
X203661Y253504D01*
X58110Y254882D02*
X80019Y276790D01*
X43810Y287065D02*
X236558D01*
X72587Y279359D02*
X216704D01*
X87450Y274222D02*
X192943D01*
X333169Y224410D02*
X343012Y234252D01*
X264344Y224410D02*
X333169D01*
X307087Y234252D02*
X309055D01*
X266840Y229223D02*
X302058D01*
X307087Y234252D01*
X343012D02*
X344488D01*
X271654Y244094D02*
X309055D01*
X344488D01*
X309055Y253937D02*
X344488D01*
X271654D02*
X309055D01*
X269685D02*
X271654D01*
X13526Y199466D02*
X18110Y194882D01*
X13526Y199466D02*
Y256781D01*
X270177Y244094D02*
X271654D01*
X79724Y146260D02*
Y157874D01*
X107945Y190622D02*
Y194717D01*
X88583Y161417D02*
Y171260D01*
X107945Y194717D02*
X108110Y194882D01*
X88583Y171260D02*
X107945Y190622D01*
X85039Y157874D02*
X88583Y161417D01*
X79724Y157874D02*
X85039D01*
X45276Y147146D02*
Y159941D01*
X53036Y163499D02*
X53150Y163386D01*
X53036Y163499D02*
Y171147D01*
X66929Y185039D02*
X78268D01*
X53036Y171147D02*
X66929Y185039D01*
X49705Y159941D02*
X53150Y163386D01*
X45276Y159941D02*
X49705D01*
X118110Y194882D02*
X125000Y187992D01*
Y163976D02*
Y187992D01*
X135777Y164026D02*
X135827Y164075D01*
X125049Y164026D02*
X135777D01*
X125000Y163976D02*
X125049Y164026D01*
X115914Y163976D02*
X125000D01*
X110599Y158661D02*
X115914Y163976D01*
X100394Y158661D02*
X110599D01*
X62008Y146161D02*
Y159941D01*
X68898Y163386D02*
Y171260D01*
X62008Y159941D02*
X62592Y160525D01*
X66037D02*
X68898Y163386D01*
X62592Y160525D02*
X66037D01*
X68898Y171260D02*
X76772Y179134D01*
X82362D02*
X98110Y194882D01*
X76772Y179134D02*
X82362D01*
X128110Y194882D02*
X155866Y167126D01*
X211614Y155905D02*
X212598D01*
X213583Y156890D01*
X229724Y159547D02*
Y160433D01*
X226083Y155905D02*
X229724Y159547D01*
X211614Y155905D02*
X226083D01*
X245079Y145669D02*
X247272Y143476D01*
Y140523D02*
Y143476D01*
X269463Y105498D02*
Y118333D01*
X247272Y140523D02*
X269463Y118333D01*
X243504Y145669D02*
X245079D01*
X269463Y105498D02*
X269843Y105118D01*
X218661D02*
Y111378D01*
X219528Y112244D02*
X220171D01*
X218661Y111378D02*
X219528Y112244D01*
X220171D02*
X241789Y133861D01*
Y143307D01*
X240748Y148425D02*
X243504Y145669D01*
X240748Y148425D02*
Y160433D01*
X241789Y143307D02*
X243223Y144741D01*
X162500Y159646D02*
X163386D01*
X161614Y158760D02*
X162500Y159646D01*
X145669Y158760D02*
X161614D01*
X145315Y146181D02*
X145669Y146535D01*
Y158760D01*
X125000Y151457D02*
Y158858D01*
Y151457D02*
X130276Y146181D01*
X78839Y135236D02*
X79724D01*
X74803Y139272D02*
X78839Y135236D01*
X62008Y139272D02*
X74803D01*
X46260D02*
X62008D01*
X45276Y140256D02*
X46260Y139272D01*
D63*
X80315Y96063D02*
D03*
X301575Y53543D02*
D03*
D64*
X43307Y111811D02*
D03*
Y37402D02*
D03*
X338583Y112205D02*
D03*
Y37795D02*
D03*
D65*
X106299Y66929D02*
D03*
X103150Y64488D02*
D03*
Y60354D02*
D03*
X105709Y56811D02*
D03*
X110276Y55630D02*
D03*
X115512D02*
D03*
X120748D02*
D03*
X125984D02*
D03*
X129921Y56811D02*
D03*
X133071Y60354D02*
D03*
Y64488D02*
D03*
X129921Y66929D02*
D03*
X110276Y68228D02*
D03*
X115512D02*
D03*
X120748D02*
D03*
X125984D02*
D03*
X145669Y66929D02*
D03*
X142520Y64488D02*
D03*
Y60354D02*
D03*
X145079Y56811D02*
D03*
X149646Y55630D02*
D03*
X154882D02*
D03*
X160118D02*
D03*
X165354D02*
D03*
X169291Y56811D02*
D03*
X172441Y60354D02*
D03*
Y64488D02*
D03*
X169291Y66929D02*
D03*
X149646Y68228D02*
D03*
X154882D02*
D03*
X160118D02*
D03*
X165354D02*
D03*
X66929Y23622D02*
D03*
X348425Y27559D02*
D03*
X340551Y13780D02*
D03*
X332677Y21654D02*
D03*
X322835Y15748D02*
D03*
X311024Y19685D02*
D03*
X295276Y13780D02*
D03*
X287402Y19685D02*
D03*
X271654Y13780D02*
D03*
X263779Y19685D02*
D03*
X248031Y13780D02*
D03*
X242126Y21654D02*
D03*
X228346Y13780D02*
D03*
X218504Y21654D02*
D03*
X204724Y15748D02*
D03*
X194882Y19685D02*
D03*
X181102Y13780D02*
D03*
X173228Y17717D02*
D03*
X161417Y13780D02*
D03*
X151575Y19685D02*
D03*
X139764Y13780D02*
D03*
X129921Y19685D02*
D03*
X120079Y13780D02*
D03*
X112205Y19685D02*
D03*
X102362Y13780D02*
D03*
X92520Y21654D02*
D03*
X82677Y13780D02*
D03*
X96457Y114173D02*
D03*
X104331Y106299D02*
D03*
X96457Y100394D02*
D03*
X104331Y92520D02*
D03*
X98425Y84646D02*
D03*
X104331Y78740D02*
D03*
X277559Y45276D02*
D03*
X257874Y39370D02*
D03*
X236221Y45276D02*
D03*
X222441Y39370D02*
D03*
X198819Y47244D02*
D03*
X194882Y37402D02*
D03*
X208661Y43307D02*
D03*
X250000Y47244D02*
D03*
X271654Y37402D02*
D03*
X251969Y76772D02*
D03*
X267717Y74803D02*
D03*
X269685Y64961D02*
D03*
X253937D02*
D03*
X220472Y78740D02*
D03*
X196850D02*
D03*
X206693Y76772D02*
D03*
X198819Y68898D02*
D03*
Y61024D02*
D03*
X214567D02*
D03*
X208661Y68898D02*
D03*
X220472D02*
D03*
X261811Y57087D02*
D03*
X259842Y80709D02*
D03*
X240158Y104331D02*
D03*
X236221Y114173D02*
D03*
Y92520D02*
D03*
X246063Y120079D02*
D03*
X173228Y80709D02*
D03*
X171260Y96457D02*
D03*
X183071Y104331D02*
D03*
X171260Y112205D02*
D03*
X179134Y120079D02*
D03*
D66*
X118110Y61929D02*
D03*
X157480D02*
D03*
D67*
X15748Y152559D02*
D03*
Y142717D02*
D03*
X344488Y253937D02*
D03*
Y244094D02*
D03*
Y263779D02*
D03*
Y234252D02*
D03*
Y273622D02*
D03*
X309055Y253937D02*
D03*
Y244094D02*
D03*
Y234252D02*
D03*
Y263779D02*
D03*
Y273622D02*
D03*
X271654Y253937D02*
D03*
Y244094D02*
D03*
Y263779D02*
D03*
Y234252D02*
D03*
Y273622D02*
D03*
D68*
X374016Y179134D02*
D03*
Y135827D02*
D03*
D69*
X334646Y167323D02*
D03*
D70*
Y147638D02*
D03*
D71*
X370079Y9843D02*
D03*
Y279528D02*
D03*
X9843Y9843D02*
D03*
Y279528D02*
D03*
D72*
X203661Y183504D02*
D03*
X213661D02*
D03*
Y233504D02*
D03*
Y223504D02*
D03*
X203661Y253504D02*
D03*
Y243504D02*
D03*
Y233504D02*
D03*
Y223504D02*
D03*
Y213504D02*
D03*
Y203504D02*
D03*
Y193504D02*
D03*
X213661D02*
D03*
Y203504D02*
D03*
Y213504D02*
D03*
Y243504D02*
D03*
Y253504D02*
D03*
D73*
X137795Y146181D02*
D03*
X130276D02*
D03*
D74*
X148110Y194882D02*
D03*
X128110Y254882D02*
D03*
X18110Y194882D02*
D03*
X28110D02*
D03*
X48110D02*
D03*
X58110D02*
D03*
X38110D02*
D03*
X68110D02*
D03*
X78110D02*
D03*
X88110D02*
D03*
X98110D02*
D03*
X108110D02*
D03*
X118110D02*
D03*
X128110D02*
D03*
X138110D02*
D03*
X18110Y254882D02*
D03*
X28110D02*
D03*
X158110Y194882D02*
D03*
X148110Y254882D02*
D03*
X138110D02*
D03*
X118110D02*
D03*
X108110D02*
D03*
X98110D02*
D03*
X88110D02*
D03*
X78110D02*
D03*
X68110D02*
D03*
X58110D02*
D03*
X48110D02*
D03*
X38110D02*
D03*
D75*
X158110D02*
D03*
D76*
X145315Y146181D02*
D03*
D77*
X378346Y260236D02*
D03*
X372441Y248425D02*
D03*
X378346Y236614D02*
D03*
X372441Y224803D02*
D03*
X378346Y212992D02*
D03*
X372441Y201181D02*
D03*
X378346Y189370D02*
D03*
Y165748D02*
D03*
X372441Y153937D02*
D03*
X378346Y142126D02*
D03*
X372441Y130315D02*
D03*
X378346Y118504D02*
D03*
X372441Y106693D02*
D03*
X378346Y94882D02*
D03*
X372441Y83071D02*
D03*
X378346Y71260D02*
D03*
X372441Y59449D02*
D03*
X378346Y47638D02*
D03*
X372441Y35827D02*
D03*
X378346Y24016D02*
D03*
X360630Y272047D02*
D03*
X366535Y260236D02*
D03*
X360630Y248425D02*
D03*
X366535Y236614D02*
D03*
X360630Y224803D02*
D03*
X366535Y212992D02*
D03*
X360630Y201181D02*
D03*
X366535Y189370D02*
D03*
X360630Y177559D02*
D03*
X366535Y165748D02*
D03*
X360630Y153937D02*
D03*
X366535Y142126D02*
D03*
X360630Y130315D02*
D03*
X366535Y118504D02*
D03*
X360630Y106693D02*
D03*
X366535Y94882D02*
D03*
X360630Y12205D02*
D03*
X354724Y212992D02*
D03*
X348819Y201181D02*
D03*
X354724Y189370D02*
D03*
X348819Y177559D02*
D03*
X354724Y165748D02*
D03*
X348819Y153937D02*
D03*
X354724Y142126D02*
D03*
X348819Y130315D02*
D03*
X354724Y118504D02*
D03*
X337008Y248425D02*
D03*
X342913Y212992D02*
D03*
X337008Y201181D02*
D03*
X342913Y189370D02*
D03*
X337008Y177559D02*
D03*
X342913Y165748D02*
D03*
Y142126D02*
D03*
X337008Y130315D02*
D03*
X342913Y118504D02*
D03*
X337008Y59449D02*
D03*
X331102Y260236D02*
D03*
X325197Y248425D02*
D03*
X331102Y236614D02*
D03*
Y189370D02*
D03*
X325197Y130315D02*
D03*
X331102Y118504D02*
D03*
Y71260D02*
D03*
X325197Y59449D02*
D03*
X331102Y47638D02*
D03*
X325197Y35827D02*
D03*
X319291Y260236D02*
D03*
Y236614D02*
D03*
Y212992D02*
D03*
X313386Y201181D02*
D03*
X319291Y142126D02*
D03*
X313386Y130315D02*
D03*
X319291Y118504D02*
D03*
Y71260D02*
D03*
Y47638D02*
D03*
X313386Y35827D02*
D03*
X301575Y248425D02*
D03*
X307480Y212992D02*
D03*
X301575Y201181D02*
D03*
X307480Y165748D02*
D03*
X301575Y153937D02*
D03*
Y130315D02*
D03*
X307480Y118504D02*
D03*
Y71260D02*
D03*
X295669Y260236D02*
D03*
X289764Y248425D02*
D03*
X295669Y236614D02*
D03*
Y212992D02*
D03*
X289764Y201181D02*
D03*
Y177559D02*
D03*
X295669Y142126D02*
D03*
X289764Y130315D02*
D03*
X295669Y118504D02*
D03*
X289764Y83071D02*
D03*
X295669Y71260D02*
D03*
X283858Y260236D02*
D03*
X277953Y248425D02*
D03*
X283858Y236614D02*
D03*
Y212992D02*
D03*
X277953Y201181D02*
D03*
X283858Y189370D02*
D03*
X277953Y177559D02*
D03*
X283858Y165748D02*
D03*
Y142126D02*
D03*
X277953Y130315D02*
D03*
X283858Y118504D02*
D03*
X277953Y106693D02*
D03*
X283858Y94882D02*
D03*
X272047Y212992D02*
D03*
X266142Y201181D02*
D03*
X272047Y189370D02*
D03*
X266142Y177559D02*
D03*
X272047Y165748D02*
D03*
Y142126D02*
D03*
X266142Y130315D02*
D03*
X272047Y94882D02*
D03*
X254331Y224803D02*
D03*
X260236Y212992D02*
D03*
X254331Y201181D02*
D03*
X260236Y189370D02*
D03*
Y142126D02*
D03*
Y118504D02*
D03*
Y94882D02*
D03*
X242520Y224803D02*
D03*
X248425Y212992D02*
D03*
X242520Y201181D02*
D03*
X248425Y189370D02*
D03*
X242520Y177559D02*
D03*
X230709Y224803D02*
D03*
X236614Y212992D02*
D03*
X230709Y201181D02*
D03*
X236614Y189370D02*
D03*
X230709Y177559D02*
D03*
X224803Y165748D02*
D03*
X212992Y260236D02*
D03*
X207086Y248425D02*
D03*
X195275Y224803D02*
D03*
X201181Y165748D02*
D03*
X183465Y224803D02*
D03*
X189370Y189370D02*
D03*
Y165748D02*
D03*
X183465Y35827D02*
D03*
X177559Y189370D02*
D03*
X171653Y177559D02*
D03*
Y35827D02*
D03*
X165748Y260236D02*
D03*
Y189370D02*
D03*
X159842Y177559D02*
D03*
Y35827D02*
D03*
X153937Y260236D02*
D03*
Y212992D02*
D03*
Y142126D02*
D03*
X148031Y130315D02*
D03*
Y35827D02*
D03*
X142126Y260236D02*
D03*
Y212992D02*
D03*
Y189370D02*
D03*
X136220Y177559D02*
D03*
Y153937D02*
D03*
Y130315D02*
D03*
X142126Y118504D02*
D03*
X136220Y106693D02*
D03*
Y35827D02*
D03*
X130315Y260236D02*
D03*
Y212992D02*
D03*
X124409Y130315D02*
D03*
X130315Y118504D02*
D03*
X124409Y35827D02*
D03*
X118504Y260236D02*
D03*
Y212992D02*
D03*
Y189370D02*
D03*
X112598Y177559D02*
D03*
Y153937D02*
D03*
X118504Y142126D02*
D03*
X112598Y130315D02*
D03*
Y35827D02*
D03*
X106693Y260236D02*
D03*
Y212992D02*
D03*
X100787Y177559D02*
D03*
X106693Y165748D02*
D03*
X100787Y153937D02*
D03*
X106693Y142126D02*
D03*
X100787Y130315D02*
D03*
Y35827D02*
D03*
X94882Y260236D02*
D03*
X88976Y248425D02*
D03*
X94882Y165748D02*
D03*
X88976Y153937D02*
D03*
X94882Y142126D02*
D03*
X88976Y130315D02*
D03*
X94882Y47638D02*
D03*
X77165Y248425D02*
D03*
X83071Y212992D02*
D03*
X77165Y201181D02*
D03*
Y130315D02*
D03*
X83071Y71260D02*
D03*
X65354Y248425D02*
D03*
Y177559D02*
D03*
Y153937D02*
D03*
Y130315D02*
D03*
X71260Y71260D02*
D03*
X53543Y248425D02*
D03*
X59449Y236614D02*
D03*
X53543Y224803D02*
D03*
X59449Y189370D02*
D03*
X53543Y177559D02*
D03*
Y153937D02*
D03*
Y130315D02*
D03*
X59449Y71260D02*
D03*
X53543Y59449D02*
D03*
Y35827D02*
D03*
Y12205D02*
D03*
X41732Y272047D02*
D03*
Y248425D02*
D03*
Y224803D02*
D03*
X47638Y189370D02*
D03*
X41732Y177559D02*
D03*
Y153937D02*
D03*
Y130315D02*
D03*
X47638Y118504D02*
D03*
X41732Y106693D02*
D03*
X47638Y94882D02*
D03*
X41732Y83071D02*
D03*
X47638Y71260D02*
D03*
X41732Y59449D02*
D03*
X47638Y47638D02*
D03*
Y24016D02*
D03*
X41732Y12205D02*
D03*
X35827Y260236D02*
D03*
X29921Y248425D02*
D03*
X35827Y236614D02*
D03*
X29921Y224803D02*
D03*
X35827Y212992D02*
D03*
X29921Y201181D02*
D03*
X35827Y189370D02*
D03*
X29921Y177559D02*
D03*
X35827Y165748D02*
D03*
Y142126D02*
D03*
X29921Y130315D02*
D03*
X35827Y118504D02*
D03*
X29921Y106693D02*
D03*
X35827Y94882D02*
D03*
X29921Y83071D02*
D03*
X35827Y71260D02*
D03*
X29921Y59449D02*
D03*
X35827Y47638D02*
D03*
X29921Y35827D02*
D03*
X35827Y24016D02*
D03*
X29921Y12205D02*
D03*
X18110Y272047D02*
D03*
Y248425D02*
D03*
X24016Y236614D02*
D03*
X18110Y224803D02*
D03*
X24016Y212992D02*
D03*
X18110Y201181D02*
D03*
X24016Y189370D02*
D03*
X18110Y177559D02*
D03*
X24016Y165748D02*
D03*
Y142126D02*
D03*
X18110Y130315D02*
D03*
X24016Y118504D02*
D03*
X18110Y106693D02*
D03*
X24016Y94882D02*
D03*
X18110Y83071D02*
D03*
X24016Y71260D02*
D03*
X18110Y59449D02*
D03*
X24016Y47638D02*
D03*
X18110Y35827D02*
D03*
X24016Y24016D02*
D03*
X18110Y12205D02*
D03*
X12205Y260236D02*
D03*
X6299Y248425D02*
D03*
Y224803D02*
D03*
Y201181D02*
D03*
X12205Y189370D02*
D03*
X6299Y177559D02*
D03*
X12205Y165748D02*
D03*
X6299Y153937D02*
D03*
Y130315D02*
D03*
X12205Y118504D02*
D03*
X6299Y106693D02*
D03*
X12205Y94882D02*
D03*
X6299Y83071D02*
D03*
X12205Y71260D02*
D03*
X6299Y59449D02*
D03*
X12205Y47638D02*
D03*
X6299Y35827D02*
D03*
X12205Y24016D02*
D03*
D78*
X98425Y175197D02*
D03*
X175197Y167323D02*
D03*
X198819Y153543D02*
D03*
X285433Y159449D02*
D03*
X176575Y193504D02*
D03*
M02*
