G04*
G04 #@! TF.GenerationSoftware,Altium Limited,Altium Designer,25.5.2 (35)*
G04*
G04 Layer_Color=32896*
%FSLAX44Y44*%
%MOMM*%
G71*
G04*
G04 #@! TF.SameCoordinates,C6DB7368-8D77-49A3-A4FC-CDEE88798AA4*
G04*
G04*
G04 #@! TF.FilePolarity,Positive*
G04*
G01*
G75*
%ADD13C,0.2540*%
G36*
X683900Y555332D02*
X684011Y555313D01*
X684103Y555276D01*
X684177Y555239D01*
X684214Y555221D01*
X684251Y555184D01*
X684307Y555110D01*
X684344Y555017D01*
X684400Y554813D01*
Y554702D01*
X684418Y554628D01*
Y554573D01*
Y554554D01*
Y554388D01*
X684400Y554258D01*
X684362Y554147D01*
X684325Y554073D01*
X684307Y553999D01*
X684270Y553962D01*
X684251Y553925D01*
X684177Y553869D01*
X684085Y553832D01*
X683881Y553795D01*
X683770Y553777D01*
X683455D01*
X683326Y553795D01*
X683196Y553832D01*
X683122Y553869D01*
X683048Y553888D01*
X683011Y553925D01*
X682974Y553943D01*
X682918Y554017D01*
X682863Y554110D01*
X682807Y554314D01*
X682789Y554425D01*
Y554499D01*
Y554554D01*
Y554573D01*
Y554739D01*
X682826Y554869D01*
X682844Y554980D01*
X682881Y555054D01*
X682918Y555128D01*
X682937Y555165D01*
X682974Y555202D01*
X683048Y555258D01*
X683140Y555295D01*
X683344Y555350D01*
X683455Y555369D01*
X683770D01*
X683900Y555332D01*
D02*
G37*
G36*
X769483Y555147D02*
X769613D01*
X769650Y555128D01*
X769669D01*
X769761Y555110D01*
X769780Y555091D01*
X769798D01*
X769854Y555073D01*
X769872Y555054D01*
X772242Y553536D01*
X772335Y553480D01*
X772353Y553462D01*
X772372Y553443D01*
X772409Y553369D01*
X772428Y553351D01*
Y553332D01*
X772446Y553277D01*
Y553221D01*
X772465Y553184D01*
Y553166D01*
Y553017D01*
Y552962D01*
Y552943D01*
Y552814D01*
X772446Y552721D01*
Y552647D01*
Y552629D01*
X772428Y552555D01*
X772409Y552499D01*
X772372Y552481D01*
Y552462D01*
X772316Y552425D01*
X772224D01*
X772150Y552443D01*
X772076Y552481D01*
X772002Y552518D01*
X771983Y552536D01*
X769983Y553721D01*
Y545852D01*
X772150D01*
X772224Y545833D01*
X772242Y545815D01*
X772261D01*
X772335Y545740D01*
X772353Y545722D01*
Y545703D01*
X772391Y545592D01*
X772409Y545537D01*
Y545518D01*
X772428Y545444D01*
Y545370D01*
Y545296D01*
Y545277D01*
Y545166D01*
X772409Y545092D01*
Y545037D01*
Y545018D01*
X772372Y544907D01*
X772353Y544870D01*
Y544852D01*
X772279Y544777D01*
X772261Y544759D01*
X772187Y544740D01*
X766743D01*
X766669Y544759D01*
X766632D01*
X766558Y544815D01*
X766539Y544852D01*
X766502Y544963D01*
X766484Y545000D01*
Y545018D01*
X766465Y545111D01*
X766447Y545185D01*
Y545259D01*
Y545277D01*
Y545370D01*
X766465Y545463D01*
X766484Y545500D01*
Y545518D01*
X766502Y545592D01*
X766521Y545648D01*
X766539Y545685D01*
Y545703D01*
X766595Y545796D01*
X766613Y545815D01*
X766632D01*
X766706Y545852D01*
X768613D01*
Y554925D01*
X768632Y554999D01*
X768650Y555017D01*
X768669Y555054D01*
X768706Y555073D01*
X768724Y555091D01*
X768743D01*
X768798Y555110D01*
X768872Y555128D01*
X768928Y555147D01*
X768946D01*
X769057Y555165D01*
X769428D01*
X769483Y555147D01*
D02*
G37*
G36*
X706582Y552480D02*
X706731Y552462D01*
X706842D01*
X706953Y552443D01*
X707027Y552425D01*
X707082Y552406D01*
X707101D01*
X707397Y552351D01*
X707527Y552314D01*
X707638Y552295D01*
X707730Y552258D01*
X707805Y552240D01*
X707842Y552221D01*
X707860D01*
X708101Y552129D01*
X708286Y552054D01*
X708360Y552018D01*
X708416Y551981D01*
X708453Y551962D01*
X708471D01*
X708638Y551869D01*
X708749Y551795D01*
X708823Y551740D01*
X708841Y551721D01*
X708897Y551647D01*
X708934Y551573D01*
X708971Y551518D01*
Y551499D01*
X708990Y551407D01*
Y551295D01*
Y551221D01*
Y551203D01*
Y551184D01*
Y551110D01*
Y551036D01*
Y550981D01*
Y550962D01*
X708953Y550851D01*
X708934Y550814D01*
Y550795D01*
X708878Y550721D01*
X708860Y550703D01*
X708767Y550684D01*
X708730D01*
X708656Y550703D01*
X708564Y550740D01*
X708490Y550777D01*
X708453Y550795D01*
X708286Y550888D01*
X708119Y550962D01*
X708064Y550999D01*
X708008Y551018D01*
X707971Y551036D01*
X707953D01*
X707730Y551147D01*
X707508Y551221D01*
X707416Y551258D01*
X707342Y551277D01*
X707305Y551295D01*
X707286D01*
X706990Y551369D01*
X706694Y551407D01*
X706582Y551425D01*
X706397D01*
X706083Y551407D01*
X705953Y551388D01*
X705842Y551369D01*
X705768Y551351D01*
X705694Y551332D01*
X705657Y551314D01*
X705638D01*
X705434Y551221D01*
X705268Y551110D01*
X705175Y551018D01*
X705138Y550999D01*
Y550981D01*
X705008Y550814D01*
X704916Y550629D01*
X704879Y550555D01*
X704860Y550499D01*
X704842Y550462D01*
Y550444D01*
X704786Y550203D01*
X704768Y549962D01*
X704749Y549870D01*
Y549795D01*
Y549740D01*
Y549721D01*
Y549166D01*
X706046D01*
X706342Y549147D01*
X706601Y549129D01*
X706823Y549092D01*
X707008Y549073D01*
X707138Y549036D01*
X707231Y549018D01*
X707268D01*
X707508Y548962D01*
X707730Y548888D01*
X707916Y548814D01*
X708082Y548740D01*
X708212Y548685D01*
X708305Y548629D01*
X708379Y548592D01*
X708397Y548573D01*
X708564Y548462D01*
X708693Y548333D01*
X708823Y548203D01*
X708915Y548092D01*
X709008Y547981D01*
X709064Y547888D01*
X709082Y547833D01*
X709101Y547814D01*
X709175Y547648D01*
X709230Y547462D01*
X709286Y547296D01*
X709304Y547129D01*
X709323Y546981D01*
X709341Y546870D01*
Y546796D01*
Y546777D01*
X709323Y546407D01*
X709286Y546259D01*
X709249Y546129D01*
X709230Y546000D01*
X709193Y545926D01*
X709175Y545870D01*
Y545852D01*
X709027Y545574D01*
X708934Y545444D01*
X708860Y545351D01*
X708786Y545259D01*
X708730Y545203D01*
X708693Y545166D01*
X708675Y545148D01*
X708416Y544963D01*
X708156Y544833D01*
X708064Y544796D01*
X707971Y544759D01*
X707916Y544740D01*
X707897D01*
X707545Y544648D01*
X707360Y544629D01*
X707212Y544611D01*
X707064Y544592D01*
X706860D01*
X706619Y544611D01*
X706397Y544629D01*
X706194Y544666D01*
X706008Y544722D01*
X705860Y544777D01*
X705731Y544815D01*
X705657Y544833D01*
X705638Y544852D01*
X705416Y544963D01*
X705231Y545092D01*
X705046Y545222D01*
X704879Y545351D01*
X704768Y545463D01*
X704657Y545555D01*
X704601Y545611D01*
X704583Y545629D01*
Y544907D01*
X704564Y544852D01*
X704546Y544815D01*
X704527Y544777D01*
X704472Y544759D01*
X704416Y544740D01*
X704361Y544722D01*
X704342D01*
X704231Y544703D01*
X704120Y544685D01*
X703879D01*
X703768Y544703D01*
X703712Y544722D01*
X703694D01*
X703601Y544740D01*
X703546Y544759D01*
X703527Y544777D01*
X703509D01*
X703472Y544815D01*
X703435Y544852D01*
Y544889D01*
Y544907D01*
Y549777D01*
Y550018D01*
X703453Y550240D01*
X703490Y550444D01*
X703509Y550610D01*
X703546Y550758D01*
X703583Y550851D01*
X703601Y550925D01*
Y550944D01*
X703657Y551129D01*
X703731Y551295D01*
X703823Y551443D01*
X703898Y551573D01*
X703972Y551666D01*
X704027Y551740D01*
X704064Y551777D01*
X704083Y551795D01*
X704212Y551906D01*
X704361Y552018D01*
X704657Y552184D01*
X704786Y552240D01*
X704879Y552277D01*
X704953Y552314D01*
X704971D01*
X705175Y552369D01*
X705397Y552425D01*
X705620Y552462D01*
X705823Y552480D01*
X706008Y552499D01*
X706286D01*
X706582Y552480D01*
D02*
G37*
G36*
X744338Y552369D02*
X744375D01*
X744467Y552351D01*
X744541Y552332D01*
X744597Y552314D01*
X744616Y552295D01*
X744653Y552258D01*
X744671Y552203D01*
X744690Y552184D01*
Y552166D01*
X744653Y552055D01*
X744616Y551999D01*
Y551981D01*
X742486Y548592D01*
X744727Y545074D01*
X744764Y545000D01*
X744801Y544944D01*
X744819Y544907D01*
Y544889D01*
X744801Y544833D01*
X744782Y544815D01*
X744764Y544777D01*
X744745D01*
X744671Y544759D01*
X744597Y544740D01*
X744541Y544722D01*
X744523D01*
X744393Y544703D01*
X744282Y544685D01*
X744005D01*
X743893Y544703D01*
X743801D01*
X743708Y544722D01*
X743634D01*
X743597Y544740D01*
X743579D01*
X743523Y544759D01*
X743486Y544777D01*
X743449Y544796D01*
X743375Y544870D01*
X743356Y544907D01*
X741634Y547759D01*
X739912Y544907D01*
X739857Y544833D01*
X739838Y544815D01*
Y544796D01*
X739764Y544759D01*
X739746Y544740D01*
X739727D01*
X739653Y544722D01*
X739579D01*
X739505Y544703D01*
X739486D01*
X739357Y544685D01*
X738950D01*
X738820Y544703D01*
X738727Y544722D01*
X738709D01*
X738598Y544740D01*
X738524Y544759D01*
X738487Y544777D01*
X738468D01*
X738431Y544815D01*
X738394Y544852D01*
Y544870D01*
Y544889D01*
X738412Y544944D01*
X738431Y545018D01*
X738449Y545055D01*
X738468Y545074D01*
X740690Y548629D01*
X738579Y551981D01*
X738542Y552055D01*
X738505Y552110D01*
Y552147D01*
Y552166D01*
Y552221D01*
X738524Y552258D01*
X738542Y552295D01*
X738561D01*
X738635Y552332D01*
X738690Y552351D01*
X738764Y552369D01*
X738783D01*
X738912Y552388D01*
X739412D01*
X739486Y552369D01*
X739505D01*
X739598Y552351D01*
X739653Y552332D01*
X739690Y552314D01*
X739709D01*
X739783Y552277D01*
X739801Y552258D01*
X739857Y552203D01*
X739875Y552184D01*
Y552166D01*
X741542Y549481D01*
X743171Y552166D01*
X743227Y552240D01*
X743245Y552258D01*
X743264D01*
X743338Y552314D01*
X743356Y552332D01*
X743375D01*
X743449Y552351D01*
X743505D01*
X743579Y552369D01*
X743597D01*
X743708Y552388D01*
X744264D01*
X744338Y552369D01*
D02*
G37*
G36*
X761114Y549296D02*
X761188Y549259D01*
X761225Y549203D01*
X761244Y549184D01*
X761262Y549129D01*
X761281Y549073D01*
X761299Y548925D01*
Y548814D01*
Y548777D01*
Y548759D01*
X761281Y548573D01*
X761262Y548444D01*
X761244Y548351D01*
Y548333D01*
X761169Y548277D01*
X761095Y548240D01*
X761040Y548222D01*
X757688D01*
X757596Y548240D01*
X757522Y548277D01*
X757485Y548314D01*
X757466Y548333D01*
X757448Y548388D01*
X757429Y548444D01*
X757392Y548592D01*
Y548703D01*
Y548740D01*
Y548759D01*
Y548870D01*
X757411Y548944D01*
X757429Y548999D01*
Y549018D01*
X757448Y549092D01*
X757466Y549147D01*
X757485Y549166D01*
Y549184D01*
X757522Y549240D01*
X757540Y549259D01*
X757559Y549277D01*
X757577D01*
X757651Y549314D01*
X761021D01*
X761114Y549296D01*
D02*
G37*
G36*
X694176Y555128D02*
X694213D01*
X694324Y555110D01*
X694398Y555091D01*
X694436Y555073D01*
X694454Y555054D01*
X694491Y554999D01*
X694510Y554943D01*
Y554906D01*
Y554888D01*
X694491Y554795D01*
X694473Y554702D01*
X694454Y554647D01*
X694436Y554610D01*
X691066Y544981D01*
X691029Y544889D01*
X691010Y544870D01*
Y544852D01*
X690954Y544796D01*
X690936Y544777D01*
X690862Y544759D01*
X690825Y544740D01*
X690714D01*
X690677Y544722D01*
X690658D01*
X690566Y544703D01*
X690417D01*
X690325Y544685D01*
X689955D01*
X689844Y544703D01*
X689732D01*
X689621Y544722D01*
X689547D01*
X689492Y544740D01*
X689473D01*
X689399Y544759D01*
X689343Y544777D01*
X689325Y544815D01*
X689306D01*
X689232Y544907D01*
X689214Y544944D01*
Y544963D01*
X685844Y554591D01*
X685807Y554721D01*
X685770Y554795D01*
Y554851D01*
Y554869D01*
Y554943D01*
X685788Y554999D01*
X685807Y555017D01*
Y555036D01*
X685862Y555073D01*
X685936Y555091D01*
X685992Y555110D01*
X686011D01*
X686122Y555128D01*
X686251Y555147D01*
X686677D01*
X686770Y555128D01*
X686788D01*
X686881Y555110D01*
X686955Y555091D01*
X686992Y555073D01*
X687010D01*
X687085Y555036D01*
X687122Y555017D01*
Y554999D01*
X687140Y554906D01*
X687159Y554869D01*
Y554851D01*
X690047Y546148D01*
X690066D01*
X693047Y554869D01*
X693102Y554962D01*
X693121Y554999D01*
X693139Y555036D01*
X693176Y555054D01*
X693195Y555073D01*
X693214D01*
X693269Y555091D01*
X693343Y555110D01*
X693399Y555128D01*
X693417D01*
X693528Y555147D01*
X694102D01*
X694176Y555128D01*
D02*
G37*
G36*
X650181D02*
X650255Y555110D01*
X650274D01*
X650348Y555091D01*
X650422Y555073D01*
X650459Y555054D01*
X650477D01*
X650551Y555017D01*
X650588Y554999D01*
Y554980D01*
X650607Y554925D01*
Y554906D01*
Y554888D01*
Y548462D01*
X650588Y548111D01*
X650570Y547796D01*
X650533Y547500D01*
X650477Y547259D01*
X650422Y547055D01*
X650385Y546907D01*
X650366Y546814D01*
X650348Y546777D01*
X650236Y546518D01*
X650107Y546277D01*
X649977Y546074D01*
X649848Y545888D01*
X649736Y545759D01*
X649644Y545648D01*
X649588Y545574D01*
X649570Y545555D01*
X649366Y545389D01*
X649163Y545240D01*
X648977Y545111D01*
X648774Y545018D01*
X648607Y544944D01*
X648477Y544870D01*
X648403Y544852D01*
X648366Y544833D01*
X648089Y544759D01*
X647829Y544703D01*
X647570Y544648D01*
X647329Y544629D01*
X647126Y544611D01*
X646959Y544592D01*
X646811D01*
X646459Y544611D01*
X646144Y544629D01*
X645866Y544666D01*
X645626Y544722D01*
X645422Y544777D01*
X645274Y544815D01*
X645181Y544833D01*
X645144Y544852D01*
X644885Y544963D01*
X644626Y545074D01*
X644422Y545203D01*
X644237Y545333D01*
X644089Y545444D01*
X643978Y545537D01*
X643904Y545592D01*
X643885Y545611D01*
X643700Y545815D01*
X643533Y546018D01*
X643404Y546240D01*
X643293Y546444D01*
X643200Y546611D01*
X643145Y546740D01*
X643108Y546833D01*
X643089Y546870D01*
X642997Y547148D01*
X642922Y547444D01*
X642885Y547722D01*
X642848Y547999D01*
X642830Y548222D01*
X642811Y548388D01*
Y548462D01*
Y548518D01*
Y548536D01*
Y548555D01*
Y554888D01*
X642830Y554962D01*
X642848Y554980D01*
X642885Y555017D01*
X642922Y555036D01*
X642959Y555054D01*
X642978D01*
X643034Y555073D01*
X643108Y555091D01*
X643163Y555110D01*
X643182D01*
X643293Y555128D01*
X643385Y555147D01*
X643626D01*
X643737Y555128D01*
X643811Y555110D01*
X643830D01*
X643922Y555091D01*
X643996Y555073D01*
X644033Y555054D01*
X644052D01*
X644126Y555017D01*
X644163Y554999D01*
Y554980D01*
X644182Y554925D01*
Y554906D01*
Y554888D01*
Y548555D01*
Y548314D01*
X644219Y548074D01*
X644237Y547870D01*
X644274Y547685D01*
X644311Y547537D01*
X644330Y547425D01*
X644367Y547351D01*
Y547333D01*
X644441Y547148D01*
X644515Y546981D01*
X644589Y546833D01*
X644681Y546703D01*
X644755Y546611D01*
X644811Y546518D01*
X644848Y546481D01*
X644867Y546463D01*
X645126Y546240D01*
X645367Y546074D01*
X645478Y546018D01*
X645570Y545981D01*
X645626Y545944D01*
X645644D01*
X646015Y545852D01*
X646181Y545815D01*
X646348Y545796D01*
X646496D01*
X646607Y545777D01*
X646718D01*
X647126Y545796D01*
X647311Y545833D01*
X647459Y545870D01*
X647589Y545888D01*
X647681Y545926D01*
X647755Y545944D01*
X647774D01*
X648089Y546111D01*
X648237Y546203D01*
X648348Y546277D01*
X648440Y546351D01*
X648514Y546426D01*
X648551Y546463D01*
X648570Y546481D01*
X648792Y546777D01*
X648940Y547055D01*
X648996Y547185D01*
X649033Y547277D01*
X649070Y547351D01*
Y547370D01*
X649163Y547796D01*
X649200Y547999D01*
X649218Y548203D01*
Y548370D01*
X649237Y548499D01*
Y548592D01*
Y548629D01*
Y554888D01*
X649255Y554962D01*
X649274Y554980D01*
X649348Y555036D01*
X649366Y555054D01*
X649385D01*
X649459Y555073D01*
X649514Y555091D01*
X649588Y555110D01*
X649607D01*
X649718Y555128D01*
X649811Y555147D01*
X650070D01*
X650181Y555128D01*
D02*
G37*
G36*
X736172Y554295D02*
X736190D01*
X736265Y554277D01*
X736320Y554258D01*
X736357Y554240D01*
X736376D01*
X736450Y554184D01*
X736487Y554165D01*
Y554147D01*
X736505Y554091D01*
Y554073D01*
Y554054D01*
Y552351D01*
X737524D01*
X737598Y552332D01*
X737616Y552314D01*
X737635D01*
X737709Y552240D01*
X737727Y552221D01*
Y552203D01*
X737746Y552147D01*
Y552092D01*
X737764Y552055D01*
Y552036D01*
X737783Y551962D01*
Y551888D01*
Y551814D01*
Y551795D01*
X737764Y551610D01*
X737746Y551481D01*
X737727Y551388D01*
Y551370D01*
X737672Y551314D01*
X737598Y551277D01*
X737542Y551258D01*
X736505D01*
Y547037D01*
Y546814D01*
X736487Y546611D01*
X736468Y546426D01*
X736450Y546277D01*
X736431Y546148D01*
X736413Y546037D01*
X736394Y545981D01*
Y545963D01*
X736283Y545648D01*
X736227Y545518D01*
X736172Y545407D01*
X736116Y545314D01*
X736061Y545241D01*
X736042Y545203D01*
X736024Y545185D01*
X735820Y545000D01*
X735598Y544852D01*
X735505Y544796D01*
X735431Y544777D01*
X735394Y544740D01*
X735376D01*
X735061Y544666D01*
X734894Y544648D01*
X734746Y544629D01*
X734617Y544611D01*
X734283D01*
X734154Y544629D01*
X734080Y544648D01*
X734043D01*
X733913Y544666D01*
X733802Y544685D01*
X733728Y544703D01*
X733709D01*
X733598Y544740D01*
X733506Y544759D01*
X733431Y544777D01*
X733413D01*
X733320Y544815D01*
X733265Y544852D01*
X733246Y544889D01*
X733228D01*
X733172Y544944D01*
X733135Y545018D01*
X733117Y545074D01*
Y545092D01*
X733098Y545222D01*
X733080Y545333D01*
Y545426D01*
Y545463D01*
Y545555D01*
Y545648D01*
X733098Y545685D01*
Y545703D01*
X733117Y545815D01*
X733135Y545833D01*
Y545852D01*
X733172Y545907D01*
X733191Y545926D01*
X733246Y545963D01*
X733265D01*
X733376Y545944D01*
X733413Y545926D01*
X733431D01*
X733543Y545870D01*
X733598Y545852D01*
X733617Y545833D01*
X733709Y545815D01*
X733783Y545777D01*
X733857Y545759D01*
X733876D01*
X733987Y545740D01*
X734191D01*
X734394Y545759D01*
X734561Y545796D01*
X734691Y545852D01*
X734802Y545926D01*
X734894Y546000D01*
X734950Y546055D01*
X734968Y546092D01*
X734987Y546111D01*
X735061Y546277D01*
X735098Y546444D01*
X735172Y546814D01*
Y546981D01*
X735191Y547111D01*
Y547203D01*
Y547240D01*
Y551258D01*
X733357D01*
X733265Y551277D01*
X733209Y551314D01*
X733172Y551351D01*
X733154Y551370D01*
X733117Y551499D01*
X733080Y551629D01*
Y551740D01*
Y551777D01*
Y551795D01*
Y551888D01*
Y551981D01*
X733098Y552018D01*
Y552036D01*
X733117Y552110D01*
X733135Y552166D01*
X733154Y552184D01*
Y552203D01*
X733209Y552295D01*
X733228Y552314D01*
X733246D01*
X733320Y552351D01*
X735191D01*
Y554054D01*
X735209Y554128D01*
X735228Y554147D01*
X735302Y554221D01*
X735320Y554240D01*
X735339D01*
X735394Y554258D01*
X735468Y554277D01*
X735524Y554295D01*
X735542D01*
X735635Y554314D01*
X736098D01*
X736172Y554295D01*
D02*
G37*
G36*
X728673Y552481D02*
X728932Y552462D01*
X729191Y552406D01*
X729395Y552369D01*
X729580Y552314D01*
X729710Y552258D01*
X729784Y552240D01*
X729821Y552221D01*
X730043Y552110D01*
X730265Y551981D01*
X730450Y551851D01*
X730599Y551721D01*
X730728Y551610D01*
X730839Y551518D01*
X730895Y551443D01*
X730913Y551425D01*
X731061Y551221D01*
X731209Y551018D01*
X731321Y550795D01*
X731413Y550610D01*
X731506Y550425D01*
X731561Y550295D01*
X731580Y550203D01*
X731598Y550166D01*
X731673Y549888D01*
X731728Y549592D01*
X731765Y549314D01*
X731784Y549055D01*
X731802Y548833D01*
X731821Y548647D01*
Y548536D01*
Y548518D01*
Y548499D01*
X731802Y548148D01*
X731784Y547814D01*
X731747Y547518D01*
X731710Y547277D01*
X731673Y547055D01*
X731635Y546907D01*
X731598Y546814D01*
Y546777D01*
X731506Y546518D01*
X731395Y546277D01*
X731284Y546074D01*
X731172Y545888D01*
X731061Y545759D01*
X730987Y545648D01*
X730932Y545574D01*
X730913Y545555D01*
X730728Y545389D01*
X730543Y545241D01*
X730358Y545111D01*
X730173Y545018D01*
X730024Y544944D01*
X729895Y544870D01*
X729821Y544852D01*
X729784Y544833D01*
X729525Y544759D01*
X729265Y544703D01*
X729006Y544648D01*
X728747Y544629D01*
X728543Y544611D01*
X728376Y544592D01*
X728228D01*
X727858Y544611D01*
X727691D01*
X727543Y544629D01*
X727432Y544648D01*
X727340D01*
X727284Y544666D01*
X727265D01*
X726951Y544722D01*
X726803Y544759D01*
X726692Y544777D01*
X726599Y544796D01*
X726525Y544815D01*
X726488Y544833D01*
X726469D01*
X726229Y544907D01*
X726043Y544963D01*
X725988Y544981D01*
X725932Y545000D01*
X725914Y545018D01*
X725895D01*
X725766Y545092D01*
X725673Y545129D01*
X725636Y545166D01*
X725599Y545222D01*
X725581Y545241D01*
X725544Y545314D01*
X725525Y545352D01*
X725506Y545463D01*
Y545481D01*
Y545500D01*
X725488Y545629D01*
Y545666D01*
Y545685D01*
Y545777D01*
Y545870D01*
X725506Y545907D01*
Y545926D01*
X725525Y546037D01*
X725544Y546055D01*
Y546074D01*
X725581Y546148D01*
X725599Y546166D01*
X725618D01*
X725673Y546203D01*
X725710D01*
X725803Y546185D01*
X725895Y546166D01*
X725969Y546129D01*
X725988Y546111D01*
X726006D01*
X726154Y546055D01*
X726321Y546000D01*
X726432Y545944D01*
X726469Y545926D01*
X726488D01*
X726729Y545852D01*
X726951Y545796D01*
X727043Y545777D01*
X727117Y545759D01*
X727173Y545740D01*
X727191D01*
X727488Y545703D01*
X727784Y545685D01*
X727914Y545666D01*
X728339D01*
X728543Y545685D01*
X728728Y545722D01*
X728895Y545759D01*
X729025Y545777D01*
X729136Y545815D01*
X729191Y545833D01*
X729210D01*
X729506Y546000D01*
X729636Y546074D01*
X729728Y546166D01*
X729821Y546240D01*
X729876Y546296D01*
X729913Y546333D01*
X729932Y546352D01*
X730117Y546629D01*
X730247Y546907D01*
X730284Y547018D01*
X730321Y547111D01*
X730339Y547166D01*
Y547185D01*
X730395Y547555D01*
X730432Y547740D01*
Y547907D01*
X730450Y548055D01*
Y548166D01*
Y548259D01*
Y548277D01*
X725710D01*
X725562Y548296D01*
X725451Y548351D01*
X725377Y548388D01*
X725358Y548407D01*
X725266Y548536D01*
X725210Y548685D01*
X725192Y548796D01*
Y548833D01*
Y548851D01*
Y549092D01*
Y549351D01*
X725229Y549592D01*
X725247Y549814D01*
X725284Y550018D01*
X725321Y550184D01*
X725340Y550295D01*
X725377Y550388D01*
Y550407D01*
X725451Y550629D01*
X725544Y550832D01*
X725636Y551018D01*
X725729Y551166D01*
X725821Y551295D01*
X725895Y551407D01*
X725932Y551462D01*
X725951Y551481D01*
X726099Y551647D01*
X726266Y551795D01*
X726432Y551925D01*
X726580Y552018D01*
X726710Y552110D01*
X726821Y552166D01*
X726914Y552203D01*
X726932Y552221D01*
X727173Y552314D01*
X727414Y552388D01*
X727654Y552425D01*
X727877Y552462D01*
X728080Y552481D01*
X728228Y552499D01*
X728376D01*
X728673Y552481D01*
D02*
G37*
G36*
X751393Y555073D02*
X751504Y555036D01*
X751578Y554980D01*
X751615Y554962D01*
X751707Y554832D01*
X751744Y554684D01*
X751763Y554573D01*
Y554536D01*
Y554517D01*
Y545296D01*
X751744Y545092D01*
X751689Y544963D01*
X751633Y544870D01*
X751615Y544852D01*
X751485Y544796D01*
X751374Y544759D01*
X751300Y544740D01*
X746301D01*
X746208Y544759D01*
X746189D01*
X746115Y544833D01*
X746097Y544852D01*
Y544870D01*
X746041Y544981D01*
X746023Y545018D01*
Y545037D01*
X746004Y545129D01*
Y545203D01*
Y545277D01*
Y545296D01*
Y545407D01*
Y545500D01*
X746023Y545555D01*
Y545574D01*
X746041Y545648D01*
X746060Y545703D01*
X746078Y545722D01*
X746097Y545740D01*
X746152Y545833D01*
X746171Y545852D01*
X746189D01*
X746264Y545888D01*
X750393D01*
Y549592D01*
X746930D01*
X746856Y549610D01*
X746819D01*
X746745Y549666D01*
X746726Y549703D01*
X746708Y549758D01*
X746689Y549814D01*
X746671Y549851D01*
Y549870D01*
X746652Y549962D01*
Y550036D01*
Y550092D01*
Y550110D01*
Y550221D01*
Y550314D01*
X746671Y550370D01*
Y550388D01*
X746689Y550462D01*
X746708Y550518D01*
X746726Y550536D01*
Y550555D01*
X746782Y550647D01*
X746801Y550666D01*
X746819D01*
X746893Y550703D01*
X750393D01*
Y553943D01*
X746338D01*
X746264Y553962D01*
X746227D01*
X746171Y554017D01*
X746152Y554054D01*
X746115Y554184D01*
X746097Y554221D01*
Y554240D01*
X746078Y554332D01*
X746060Y554406D01*
Y554480D01*
Y554499D01*
Y554610D01*
X746078Y554684D01*
X746097Y554739D01*
Y554758D01*
X746115Y554832D01*
X746134Y554888D01*
X746152Y554925D01*
Y554943D01*
X746189Y555036D01*
X746208Y555054D01*
X746227D01*
X746301Y555091D01*
X751263D01*
X751393Y555073D01*
D02*
G37*
G36*
X632164Y555073D02*
X632275Y555036D01*
X632349Y554980D01*
X632386Y554962D01*
X632479Y554832D01*
X632516Y554684D01*
X632535Y554573D01*
Y554536D01*
Y554517D01*
Y545296D01*
X632516Y545092D01*
X632461Y544963D01*
X632405Y544870D01*
X632386Y544852D01*
X632257Y544796D01*
X632146Y544759D01*
X632072Y544740D01*
X629109D01*
X628924Y544759D01*
X628739D01*
X628591Y544777D01*
X628461Y544796D01*
X628368D01*
X628313Y544815D01*
X628294D01*
X627961Y544889D01*
X627813Y544944D01*
X627702Y544981D01*
X627591Y545018D01*
X627517Y545055D01*
X627461Y545074D01*
X627443D01*
X627165Y545203D01*
X627035Y545277D01*
X626924Y545333D01*
X626850Y545389D01*
X626776Y545444D01*
X626739Y545463D01*
X626720Y545481D01*
X626498Y545666D01*
X626331Y545852D01*
X626276Y545944D01*
X626220Y546000D01*
X626202Y546037D01*
X626183Y546055D01*
X626035Y546314D01*
X625924Y546555D01*
X625887Y546648D01*
X625850Y546722D01*
X625832Y546777D01*
Y546796D01*
X625757Y547111D01*
X625739Y547259D01*
X625720Y547407D01*
X625702Y547518D01*
Y547611D01*
Y547685D01*
Y547703D01*
X625720Y548074D01*
X625757Y548222D01*
X625776Y548370D01*
X625813Y548481D01*
X625850Y548573D01*
X625869Y548629D01*
Y548647D01*
X626017Y548962D01*
X626091Y549092D01*
X626146Y549203D01*
X626220Y549296D01*
X626257Y549370D01*
X626295Y549407D01*
X626313Y549425D01*
X626517Y549647D01*
X626720Y549814D01*
X626813Y549888D01*
X626887Y549925D01*
X626924Y549962D01*
X626943D01*
X627220Y550110D01*
X627480Y550203D01*
X627591Y550221D01*
X627665Y550240D01*
X627720Y550258D01*
X627739D01*
X627498Y550388D01*
X627313Y550499D01*
X627239Y550555D01*
X627183Y550592D01*
X627165Y550629D01*
X627146D01*
X626961Y550795D01*
X626832Y550962D01*
X626757Y551092D01*
X626720Y551110D01*
Y551129D01*
X626591Y551351D01*
X626517Y551555D01*
X626480Y551629D01*
X626461Y551703D01*
X626443Y551740D01*
Y551758D01*
X626387Y552018D01*
X626368Y552240D01*
X626350Y552332D01*
Y552406D01*
Y552443D01*
Y552462D01*
Y552684D01*
X626387Y552888D01*
X626406Y553073D01*
X626443Y553240D01*
X626480Y553369D01*
X626517Y553462D01*
X626535Y553536D01*
X626554Y553554D01*
X626646Y553740D01*
X626739Y553888D01*
X626832Y554036D01*
X626943Y554165D01*
X627017Y554258D01*
X627091Y554332D01*
X627146Y554369D01*
X627165Y554388D01*
X627313Y554499D01*
X627480Y554610D01*
X627794Y554776D01*
X627943Y554832D01*
X628054Y554869D01*
X628128Y554906D01*
X628146D01*
X628387Y554962D01*
X628628Y555017D01*
X628887Y555054D01*
X629128Y555073D01*
X629331Y555091D01*
X632035D01*
X632164Y555073D01*
D02*
G37*
G36*
X780575Y555073D02*
X780686Y555017D01*
X780760Y554962D01*
X780797Y554943D01*
X780890Y554813D01*
X780945Y554665D01*
X780964Y554554D01*
Y554517D01*
Y554499D01*
Y544926D01*
X780945Y544852D01*
Y544833D01*
Y544815D01*
X780871Y544777D01*
X780853Y544759D01*
X780834D01*
X780686Y544740D01*
X780630Y544722D01*
X780612D01*
X780501Y544703D01*
X780390Y544685D01*
X780149D01*
X780056Y544703D01*
X779982Y544722D01*
X779964D01*
X779871Y544740D01*
X779816D01*
X779779Y544759D01*
X779760D01*
X779705Y544777D01*
X779668Y544796D01*
X779630Y544815D01*
X779593Y544889D01*
Y544926D01*
Y548666D01*
X778427D01*
X778075Y548685D01*
X777760Y548703D01*
X777483Y548740D01*
X777242Y548777D01*
X777038Y548814D01*
X776908Y548851D01*
X776816Y548888D01*
X776779D01*
X776520Y548981D01*
X776298Y549092D01*
X776094Y549203D01*
X775927Y549314D01*
X775779Y549425D01*
X775686Y549499D01*
X775612Y549555D01*
X775594Y549573D01*
X775427Y549740D01*
X775279Y549925D01*
X775149Y550110D01*
X775038Y550277D01*
X774964Y550425D01*
X774909Y550536D01*
X774872Y550629D01*
X774853Y550647D01*
X774761Y550888D01*
X774705Y551129D01*
X774650Y551370D01*
X774631Y551592D01*
X774612Y551777D01*
X774594Y551925D01*
Y552018D01*
Y552055D01*
X774612Y552462D01*
X774650Y552647D01*
X774668Y552795D01*
X774705Y552925D01*
X774742Y553017D01*
X774761Y553092D01*
Y553110D01*
X774909Y553443D01*
X774983Y553591D01*
X775057Y553721D01*
X775131Y553814D01*
X775186Y553906D01*
X775223Y553943D01*
X775242Y553962D01*
X775483Y554221D01*
X775723Y554425D01*
X775835Y554499D01*
X775909Y554554D01*
X775964Y554573D01*
X775983Y554591D01*
X776298Y554758D01*
X776446Y554813D01*
X776575Y554851D01*
X776668Y554888D01*
X776760Y554906D01*
X776816Y554925D01*
X776834D01*
X777131Y554980D01*
X777260Y554999D01*
X777371Y555017D01*
X777446Y555036D01*
X777520Y555054D01*
X777575D01*
X777797Y555073D01*
X778001Y555091D01*
X780427D01*
X780575Y555073D01*
D02*
G37*
G36*
X720211Y552481D02*
X720359Y552462D01*
X720470Y552443D01*
X720488Y552425D01*
X720507D01*
X720674Y552369D01*
X720822Y552295D01*
X720933Y552221D01*
X720951Y552203D01*
X720970D01*
X721136Y552073D01*
X721285Y551944D01*
X721414Y551832D01*
X721433Y551795D01*
X721451Y551777D01*
X721655Y551555D01*
X721822Y551332D01*
X721896Y551221D01*
X721951Y551147D01*
X721988Y551092D01*
X722007Y551073D01*
Y552129D01*
X722025Y552221D01*
X722044Y552240D01*
X722062Y552277D01*
X722099Y552295D01*
X722118Y552314D01*
X722136D01*
X722192Y552332D01*
X722247Y552351D01*
X722303Y552369D01*
X722322D01*
X722414Y552388D01*
X722822D01*
X722877Y552369D01*
X722896D01*
X722970Y552351D01*
X723025Y552332D01*
X723062Y552314D01*
X723081D01*
X723118Y552295D01*
X723155Y552258D01*
X723173Y552240D01*
X723192Y552166D01*
Y552147D01*
Y552129D01*
Y544926D01*
X723173Y544852D01*
Y544815D01*
X723099Y544759D01*
X723081Y544740D01*
X723062D01*
X722933Y544722D01*
X722896Y544703D01*
X722877D01*
X722766Y544685D01*
X722414D01*
X722303Y544703D01*
X722229D01*
X722136Y544722D01*
X722081D01*
X722044Y544740D01*
X722025D01*
X721933Y544796D01*
X721914Y544815D01*
X721877Y544889D01*
Y544907D01*
Y544926D01*
Y549666D01*
X721674Y549962D01*
X721599Y550092D01*
X721525Y550203D01*
X721470Y550295D01*
X721414Y550351D01*
X721396Y550388D01*
X721377Y550407D01*
X721211Y550610D01*
X721062Y550777D01*
X720970Y550869D01*
X720933Y550906D01*
X720766Y551018D01*
X720637Y551110D01*
X720563Y551147D01*
X720526Y551166D01*
X720377Y551221D01*
X720266Y551240D01*
X720174Y551258D01*
X720025D01*
X719914Y551240D01*
X719840Y551221D01*
X719822D01*
X719711Y551203D01*
X719637Y551166D01*
X719581Y551147D01*
X719563D01*
X719489Y551129D01*
X719415Y551092D01*
X719377Y551073D01*
X719359D01*
X719248Y551036D01*
X719192D01*
X719118Y551055D01*
X719100Y551073D01*
X719063Y551147D01*
X719044Y551166D01*
Y551184D01*
X719007Y551314D01*
Y551351D01*
Y551370D01*
X718989Y551462D01*
Y551555D01*
Y551629D01*
Y551666D01*
Y551795D01*
Y551869D01*
X719007Y551925D01*
Y551944D01*
Y552018D01*
Y552073D01*
X719026Y552092D01*
Y552110D01*
Y552184D01*
X719044Y552203D01*
X719081Y552258D01*
X719100Y552277D01*
X719118D01*
X719155Y552314D01*
X719211Y552332D01*
X719266Y552351D01*
X719285D01*
X719377Y552388D01*
X719452Y552406D01*
X719526Y552425D01*
X719544D01*
X719637Y552443D01*
X719729Y552462D01*
X719785Y552481D01*
X719803D01*
X719896Y552499D01*
X720044D01*
X720211Y552481D01*
D02*
G37*
G36*
X714082Y552480D02*
X714304Y552443D01*
X714508Y552388D01*
X714693Y552332D01*
X714859Y552277D01*
X714970Y552221D01*
X715044Y552184D01*
X715082Y552166D01*
X715304Y552036D01*
X715526Y551888D01*
X715730Y551721D01*
X715896Y551555D01*
X716063Y551407D01*
X716174Y551295D01*
X716248Y551221D01*
X716285Y551184D01*
Y552129D01*
X716304Y552221D01*
X716322Y552240D01*
X716341Y552277D01*
X716378Y552295D01*
X716396Y552314D01*
X716415D01*
X716470Y552332D01*
X716526Y552351D01*
X716581Y552369D01*
X716600D01*
X716693Y552388D01*
X717100D01*
X717155Y552369D01*
X717174D01*
X717248Y552351D01*
X717304Y552332D01*
X717341Y552314D01*
X717359D01*
X717396Y552295D01*
X717433Y552258D01*
X717452Y552240D01*
X717470Y552166D01*
Y552147D01*
Y552129D01*
Y544926D01*
X717452Y544852D01*
Y544815D01*
X717378Y544759D01*
X717359Y544740D01*
X717341D01*
X717211Y544722D01*
X717174Y544703D01*
X717155D01*
X717044Y544685D01*
X716693D01*
X716581Y544703D01*
X716507D01*
X716415Y544722D01*
X716359D01*
X716322Y544740D01*
X716304D01*
X716211Y544796D01*
X716193Y544815D01*
X716155Y544889D01*
Y544907D01*
Y544926D01*
Y549962D01*
X715952Y550203D01*
X715767Y550407D01*
X715600Y550573D01*
X715433Y550721D01*
X715304Y550832D01*
X715211Y550925D01*
X715137Y550962D01*
X715119Y550981D01*
X714933Y551110D01*
X714748Y551203D01*
X714582Y551258D01*
X714434Y551314D01*
X714304Y551332D01*
X714211Y551351D01*
X714119D01*
X713859Y551332D01*
X713637Y551277D01*
X713563Y551258D01*
X713508Y551221D01*
X713471Y551203D01*
X713452D01*
X713248Y551073D01*
X713100Y550944D01*
X713008Y550832D01*
X712971Y550795D01*
Y550777D01*
X712841Y550573D01*
X712767Y550351D01*
X712730Y550258D01*
X712711Y550203D01*
X712693Y550147D01*
Y550129D01*
X712656Y549981D01*
X712619Y549814D01*
X712600Y549499D01*
X712582Y549370D01*
Y549258D01*
Y549166D01*
Y549147D01*
Y544926D01*
X712563Y544852D01*
Y544815D01*
X712489Y544759D01*
X712471Y544740D01*
X712452D01*
X712323Y544722D01*
X712286Y544703D01*
X712267D01*
X712156Y544685D01*
X711804D01*
X711693Y544703D01*
X711619D01*
X711526Y544722D01*
X711471D01*
X711434Y544740D01*
X711415D01*
X711323Y544796D01*
X711304Y544815D01*
X711267Y544889D01*
Y544907D01*
Y544926D01*
Y549314D01*
Y549592D01*
X711286Y549851D01*
X711304Y550073D01*
X711341Y550258D01*
X711360Y550425D01*
X711397Y550536D01*
X711415Y550610D01*
Y550629D01*
X711471Y550832D01*
X711545Y551018D01*
X711619Y551184D01*
X711693Y551314D01*
X711749Y551425D01*
X711804Y551518D01*
X711841Y551573D01*
X711860Y551592D01*
X711971Y551740D01*
X712100Y551869D01*
X712249Y551981D01*
X712360Y552073D01*
X712489Y552147D01*
X712563Y552203D01*
X712637Y552221D01*
X712656Y552240D01*
X712841Y552332D01*
X713045Y552388D01*
X713248Y552443D01*
X713434Y552462D01*
X713600Y552480D01*
X713730Y552499D01*
X713859D01*
X714082Y552480D01*
D02*
G37*
G36*
X700676Y555869D02*
X700694D01*
X700768Y555850D01*
X700824Y555832D01*
X700861Y555813D01*
X700879D01*
X700953Y555758D01*
X700990Y555739D01*
Y555721D01*
X701009Y555665D01*
Y555647D01*
Y555628D01*
Y544926D01*
X700990Y544852D01*
Y544815D01*
X700916Y544759D01*
X700898Y544740D01*
X700879D01*
X700750Y544722D01*
X700713Y544703D01*
X700694D01*
X700583Y544685D01*
X700231D01*
X700120Y544703D01*
X700046D01*
X699954Y544722D01*
X699898D01*
X699861Y544740D01*
X699842D01*
X699750Y544796D01*
X699731Y544815D01*
X699694Y544889D01*
Y544907D01*
Y544926D01*
Y555628D01*
X699713Y555702D01*
X699731Y555721D01*
X699805Y555795D01*
X699824Y555813D01*
X699842D01*
X699898Y555832D01*
X699972Y555850D01*
X700028Y555869D01*
X700046D01*
X700139Y555887D01*
X700602D01*
X700676Y555869D01*
D02*
G37*
G36*
X683918Y552369D02*
X683937D01*
X684011Y552351D01*
X684066Y552332D01*
X684103Y552314D01*
X684122D01*
X684196Y552258D01*
X684233Y552240D01*
Y552221D01*
X684251Y552166D01*
Y552147D01*
Y552129D01*
Y544926D01*
X684233Y544852D01*
Y544815D01*
X684159Y544759D01*
X684140Y544740D01*
X684122D01*
X683992Y544722D01*
X683955Y544703D01*
X683937D01*
X683826Y544685D01*
X683474D01*
X683363Y544703D01*
X683289D01*
X683196Y544722D01*
X683140D01*
X683103Y544740D01*
X683085D01*
X682992Y544796D01*
X682974Y544815D01*
X682937Y544889D01*
Y544907D01*
Y544926D01*
Y552129D01*
X682955Y552203D01*
X682974Y552221D01*
X683048Y552295D01*
X683066Y552314D01*
X683085D01*
X683140Y552332D01*
X683214Y552351D01*
X683270Y552369D01*
X683289D01*
X683381Y552388D01*
X683844D01*
X683918Y552369D01*
D02*
G37*
G36*
X677104Y552480D02*
X677326Y552443D01*
X677530Y552388D01*
X677715Y552332D01*
X677882Y552277D01*
X677993Y552221D01*
X678067Y552184D01*
X678104Y552166D01*
X678326Y552036D01*
X678548Y551888D01*
X678752Y551721D01*
X678919Y551555D01*
X679085Y551407D01*
X679196Y551295D01*
X679270Y551221D01*
X679307Y551184D01*
Y552129D01*
X679326Y552221D01*
X679344Y552240D01*
X679363Y552277D01*
X679400Y552295D01*
X679419Y552314D01*
X679437D01*
X679493Y552332D01*
X679548Y552351D01*
X679604Y552369D01*
X679622D01*
X679715Y552388D01*
X680122D01*
X680178Y552369D01*
X680196D01*
X680270Y552351D01*
X680326Y552332D01*
X680363Y552314D01*
X680381D01*
X680418Y552295D01*
X680455Y552258D01*
X680474Y552240D01*
X680493Y552166D01*
Y552147D01*
Y552129D01*
Y544926D01*
X680474Y544852D01*
Y544815D01*
X680400Y544759D01*
X680381Y544740D01*
X680363D01*
X680233Y544722D01*
X680196Y544703D01*
X680178D01*
X680067Y544685D01*
X679715D01*
X679604Y544703D01*
X679530D01*
X679437Y544722D01*
X679382D01*
X679344Y544740D01*
X679326D01*
X679233Y544796D01*
X679215Y544815D01*
X679178Y544889D01*
Y544907D01*
Y544926D01*
Y549962D01*
X678974Y550203D01*
X678789Y550407D01*
X678622Y550573D01*
X678456Y550721D01*
X678326Y550832D01*
X678233Y550925D01*
X678159Y550962D01*
X678141Y550981D01*
X677956Y551110D01*
X677771Y551203D01*
X677604Y551258D01*
X677456Y551314D01*
X677326Y551332D01*
X677234Y551351D01*
X677141D01*
X676882Y551332D01*
X676660Y551277D01*
X676586Y551258D01*
X676530Y551221D01*
X676493Y551203D01*
X676475D01*
X676271Y551073D01*
X676123Y550944D01*
X676030Y550832D01*
X675993Y550795D01*
Y550777D01*
X675863Y550573D01*
X675789Y550351D01*
X675752Y550258D01*
X675734Y550203D01*
X675715Y550147D01*
Y550129D01*
X675678Y549981D01*
X675641Y549814D01*
X675623Y549499D01*
X675604Y549370D01*
Y549258D01*
Y549166D01*
Y549147D01*
Y544926D01*
X675586Y544852D01*
Y544815D01*
X675512Y544759D01*
X675493Y544740D01*
X675475D01*
X675345Y544722D01*
X675308Y544703D01*
X675289D01*
X675178Y544685D01*
X674827D01*
X674715Y544703D01*
X674641D01*
X674549Y544722D01*
X674493D01*
X674456Y544740D01*
X674438D01*
X674345Y544796D01*
X674326Y544815D01*
X674289Y544889D01*
Y544907D01*
Y544926D01*
Y549314D01*
Y549592D01*
X674308Y549851D01*
X674326Y550073D01*
X674364Y550258D01*
X674382Y550425D01*
X674419Y550536D01*
X674438Y550610D01*
Y550629D01*
X674493Y550832D01*
X674567Y551018D01*
X674641Y551184D01*
X674715Y551314D01*
X674771Y551425D01*
X674827Y551518D01*
X674864Y551573D01*
X674882Y551592D01*
X674993Y551740D01*
X675123Y551869D01*
X675271Y551981D01*
X675382Y552073D01*
X675512Y552147D01*
X675586Y552203D01*
X675660Y552221D01*
X675678Y552240D01*
X675863Y552332D01*
X676067Y552388D01*
X676271Y552443D01*
X676456Y552462D01*
X676623Y552480D01*
X676752Y552499D01*
X676882D01*
X677104Y552480D01*
D02*
G37*
G36*
X784686Y555128D02*
X784704D01*
X784797Y555110D01*
X784871Y555091D01*
X784908Y555073D01*
X784926D01*
X785000Y555017D01*
X785037Y554999D01*
Y554980D01*
X785056Y554925D01*
Y554906D01*
Y554888D01*
Y547481D01*
Y547296D01*
X785074Y547129D01*
Y546981D01*
X785093Y546870D01*
X785111Y546759D01*
Y546685D01*
X785130Y546648D01*
Y546629D01*
X785185Y546426D01*
X785241Y546259D01*
X785296Y546166D01*
X785315Y546129D01*
X785426Y546018D01*
X785537Y545926D01*
X785611Y545888D01*
X785630Y545870D01*
X785648D01*
X785797Y545833D01*
X785945Y545815D01*
X786111D01*
X786278Y545833D01*
X786407Y545852D01*
X786500Y545870D01*
X786537D01*
X786667Y545907D01*
X786778Y545963D01*
X786852Y545981D01*
X786870Y546000D01*
X786963Y546055D01*
X787037Y546092D01*
X787093Y546129D01*
X787111D01*
X787167Y546166D01*
X787222Y546203D01*
X787278D01*
X787352Y546185D01*
X787370Y546166D01*
X787389D01*
X787444Y546092D01*
X787463Y546074D01*
Y546055D01*
X787482Y546000D01*
Y545944D01*
X787500Y545907D01*
Y545888D01*
Y545796D01*
Y545703D01*
Y545629D01*
Y545592D01*
Y545481D01*
Y545407D01*
Y545352D01*
Y545333D01*
X787482Y545222D01*
Y545185D01*
Y545166D01*
X787444Y545092D01*
X787426Y545074D01*
Y545055D01*
X787370Y545000D01*
X787352Y544981D01*
Y544963D01*
X787315Y544926D01*
X787259Y544889D01*
X787204Y544870D01*
X787185Y544852D01*
X787074Y544796D01*
X786963Y544759D01*
X786889Y544740D01*
X786852Y544722D01*
X786704Y544685D01*
X786574Y544648D01*
X786482Y544629D01*
X786445D01*
X786278Y544611D01*
X786130Y544592D01*
X785759D01*
X785556Y544629D01*
X785371Y544648D01*
X785204Y544685D01*
X785074Y544722D01*
X784982Y544740D01*
X784926Y544777D01*
X784908D01*
X784741Y544852D01*
X784611Y544944D01*
X784482Y545037D01*
X784389Y545129D01*
X784315Y545203D01*
X784260Y545277D01*
X784223Y545314D01*
X784204Y545333D01*
X784019Y545629D01*
X783908Y545907D01*
X783871Y546018D01*
X783834Y546129D01*
X783815Y546185D01*
Y546203D01*
X783741Y546592D01*
X783723Y546796D01*
X783704Y546963D01*
X783686Y547111D01*
Y547222D01*
Y547314D01*
Y547333D01*
Y554888D01*
X783704Y554962D01*
X783723Y554980D01*
X783760Y555017D01*
X783797Y555054D01*
X783834Y555073D01*
X783852D01*
X783908Y555091D01*
X783982Y555110D01*
X784037Y555128D01*
X784056D01*
X784167Y555147D01*
X784611D01*
X784686Y555128D01*
D02*
G37*
G36*
X637960Y555202D02*
X638164Y555184D01*
X638349Y555147D01*
X638515Y555110D01*
X638627Y555091D01*
X638719Y555054D01*
X638738D01*
X638941Y554980D01*
X639127Y554888D01*
X639312Y554795D01*
X639460Y554721D01*
X639571Y554647D01*
X639664Y554573D01*
X639719Y554536D01*
X639738Y554517D01*
X640015Y554240D01*
X640126Y554110D01*
X640219Y553962D01*
X640293Y553851D01*
X640349Y553758D01*
X640367Y553684D01*
X640386Y553666D01*
X640460Y553480D01*
X640515Y553277D01*
X640552Y553092D01*
X640571Y552906D01*
X640589Y552758D01*
X640608Y552629D01*
Y552555D01*
Y552518D01*
X640589Y552295D01*
X640571Y552073D01*
X640534Y551888D01*
X640497Y551740D01*
X640460Y551610D01*
X640441Y551499D01*
X640404Y551443D01*
Y551425D01*
X640238Y551110D01*
X640145Y550981D01*
X640071Y550869D01*
X639997Y550777D01*
X639941Y550703D01*
X639904Y550666D01*
X639886Y550647D01*
X639626Y550407D01*
X639386Y550221D01*
X639293Y550147D01*
X639219Y550110D01*
X639164Y550073D01*
X639145Y550055D01*
X638830Y549888D01*
X638682Y549814D01*
X638553Y549740D01*
X638441Y549684D01*
X638367Y549647D01*
X638312Y549629D01*
X638293Y549610D01*
X637960Y549462D01*
X637830Y549388D01*
X637682Y549333D01*
X637590Y549277D01*
X637497Y549240D01*
X637441Y549221D01*
X637423Y549203D01*
X637127Y549055D01*
X636997Y548981D01*
X636886Y548925D01*
X636812Y548870D01*
X636738Y548814D01*
X636701Y548796D01*
X636682Y548777D01*
X636460Y548592D01*
X636293Y548425D01*
X636219Y548351D01*
X636182Y548296D01*
X636145Y548259D01*
Y548240D01*
X636071Y548111D01*
X636034Y547981D01*
X635960Y547740D01*
Y547648D01*
X635942Y547555D01*
Y547500D01*
Y547481D01*
X635960Y547203D01*
X635979Y547074D01*
X636016Y546963D01*
X636034Y546888D01*
X636071Y546814D01*
X636090Y546777D01*
Y546759D01*
X636219Y546537D01*
X636349Y546370D01*
X636460Y546259D01*
X636497Y546240D01*
X636516Y546222D01*
X636719Y546074D01*
X636923Y545981D01*
X637016Y545944D01*
X637090Y545907D01*
X637127Y545888D01*
X637145D01*
X637423Y545833D01*
X637682Y545796D01*
X637793Y545777D01*
X638182D01*
X638367Y545796D01*
X638553Y545815D01*
X638701Y545852D01*
X638830Y545870D01*
X638941Y545888D01*
X638997Y545907D01*
X639015D01*
X639330Y546018D01*
X639460Y546074D01*
X639571Y546111D01*
X639664Y546148D01*
X639738Y546185D01*
X639775Y546203D01*
X639793D01*
X640015Y546314D01*
X640163Y546407D01*
X640275Y546481D01*
X640293Y546500D01*
X640312D01*
X640441Y546592D01*
X640552Y546629D01*
X640608Y546648D01*
X640626D01*
X640700Y546629D01*
X640719Y546611D01*
X640737D01*
X640793Y546537D01*
X640811Y546518D01*
Y546500D01*
X640830Y546444D01*
X640848Y546389D01*
X640867Y546333D01*
Y546314D01*
Y546222D01*
Y546129D01*
Y546074D01*
Y546037D01*
Y545870D01*
X640848Y545740D01*
X640830Y545666D01*
Y545629D01*
X640793Y545537D01*
X640756Y545463D01*
X640719Y545407D01*
X640700Y545389D01*
X640608Y545314D01*
X640497Y545240D01*
X640404Y545166D01*
X640386Y545148D01*
X640367D01*
X640182Y545055D01*
X639997Y544963D01*
X639904Y544944D01*
X639849Y544907D01*
X639812Y544889D01*
X639793D01*
X639515Y544796D01*
X639256Y544740D01*
X639164Y544722D01*
X639071Y544703D01*
X639015Y544685D01*
X638997D01*
X638664Y544629D01*
X638497Y544611D01*
X638349D01*
X638219Y544592D01*
X637756D01*
X637497Y544629D01*
X637256Y544648D01*
X637053Y544685D01*
X636886Y544722D01*
X636756Y544740D01*
X636682Y544777D01*
X636645D01*
X636404Y544870D01*
X636201Y544963D01*
X635997Y545055D01*
X635830Y545148D01*
X635701Y545240D01*
X635608Y545314D01*
X635534Y545351D01*
X635516Y545370D01*
X635349Y545537D01*
X635201Y545685D01*
X635071Y545852D01*
X634960Y546000D01*
X634886Y546129D01*
X634831Y546240D01*
X634794Y546314D01*
X634775Y546333D01*
X634683Y546555D01*
X634608Y546777D01*
X634571Y547000D01*
X634534Y547203D01*
X634516Y547370D01*
X634497Y547500D01*
Y547592D01*
Y547629D01*
Y547851D01*
X634534Y548055D01*
X634553Y548240D01*
X634590Y548407D01*
X634627Y548536D01*
X634664Y548629D01*
X634683Y548685D01*
X634701Y548703D01*
X634868Y549018D01*
X634960Y549147D01*
X635053Y549258D01*
X635127Y549351D01*
X635182Y549425D01*
X635219Y549462D01*
X635238Y549481D01*
X635497Y549703D01*
X635738Y549888D01*
X635849Y549962D01*
X635923Y550018D01*
X635979Y550036D01*
X635997Y550055D01*
X636312Y550240D01*
X636460Y550314D01*
X636590Y550388D01*
X636701Y550444D01*
X636793Y550481D01*
X636849Y550518D01*
X636867D01*
X637182Y550666D01*
X637330Y550740D01*
X637460Y550795D01*
X637553Y550832D01*
X637645Y550869D01*
X637701Y550906D01*
X637719D01*
X638016Y551055D01*
X638145Y551129D01*
X638256Y551203D01*
X638349Y551258D01*
X638423Y551314D01*
X638460Y551332D01*
X638478Y551351D01*
X638701Y551536D01*
X638867Y551721D01*
X638941Y551795D01*
X638978Y551851D01*
X638997Y551888D01*
X639015Y551906D01*
X639127Y552147D01*
X639182Y552388D01*
Y552499D01*
X639201Y552573D01*
Y552629D01*
Y552647D01*
X639182Y552851D01*
X639145Y553036D01*
Y553110D01*
X639127Y553166D01*
X639108Y553184D01*
Y553203D01*
X639015Y553388D01*
X638904Y553517D01*
X638830Y553610D01*
X638793Y553647D01*
X638627Y553777D01*
X638460Y553888D01*
X638386Y553925D01*
X638330Y553943D01*
X638293Y553962D01*
X638275D01*
X638016Y554036D01*
X637775Y554073D01*
X637664Y554091D01*
X637515D01*
X637182Y554073D01*
X637053Y554054D01*
X636923Y554036D01*
X636830Y553999D01*
X636738Y553980D01*
X636701Y553962D01*
X636682D01*
X636423Y553869D01*
X636219Y553795D01*
X636145Y553758D01*
X636090Y553721D01*
X636071Y553703D01*
X636053D01*
X635868Y553610D01*
X635719Y553536D01*
X635627Y553480D01*
X635590Y553462D01*
X635460Y553406D01*
X635386Y553369D01*
X635331Y553351D01*
X635312D01*
X635238Y553369D01*
X635219D01*
X635164Y553443D01*
X635145Y553462D01*
Y553480D01*
X635127Y553610D01*
X635108Y553666D01*
Y553684D01*
X635090Y553777D01*
Y553851D01*
Y553925D01*
Y553943D01*
Y554036D01*
Y554128D01*
X635108Y554165D01*
Y554184D01*
Y554295D01*
X635127Y554332D01*
Y554351D01*
X635164Y554443D01*
X635182Y554462D01*
X635201Y554499D01*
X635238Y554554D01*
X635257Y554573D01*
X635275Y554591D01*
X635349Y554647D01*
X635460Y554721D01*
X635553Y554758D01*
X635571Y554776D01*
X635590D01*
X635775Y554869D01*
X635960Y554943D01*
X636034Y554962D01*
X636090Y554980D01*
X636127Y554999D01*
X636145D01*
X636367Y555073D01*
X636571Y555128D01*
X636664Y555147D01*
X636738D01*
X636775Y555165D01*
X636793D01*
X637034Y555202D01*
X637256Y555239D01*
X637719D01*
X637960Y555202D01*
D02*
G37*
G36*
X664087Y556480D02*
X664105D01*
X664179Y556461D01*
X664253Y556443D01*
X664290Y556424D01*
X664309D01*
X664402Y556369D01*
X664420Y556350D01*
X664439Y556332D01*
X664457Y556276D01*
X664494Y556221D01*
X664513Y556184D01*
Y556165D01*
X669346Y542926D01*
X669383Y542852D01*
Y542796D01*
Y542759D01*
Y542741D01*
X669346Y542667D01*
X669308Y542630D01*
X669253Y542593D01*
X669179Y542556D01*
X669123Y542537D01*
X669105D01*
X668994Y542519D01*
X668864Y542500D01*
X668642D01*
X668549Y542519D01*
X668475D01*
X668401Y542537D01*
X668346Y542556D01*
X668309Y542574D01*
X668290D01*
X668235Y542611D01*
X668197Y542630D01*
X668160Y542667D01*
X668123Y542722D01*
X668086Y542778D01*
X668068Y542815D01*
Y542833D01*
X663217Y556073D01*
X663198Y556147D01*
Y556202D01*
Y556239D01*
Y556258D01*
X663217Y556313D01*
X663254Y556350D01*
X663272Y556369D01*
X663291D01*
X663346Y556406D01*
X663420Y556443D01*
X663476Y556461D01*
X663494D01*
X663605Y556480D01*
X663698Y556498D01*
X664031D01*
X664087Y556480D01*
D02*
G37*
G36*
X770298Y530221D02*
X770446Y530202D01*
X770576Y530184D01*
X770687Y530165D01*
X770779Y530147D01*
X770835Y530128D01*
X770854D01*
X771150Y530054D01*
X771298Y530017D01*
X771409Y529980D01*
X771502Y529943D01*
X771576Y529906D01*
X771631Y529888D01*
X771650D01*
X771890Y529795D01*
X772076Y529702D01*
X772150Y529665D01*
X772205Y529628D01*
X772224Y529610D01*
X772242D01*
X772391Y529517D01*
X772502Y529443D01*
X772557Y529388D01*
X772576Y529369D01*
X772631Y529314D01*
X772668Y529277D01*
X772705Y529258D01*
Y529240D01*
X772742Y529147D01*
X772761Y529128D01*
Y529110D01*
X772779Y529017D01*
Y528980D01*
Y528962D01*
Y528832D01*
Y528777D01*
Y528758D01*
Y528647D01*
Y528554D01*
Y528480D01*
Y528462D01*
X772761Y528388D01*
Y528332D01*
X772742Y528295D01*
Y528277D01*
X772687Y528203D01*
X772668Y528166D01*
X772594Y528147D01*
X772557D01*
X772465Y528166D01*
X772353Y528221D01*
X772279Y528258D01*
X772242Y528277D01*
X772076Y528369D01*
X771909Y528480D01*
X771853Y528517D01*
X771798Y528554D01*
X771761Y528573D01*
X771742D01*
X771502Y528684D01*
X771280Y528777D01*
X771187Y528814D01*
X771113Y528851D01*
X771057Y528869D01*
X771039D01*
X770724Y528962D01*
X770576Y528980D01*
X770428Y528999D01*
X770317Y529017D01*
X770131D01*
X769835Y528999D01*
X769706Y528980D01*
X769594Y528943D01*
X769502Y528925D01*
X769428Y528888D01*
X769391Y528869D01*
X769372D01*
X769150Y528758D01*
X768965Y528629D01*
X768854Y528536D01*
X768835Y528517D01*
X768817Y528499D01*
X768669Y528314D01*
X768558Y528147D01*
X768521Y528073D01*
X768502Y528017D01*
X768484Y527980D01*
Y527962D01*
X768409Y527740D01*
X768372Y527536D01*
X768354Y527443D01*
Y527369D01*
Y527332D01*
Y527314D01*
X768372Y527055D01*
X768391Y526814D01*
X768409Y526721D01*
X768428Y526647D01*
X768446Y526592D01*
Y526573D01*
X768521Y526277D01*
X768632Y525999D01*
X768687Y525869D01*
X768724Y525777D01*
X768743Y525721D01*
X768761Y525703D01*
X768854Y525518D01*
X768965Y525332D01*
X769076Y525147D01*
X769169Y524981D01*
X769280Y524851D01*
X769354Y524721D01*
X769409Y524647D01*
X769428Y524629D01*
X769594Y524407D01*
X769780Y524184D01*
X769983Y523962D01*
X770169Y523759D01*
X770317Y523592D01*
X770465Y523462D01*
X770539Y523370D01*
X770576Y523333D01*
X772650Y521203D01*
X772705Y521129D01*
X772761Y521055D01*
X772798Y521018D01*
X772816Y521000D01*
X772890Y520870D01*
X772909Y520833D01*
Y520815D01*
X772946Y520685D01*
X772964Y520629D01*
Y520611D01*
Y520518D01*
Y520426D01*
Y520370D01*
Y520333D01*
Y520203D01*
X772946Y520111D01*
Y520037D01*
Y520018D01*
X772909Y519944D01*
X772890Y519889D01*
X772853Y519870D01*
Y519852D01*
X772761Y519777D01*
X772742Y519759D01*
X772724D01*
X772594Y519740D01*
X766798D01*
X766706Y519759D01*
X766669D01*
X766595Y519833D01*
X766576Y519852D01*
Y519870D01*
X766539Y520000D01*
X766521Y520055D01*
Y520074D01*
X766502Y520166D01*
X766484Y520241D01*
Y520296D01*
Y520314D01*
Y520426D01*
X766502Y520500D01*
X766521Y520555D01*
Y520574D01*
X766539Y520648D01*
X766558Y520703D01*
X766576Y520740D01*
Y520759D01*
X766650Y520852D01*
X766669Y520870D01*
X766687D01*
X766761Y520907D01*
X771298D01*
X769669Y522611D01*
X769354Y522944D01*
X769076Y523240D01*
X768835Y523518D01*
X768613Y523759D01*
X768465Y523944D01*
X768335Y524092D01*
X768261Y524184D01*
X768243Y524221D01*
X768058Y524481D01*
X767891Y524721D01*
X767743Y524925D01*
X767632Y525110D01*
X767539Y525277D01*
X767484Y525388D01*
X767447Y525462D01*
X767428Y525481D01*
X767317Y525684D01*
X767243Y525888D01*
X767169Y526073D01*
X767113Y526240D01*
X767076Y526370D01*
X767058Y526462D01*
X767039Y526536D01*
Y526555D01*
X766984Y526925D01*
X766965Y527092D01*
Y527240D01*
X766947Y527351D01*
Y527462D01*
Y527518D01*
Y527536D01*
X766984Y527925D01*
X767002Y528110D01*
X767039Y528258D01*
X767076Y528388D01*
X767095Y528499D01*
X767132Y528554D01*
Y528573D01*
X767206Y528758D01*
X767298Y528925D01*
X767391Y529073D01*
X767484Y529202D01*
X767576Y529295D01*
X767650Y529369D01*
X767687Y529425D01*
X767706Y529443D01*
X767854Y529573D01*
X768002Y529684D01*
X768317Y529869D01*
X768446Y529925D01*
X768558Y529980D01*
X768632Y530017D01*
X768650D01*
X768872Y530091D01*
X769094Y530147D01*
X769317Y530184D01*
X769520Y530221D01*
X769687D01*
X769835Y530239D01*
X769965D01*
X770298Y530221D01*
D02*
G37*
G36*
X741394Y530073D02*
X741505Y530036D01*
X741579Y529980D01*
X741597Y529962D01*
X741653Y529851D01*
X741690Y529702D01*
X741708Y529591D01*
Y529573D01*
Y529554D01*
Y525351D01*
X741690Y525166D01*
X741653Y525036D01*
X741634Y524962D01*
X741616Y524944D01*
X741523Y524888D01*
X741431Y524851D01*
X741338Y524833D01*
X741301D01*
X741079Y524851D01*
X740857Y524870D01*
X740783D01*
X740709Y524888D01*
X740653D01*
X740375Y524925D01*
X740098Y524944D01*
X739579D01*
X739338Y524925D01*
X739135Y524907D01*
X738968Y524888D01*
X738820Y524851D01*
X738727Y524833D01*
X738653Y524814D01*
X738635D01*
X738449Y524758D01*
X738301Y524703D01*
X738153Y524629D01*
X738042Y524573D01*
X737950Y524518D01*
X737876Y524462D01*
X737839Y524444D01*
X737820Y524425D01*
X737598Y524221D01*
X737450Y524018D01*
X737394Y523925D01*
X737357Y523870D01*
X737338Y523814D01*
Y523796D01*
X737246Y523499D01*
X737190Y523222D01*
X737172Y523111D01*
Y523018D01*
Y522944D01*
Y522925D01*
Y522722D01*
X737209Y522518D01*
X737227Y522351D01*
X737264Y522203D01*
X737301Y522092D01*
X737320Y522000D01*
X737357Y521944D01*
Y521926D01*
X737524Y521648D01*
X737598Y521537D01*
X737690Y521426D01*
X737764Y521352D01*
X737820Y521296D01*
X737857Y521259D01*
X737876Y521240D01*
X738135Y521055D01*
X738375Y520926D01*
X738487Y520888D01*
X738579Y520852D01*
X738635Y520833D01*
X738653D01*
X738987Y520777D01*
X739153Y520740D01*
X739301D01*
X739449Y520722D01*
X739838D01*
X740023Y520740D01*
X740209Y520759D01*
X740357Y520777D01*
X740468D01*
X740560Y520796D01*
X740616Y520815D01*
X740635D01*
X740912Y520888D01*
X741042Y520926D01*
X741134Y520963D01*
X741227Y521000D01*
X741283Y521018D01*
X741320Y521037D01*
X741338D01*
X741523Y521129D01*
X741671Y521203D01*
X741746Y521240D01*
X741783Y521259D01*
X741894Y521333D01*
X741968Y521352D01*
X742005Y521370D01*
X742023D01*
X742097Y521352D01*
X742116Y521333D01*
X742134D01*
X742190Y521259D01*
X742208Y521240D01*
Y521222D01*
X742227Y521166D01*
Y521111D01*
X742245Y521074D01*
Y521055D01*
Y520963D01*
Y520888D01*
Y520833D01*
Y520815D01*
Y520703D01*
Y520629D01*
Y520574D01*
Y520555D01*
X742227Y520444D01*
Y520407D01*
Y520389D01*
X742190Y520296D01*
X742171Y520277D01*
Y520259D01*
X742134Y520203D01*
X742097Y520185D01*
Y520166D01*
X742023Y520129D01*
X741931Y520074D01*
X741857Y520037D01*
X741820Y520018D01*
X741634Y519944D01*
X741449Y519889D01*
X741375Y519870D01*
X741320Y519852D01*
X741283Y519833D01*
X741264D01*
X741005Y519777D01*
X740764Y519722D01*
X740653Y519703D01*
X740579Y519685D01*
X740523Y519666D01*
X740505D01*
X740172Y519629D01*
X740023Y519611D01*
X739875D01*
X739746Y519592D01*
X739579D01*
X739264Y519611D01*
X738968Y519629D01*
X738709Y519666D01*
X738487Y519703D01*
X738283Y519740D01*
X738153Y519777D01*
X738061Y519815D01*
X738024D01*
X737764Y519907D01*
X737524Y520018D01*
X737320Y520129D01*
X737135Y520241D01*
X737005Y520333D01*
X736894Y520407D01*
X736820Y520463D01*
X736802Y520481D01*
X736616Y520648D01*
X736450Y520833D01*
X736320Y521018D01*
X736209Y521203D01*
X736116Y521352D01*
X736061Y521463D01*
X736024Y521537D01*
X736005Y521574D01*
X735913Y521833D01*
X735839Y522074D01*
X735783Y522333D01*
X735746Y522555D01*
X735728Y522759D01*
X735709Y522907D01*
Y523018D01*
Y523055D01*
Y523296D01*
X735746Y523536D01*
X735783Y523740D01*
X735820Y523925D01*
X735857Y524073D01*
X735894Y524184D01*
X735913Y524259D01*
X735931Y524277D01*
X736024Y524481D01*
X736116Y524666D01*
X736227Y524814D01*
X736339Y524962D01*
X736431Y525073D01*
X736505Y525147D01*
X736561Y525203D01*
X736579Y525221D01*
X736746Y525351D01*
X736931Y525481D01*
X737098Y525573D01*
X737283Y525666D01*
X737431Y525721D01*
X737542Y525777D01*
X737616Y525814D01*
X737653D01*
X737894Y525888D01*
X738153Y525944D01*
X738412Y525981D01*
X738635Y526018D01*
X738838D01*
X739005Y526036D01*
X739616D01*
X739690Y526018D01*
X740005D01*
X740172Y525999D01*
X740246Y525981D01*
X740301D01*
X740320Y525962D01*
X740338D01*
Y528888D01*
X736653D01*
X736561Y528906D01*
X736505Y528962D01*
X736468Y529017D01*
X736450Y529036D01*
X736394Y529184D01*
X736376Y529314D01*
X736357Y529443D01*
Y529462D01*
Y529480D01*
Y529591D01*
X736376Y529684D01*
X736394Y529739D01*
Y529758D01*
X736413Y529832D01*
X736431Y529888D01*
X736450Y529925D01*
Y529943D01*
X736505Y530036D01*
X736524Y530054D01*
X736542D01*
X736635Y530091D01*
X741245D01*
X741394Y530073D01*
D02*
G37*
G36*
X701861Y530073D02*
X701972Y530036D01*
X702046Y529980D01*
X702064Y529962D01*
X702120Y529851D01*
X702157Y529702D01*
X702176Y529591D01*
Y529573D01*
Y529554D01*
Y525351D01*
X702157Y525166D01*
X702120Y525036D01*
X702101Y524962D01*
X702083Y524944D01*
X701990Y524888D01*
X701898Y524851D01*
X701805Y524833D01*
X701768D01*
X701546Y524851D01*
X701324Y524870D01*
X701250D01*
X701176Y524888D01*
X701120D01*
X700842Y524925D01*
X700565Y524944D01*
X700046D01*
X699805Y524925D01*
X699602Y524907D01*
X699435Y524888D01*
X699287Y524851D01*
X699194Y524833D01*
X699120Y524814D01*
X699102D01*
X698917Y524758D01*
X698768Y524703D01*
X698620Y524629D01*
X698509Y524573D01*
X698417Y524518D01*
X698343Y524462D01*
X698306Y524444D01*
X698287Y524425D01*
X698065Y524221D01*
X697917Y524018D01*
X697861Y523925D01*
X697824Y523870D01*
X697806Y523814D01*
Y523796D01*
X697713Y523499D01*
X697657Y523222D01*
X697639Y523111D01*
Y523018D01*
Y522944D01*
Y522925D01*
Y522722D01*
X697676Y522518D01*
X697694Y522351D01*
X697731Y522203D01*
X697769Y522092D01*
X697787Y522000D01*
X697824Y521944D01*
Y521925D01*
X697991Y521648D01*
X698065Y521537D01*
X698157Y521426D01*
X698232Y521351D01*
X698287Y521296D01*
X698324Y521259D01*
X698343Y521240D01*
X698602Y521055D01*
X698842Y520926D01*
X698954Y520888D01*
X699046Y520852D01*
X699102Y520833D01*
X699120D01*
X699454Y520777D01*
X699620Y520740D01*
X699768D01*
X699917Y520722D01*
X700305D01*
X700490Y520740D01*
X700676Y520759D01*
X700824Y520777D01*
X700935D01*
X701028Y520796D01*
X701083Y520815D01*
X701102D01*
X701379Y520888D01*
X701509Y520926D01*
X701601Y520963D01*
X701694Y521000D01*
X701750Y521018D01*
X701787Y521037D01*
X701805D01*
X701990Y521129D01*
X702139Y521203D01*
X702213Y521240D01*
X702250Y521259D01*
X702361Y521333D01*
X702435Y521351D01*
X702472Y521370D01*
X702490D01*
X702564Y521351D01*
X702583Y521333D01*
X702601D01*
X702657Y521259D01*
X702675Y521240D01*
Y521222D01*
X702694Y521166D01*
Y521111D01*
X702712Y521074D01*
Y521055D01*
Y520963D01*
Y520888D01*
Y520833D01*
Y520815D01*
Y520703D01*
Y520629D01*
Y520574D01*
Y520555D01*
X702694Y520444D01*
Y520407D01*
Y520389D01*
X702657Y520296D01*
X702638Y520277D01*
Y520259D01*
X702601Y520203D01*
X702564Y520185D01*
Y520166D01*
X702490Y520129D01*
X702398Y520074D01*
X702324Y520037D01*
X702287Y520018D01*
X702101Y519944D01*
X701916Y519889D01*
X701842Y519870D01*
X701787Y519852D01*
X701750Y519833D01*
X701731D01*
X701472Y519777D01*
X701231Y519722D01*
X701120Y519703D01*
X701046Y519685D01*
X700990Y519666D01*
X700972D01*
X700639Y519629D01*
X700490Y519611D01*
X700342D01*
X700213Y519592D01*
X700046D01*
X699731Y519611D01*
X699435Y519629D01*
X699176Y519666D01*
X698954Y519703D01*
X698750Y519740D01*
X698620Y519777D01*
X698528Y519815D01*
X698491D01*
X698232Y519907D01*
X697991Y520018D01*
X697787Y520129D01*
X697602Y520240D01*
X697472Y520333D01*
X697361Y520407D01*
X697287Y520463D01*
X697269Y520481D01*
X697083Y520648D01*
X696917Y520833D01*
X696787Y521018D01*
X696676Y521203D01*
X696583Y521351D01*
X696528Y521463D01*
X696491Y521537D01*
X696472Y521574D01*
X696380Y521833D01*
X696306Y522074D01*
X696250Y522333D01*
X696213Y522555D01*
X696195Y522759D01*
X696176Y522907D01*
Y523018D01*
Y523055D01*
Y523296D01*
X696213Y523536D01*
X696250Y523740D01*
X696287Y523925D01*
X696324Y524073D01*
X696361Y524184D01*
X696380Y524258D01*
X696398Y524277D01*
X696491Y524481D01*
X696583Y524666D01*
X696695Y524814D01*
X696806Y524962D01*
X696898Y525073D01*
X696972Y525147D01*
X697028Y525203D01*
X697046Y525221D01*
X697213Y525351D01*
X697398Y525481D01*
X697565Y525573D01*
X697750Y525666D01*
X697898Y525721D01*
X698009Y525777D01*
X698083Y525814D01*
X698120D01*
X698361Y525888D01*
X698620Y525944D01*
X698880Y525981D01*
X699102Y526018D01*
X699305D01*
X699472Y526036D01*
X700083D01*
X700157Y526018D01*
X700472D01*
X700639Y525999D01*
X700713Y525981D01*
X700768D01*
X700787Y525962D01*
X700805D01*
Y528888D01*
X697121D01*
X697028Y528906D01*
X696972Y528962D01*
X696935Y529017D01*
X696917Y529036D01*
X696861Y529184D01*
X696843Y529314D01*
X696824Y529443D01*
Y529462D01*
Y529480D01*
Y529591D01*
X696843Y529684D01*
X696861Y529739D01*
Y529758D01*
X696880Y529832D01*
X696898Y529888D01*
X696917Y529925D01*
Y529943D01*
X696972Y530036D01*
X696991Y530054D01*
X697009D01*
X697102Y530091D01*
X701713D01*
X701861Y530073D01*
D02*
G37*
G36*
X688010Y527480D02*
X688158Y527462D01*
X688270D01*
X688381Y527443D01*
X688455Y527425D01*
X688510Y527406D01*
X688529D01*
X688825Y527351D01*
X688955Y527314D01*
X689066Y527295D01*
X689158Y527258D01*
X689232Y527240D01*
X689269Y527221D01*
X689288D01*
X689529Y527129D01*
X689714Y527054D01*
X689788Y527018D01*
X689844Y526981D01*
X689881Y526962D01*
X689899D01*
X690066Y526869D01*
X690177Y526795D01*
X690251Y526740D01*
X690269Y526721D01*
X690325Y526647D01*
X690362Y526573D01*
X690399Y526518D01*
Y526499D01*
X690417Y526407D01*
Y526295D01*
Y526221D01*
Y526203D01*
Y526184D01*
Y526110D01*
Y526036D01*
Y525981D01*
Y525962D01*
X690380Y525851D01*
X690362Y525814D01*
Y525795D01*
X690306Y525721D01*
X690288Y525703D01*
X690195Y525684D01*
X690158D01*
X690084Y525703D01*
X689992Y525740D01*
X689918Y525777D01*
X689881Y525795D01*
X689714Y525888D01*
X689547Y525962D01*
X689492Y525999D01*
X689436Y526018D01*
X689399Y526036D01*
X689380D01*
X689158Y526147D01*
X688936Y526221D01*
X688844Y526258D01*
X688770Y526277D01*
X688733Y526295D01*
X688714D01*
X688418Y526369D01*
X688121Y526407D01*
X688010Y526425D01*
X687825D01*
X687510Y526407D01*
X687381Y526388D01*
X687270Y526369D01*
X687196Y526351D01*
X687122Y526332D01*
X687085Y526314D01*
X687066D01*
X686862Y526221D01*
X686696Y526110D01*
X686603Y526018D01*
X686566Y525999D01*
Y525981D01*
X686436Y525814D01*
X686344Y525629D01*
X686307Y525555D01*
X686288Y525499D01*
X686270Y525462D01*
Y525444D01*
X686214Y525203D01*
X686196Y524962D01*
X686177Y524870D01*
Y524795D01*
Y524740D01*
Y524721D01*
Y524166D01*
X687473D01*
X687770Y524147D01*
X688029Y524129D01*
X688251Y524092D01*
X688436Y524073D01*
X688566Y524036D01*
X688658Y524018D01*
X688695D01*
X688936Y523962D01*
X689158Y523888D01*
X689343Y523814D01*
X689510Y523740D01*
X689640Y523685D01*
X689732Y523629D01*
X689806Y523592D01*
X689825Y523573D01*
X689992Y523462D01*
X690121Y523333D01*
X690251Y523203D01*
X690343Y523092D01*
X690436Y522981D01*
X690491Y522888D01*
X690510Y522833D01*
X690529Y522814D01*
X690603Y522648D01*
X690658Y522462D01*
X690714Y522296D01*
X690732Y522129D01*
X690751Y521981D01*
X690769Y521870D01*
Y521796D01*
Y521777D01*
X690751Y521407D01*
X690714Y521259D01*
X690677Y521129D01*
X690658Y521000D01*
X690621Y520926D01*
X690603Y520870D01*
Y520852D01*
X690454Y520574D01*
X690362Y520444D01*
X690288Y520351D01*
X690214Y520259D01*
X690158Y520203D01*
X690121Y520166D01*
X690103Y520148D01*
X689844Y519963D01*
X689584Y519833D01*
X689492Y519796D01*
X689399Y519759D01*
X689343Y519740D01*
X689325D01*
X688973Y519648D01*
X688788Y519629D01*
X688640Y519611D01*
X688492Y519592D01*
X688288D01*
X688047Y519611D01*
X687825Y519629D01*
X687622Y519666D01*
X687436Y519722D01*
X687288Y519777D01*
X687159Y519815D01*
X687085Y519833D01*
X687066Y519852D01*
X686844Y519963D01*
X686659Y520092D01*
X686473Y520222D01*
X686307Y520351D01*
X686196Y520463D01*
X686085Y520555D01*
X686029Y520611D01*
X686011Y520629D01*
Y519907D01*
X685992Y519852D01*
X685974Y519815D01*
X685955Y519777D01*
X685899Y519759D01*
X685844Y519740D01*
X685788Y519722D01*
X685770D01*
X685659Y519703D01*
X685548Y519685D01*
X685307D01*
X685196Y519703D01*
X685140Y519722D01*
X685122D01*
X685029Y519740D01*
X684974Y519759D01*
X684955Y519777D01*
X684937D01*
X684900Y519815D01*
X684863Y519852D01*
Y519889D01*
Y519907D01*
Y524777D01*
Y525018D01*
X684881Y525240D01*
X684918Y525444D01*
X684937Y525610D01*
X684974Y525758D01*
X685011Y525851D01*
X685029Y525925D01*
Y525944D01*
X685085Y526129D01*
X685159Y526295D01*
X685251Y526443D01*
X685325Y526573D01*
X685399Y526666D01*
X685455Y526740D01*
X685492Y526777D01*
X685511Y526795D01*
X685640Y526906D01*
X685788Y527018D01*
X686085Y527184D01*
X686214Y527240D01*
X686307Y527277D01*
X686381Y527314D01*
X686399D01*
X686603Y527369D01*
X686825Y527425D01*
X687047Y527462D01*
X687251Y527480D01*
X687436Y527499D01*
X687714D01*
X688010Y527480D01*
D02*
G37*
G36*
X761114Y524296D02*
X761188Y524259D01*
X761225Y524203D01*
X761244Y524184D01*
X761262Y524129D01*
X761281Y524073D01*
X761299Y523925D01*
Y523814D01*
Y523777D01*
Y523759D01*
X761281Y523573D01*
X761262Y523444D01*
X761244Y523351D01*
Y523333D01*
X761169Y523277D01*
X761095Y523240D01*
X761040Y523222D01*
X757688D01*
X757596Y523240D01*
X757522Y523277D01*
X757485Y523314D01*
X757466Y523333D01*
X757448Y523388D01*
X757429Y523444D01*
X757392Y523592D01*
Y523703D01*
Y523740D01*
Y523759D01*
Y523870D01*
X757411Y523944D01*
X757429Y523999D01*
Y524018D01*
X757448Y524092D01*
X757466Y524147D01*
X757485Y524166D01*
Y524184D01*
X757522Y524240D01*
X757540Y524259D01*
X757559Y524277D01*
X757577D01*
X757651Y524314D01*
X761021D01*
X761114Y524296D01*
D02*
G37*
G36*
X751393Y530073D02*
X751504Y530036D01*
X751578Y529980D01*
X751615Y529962D01*
X751707Y529832D01*
X751744Y529684D01*
X751763Y529573D01*
Y529536D01*
Y529517D01*
Y520296D01*
X751744Y520092D01*
X751689Y519963D01*
X751633Y519870D01*
X751615Y519852D01*
X751485Y519796D01*
X751374Y519759D01*
X751300Y519740D01*
X749060D01*
X748578Y519759D01*
X748152Y519796D01*
X747763Y519833D01*
X747430Y519907D01*
X747152Y519963D01*
X747041Y519981D01*
X746949Y520000D01*
X746875Y520018D01*
X746819Y520037D01*
X746801Y520055D01*
X746782D01*
X746430Y520185D01*
X746115Y520352D01*
X745856Y520518D01*
X745615Y520666D01*
X745430Y520815D01*
X745282Y520926D01*
X745208Y521000D01*
X745171Y521037D01*
X744930Y521296D01*
X744727Y521574D01*
X744560Y521851D01*
X744412Y522129D01*
X744301Y522351D01*
X744208Y522537D01*
X744190Y522611D01*
X744171Y522666D01*
X744153Y522685D01*
Y522703D01*
X744042Y523092D01*
X743949Y523499D01*
X743893Y523888D01*
X743838Y524259D01*
X743819Y524573D01*
Y524721D01*
X743801Y524833D01*
Y524925D01*
Y524999D01*
Y525036D01*
Y525055D01*
X743819Y525481D01*
X743856Y525869D01*
X743912Y526221D01*
X743968Y526536D01*
X744023Y526795D01*
X744079Y526981D01*
X744097Y527055D01*
X744116Y527110D01*
X744134Y527129D01*
Y527147D01*
X744264Y527481D01*
X744412Y527795D01*
X744578Y528073D01*
X744727Y528295D01*
X744856Y528480D01*
X744967Y528629D01*
X745041Y528703D01*
X745079Y528740D01*
X745319Y528962D01*
X745597Y529165D01*
X745856Y529332D01*
X746097Y529480D01*
X746319Y529591D01*
X746486Y529684D01*
X746615Y529721D01*
X746634Y529739D01*
X746652D01*
X747023Y529851D01*
X747393Y529943D01*
X747782Y529999D01*
X748134Y530054D01*
X748448Y530073D01*
X748578D01*
X748689Y530091D01*
X751263D01*
X751393Y530073D01*
D02*
G37*
G36*
X711860Y530073D02*
X711971Y530036D01*
X712045Y529980D01*
X712082Y529962D01*
X712175Y529832D01*
X712212Y529684D01*
X712230Y529573D01*
Y529536D01*
Y529517D01*
Y520296D01*
X712212Y520092D01*
X712156Y519963D01*
X712100Y519870D01*
X712082Y519852D01*
X711952Y519796D01*
X711841Y519759D01*
X711767Y519740D01*
X709527D01*
X709045Y519759D01*
X708619Y519796D01*
X708230Y519833D01*
X707897Y519907D01*
X707619Y519963D01*
X707508Y519981D01*
X707416Y520000D01*
X707342Y520018D01*
X707286Y520037D01*
X707268Y520055D01*
X707249D01*
X706897Y520185D01*
X706582Y520351D01*
X706323Y520518D01*
X706083Y520666D01*
X705897Y520815D01*
X705749Y520926D01*
X705675Y521000D01*
X705638Y521037D01*
X705397Y521296D01*
X705194Y521574D01*
X705027Y521851D01*
X704879Y522129D01*
X704768Y522351D01*
X704675Y522537D01*
X704657Y522611D01*
X704638Y522666D01*
X704620Y522685D01*
Y522703D01*
X704509Y523092D01*
X704416Y523499D01*
X704361Y523888D01*
X704305Y524258D01*
X704286Y524573D01*
Y524721D01*
X704268Y524833D01*
Y524925D01*
Y524999D01*
Y525036D01*
Y525055D01*
X704286Y525481D01*
X704323Y525869D01*
X704379Y526221D01*
X704435Y526536D01*
X704490Y526795D01*
X704546Y526981D01*
X704564Y527054D01*
X704583Y527110D01*
X704601Y527129D01*
Y527147D01*
X704731Y527480D01*
X704879Y527795D01*
X705046Y528073D01*
X705194Y528295D01*
X705323Y528480D01*
X705434Y528629D01*
X705508Y528703D01*
X705546Y528740D01*
X705786Y528962D01*
X706064Y529165D01*
X706323Y529332D01*
X706564Y529480D01*
X706786Y529591D01*
X706953Y529684D01*
X707082Y529721D01*
X707101Y529739D01*
X707119D01*
X707490Y529851D01*
X707860Y529943D01*
X708249Y529999D01*
X708601Y530054D01*
X708915Y530073D01*
X709045D01*
X709156Y530091D01*
X711730D01*
X711860Y530073D01*
D02*
G37*
G36*
X660995D02*
X661106Y530036D01*
X661180Y529980D01*
X661217Y529962D01*
X661309Y529832D01*
X661346Y529684D01*
X661365Y529573D01*
Y529536D01*
Y529517D01*
Y520296D01*
X661346Y520092D01*
X661291Y519963D01*
X661235Y519870D01*
X661217Y519852D01*
X661087Y519796D01*
X660976Y519759D01*
X660902Y519740D01*
X658661D01*
X658180Y519759D01*
X657754Y519796D01*
X657365Y519833D01*
X657032Y519907D01*
X656754Y519963D01*
X656643Y519981D01*
X656551Y520000D01*
X656477Y520018D01*
X656421Y520037D01*
X656403Y520055D01*
X656384D01*
X656032Y520185D01*
X655717Y520351D01*
X655458Y520518D01*
X655217Y520666D01*
X655032Y520815D01*
X654884Y520926D01*
X654810Y521000D01*
X654773Y521037D01*
X654532Y521296D01*
X654329Y521574D01*
X654162Y521851D01*
X654014Y522129D01*
X653903Y522351D01*
X653810Y522537D01*
X653792Y522611D01*
X653773Y522666D01*
X653755Y522685D01*
Y522703D01*
X653643Y523092D01*
X653551Y523499D01*
X653495Y523888D01*
X653440Y524258D01*
X653421Y524573D01*
Y524721D01*
X653403Y524833D01*
Y524925D01*
Y524999D01*
Y525036D01*
Y525055D01*
X653421Y525481D01*
X653458Y525869D01*
X653514Y526221D01*
X653569Y526536D01*
X653625Y526795D01*
X653680Y526981D01*
X653699Y527054D01*
X653718Y527110D01*
X653736Y527129D01*
Y527147D01*
X653866Y527480D01*
X654014Y527795D01*
X654181Y528073D01*
X654329Y528295D01*
X654458Y528480D01*
X654569Y528629D01*
X654643Y528703D01*
X654680Y528740D01*
X654921Y528962D01*
X655199Y529165D01*
X655458Y529332D01*
X655699Y529480D01*
X655921Y529591D01*
X656088Y529684D01*
X656217Y529721D01*
X656236Y529739D01*
X656254D01*
X656625Y529851D01*
X656995Y529943D01*
X657384Y529999D01*
X657736Y530054D01*
X658050Y530073D01*
X658180D01*
X658291Y530091D01*
X660865D01*
X660995Y530073D01*
D02*
G37*
G36*
X780575Y530073D02*
X780686Y530017D01*
X780760Y529962D01*
X780797Y529943D01*
X780890Y529813D01*
X780945Y529665D01*
X780964Y529554D01*
Y529517D01*
Y529499D01*
Y519926D01*
X780945Y519852D01*
Y519833D01*
Y519815D01*
X780871Y519777D01*
X780853Y519759D01*
X780834D01*
X780686Y519740D01*
X780630Y519722D01*
X780612D01*
X780501Y519703D01*
X780390Y519685D01*
X780149D01*
X780056Y519703D01*
X779982Y519722D01*
X779964D01*
X779871Y519740D01*
X779816D01*
X779779Y519759D01*
X779760D01*
X779705Y519777D01*
X779668Y519796D01*
X779630Y519815D01*
X779593Y519889D01*
Y519926D01*
Y523666D01*
X778427D01*
X778075Y523685D01*
X777760Y523703D01*
X777483Y523740D01*
X777242Y523777D01*
X777038Y523814D01*
X776908Y523851D01*
X776816Y523888D01*
X776779D01*
X776520Y523981D01*
X776298Y524092D01*
X776094Y524203D01*
X775927Y524314D01*
X775779Y524425D01*
X775686Y524499D01*
X775612Y524555D01*
X775594Y524573D01*
X775427Y524740D01*
X775279Y524925D01*
X775149Y525110D01*
X775038Y525277D01*
X774964Y525425D01*
X774909Y525536D01*
X774872Y525629D01*
X774853Y525647D01*
X774761Y525888D01*
X774705Y526129D01*
X774650Y526370D01*
X774631Y526592D01*
X774612Y526777D01*
X774594Y526925D01*
Y527018D01*
Y527055D01*
X774612Y527462D01*
X774650Y527647D01*
X774668Y527795D01*
X774705Y527925D01*
X774742Y528017D01*
X774761Y528092D01*
Y528110D01*
X774909Y528443D01*
X774983Y528591D01*
X775057Y528721D01*
X775131Y528814D01*
X775186Y528906D01*
X775223Y528943D01*
X775242Y528962D01*
X775483Y529221D01*
X775723Y529425D01*
X775835Y529499D01*
X775909Y529554D01*
X775964Y529573D01*
X775983Y529591D01*
X776298Y529758D01*
X776446Y529813D01*
X776575Y529851D01*
X776668Y529888D01*
X776760Y529906D01*
X776816Y529925D01*
X776834D01*
X777131Y529980D01*
X777260Y529999D01*
X777371Y530017D01*
X777446Y530036D01*
X777520Y530054D01*
X777575D01*
X777797Y530073D01*
X778001Y530091D01*
X780427D01*
X780575Y530073D01*
D02*
G37*
G36*
X679048Y527480D02*
X679270Y527443D01*
X679474Y527388D01*
X679659Y527332D01*
X679826Y527277D01*
X679937Y527221D01*
X680011Y527184D01*
X680048Y527166D01*
X680270Y527036D01*
X680493Y526888D01*
X680696Y526721D01*
X680863Y526555D01*
X681030Y526407D01*
X681141Y526295D01*
X681215Y526221D01*
X681252Y526184D01*
Y527129D01*
X681270Y527221D01*
X681289Y527240D01*
X681307Y527277D01*
X681344Y527295D01*
X681363Y527314D01*
X681381D01*
X681437Y527332D01*
X681492Y527351D01*
X681548Y527369D01*
X681566D01*
X681659Y527388D01*
X682066D01*
X682122Y527369D01*
X682141D01*
X682215Y527351D01*
X682270Y527332D01*
X682307Y527314D01*
X682326D01*
X682363Y527295D01*
X682400Y527258D01*
X682418Y527240D01*
X682437Y527166D01*
Y527147D01*
Y527129D01*
Y519926D01*
X682418Y519852D01*
Y519815D01*
X682344Y519759D01*
X682326Y519740D01*
X682307D01*
X682178Y519722D01*
X682141Y519703D01*
X682122D01*
X682011Y519685D01*
X681659D01*
X681548Y519703D01*
X681474D01*
X681381Y519722D01*
X681326D01*
X681289Y519740D01*
X681270D01*
X681178Y519796D01*
X681159Y519815D01*
X681122Y519889D01*
Y519907D01*
Y519926D01*
Y524962D01*
X680919Y525203D01*
X680733Y525407D01*
X680567Y525573D01*
X680400Y525721D01*
X680270Y525832D01*
X680178Y525925D01*
X680104Y525962D01*
X680085Y525981D01*
X679900Y526110D01*
X679715Y526203D01*
X679548Y526258D01*
X679400Y526314D01*
X679270Y526332D01*
X679178Y526351D01*
X679085D01*
X678826Y526332D01*
X678604Y526277D01*
X678530Y526258D01*
X678474Y526221D01*
X678437Y526203D01*
X678419D01*
X678215Y526073D01*
X678067Y525944D01*
X677974Y525832D01*
X677937Y525795D01*
Y525777D01*
X677808Y525573D01*
X677734Y525351D01*
X677697Y525258D01*
X677678Y525203D01*
X677660Y525147D01*
Y525129D01*
X677623Y524981D01*
X677586Y524814D01*
X677567Y524499D01*
X677548Y524370D01*
Y524258D01*
Y524166D01*
Y524147D01*
Y519926D01*
X677530Y519852D01*
Y519815D01*
X677456Y519759D01*
X677437Y519740D01*
X677419D01*
X677289Y519722D01*
X677252Y519703D01*
X677234D01*
X677122Y519685D01*
X676771D01*
X676660Y519703D01*
X676586D01*
X676493Y519722D01*
X676437D01*
X676400Y519740D01*
X676382D01*
X676289Y519796D01*
X676271Y519815D01*
X676234Y519889D01*
Y519907D01*
Y519926D01*
Y524314D01*
Y524592D01*
X676252Y524851D01*
X676271Y525073D01*
X676308Y525258D01*
X676326Y525425D01*
X676363Y525536D01*
X676382Y525610D01*
Y525629D01*
X676437Y525832D01*
X676512Y526018D01*
X676586Y526184D01*
X676660Y526314D01*
X676715Y526425D01*
X676771Y526518D01*
X676808Y526573D01*
X676826Y526592D01*
X676937Y526740D01*
X677067Y526869D01*
X677215Y526981D01*
X677326Y527073D01*
X677456Y527147D01*
X677530Y527203D01*
X677604Y527221D01*
X677623Y527240D01*
X677808Y527332D01*
X678011Y527388D01*
X678215Y527443D01*
X678400Y527462D01*
X678567Y527480D01*
X678697Y527499D01*
X678826D01*
X679048Y527480D01*
D02*
G37*
G36*
X647737Y530128D02*
X647774D01*
X647885Y530110D01*
X647977Y530091D01*
X648052Y530073D01*
X648070D01*
X648144Y530054D01*
X648218Y530036D01*
X648255Y530017D01*
X648274Y529999D01*
X648348Y529925D01*
X648385Y529906D01*
Y529888D01*
X652088Y523592D01*
X652125Y523518D01*
X652162Y523444D01*
X652181Y523407D01*
Y523388D01*
X652236Y523259D01*
X652255Y523203D01*
Y523185D01*
X652273Y523036D01*
Y522981D01*
Y522962D01*
Y522870D01*
Y522796D01*
Y522722D01*
Y522703D01*
Y522574D01*
X652255Y522481D01*
Y522407D01*
Y522388D01*
X652236Y522314D01*
X652218Y522259D01*
X652199Y522222D01*
Y522203D01*
X652125Y522148D01*
X652088Y522129D01*
X651977Y522111D01*
X647663D01*
Y519926D01*
X647644Y519852D01*
Y519815D01*
X647570Y519759D01*
X647551Y519740D01*
X647533D01*
X647477Y519722D01*
X647403D01*
X647348Y519703D01*
X647329D01*
X647218Y519685D01*
X646866D01*
X646755Y519703D01*
X646663D01*
X646570Y519722D01*
X646515D01*
X646478Y519740D01*
X646459D01*
X646404Y519777D01*
X646367Y519796D01*
X646329Y519815D01*
X646292Y519889D01*
Y519907D01*
Y519926D01*
Y522111D01*
X645126D01*
X645033Y522129D01*
X644978Y522185D01*
X644941Y522240D01*
X644922Y522259D01*
X644867Y522388D01*
X644848Y522518D01*
X644830Y522629D01*
Y522648D01*
Y522666D01*
X644848Y522851D01*
X644867Y522981D01*
X644904Y523074D01*
X644922Y523092D01*
X644978Y523185D01*
X645052Y523222D01*
X645107Y523240D01*
X646292D01*
Y529851D01*
X646311Y529906D01*
X646329Y529943D01*
X646348Y529980D01*
X646367D01*
X646422Y530017D01*
X646496Y530036D01*
X646552Y530054D01*
X646570D01*
X646663Y530073D01*
X646774Y530091D01*
X646848Y530110D01*
X646885D01*
X647033Y530128D01*
X647181Y530147D01*
X647644D01*
X647737Y530128D01*
D02*
G37*
G36*
X784686Y530128D02*
X784704D01*
X784797Y530110D01*
X784871Y530091D01*
X784908Y530073D01*
X784926D01*
X785000Y530017D01*
X785037Y529999D01*
Y529980D01*
X785056Y529925D01*
Y529906D01*
Y529888D01*
Y522481D01*
Y522296D01*
X785074Y522129D01*
Y521981D01*
X785093Y521870D01*
X785111Y521759D01*
Y521685D01*
X785130Y521648D01*
Y521629D01*
X785185Y521426D01*
X785241Y521259D01*
X785296Y521166D01*
X785315Y521129D01*
X785426Y521018D01*
X785537Y520926D01*
X785611Y520888D01*
X785630Y520870D01*
X785648D01*
X785797Y520833D01*
X785945Y520815D01*
X786111D01*
X786278Y520833D01*
X786407Y520852D01*
X786500Y520870D01*
X786537D01*
X786667Y520907D01*
X786778Y520963D01*
X786852Y520981D01*
X786870Y521000D01*
X786963Y521055D01*
X787037Y521092D01*
X787093Y521129D01*
X787111D01*
X787167Y521166D01*
X787222Y521203D01*
X787278D01*
X787352Y521185D01*
X787370Y521166D01*
X787389D01*
X787444Y521092D01*
X787463Y521074D01*
Y521055D01*
X787482Y521000D01*
Y520944D01*
X787500Y520907D01*
Y520888D01*
Y520796D01*
Y520703D01*
Y520629D01*
Y520592D01*
Y520481D01*
Y520407D01*
Y520352D01*
Y520333D01*
X787482Y520222D01*
Y520185D01*
Y520166D01*
X787444Y520092D01*
X787426Y520074D01*
Y520055D01*
X787370Y520000D01*
X787352Y519981D01*
Y519963D01*
X787315Y519926D01*
X787259Y519889D01*
X787204Y519870D01*
X787185Y519852D01*
X787074Y519796D01*
X786963Y519759D01*
X786889Y519740D01*
X786852Y519722D01*
X786704Y519685D01*
X786574Y519648D01*
X786482Y519629D01*
X786445D01*
X786278Y519611D01*
X786130Y519592D01*
X785759D01*
X785556Y519629D01*
X785371Y519648D01*
X785204Y519685D01*
X785074Y519722D01*
X784982Y519740D01*
X784926Y519777D01*
X784908D01*
X784741Y519852D01*
X784611Y519944D01*
X784482Y520037D01*
X784389Y520129D01*
X784315Y520203D01*
X784260Y520277D01*
X784223Y520314D01*
X784204Y520333D01*
X784019Y520629D01*
X783908Y520907D01*
X783871Y521018D01*
X783834Y521129D01*
X783815Y521185D01*
Y521203D01*
X783741Y521592D01*
X783723Y521796D01*
X783704Y521963D01*
X783686Y522111D01*
Y522222D01*
Y522314D01*
Y522333D01*
Y529888D01*
X783704Y529962D01*
X783723Y529980D01*
X783760Y530017D01*
X783797Y530054D01*
X783834Y530073D01*
X783852D01*
X783908Y530091D01*
X783982Y530110D01*
X784037Y530128D01*
X784056D01*
X784167Y530147D01*
X784611D01*
X784686Y530128D01*
D02*
G37*
G36*
X668568Y530832D02*
X668642Y530813D01*
X668661D01*
X668753Y530795D01*
X668809Y530776D01*
X668846Y530758D01*
X668864D01*
X668938Y530721D01*
X668975Y530702D01*
Y530684D01*
X668994Y530628D01*
Y530610D01*
Y530591D01*
Y526407D01*
X669179Y526592D01*
X669383Y526758D01*
X669549Y526906D01*
X669716Y527018D01*
X669846Y527110D01*
X669957Y527166D01*
X670031Y527203D01*
X670049Y527221D01*
X670253Y527314D01*
X670438Y527388D01*
X670642Y527425D01*
X670808Y527462D01*
X670975Y527480D01*
X671086Y527499D01*
X671197D01*
X671475Y527480D01*
X671734Y527462D01*
X671956Y527406D01*
X672160Y527351D01*
X672327Y527295D01*
X672438Y527258D01*
X672530Y527221D01*
X672549Y527203D01*
X672753Y527092D01*
X672938Y526962D01*
X673104Y526832D01*
X673253Y526684D01*
X673364Y526573D01*
X673438Y526480D01*
X673493Y526407D01*
X673512Y526388D01*
X673641Y526184D01*
X673771Y525962D01*
X673864Y525758D01*
X673956Y525555D01*
X674012Y525369D01*
X674067Y525240D01*
X674086Y525147D01*
X674104Y525110D01*
X674215Y524536D01*
X674252Y524258D01*
X674271Y523999D01*
Y523777D01*
X674289Y523592D01*
Y523481D01*
Y523462D01*
Y523444D01*
Y523148D01*
X674271Y522888D01*
X674234Y522629D01*
X674215Y522407D01*
X674178Y522222D01*
X674160Y522074D01*
X674141Y521981D01*
Y521944D01*
X674067Y521685D01*
X673993Y521463D01*
X673901Y521240D01*
X673827Y521074D01*
X673753Y520926D01*
X673697Y520815D01*
X673660Y520740D01*
X673641Y520722D01*
X673493Y520537D01*
X673345Y520370D01*
X673197Y520222D01*
X673049Y520111D01*
X672919Y520018D01*
X672827Y519944D01*
X672753Y519907D01*
X672734Y519889D01*
X672512Y519796D01*
X672271Y519722D01*
X672049Y519666D01*
X671827Y519629D01*
X671642Y519611D01*
X671494Y519592D01*
X671364D01*
X671105Y519611D01*
X670845Y519648D01*
X670623Y519703D01*
X670419Y519759D01*
X670253Y519815D01*
X670142Y519870D01*
X670049Y519907D01*
X670031Y519926D01*
X669809Y520074D01*
X669586Y520222D01*
X669383Y520389D01*
X669216Y520537D01*
X669068Y520685D01*
X668938Y520796D01*
X668864Y520870D01*
X668846Y520888D01*
Y519926D01*
X668827Y519852D01*
Y519833D01*
Y519815D01*
X668753Y519759D01*
X668735Y519740D01*
X668716D01*
X668586Y519722D01*
X668549Y519703D01*
X668531D01*
X668438Y519685D01*
X668142D01*
X668049Y519703D01*
X667975D01*
X667901Y519722D01*
X667846D01*
X667827Y519740D01*
X667809D01*
X667716Y519777D01*
X667698Y519796D01*
X667661Y519889D01*
Y519907D01*
Y519926D01*
Y530591D01*
X667679Y530665D01*
X667698Y530684D01*
X667772Y530739D01*
X667790Y530758D01*
X667809D01*
X667864Y530776D01*
X667938Y530795D01*
X667994Y530813D01*
X668012D01*
X668123Y530832D01*
X668235Y530850D01*
X668475D01*
X668568Y530832D01*
D02*
G37*
G36*
X725729Y531480D02*
X725747D01*
X725821Y531461D01*
X725895Y531443D01*
X725932Y531424D01*
X725951D01*
X726043Y531369D01*
X726062Y531350D01*
X726080Y531332D01*
X726099Y531276D01*
X726136Y531221D01*
X726154Y531184D01*
Y531165D01*
X730987Y517926D01*
X731024Y517852D01*
Y517796D01*
Y517759D01*
Y517741D01*
X730987Y517667D01*
X730950Y517630D01*
X730895Y517593D01*
X730821Y517556D01*
X730765Y517537D01*
X730747D01*
X730636Y517519D01*
X730506Y517500D01*
X730284D01*
X730191Y517519D01*
X730117D01*
X730043Y517537D01*
X729987Y517556D01*
X729950Y517574D01*
X729932D01*
X729876Y517611D01*
X729839Y517630D01*
X729802Y517667D01*
X729765Y517722D01*
X729728Y517778D01*
X729710Y517815D01*
Y517833D01*
X724858Y531073D01*
X724840Y531147D01*
Y531202D01*
Y531239D01*
Y531258D01*
X724858Y531313D01*
X724895Y531350D01*
X724914Y531369D01*
X724932D01*
X724988Y531406D01*
X725062Y531443D01*
X725118Y531461D01*
X725136D01*
X725247Y531480D01*
X725340Y531499D01*
X725673D01*
X725729Y531480D01*
D02*
G37*
G36*
X770298Y502721D02*
X770465Y502702D01*
X770594Y502684D01*
X770724Y502665D01*
X770816Y502647D01*
X770872Y502628D01*
X770891D01*
X771205Y502554D01*
X771335Y502517D01*
X771446Y502480D01*
X771539Y502443D01*
X771613Y502406D01*
X771650Y502388D01*
X771668D01*
X771890Y502295D01*
X772076Y502202D01*
X772150Y502165D01*
X772205Y502128D01*
X772224Y502110D01*
X772242D01*
X772391Y502017D01*
X772483Y501943D01*
X772539Y501906D01*
X772557Y501888D01*
X772631Y501795D01*
X772668Y501777D01*
Y501758D01*
X772705Y501665D01*
X772724Y501647D01*
Y501628D01*
X772742Y501536D01*
Y501499D01*
Y501480D01*
Y501332D01*
Y501277D01*
Y501258D01*
Y501147D01*
Y501054D01*
Y500999D01*
Y500980D01*
X772724Y500906D01*
Y500851D01*
X772705Y500832D01*
Y500814D01*
X772650Y500758D01*
X772631Y500740D01*
X772557Y500721D01*
X772520D01*
X772446Y500740D01*
X772353Y500795D01*
X772298Y500832D01*
X772261Y500851D01*
X772094Y500962D01*
X771927Y501054D01*
X771872Y501091D01*
X771816Y501129D01*
X771779Y501147D01*
X771761D01*
X771520Y501258D01*
X771298Y501369D01*
X771205Y501406D01*
X771131Y501443D01*
X771076Y501462D01*
X771057D01*
X770761Y501554D01*
X770502Y501591D01*
X770391Y501610D01*
X770224D01*
X769928Y501591D01*
X769798Y501573D01*
X769687Y501554D01*
X769613Y501517D01*
X769539Y501499D01*
X769502Y501480D01*
X769483D01*
X769261Y501369D01*
X769094Y501258D01*
X768983Y501166D01*
X768946Y501147D01*
Y501129D01*
X768817Y500962D01*
X768706Y500795D01*
X768669Y500740D01*
X768650Y500684D01*
X768632Y500647D01*
Y500629D01*
X768558Y500406D01*
X768539Y500221D01*
X768521Y500129D01*
Y500073D01*
Y500036D01*
Y500018D01*
X768539Y499703D01*
X768576Y499573D01*
X768595Y499462D01*
X768632Y499351D01*
X768669Y499277D01*
X768687Y499240D01*
Y499221D01*
X768817Y498981D01*
X768965Y498777D01*
X769020Y498703D01*
X769076Y498666D01*
X769113Y498629D01*
X769131Y498610D01*
X769372Y498444D01*
X769594Y498314D01*
X769706Y498277D01*
X769780Y498240D01*
X769835Y498221D01*
X769854D01*
X770169Y498147D01*
X770317Y498129D01*
X770465Y498110D01*
X770594Y498092D01*
X771668D01*
X771761Y498073D01*
X771779Y498055D01*
X771798D01*
X771872Y497999D01*
X771890Y497981D01*
X771909Y497962D01*
X771927Y497907D01*
X771946Y497851D01*
X771965Y497814D01*
Y497795D01*
X771983Y497721D01*
Y497647D01*
Y497573D01*
Y497555D01*
Y497444D01*
X771965Y497351D01*
Y497296D01*
Y497277D01*
X771927Y497203D01*
X771909Y497147D01*
X771890Y497129D01*
Y497110D01*
X771816Y497036D01*
X771779Y497018D01*
X771687Y496999D01*
X770409D01*
X770206Y496981D01*
X770002Y496962D01*
X769835Y496925D01*
X769706Y496907D01*
X769613Y496870D01*
X769539Y496851D01*
X769520D01*
X769335Y496796D01*
X769187Y496740D01*
X769039Y496666D01*
X768909Y496610D01*
X768817Y496555D01*
X768743Y496499D01*
X768706Y496481D01*
X768687Y496462D01*
X768446Y496259D01*
X768280Y496055D01*
X768224Y495981D01*
X768187Y495907D01*
X768150Y495870D01*
Y495851D01*
X768039Y495574D01*
X767983Y495314D01*
X767965Y495222D01*
Y495129D01*
Y495074D01*
Y495055D01*
X767983Y494777D01*
X768039Y494537D01*
X768058Y494444D01*
X768095Y494370D01*
X768113Y494333D01*
Y494314D01*
X768243Y494074D01*
X768372Y493889D01*
X768446Y493814D01*
X768484Y493777D01*
X768521Y493740D01*
X768539Y493722D01*
X768761Y493555D01*
X768983Y493444D01*
X769076Y493407D01*
X769150Y493370D01*
X769206Y493352D01*
X769224D01*
X769539Y493277D01*
X769706Y493259D01*
X769854Y493240D01*
X769983Y493222D01*
X770169D01*
X770557Y493240D01*
X770742Y493259D01*
X770891Y493277D01*
X771002Y493296D01*
X771113Y493315D01*
X771168Y493333D01*
X771187D01*
X771502Y493426D01*
X771631Y493481D01*
X771742Y493518D01*
X771853Y493555D01*
X771927Y493592D01*
X771965Y493611D01*
X771983D01*
X772205Y493722D01*
X772391Y493814D01*
X772502Y493889D01*
X772520Y493907D01*
X772539D01*
X772687Y493981D01*
X772761Y494018D01*
X772816Y494037D01*
X772835D01*
X772890Y494018D01*
X772946Y493981D01*
X772964Y493926D01*
X772983Y493907D01*
X773020Y493796D01*
X773038Y493666D01*
Y493555D01*
Y493537D01*
Y493518D01*
Y493407D01*
Y493315D01*
Y493240D01*
Y493222D01*
X773020Y493148D01*
Y493092D01*
X773001Y493055D01*
Y493037D01*
X772964Y492944D01*
X772946Y492926D01*
Y492907D01*
X772890Y492833D01*
X772853Y492814D01*
Y492796D01*
X772779Y492741D01*
X772687Y492685D01*
X772613Y492629D01*
X772576Y492611D01*
X772372Y492518D01*
X772187Y492444D01*
X772113Y492407D01*
X772039Y492389D01*
X772002Y492370D01*
X771983D01*
X771705Y492296D01*
X771446Y492240D01*
X771354Y492222D01*
X771261Y492203D01*
X771205Y492185D01*
X771187D01*
X770835Y492129D01*
X770668Y492111D01*
X770520D01*
X770391Y492092D01*
X770206D01*
X769891Y492111D01*
X769613Y492129D01*
X769335Y492166D01*
X769113Y492203D01*
X768928Y492240D01*
X768780Y492259D01*
X768706Y492296D01*
X768669D01*
X768428Y492389D01*
X768206Y492481D01*
X768002Y492592D01*
X767835Y492703D01*
X767706Y492777D01*
X767595Y492852D01*
X767539Y492907D01*
X767521Y492926D01*
X767354Y493092D01*
X767206Y493259D01*
X767095Y493407D01*
X767002Y493574D01*
X766909Y493703D01*
X766854Y493814D01*
X766835Y493889D01*
X766817Y493907D01*
X766724Y494129D01*
X766669Y494351D01*
X766613Y494574D01*
X766595Y494777D01*
X766576Y494944D01*
X766558Y495074D01*
Y495166D01*
Y495203D01*
X766595Y495555D01*
X766613Y495703D01*
X766650Y495833D01*
X766687Y495944D01*
X766706Y496036D01*
X766743Y496092D01*
Y496110D01*
X766891Y496407D01*
X766984Y496536D01*
X767058Y496647D01*
X767132Y496721D01*
X767187Y496796D01*
X767224Y496833D01*
X767243Y496851D01*
X767502Y497073D01*
X767743Y497240D01*
X767835Y497314D01*
X767928Y497351D01*
X767983Y497388D01*
X768002D01*
X768335Y497518D01*
X768502Y497573D01*
X768650Y497610D01*
X768798Y497629D01*
X768891Y497647D01*
X768965Y497666D01*
X768983D01*
X768669Y497758D01*
X768521Y497814D01*
X768409Y497851D01*
X768298Y497907D01*
X768224Y497944D01*
X768187Y497981D01*
X768169D01*
X767909Y498166D01*
X767724Y498351D01*
X767650Y498425D01*
X767595Y498481D01*
X767576Y498518D01*
X767558Y498536D01*
X767391Y498795D01*
X767261Y499036D01*
X767224Y499129D01*
X767187Y499203D01*
X767169Y499258D01*
Y499277D01*
X767095Y499592D01*
X767076Y499758D01*
X767058Y499888D01*
X767039Y500018D01*
Y500110D01*
Y500166D01*
Y500184D01*
Y500388D01*
X767076Y500592D01*
X767095Y500758D01*
X767132Y500925D01*
X767169Y501036D01*
X767187Y501147D01*
X767224Y501203D01*
Y501221D01*
X767391Y501536D01*
X767484Y501684D01*
X767576Y501795D01*
X767650Y501888D01*
X767724Y501962D01*
X767761Y501999D01*
X767780Y502017D01*
X767928Y502147D01*
X768076Y502258D01*
X768372Y502425D01*
X768484Y502480D01*
X768595Y502517D01*
X768669Y502554D01*
X768687D01*
X769113Y502665D01*
X769317Y502702D01*
X769502Y502721D01*
X769669Y502739D01*
X769928D01*
X770298Y502721D01*
D02*
G37*
G36*
X740079D02*
X740246Y502702D01*
X740375Y502684D01*
X740505Y502665D01*
X740598Y502647D01*
X740653Y502628D01*
X740671D01*
X740986Y502554D01*
X741116Y502517D01*
X741227Y502480D01*
X741320Y502443D01*
X741394Y502406D01*
X741431Y502388D01*
X741449D01*
X741671Y502295D01*
X741857Y502202D01*
X741931Y502165D01*
X741986Y502128D01*
X742005Y502110D01*
X742023D01*
X742171Y502017D01*
X742264Y501943D01*
X742319Y501906D01*
X742338Y501888D01*
X742412Y501795D01*
X742449Y501777D01*
Y501758D01*
X742486Y501665D01*
X742505Y501647D01*
Y501628D01*
X742523Y501536D01*
Y501499D01*
Y501480D01*
Y501332D01*
Y501277D01*
Y501258D01*
Y501147D01*
Y501054D01*
Y500999D01*
Y500980D01*
X742505Y500906D01*
Y500851D01*
X742486Y500832D01*
Y500814D01*
X742431Y500758D01*
X742412Y500740D01*
X742338Y500721D01*
X742301D01*
X742227Y500740D01*
X742134Y500795D01*
X742079Y500832D01*
X742042Y500851D01*
X741875Y500962D01*
X741708Y501054D01*
X741653Y501091D01*
X741597Y501129D01*
X741560Y501147D01*
X741542D01*
X741301Y501258D01*
X741079Y501369D01*
X740986Y501406D01*
X740912Y501443D01*
X740857Y501462D01*
X740838D01*
X740542Y501554D01*
X740283Y501591D01*
X740172Y501610D01*
X740005D01*
X739709Y501591D01*
X739579Y501573D01*
X739468Y501554D01*
X739394Y501517D01*
X739320Y501499D01*
X739283Y501480D01*
X739264D01*
X739042Y501369D01*
X738875Y501258D01*
X738764Y501166D01*
X738727Y501147D01*
Y501129D01*
X738598Y500962D01*
X738487Y500795D01*
X738449Y500740D01*
X738431Y500684D01*
X738412Y500647D01*
Y500629D01*
X738338Y500406D01*
X738320Y500221D01*
X738301Y500129D01*
Y500073D01*
Y500036D01*
Y500018D01*
X738320Y499703D01*
X738357Y499573D01*
X738375Y499462D01*
X738412Y499351D01*
X738449Y499277D01*
X738468Y499240D01*
Y499221D01*
X738598Y498981D01*
X738746Y498777D01*
X738801Y498703D01*
X738857Y498666D01*
X738894Y498629D01*
X738912Y498610D01*
X739153Y498444D01*
X739375Y498314D01*
X739486Y498277D01*
X739560Y498240D01*
X739616Y498221D01*
X739635D01*
X739949Y498147D01*
X740098Y498129D01*
X740246Y498110D01*
X740375Y498092D01*
X741449D01*
X741542Y498073D01*
X741560Y498055D01*
X741579D01*
X741653Y497999D01*
X741671Y497981D01*
X741690Y497962D01*
X741708Y497907D01*
X741727Y497851D01*
X741746Y497814D01*
Y497795D01*
X741764Y497721D01*
Y497647D01*
Y497573D01*
Y497555D01*
Y497444D01*
X741746Y497351D01*
Y497296D01*
Y497277D01*
X741708Y497203D01*
X741690Y497147D01*
X741671Y497129D01*
Y497110D01*
X741597Y497036D01*
X741560Y497018D01*
X741468Y496999D01*
X740190D01*
X739986Y496981D01*
X739783Y496962D01*
X739616Y496925D01*
X739486Y496907D01*
X739394Y496870D01*
X739320Y496851D01*
X739301D01*
X739116Y496796D01*
X738968Y496740D01*
X738820Y496666D01*
X738690Y496610D01*
X738598Y496555D01*
X738524Y496499D01*
X738487Y496481D01*
X738468Y496462D01*
X738227Y496259D01*
X738061Y496055D01*
X738005Y495981D01*
X737968Y495907D01*
X737931Y495870D01*
Y495851D01*
X737820Y495574D01*
X737764Y495314D01*
X737746Y495222D01*
Y495129D01*
Y495074D01*
Y495055D01*
X737764Y494777D01*
X737820Y494537D01*
X737839Y494444D01*
X737876Y494370D01*
X737894Y494333D01*
Y494314D01*
X738024Y494074D01*
X738153Y493889D01*
X738227Y493814D01*
X738264Y493777D01*
X738301Y493740D01*
X738320Y493722D01*
X738542Y493555D01*
X738764Y493444D01*
X738857Y493407D01*
X738931Y493370D01*
X738987Y493352D01*
X739005D01*
X739320Y493277D01*
X739486Y493259D01*
X739635Y493240D01*
X739764Y493222D01*
X739949D01*
X740338Y493240D01*
X740523Y493259D01*
X740671Y493277D01*
X740783Y493296D01*
X740894Y493315D01*
X740949Y493333D01*
X740968D01*
X741283Y493426D01*
X741412Y493481D01*
X741523Y493518D01*
X741634Y493555D01*
X741708Y493592D01*
X741746Y493611D01*
X741764D01*
X741986Y493722D01*
X742171Y493814D01*
X742282Y493889D01*
X742301Y493907D01*
X742319D01*
X742468Y493981D01*
X742542Y494018D01*
X742597Y494037D01*
X742616D01*
X742671Y494018D01*
X742727Y493981D01*
X742745Y493926D01*
X742764Y493907D01*
X742801Y493796D01*
X742819Y493666D01*
Y493555D01*
Y493537D01*
Y493518D01*
Y493407D01*
Y493315D01*
Y493240D01*
Y493222D01*
X742801Y493148D01*
Y493092D01*
X742782Y493055D01*
Y493037D01*
X742745Y492944D01*
X742727Y492926D01*
Y492907D01*
X742671Y492833D01*
X742634Y492814D01*
Y492796D01*
X742560Y492741D01*
X742468Y492685D01*
X742394Y492629D01*
X742356Y492611D01*
X742153Y492518D01*
X741968Y492444D01*
X741894Y492407D01*
X741820Y492389D01*
X741783Y492370D01*
X741764D01*
X741486Y492296D01*
X741227Y492240D01*
X741134Y492222D01*
X741042Y492203D01*
X740986Y492185D01*
X740968D01*
X740616Y492129D01*
X740449Y492111D01*
X740301D01*
X740172Y492092D01*
X739986D01*
X739672Y492111D01*
X739394Y492129D01*
X739116Y492166D01*
X738894Y492203D01*
X738709Y492240D01*
X738561Y492259D01*
X738487Y492296D01*
X738449D01*
X738209Y492389D01*
X737987Y492481D01*
X737783Y492592D01*
X737616Y492703D01*
X737487Y492777D01*
X737376Y492852D01*
X737320Y492907D01*
X737301Y492926D01*
X737135Y493092D01*
X736987Y493259D01*
X736876Y493407D01*
X736783Y493574D01*
X736690Y493703D01*
X736635Y493814D01*
X736616Y493889D01*
X736598Y493907D01*
X736505Y494129D01*
X736450Y494351D01*
X736394Y494574D01*
X736376Y494777D01*
X736357Y494944D01*
X736339Y495074D01*
Y495166D01*
Y495203D01*
X736376Y495555D01*
X736394Y495703D01*
X736431Y495833D01*
X736468Y495944D01*
X736487Y496036D01*
X736524Y496092D01*
Y496110D01*
X736672Y496407D01*
X736765Y496536D01*
X736839Y496647D01*
X736913Y496721D01*
X736968Y496796D01*
X737005Y496833D01*
X737024Y496851D01*
X737283Y497073D01*
X737524Y497240D01*
X737616Y497314D01*
X737709Y497351D01*
X737764Y497388D01*
X737783D01*
X738116Y497518D01*
X738283Y497573D01*
X738431Y497610D01*
X738579Y497629D01*
X738672Y497647D01*
X738746Y497666D01*
X738764D01*
X738449Y497758D01*
X738301Y497814D01*
X738190Y497851D01*
X738079Y497907D01*
X738005Y497944D01*
X737968Y497981D01*
X737950D01*
X737690Y498166D01*
X737505Y498351D01*
X737431Y498425D01*
X737376Y498481D01*
X737357Y498518D01*
X737338Y498536D01*
X737172Y498795D01*
X737042Y499036D01*
X737005Y499129D01*
X736968Y499203D01*
X736950Y499258D01*
Y499277D01*
X736876Y499592D01*
X736857Y499758D01*
X736839Y499888D01*
X736820Y500018D01*
Y500110D01*
Y500166D01*
Y500184D01*
Y500388D01*
X736857Y500592D01*
X736876Y500758D01*
X736913Y500925D01*
X736950Y501036D01*
X736968Y501147D01*
X737005Y501203D01*
Y501221D01*
X737172Y501536D01*
X737264Y501684D01*
X737357Y501795D01*
X737431Y501888D01*
X737505Y501962D01*
X737542Y501999D01*
X737561Y502017D01*
X737709Y502147D01*
X737857Y502258D01*
X738153Y502425D01*
X738264Y502480D01*
X738375Y502517D01*
X738449Y502554D01*
X738468D01*
X738894Y502665D01*
X739098Y502702D01*
X739283Y502721D01*
X739449Y502739D01*
X739709D01*
X740079Y502721D01*
D02*
G37*
G36*
X701139Y502721D02*
X701305Y502702D01*
X701435Y502684D01*
X701564Y502665D01*
X701657Y502647D01*
X701713Y502628D01*
X701731D01*
X702046Y502554D01*
X702176Y502517D01*
X702287Y502480D01*
X702379Y502443D01*
X702453Y502406D01*
X702490Y502388D01*
X702509D01*
X702731Y502295D01*
X702916Y502202D01*
X702990Y502165D01*
X703046Y502128D01*
X703064Y502110D01*
X703083D01*
X703231Y502017D01*
X703324Y501943D01*
X703379Y501906D01*
X703398Y501888D01*
X703472Y501795D01*
X703509Y501777D01*
Y501758D01*
X703546Y501665D01*
X703564Y501647D01*
Y501628D01*
X703583Y501536D01*
Y501499D01*
Y501480D01*
Y501332D01*
Y501277D01*
Y501258D01*
Y501147D01*
Y501054D01*
Y500999D01*
Y500980D01*
X703564Y500906D01*
Y500851D01*
X703546Y500832D01*
Y500814D01*
X703490Y500758D01*
X703472Y500740D01*
X703398Y500721D01*
X703361D01*
X703287Y500740D01*
X703194Y500795D01*
X703138Y500832D01*
X703101Y500851D01*
X702935Y500962D01*
X702768Y501054D01*
X702712Y501091D01*
X702657Y501129D01*
X702620Y501147D01*
X702601D01*
X702361Y501258D01*
X702139Y501369D01*
X702046Y501406D01*
X701972Y501443D01*
X701916Y501462D01*
X701898D01*
X701601Y501554D01*
X701342Y501591D01*
X701231Y501610D01*
X701065D01*
X700768Y501591D01*
X700639Y501573D01*
X700527Y501554D01*
X700453Y501517D01*
X700379Y501499D01*
X700342Y501480D01*
X700324D01*
X700102Y501369D01*
X699935Y501258D01*
X699824Y501166D01*
X699787Y501147D01*
Y501129D01*
X699657Y500962D01*
X699546Y500795D01*
X699509Y500740D01*
X699491Y500684D01*
X699472Y500647D01*
Y500629D01*
X699398Y500406D01*
X699380Y500221D01*
X699361Y500129D01*
Y500073D01*
Y500036D01*
Y500018D01*
X699380Y499703D01*
X699417Y499573D01*
X699435Y499462D01*
X699472Y499351D01*
X699509Y499277D01*
X699528Y499240D01*
Y499221D01*
X699657Y498980D01*
X699805Y498777D01*
X699861Y498703D01*
X699917Y498666D01*
X699954Y498629D01*
X699972Y498610D01*
X700213Y498444D01*
X700435Y498314D01*
X700546Y498277D01*
X700620Y498240D01*
X700676Y498221D01*
X700694D01*
X701009Y498147D01*
X701157Y498129D01*
X701305Y498110D01*
X701435Y498092D01*
X702509D01*
X702601Y498073D01*
X702620Y498055D01*
X702638D01*
X702712Y497999D01*
X702731Y497981D01*
X702749Y497962D01*
X702768Y497907D01*
X702787Y497851D01*
X702805Y497814D01*
Y497795D01*
X702824Y497721D01*
Y497647D01*
Y497573D01*
Y497555D01*
Y497444D01*
X702805Y497351D01*
Y497295D01*
Y497277D01*
X702768Y497203D01*
X702749Y497147D01*
X702731Y497129D01*
Y497110D01*
X702657Y497036D01*
X702620Y497018D01*
X702527Y496999D01*
X701250D01*
X701046Y496981D01*
X700842Y496962D01*
X700676Y496925D01*
X700546Y496907D01*
X700453Y496870D01*
X700379Y496851D01*
X700361D01*
X700176Y496796D01*
X700028Y496740D01*
X699879Y496666D01*
X699750Y496610D01*
X699657Y496555D01*
X699583Y496499D01*
X699546Y496481D01*
X699528Y496462D01*
X699287Y496259D01*
X699120Y496055D01*
X699065Y495981D01*
X699028Y495907D01*
X698991Y495870D01*
Y495851D01*
X698880Y495574D01*
X698824Y495314D01*
X698805Y495222D01*
Y495129D01*
Y495074D01*
Y495055D01*
X698824Y494777D01*
X698880Y494537D01*
X698898Y494444D01*
X698935Y494370D01*
X698954Y494333D01*
Y494314D01*
X699083Y494074D01*
X699213Y493889D01*
X699287Y493814D01*
X699324Y493777D01*
X699361Y493740D01*
X699380Y493722D01*
X699602Y493555D01*
X699824Y493444D01*
X699917Y493407D01*
X699990Y493370D01*
X700046Y493352D01*
X700065D01*
X700379Y493277D01*
X700546Y493259D01*
X700694Y493240D01*
X700824Y493222D01*
X701009D01*
X701398Y493240D01*
X701583Y493259D01*
X701731Y493277D01*
X701842Y493296D01*
X701953Y493315D01*
X702009Y493333D01*
X702027D01*
X702342Y493426D01*
X702472Y493481D01*
X702583Y493518D01*
X702694Y493555D01*
X702768Y493592D01*
X702805Y493611D01*
X702824D01*
X703046Y493722D01*
X703231Y493814D01*
X703342Y493889D01*
X703361Y493907D01*
X703379D01*
X703527Y493981D01*
X703601Y494018D01*
X703657Y494037D01*
X703675D01*
X703731Y494018D01*
X703786Y493981D01*
X703805Y493926D01*
X703823Y493907D01*
X703860Y493796D01*
X703879Y493666D01*
Y493555D01*
Y493537D01*
Y493518D01*
Y493407D01*
Y493315D01*
Y493240D01*
Y493222D01*
X703860Y493148D01*
Y493092D01*
X703842Y493055D01*
Y493037D01*
X703805Y492944D01*
X703786Y492926D01*
Y492907D01*
X703731Y492833D01*
X703694Y492814D01*
Y492796D01*
X703620Y492740D01*
X703527Y492685D01*
X703453Y492629D01*
X703416Y492611D01*
X703212Y492518D01*
X703027Y492444D01*
X702953Y492407D01*
X702879Y492389D01*
X702842Y492370D01*
X702824D01*
X702546Y492296D01*
X702287Y492240D01*
X702194Y492222D01*
X702101Y492203D01*
X702046Y492185D01*
X702027D01*
X701676Y492129D01*
X701509Y492111D01*
X701361D01*
X701231Y492092D01*
X701046D01*
X700731Y492111D01*
X700453Y492129D01*
X700176Y492166D01*
X699954Y492203D01*
X699768Y492240D01*
X699620Y492259D01*
X699546Y492296D01*
X699509D01*
X699268Y492389D01*
X699046Y492481D01*
X698842Y492592D01*
X698676Y492703D01*
X698546Y492777D01*
X698435Y492851D01*
X698380Y492907D01*
X698361Y492926D01*
X698194Y493092D01*
X698046Y493259D01*
X697935Y493407D01*
X697843Y493574D01*
X697750Y493703D01*
X697694Y493814D01*
X697676Y493889D01*
X697657Y493907D01*
X697565Y494129D01*
X697509Y494351D01*
X697454Y494574D01*
X697435Y494777D01*
X697417Y494944D01*
X697398Y495074D01*
Y495166D01*
Y495203D01*
X697435Y495555D01*
X697454Y495703D01*
X697491Y495833D01*
X697528Y495944D01*
X697546Y496036D01*
X697583Y496092D01*
Y496110D01*
X697731Y496407D01*
X697824Y496536D01*
X697898Y496647D01*
X697972Y496721D01*
X698028Y496796D01*
X698065Y496833D01*
X698083Y496851D01*
X698343Y497073D01*
X698583Y497240D01*
X698676Y497314D01*
X698768Y497351D01*
X698824Y497388D01*
X698842D01*
X699176Y497518D01*
X699342Y497573D01*
X699491Y497610D01*
X699639Y497629D01*
X699731Y497647D01*
X699805Y497666D01*
X699824D01*
X699509Y497758D01*
X699361Y497814D01*
X699250Y497851D01*
X699139Y497907D01*
X699065Y497944D01*
X699028Y497981D01*
X699009D01*
X698750Y498166D01*
X698565Y498351D01*
X698491Y498425D01*
X698435Y498481D01*
X698417Y498518D01*
X698398Y498536D01*
X698232Y498795D01*
X698102Y499036D01*
X698065Y499129D01*
X698028Y499203D01*
X698009Y499258D01*
Y499277D01*
X697935Y499592D01*
X697917Y499758D01*
X697898Y499888D01*
X697880Y500018D01*
Y500110D01*
Y500166D01*
Y500184D01*
Y500388D01*
X697917Y500592D01*
X697935Y500758D01*
X697972Y500925D01*
X698009Y501036D01*
X698028Y501147D01*
X698065Y501203D01*
Y501221D01*
X698232Y501536D01*
X698324Y501684D01*
X698417Y501795D01*
X698491Y501888D01*
X698565Y501962D01*
X698602Y501999D01*
X698620Y502017D01*
X698768Y502147D01*
X698917Y502258D01*
X699213Y502425D01*
X699324Y502480D01*
X699435Y502517D01*
X699509Y502554D01*
X699528D01*
X699954Y502665D01*
X700157Y502702D01*
X700342Y502721D01*
X700509Y502739D01*
X700768D01*
X701139Y502721D01*
D02*
G37*
G36*
X652773Y502573D02*
X652884Y502536D01*
X652958Y502480D01*
X652977Y502462D01*
X653033Y502351D01*
X653070Y502202D01*
X653088Y502091D01*
Y502073D01*
Y502054D01*
Y497851D01*
X653070Y497666D01*
X653033Y497536D01*
X653014Y497462D01*
X652995Y497444D01*
X652903Y497388D01*
X652810Y497351D01*
X652718Y497333D01*
X652681D01*
X652458Y497351D01*
X652236Y497370D01*
X652162D01*
X652088Y497388D01*
X652033D01*
X651755Y497425D01*
X651477Y497444D01*
X650959D01*
X650718Y497425D01*
X650514Y497407D01*
X650348Y497388D01*
X650199Y497351D01*
X650107Y497333D01*
X650033Y497314D01*
X650014D01*
X649829Y497258D01*
X649681Y497203D01*
X649533Y497129D01*
X649422Y497073D01*
X649329Y497018D01*
X649255Y496962D01*
X649218Y496944D01*
X649200Y496925D01*
X648977Y496721D01*
X648829Y496518D01*
X648774Y496425D01*
X648737Y496370D01*
X648718Y496314D01*
Y496296D01*
X648625Y495999D01*
X648570Y495722D01*
X648551Y495611D01*
Y495518D01*
Y495444D01*
Y495425D01*
Y495222D01*
X648588Y495018D01*
X648607Y494851D01*
X648644Y494703D01*
X648681Y494592D01*
X648700Y494500D01*
X648737Y494444D01*
Y494426D01*
X648903Y494148D01*
X648977Y494037D01*
X649070Y493926D01*
X649144Y493851D01*
X649200Y493796D01*
X649237Y493759D01*
X649255Y493740D01*
X649514Y493555D01*
X649755Y493426D01*
X649866Y493388D01*
X649959Y493352D01*
X650014Y493333D01*
X650033D01*
X650366Y493277D01*
X650533Y493240D01*
X650681D01*
X650829Y493222D01*
X651218D01*
X651403Y493240D01*
X651588Y493259D01*
X651736Y493277D01*
X651847D01*
X651940Y493296D01*
X651995Y493315D01*
X652014D01*
X652292Y493388D01*
X652421Y493426D01*
X652514Y493463D01*
X652607Y493500D01*
X652662Y493518D01*
X652699Y493537D01*
X652718D01*
X652903Y493629D01*
X653051Y493703D01*
X653125Y493740D01*
X653162Y493759D01*
X653273Y493833D01*
X653347Y493851D01*
X653384Y493870D01*
X653403D01*
X653477Y493851D01*
X653495Y493833D01*
X653514D01*
X653569Y493759D01*
X653588Y493740D01*
Y493722D01*
X653606Y493666D01*
Y493611D01*
X653625Y493574D01*
Y493555D01*
Y493463D01*
Y493388D01*
Y493333D01*
Y493315D01*
Y493203D01*
Y493129D01*
Y493074D01*
Y493055D01*
X653606Y492944D01*
Y492907D01*
Y492889D01*
X653569Y492796D01*
X653551Y492777D01*
Y492759D01*
X653514Y492703D01*
X653477Y492685D01*
Y492666D01*
X653403Y492629D01*
X653310Y492574D01*
X653236Y492537D01*
X653199Y492518D01*
X653014Y492444D01*
X652829Y492389D01*
X652755Y492370D01*
X652699Y492352D01*
X652662Y492333D01*
X652644D01*
X652384Y492277D01*
X652144Y492222D01*
X652033Y492203D01*
X651958Y492185D01*
X651903Y492166D01*
X651884D01*
X651551Y492129D01*
X651403Y492111D01*
X651255D01*
X651125Y492092D01*
X650959D01*
X650644Y492111D01*
X650348Y492129D01*
X650088Y492166D01*
X649866Y492203D01*
X649662Y492240D01*
X649533Y492277D01*
X649440Y492315D01*
X649403D01*
X649144Y492407D01*
X648903Y492518D01*
X648700Y492629D01*
X648514Y492740D01*
X648385Y492833D01*
X648274Y492907D01*
X648200Y492963D01*
X648181Y492981D01*
X647996Y493148D01*
X647829Y493333D01*
X647700Y493518D01*
X647589Y493703D01*
X647496Y493851D01*
X647440Y493963D01*
X647403Y494037D01*
X647385Y494074D01*
X647292Y494333D01*
X647218Y494574D01*
X647163Y494833D01*
X647126Y495055D01*
X647107Y495259D01*
X647089Y495407D01*
Y495518D01*
Y495555D01*
Y495796D01*
X647126Y496036D01*
X647163Y496240D01*
X647200Y496425D01*
X647237Y496573D01*
X647274Y496684D01*
X647292Y496758D01*
X647311Y496777D01*
X647403Y496981D01*
X647496Y497166D01*
X647607Y497314D01*
X647718Y497462D01*
X647811Y497573D01*
X647885Y497647D01*
X647940Y497703D01*
X647959Y497721D01*
X648126Y497851D01*
X648311Y497981D01*
X648477Y498073D01*
X648662Y498166D01*
X648811Y498221D01*
X648922Y498277D01*
X648996Y498314D01*
X649033D01*
X649274Y498388D01*
X649533Y498444D01*
X649792Y498481D01*
X650014Y498518D01*
X650218D01*
X650385Y498536D01*
X650996D01*
X651070Y498518D01*
X651385D01*
X651551Y498499D01*
X651625Y498481D01*
X651681D01*
X651699Y498462D01*
X651718D01*
Y501388D01*
X648033D01*
X647940Y501406D01*
X647885Y501462D01*
X647848Y501517D01*
X647829Y501536D01*
X647774Y501684D01*
X647755Y501814D01*
X647737Y501943D01*
Y501962D01*
Y501980D01*
Y502091D01*
X647755Y502184D01*
X647774Y502239D01*
Y502258D01*
X647792Y502332D01*
X647811Y502388D01*
X647829Y502425D01*
Y502443D01*
X647885Y502536D01*
X647903Y502554D01*
X647922D01*
X648015Y502591D01*
X652625D01*
X652773Y502573D01*
D02*
G37*
G36*
X689195Y499980D02*
X689343Y499962D01*
X689455D01*
X689566Y499943D01*
X689640Y499925D01*
X689695Y499906D01*
X689714D01*
X690010Y499851D01*
X690140Y499814D01*
X690251Y499795D01*
X690343Y499758D01*
X690417Y499740D01*
X690454Y499721D01*
X690473D01*
X690714Y499629D01*
X690899Y499555D01*
X690973Y499518D01*
X691029Y499481D01*
X691066Y499462D01*
X691084D01*
X691251Y499369D01*
X691362Y499295D01*
X691436Y499240D01*
X691454Y499221D01*
X691510Y499147D01*
X691547Y499073D01*
X691584Y499018D01*
Y498999D01*
X691602Y498907D01*
Y498795D01*
Y498721D01*
Y498703D01*
Y498684D01*
Y498610D01*
Y498536D01*
Y498481D01*
Y498462D01*
X691565Y498351D01*
X691547Y498314D01*
Y498295D01*
X691491Y498221D01*
X691473Y498203D01*
X691380Y498184D01*
X691343D01*
X691269Y498203D01*
X691177Y498240D01*
X691103Y498277D01*
X691066Y498295D01*
X690899Y498388D01*
X690732Y498462D01*
X690677Y498499D01*
X690621Y498518D01*
X690584Y498536D01*
X690566D01*
X690343Y498647D01*
X690121Y498721D01*
X690029Y498758D01*
X689955Y498777D01*
X689918Y498795D01*
X689899D01*
X689603Y498869D01*
X689306Y498907D01*
X689195Y498925D01*
X689010D01*
X688695Y498907D01*
X688566Y498888D01*
X688455Y498869D01*
X688381Y498851D01*
X688307Y498832D01*
X688270Y498814D01*
X688251D01*
X688047Y498721D01*
X687881Y498610D01*
X687788Y498518D01*
X687751Y498499D01*
Y498481D01*
X687622Y498314D01*
X687529Y498129D01*
X687492Y498055D01*
X687473Y497999D01*
X687455Y497962D01*
Y497944D01*
X687399Y497703D01*
X687381Y497462D01*
X687362Y497370D01*
Y497295D01*
Y497240D01*
Y497221D01*
Y496666D01*
X688658D01*
X688955Y496647D01*
X689214Y496629D01*
X689436Y496592D01*
X689621Y496573D01*
X689751Y496536D01*
X689844Y496518D01*
X689881D01*
X690121Y496462D01*
X690343Y496388D01*
X690529Y496314D01*
X690695Y496240D01*
X690825Y496185D01*
X690917Y496129D01*
X690992Y496092D01*
X691010Y496073D01*
X691177Y495962D01*
X691306Y495833D01*
X691436Y495703D01*
X691528Y495592D01*
X691621Y495481D01*
X691677Y495388D01*
X691695Y495333D01*
X691714Y495314D01*
X691788Y495148D01*
X691843Y494962D01*
X691899Y494796D01*
X691917Y494629D01*
X691936Y494481D01*
X691954Y494370D01*
Y494296D01*
Y494277D01*
X691936Y493907D01*
X691899Y493759D01*
X691862Y493629D01*
X691843Y493500D01*
X691806Y493426D01*
X691788Y493370D01*
Y493352D01*
X691640Y493074D01*
X691547Y492944D01*
X691473Y492851D01*
X691399Y492759D01*
X691343Y492703D01*
X691306Y492666D01*
X691288Y492648D01*
X691029Y492463D01*
X690769Y492333D01*
X690677Y492296D01*
X690584Y492259D01*
X690529Y492240D01*
X690510D01*
X690158Y492148D01*
X689973Y492129D01*
X689825Y492111D01*
X689677Y492092D01*
X689473D01*
X689232Y492111D01*
X689010Y492129D01*
X688807Y492166D01*
X688621Y492222D01*
X688473Y492277D01*
X688344Y492315D01*
X688270Y492333D01*
X688251Y492352D01*
X688029Y492463D01*
X687844Y492592D01*
X687658Y492722D01*
X687492Y492851D01*
X687381Y492963D01*
X687270Y493055D01*
X687214Y493111D01*
X687196Y493129D01*
Y492407D01*
X687177Y492352D01*
X687159Y492315D01*
X687140Y492277D01*
X687085Y492259D01*
X687029Y492240D01*
X686973Y492222D01*
X686955D01*
X686844Y492203D01*
X686733Y492185D01*
X686492D01*
X686381Y492203D01*
X686325Y492222D01*
X686307D01*
X686214Y492240D01*
X686159Y492259D01*
X686140Y492277D01*
X686122D01*
X686085Y492315D01*
X686048Y492352D01*
Y492389D01*
Y492407D01*
Y497277D01*
Y497518D01*
X686066Y497740D01*
X686103Y497944D01*
X686122Y498110D01*
X686159Y498258D01*
X686196Y498351D01*
X686214Y498425D01*
Y498444D01*
X686270Y498629D01*
X686344Y498795D01*
X686436Y498943D01*
X686510Y499073D01*
X686584Y499166D01*
X686640Y499240D01*
X686677Y499277D01*
X686696Y499295D01*
X686825Y499406D01*
X686973Y499518D01*
X687270Y499684D01*
X687399Y499740D01*
X687492Y499777D01*
X687566Y499814D01*
X687584D01*
X687788Y499869D01*
X688010Y499925D01*
X688232Y499962D01*
X688436Y499980D01*
X688621Y499999D01*
X688899D01*
X689195Y499980D01*
D02*
G37*
G36*
X761114Y496796D02*
X761188Y496759D01*
X761225Y496703D01*
X761244Y496684D01*
X761262Y496629D01*
X761281Y496573D01*
X761299Y496425D01*
Y496314D01*
Y496277D01*
Y496259D01*
X761281Y496073D01*
X761262Y495944D01*
X761244Y495851D01*
Y495833D01*
X761169Y495777D01*
X761095Y495740D01*
X761040Y495722D01*
X757688D01*
X757596Y495740D01*
X757522Y495777D01*
X757485Y495814D01*
X757466Y495833D01*
X757448Y495888D01*
X757429Y495944D01*
X757392Y496092D01*
Y496203D01*
Y496240D01*
Y496259D01*
Y496370D01*
X757411Y496444D01*
X757429Y496499D01*
Y496518D01*
X757448Y496592D01*
X757466Y496647D01*
X757485Y496666D01*
Y496684D01*
X757522Y496740D01*
X757540Y496759D01*
X757559Y496777D01*
X757577D01*
X757651Y496814D01*
X761021D01*
X761114Y496796D01*
D02*
G37*
G36*
X780575Y502573D02*
X780686Y502517D01*
X780760Y502462D01*
X780797Y502443D01*
X780890Y502313D01*
X780945Y502165D01*
X780964Y502054D01*
Y502017D01*
Y501999D01*
Y492426D01*
X780945Y492352D01*
Y492333D01*
Y492315D01*
X780871Y492278D01*
X780853Y492259D01*
X780834D01*
X780686Y492240D01*
X780630Y492222D01*
X780612D01*
X780501Y492203D01*
X780390Y492185D01*
X780149D01*
X780056Y492203D01*
X779982Y492222D01*
X779964D01*
X779871Y492240D01*
X779816D01*
X779779Y492259D01*
X779760D01*
X779705Y492278D01*
X779668Y492296D01*
X779630Y492315D01*
X779593Y492389D01*
Y492426D01*
Y496166D01*
X778427D01*
X778075Y496185D01*
X777760Y496203D01*
X777483Y496240D01*
X777242Y496277D01*
X777038Y496314D01*
X776908Y496351D01*
X776816Y496388D01*
X776779D01*
X776520Y496481D01*
X776298Y496592D01*
X776094Y496703D01*
X775927Y496814D01*
X775779Y496925D01*
X775686Y496999D01*
X775612Y497055D01*
X775594Y497073D01*
X775427Y497240D01*
X775279Y497425D01*
X775149Y497610D01*
X775038Y497777D01*
X774964Y497925D01*
X774909Y498036D01*
X774872Y498129D01*
X774853Y498147D01*
X774761Y498388D01*
X774705Y498629D01*
X774650Y498870D01*
X774631Y499092D01*
X774612Y499277D01*
X774594Y499425D01*
Y499518D01*
Y499555D01*
X774612Y499962D01*
X774650Y500147D01*
X774668Y500295D01*
X774705Y500425D01*
X774742Y500517D01*
X774761Y500592D01*
Y500610D01*
X774909Y500943D01*
X774983Y501091D01*
X775057Y501221D01*
X775131Y501314D01*
X775186Y501406D01*
X775223Y501443D01*
X775242Y501462D01*
X775483Y501721D01*
X775723Y501925D01*
X775835Y501999D01*
X775909Y502054D01*
X775964Y502073D01*
X775983Y502091D01*
X776298Y502258D01*
X776446Y502313D01*
X776575Y502351D01*
X776668Y502388D01*
X776760Y502406D01*
X776816Y502425D01*
X776834D01*
X777131Y502480D01*
X777260Y502499D01*
X777371Y502517D01*
X777446Y502536D01*
X777520Y502554D01*
X777575D01*
X777797Y502573D01*
X778001Y502591D01*
X780427D01*
X780575Y502573D01*
D02*
G37*
G36*
X748800Y502628D02*
X748837D01*
X748948Y502610D01*
X749023Y502591D01*
X749078Y502573D01*
X749097D01*
X749208Y502536D01*
X749226Y502517D01*
X749245Y502499D01*
X749300Y502406D01*
X749319Y502369D01*
Y502351D01*
X752781Y492722D01*
X752818Y492592D01*
X752837Y492500D01*
X752855Y492444D01*
Y492426D01*
X752837Y492370D01*
X752818Y492315D01*
X752800Y492296D01*
Y492278D01*
X752744Y492259D01*
X752670Y492240D01*
X752615Y492222D01*
X752596D01*
X752467Y492203D01*
X752337Y492185D01*
X752059D01*
X751948Y492203D01*
X751855D01*
X751763Y492222D01*
X751689D01*
X751652Y492240D01*
X751633D01*
X751541Y492296D01*
X751522Y492333D01*
X751467Y492426D01*
X751448Y492444D01*
Y492463D01*
X750615Y494963D01*
X746301D01*
X745412Y492426D01*
X745356Y492333D01*
X745338Y492315D01*
Y492296D01*
X745264Y492259D01*
X745245Y492240D01*
X745227D01*
X745153Y492222D01*
X745079D01*
X745023Y492203D01*
X745004D01*
X744875Y492185D01*
X744449D01*
X744319Y492203D01*
X744208D01*
X744116Y492222D01*
X744042Y492240D01*
X744023Y492259D01*
X744005D01*
X743968Y492315D01*
X743949Y492370D01*
Y492407D01*
Y492426D01*
Y492518D01*
X743968Y492611D01*
X743986Y492685D01*
X744005Y492722D01*
X747486Y502351D01*
X747541Y502443D01*
X747560Y502480D01*
X747578D01*
X747634Y502536D01*
X747689Y502554D01*
X747726Y502573D01*
X747745D01*
X747819Y502591D01*
X747912Y502610D01*
X747967Y502628D01*
X748004D01*
X748134Y502647D01*
X748726D01*
X748800Y502628D01*
D02*
G37*
G36*
X709860Y502628D02*
X709897D01*
X710008Y502610D01*
X710082Y502591D01*
X710138Y502573D01*
X710156D01*
X710267Y502536D01*
X710286Y502517D01*
X710304Y502499D01*
X710360Y502406D01*
X710378Y502369D01*
Y502351D01*
X713841Y492722D01*
X713878Y492592D01*
X713896Y492500D01*
X713915Y492444D01*
Y492426D01*
X713896Y492370D01*
X713878Y492315D01*
X713859Y492296D01*
Y492277D01*
X713804Y492259D01*
X713730Y492240D01*
X713674Y492222D01*
X713656D01*
X713526Y492203D01*
X713397Y492185D01*
X713119D01*
X713008Y492203D01*
X712915D01*
X712823Y492222D01*
X712748D01*
X712711Y492240D01*
X712693D01*
X712600Y492296D01*
X712582Y492333D01*
X712526Y492426D01*
X712508Y492444D01*
Y492463D01*
X711674Y494962D01*
X707360D01*
X706471Y492426D01*
X706416Y492333D01*
X706397Y492315D01*
Y492296D01*
X706323Y492259D01*
X706305Y492240D01*
X706286D01*
X706212Y492222D01*
X706138D01*
X706083Y492203D01*
X706064D01*
X705934Y492185D01*
X705508D01*
X705379Y492203D01*
X705268D01*
X705175Y492222D01*
X705101Y492240D01*
X705083Y492259D01*
X705064D01*
X705027Y492315D01*
X705008Y492370D01*
Y492407D01*
Y492426D01*
Y492518D01*
X705027Y492611D01*
X705046Y492685D01*
X705064Y492722D01*
X708545Y502351D01*
X708601Y502443D01*
X708619Y502480D01*
X708638D01*
X708693Y502536D01*
X708749Y502554D01*
X708786Y502573D01*
X708804D01*
X708878Y502591D01*
X708971Y502610D01*
X709027Y502628D01*
X709064D01*
X709193Y502647D01*
X709786D01*
X709860Y502628D01*
D02*
G37*
G36*
X680233Y499980D02*
X680455Y499943D01*
X680659Y499888D01*
X680844Y499832D01*
X681011Y499777D01*
X681122Y499721D01*
X681196Y499684D01*
X681233Y499666D01*
X681455Y499536D01*
X681678Y499388D01*
X681881Y499221D01*
X682048Y499055D01*
X682215Y498907D01*
X682326Y498795D01*
X682400Y498721D01*
X682437Y498684D01*
Y499629D01*
X682455Y499721D01*
X682474Y499740D01*
X682492Y499777D01*
X682529Y499795D01*
X682548Y499814D01*
X682566D01*
X682622Y499832D01*
X682678Y499851D01*
X682733Y499869D01*
X682752D01*
X682844Y499888D01*
X683251D01*
X683307Y499869D01*
X683326D01*
X683400Y499851D01*
X683455Y499832D01*
X683492Y499814D01*
X683511D01*
X683548Y499795D01*
X683585Y499758D01*
X683603Y499740D01*
X683622Y499666D01*
Y499647D01*
Y499629D01*
Y492426D01*
X683603Y492352D01*
Y492315D01*
X683529Y492259D01*
X683511Y492240D01*
X683492D01*
X683363Y492222D01*
X683326Y492203D01*
X683307D01*
X683196Y492185D01*
X682844D01*
X682733Y492203D01*
X682659D01*
X682566Y492222D01*
X682511D01*
X682474Y492240D01*
X682455D01*
X682363Y492296D01*
X682344Y492315D01*
X682307Y492389D01*
Y492407D01*
Y492426D01*
Y497462D01*
X682104Y497703D01*
X681918Y497907D01*
X681752Y498073D01*
X681585Y498221D01*
X681455Y498332D01*
X681363Y498425D01*
X681289Y498462D01*
X681270Y498481D01*
X681085Y498610D01*
X680900Y498703D01*
X680733Y498758D01*
X680585Y498814D01*
X680455Y498832D01*
X680363Y498851D01*
X680270D01*
X680011Y498832D01*
X679789Y498777D01*
X679715Y498758D01*
X679659Y498721D01*
X679622Y498703D01*
X679604D01*
X679400Y498573D01*
X679252Y498444D01*
X679159Y498332D01*
X679122Y498295D01*
Y498277D01*
X678993Y498073D01*
X678919Y497851D01*
X678882Y497758D01*
X678863Y497703D01*
X678845Y497647D01*
Y497629D01*
X678808Y497481D01*
X678771Y497314D01*
X678752Y496999D01*
X678734Y496870D01*
Y496758D01*
Y496666D01*
Y496647D01*
Y492426D01*
X678715Y492352D01*
Y492315D01*
X678641Y492259D01*
X678622Y492240D01*
X678604D01*
X678474Y492222D01*
X678437Y492203D01*
X678419D01*
X678308Y492185D01*
X677956D01*
X677845Y492203D01*
X677771D01*
X677678Y492222D01*
X677623D01*
X677586Y492240D01*
X677567D01*
X677474Y492296D01*
X677456Y492315D01*
X677419Y492389D01*
Y492407D01*
Y492426D01*
Y496814D01*
Y497092D01*
X677437Y497351D01*
X677456Y497573D01*
X677493Y497758D01*
X677511Y497925D01*
X677548Y498036D01*
X677567Y498110D01*
Y498129D01*
X677623Y498332D01*
X677697Y498518D01*
X677771Y498684D01*
X677845Y498814D01*
X677900Y498925D01*
X677956Y499018D01*
X677993Y499073D01*
X678011Y499092D01*
X678122Y499240D01*
X678252Y499369D01*
X678400Y499481D01*
X678511Y499573D01*
X678641Y499647D01*
X678715Y499703D01*
X678789Y499721D01*
X678808Y499740D01*
X678993Y499832D01*
X679196Y499888D01*
X679400Y499943D01*
X679585Y499962D01*
X679752Y499980D01*
X679882Y499999D01*
X680011D01*
X680233Y499980D01*
D02*
G37*
G36*
X659587Y502628D02*
X659624D01*
X659735Y502610D01*
X659809Y502591D01*
X659865Y502573D01*
X659884D01*
X659995Y502536D01*
X660013Y502517D01*
X660032Y502499D01*
X660087Y502406D01*
X660106Y502369D01*
Y502351D01*
X663568Y492722D01*
X663605Y492592D01*
X663624Y492500D01*
X663643Y492444D01*
Y492426D01*
X663624Y492370D01*
X663605Y492315D01*
X663587Y492296D01*
Y492277D01*
X663531Y492259D01*
X663457Y492240D01*
X663402Y492222D01*
X663383D01*
X663254Y492203D01*
X663124Y492185D01*
X662846D01*
X662735Y492203D01*
X662643D01*
X662550Y492222D01*
X662476D01*
X662439Y492240D01*
X662420D01*
X662328Y492296D01*
X662309Y492333D01*
X662254Y492426D01*
X662235Y492444D01*
Y492463D01*
X661402Y494962D01*
X657088D01*
X656199Y492426D01*
X656143Y492333D01*
X656125Y492315D01*
Y492296D01*
X656051Y492259D01*
X656032Y492240D01*
X656014D01*
X655940Y492222D01*
X655865D01*
X655810Y492203D01*
X655791D01*
X655662Y492185D01*
X655236D01*
X655106Y492203D01*
X654995D01*
X654903Y492222D01*
X654829Y492240D01*
X654810Y492259D01*
X654791D01*
X654754Y492315D01*
X654736Y492370D01*
Y492407D01*
Y492426D01*
Y492518D01*
X654754Y492611D01*
X654773Y492685D01*
X654791Y492722D01*
X658273Y502351D01*
X658328Y502443D01*
X658347Y502480D01*
X658365D01*
X658421Y502536D01*
X658476Y502554D01*
X658513Y502573D01*
X658532D01*
X658606Y502591D01*
X658699Y502610D01*
X658754Y502628D01*
X658791D01*
X658921Y502647D01*
X659513D01*
X659587Y502628D01*
D02*
G37*
G36*
X784686Y502628D02*
X784704D01*
X784797Y502610D01*
X784871Y502591D01*
X784908Y502573D01*
X784926D01*
X785000Y502517D01*
X785037Y502499D01*
Y502480D01*
X785056Y502425D01*
Y502406D01*
Y502388D01*
Y494981D01*
Y494796D01*
X785074Y494629D01*
Y494481D01*
X785093Y494370D01*
X785111Y494259D01*
Y494185D01*
X785130Y494148D01*
Y494129D01*
X785185Y493926D01*
X785241Y493759D01*
X785296Y493666D01*
X785315Y493629D01*
X785426Y493518D01*
X785537Y493426D01*
X785611Y493388D01*
X785630Y493370D01*
X785648D01*
X785797Y493333D01*
X785945Y493315D01*
X786111D01*
X786278Y493333D01*
X786407Y493352D01*
X786500Y493370D01*
X786537D01*
X786667Y493407D01*
X786778Y493463D01*
X786852Y493481D01*
X786870Y493500D01*
X786963Y493555D01*
X787037Y493592D01*
X787093Y493629D01*
X787111D01*
X787167Y493666D01*
X787222Y493703D01*
X787278D01*
X787352Y493685D01*
X787370Y493666D01*
X787389D01*
X787444Y493592D01*
X787463Y493574D01*
Y493555D01*
X787482Y493500D01*
Y493444D01*
X787500Y493407D01*
Y493388D01*
Y493296D01*
Y493203D01*
Y493129D01*
Y493092D01*
Y492981D01*
Y492907D01*
Y492852D01*
Y492833D01*
X787482Y492722D01*
Y492685D01*
Y492666D01*
X787444Y492592D01*
X787426Y492574D01*
Y492555D01*
X787370Y492500D01*
X787352Y492481D01*
Y492463D01*
X787315Y492426D01*
X787259Y492389D01*
X787204Y492370D01*
X787185Y492352D01*
X787074Y492296D01*
X786963Y492259D01*
X786889Y492240D01*
X786852Y492222D01*
X786704Y492185D01*
X786574Y492148D01*
X786482Y492129D01*
X786445D01*
X786278Y492111D01*
X786130Y492092D01*
X785759D01*
X785556Y492129D01*
X785371Y492148D01*
X785204Y492185D01*
X785074Y492222D01*
X784982Y492240D01*
X784926Y492278D01*
X784908D01*
X784741Y492352D01*
X784611Y492444D01*
X784482Y492537D01*
X784389Y492629D01*
X784315Y492703D01*
X784260Y492777D01*
X784223Y492814D01*
X784204Y492833D01*
X784019Y493129D01*
X783908Y493407D01*
X783871Y493518D01*
X783834Y493629D01*
X783815Y493685D01*
Y493703D01*
X783741Y494092D01*
X783723Y494296D01*
X783704Y494463D01*
X783686Y494611D01*
Y494722D01*
Y494814D01*
Y494833D01*
Y502388D01*
X783704Y502462D01*
X783723Y502480D01*
X783760Y502517D01*
X783797Y502554D01*
X783834Y502573D01*
X783852D01*
X783908Y502591D01*
X783982Y502610D01*
X784037Y502628D01*
X784056D01*
X784167Y502647D01*
X784611D01*
X784686Y502628D01*
D02*
G37*
G36*
X669753Y503332D02*
X669827Y503313D01*
X669846D01*
X669938Y503295D01*
X669994Y503276D01*
X670031Y503258D01*
X670049D01*
X670123Y503221D01*
X670160Y503202D01*
Y503184D01*
X670179Y503128D01*
Y503110D01*
Y503091D01*
Y498907D01*
X670364Y499092D01*
X670568Y499258D01*
X670734Y499406D01*
X670901Y499518D01*
X671031Y499610D01*
X671142Y499666D01*
X671216Y499703D01*
X671234Y499721D01*
X671438Y499814D01*
X671623Y499888D01*
X671827Y499925D01*
X671993Y499962D01*
X672160Y499980D01*
X672271Y499999D01*
X672382D01*
X672660Y499980D01*
X672919Y499962D01*
X673141Y499906D01*
X673345Y499851D01*
X673512Y499795D01*
X673623Y499758D01*
X673716Y499721D01*
X673734Y499703D01*
X673938Y499592D01*
X674123Y499462D01*
X674289Y499332D01*
X674438Y499184D01*
X674549Y499073D01*
X674623Y498980D01*
X674678Y498907D01*
X674697Y498888D01*
X674827Y498684D01*
X674956Y498462D01*
X675049Y498258D01*
X675141Y498055D01*
X675197Y497869D01*
X675252Y497740D01*
X675271Y497647D01*
X675289Y497610D01*
X675400Y497036D01*
X675437Y496758D01*
X675456Y496499D01*
Y496277D01*
X675475Y496092D01*
Y495981D01*
Y495962D01*
Y495944D01*
Y495648D01*
X675456Y495388D01*
X675419Y495129D01*
X675400Y494907D01*
X675363Y494722D01*
X675345Y494574D01*
X675326Y494481D01*
Y494444D01*
X675252Y494185D01*
X675178Y493963D01*
X675086Y493740D01*
X675012Y493574D01*
X674938Y493426D01*
X674882Y493315D01*
X674845Y493240D01*
X674827Y493222D01*
X674678Y493037D01*
X674530Y492870D01*
X674382Y492722D01*
X674234Y492611D01*
X674104Y492518D01*
X674012Y492444D01*
X673938Y492407D01*
X673919Y492389D01*
X673697Y492296D01*
X673456Y492222D01*
X673234Y492166D01*
X673012Y492129D01*
X672827Y492111D01*
X672679Y492092D01*
X672549D01*
X672290Y492111D01*
X672030Y492148D01*
X671808Y492203D01*
X671605Y492259D01*
X671438Y492315D01*
X671327Y492370D01*
X671234Y492407D01*
X671216Y492426D01*
X670994Y492574D01*
X670771Y492722D01*
X670568Y492889D01*
X670401Y493037D01*
X670253Y493185D01*
X670123Y493296D01*
X670049Y493370D01*
X670031Y493388D01*
Y492426D01*
X670012Y492352D01*
Y492333D01*
Y492315D01*
X669938Y492259D01*
X669920Y492240D01*
X669901D01*
X669771Y492222D01*
X669734Y492203D01*
X669716D01*
X669623Y492185D01*
X669327D01*
X669234Y492203D01*
X669160D01*
X669086Y492222D01*
X669031D01*
X669012Y492240D01*
X668994D01*
X668901Y492277D01*
X668883Y492296D01*
X668846Y492389D01*
Y492407D01*
Y492426D01*
Y503091D01*
X668864Y503165D01*
X668883Y503184D01*
X668957Y503239D01*
X668975Y503258D01*
X668994D01*
X669049Y503276D01*
X669123Y503295D01*
X669179Y503313D01*
X669197D01*
X669308Y503332D01*
X669420Y503350D01*
X669660D01*
X669753Y503332D01*
D02*
G37*
G36*
X726321Y503980D02*
X726340D01*
X726414Y503961D01*
X726488Y503943D01*
X726525Y503924D01*
X726543D01*
X726636Y503869D01*
X726655Y503850D01*
X726673Y503832D01*
X726692Y503776D01*
X726729Y503721D01*
X726747Y503684D01*
Y503665D01*
X731580Y490426D01*
X731617Y490352D01*
Y490296D01*
Y490259D01*
Y490241D01*
X731580Y490167D01*
X731543Y490130D01*
X731487Y490093D01*
X731413Y490056D01*
X731358Y490037D01*
X731339D01*
X731228Y490019D01*
X731098Y490000D01*
X730876D01*
X730784Y490019D01*
X730710D01*
X730636Y490037D01*
X730580Y490056D01*
X730543Y490074D01*
X730524D01*
X730469Y490111D01*
X730432Y490130D01*
X730395Y490167D01*
X730358Y490222D01*
X730321Y490278D01*
X730302Y490315D01*
Y490333D01*
X725451Y503573D01*
X725432Y503647D01*
Y503702D01*
Y503739D01*
Y503758D01*
X725451Y503813D01*
X725488Y503850D01*
X725506Y503869D01*
X725525D01*
X725581Y503906D01*
X725655Y503943D01*
X725710Y503961D01*
X725729D01*
X725840Y503980D01*
X725932Y503999D01*
X726266D01*
X726321Y503980D01*
D02*
G37*
%LPC*%
G36*
X706083Y548222D02*
X704749D01*
Y546685D01*
X704934Y546500D01*
X705101Y546333D01*
X705268Y546203D01*
X705416Y546092D01*
X705527Y546000D01*
X705620Y545944D01*
X705675Y545907D01*
X705694Y545888D01*
X705860Y545796D01*
X706027Y545740D01*
X706194Y545685D01*
X706342Y545666D01*
X706471Y545648D01*
X706564Y545629D01*
X706656D01*
X706879Y545648D01*
X707082Y545685D01*
X707249Y545722D01*
X707379Y545796D01*
X707490Y545852D01*
X707564Y545888D01*
X707619Y545926D01*
X707638Y545944D01*
X707749Y546074D01*
X707842Y546222D01*
X707897Y546370D01*
X707953Y546518D01*
X707971Y546648D01*
X707990Y546740D01*
Y546814D01*
Y546833D01*
X707971Y547055D01*
X707934Y547240D01*
X707916Y547314D01*
X707897Y547370D01*
X707879Y547388D01*
Y547407D01*
X707767Y547592D01*
X707638Y547722D01*
X707527Y547814D01*
X707508Y547851D01*
X707490D01*
X707286Y547981D01*
X707064Y548055D01*
X706971Y548092D01*
X706897Y548111D01*
X706860Y548129D01*
X706842D01*
X706527Y548185D01*
X706360Y548203D01*
X706212D01*
X706083Y548222D01*
D02*
G37*
G36*
X728617Y551462D02*
X728432D01*
X728099Y551443D01*
X727803Y551370D01*
X727562Y551277D01*
X727358Y551166D01*
X727210Y551055D01*
X727099Y550962D01*
X727025Y550888D01*
X727006Y550869D01*
X726840Y550629D01*
X726729Y550370D01*
X726636Y550092D01*
X726580Y549833D01*
X726543Y549592D01*
X726525Y549407D01*
Y549333D01*
Y549296D01*
Y549259D01*
Y549240D01*
X730450D01*
X730432Y549555D01*
X730413Y549684D01*
X730376Y549814D01*
X730358Y549925D01*
X730339Y549999D01*
X730321Y550055D01*
Y550073D01*
X730191Y550351D01*
X730136Y550481D01*
X730061Y550573D01*
X730024Y550666D01*
X729969Y550721D01*
X729950Y550758D01*
X729932Y550777D01*
X729728Y550981D01*
X729525Y551147D01*
X729432Y551203D01*
X729358Y551240D01*
X729321Y551277D01*
X729302D01*
X729006Y551388D01*
X728728Y551443D01*
X728617Y551462D01*
D02*
G37*
G36*
X631164Y553962D02*
X629535D01*
X629331Y553943D01*
X629183Y553925D01*
X629035Y553906D01*
X628942Y553869D01*
X628850Y553851D01*
X628813Y553832D01*
X628794D01*
X628554Y553740D01*
X628350Y553629D01*
X628294Y553591D01*
X628239Y553554D01*
X628220Y553536D01*
X628202Y553517D01*
X628054Y553351D01*
X627943Y553184D01*
X627905Y553110D01*
X627887Y553054D01*
X627868Y553017D01*
Y552999D01*
X627794Y552777D01*
X627776Y552555D01*
X627757Y552462D01*
Y552388D01*
Y552332D01*
Y552314D01*
X627776Y552073D01*
X627813Y551869D01*
X627831Y551777D01*
X627850Y551721D01*
X627868Y551684D01*
Y551666D01*
X627961Y551443D01*
X628054Y551277D01*
X628109Y551203D01*
X628146Y551147D01*
X628165Y551129D01*
X628183Y551110D01*
X628368Y550962D01*
X628535Y550851D01*
X628628Y550795D01*
X628683Y550758D01*
X628720Y550740D01*
X628739D01*
X628868Y550703D01*
X628998Y550666D01*
X629276Y550629D01*
X629405Y550610D01*
X631164D01*
Y553962D01*
D02*
G37*
G36*
Y549518D02*
X629276D01*
X629072Y549499D01*
X628887Y549481D01*
X628739Y549462D01*
X628609Y549425D01*
X628517Y549407D01*
X628461Y549388D01*
X628442D01*
X628146Y549277D01*
X628035Y549221D01*
X627924Y549147D01*
X627850Y549110D01*
X627794Y549055D01*
X627757Y549036D01*
X627739Y549018D01*
X627535Y548833D01*
X627406Y548629D01*
X627350Y548555D01*
X627313Y548481D01*
X627294Y548444D01*
Y548425D01*
X627202Y548148D01*
X627165Y547888D01*
X627146Y547777D01*
Y547685D01*
Y547629D01*
Y547611D01*
X627165Y547314D01*
X627202Y547185D01*
X627220Y547074D01*
X627257Y546981D01*
X627294Y546907D01*
X627313Y546870D01*
Y546851D01*
X627443Y546629D01*
X627572Y546444D01*
X627683Y546333D01*
X627720Y546314D01*
X627739Y546296D01*
X627943Y546166D01*
X628146Y546055D01*
X628220Y546037D01*
X628294Y546000D01*
X628331Y545981D01*
X628350D01*
X628628Y545926D01*
X628887Y545888D01*
X628998Y545870D01*
X631164D01*
Y549518D01*
D02*
G37*
G36*
X779593Y553962D02*
X778316D01*
X778056Y553943D01*
X777816Y553925D01*
X777723Y553906D01*
X777649D01*
X777612Y553888D01*
X777594D01*
X777316Y553832D01*
X777094Y553740D01*
X777001Y553703D01*
X776927Y553666D01*
X776890Y553647D01*
X776871Y553629D01*
X776742Y553536D01*
X776631Y553443D01*
X776446Y553240D01*
X776372Y553147D01*
X776316Y553073D01*
X776298Y553017D01*
X776279Y552999D01*
X776205Y552832D01*
X776131Y552647D01*
X776094Y552481D01*
X776075Y552314D01*
X776057Y552166D01*
X776038Y552055D01*
Y551981D01*
Y551944D01*
X776057Y551610D01*
X776075Y551462D01*
X776112Y551332D01*
X776131Y551221D01*
X776168Y551147D01*
X776186Y551092D01*
Y551073D01*
X776316Y550795D01*
X776464Y550592D01*
X776520Y550499D01*
X776575Y550444D01*
X776612Y550407D01*
X776631Y550388D01*
X776853Y550203D01*
X777075Y550055D01*
X777168Y550018D01*
X777242Y549981D01*
X777297Y549944D01*
X777316D01*
X777483Y549888D01*
X777649Y549851D01*
X777816Y549833D01*
X777982Y549814D01*
X778131Y549795D01*
X779593D01*
Y553962D01*
D02*
G37*
G36*
X687510Y523222D02*
X686177D01*
Y521685D01*
X686362Y521500D01*
X686529Y521333D01*
X686696Y521203D01*
X686844Y521092D01*
X686955Y521000D01*
X687047Y520944D01*
X687103Y520907D01*
X687122Y520888D01*
X687288Y520796D01*
X687455Y520740D01*
X687622Y520685D01*
X687770Y520666D01*
X687899Y520648D01*
X687992Y520629D01*
X688084D01*
X688307Y520648D01*
X688510Y520685D01*
X688677Y520722D01*
X688807Y520796D01*
X688918Y520852D01*
X688992Y520888D01*
X689047Y520926D01*
X689066Y520944D01*
X689177Y521074D01*
X689269Y521222D01*
X689325Y521370D01*
X689380Y521518D01*
X689399Y521648D01*
X689418Y521740D01*
Y521814D01*
Y521833D01*
X689399Y522055D01*
X689362Y522240D01*
X689343Y522314D01*
X689325Y522370D01*
X689306Y522388D01*
Y522407D01*
X689195Y522592D01*
X689066Y522722D01*
X688955Y522814D01*
X688936Y522851D01*
X688918D01*
X688714Y522981D01*
X688492Y523055D01*
X688399Y523092D01*
X688325Y523111D01*
X688288Y523129D01*
X688270D01*
X687955Y523185D01*
X687788Y523203D01*
X687640D01*
X687510Y523222D01*
D02*
G37*
G36*
X750393Y528943D02*
X749004D01*
X748615Y528925D01*
X748282Y528906D01*
X747967Y528851D01*
X747726Y528795D01*
X747523Y528740D01*
X747374Y528703D01*
X747282Y528666D01*
X747245Y528647D01*
X747004Y528536D01*
X746782Y528388D01*
X746578Y528258D01*
X746430Y528129D01*
X746301Y527999D01*
X746189Y527906D01*
X746134Y527832D01*
X746115Y527814D01*
X745967Y527610D01*
X745819Y527406D01*
X745708Y527184D01*
X745615Y526999D01*
X745560Y526814D01*
X745504Y526684D01*
X745467Y526592D01*
Y526555D01*
X745393Y526277D01*
X745338Y525999D01*
X745301Y525740D01*
X745264Y525499D01*
Y525295D01*
X745245Y525147D01*
Y525036D01*
Y525018D01*
Y524999D01*
X745264Y524610D01*
X745282Y524277D01*
X745319Y523962D01*
X745356Y523685D01*
X745412Y523462D01*
X745449Y523296D01*
X745467Y523203D01*
X745486Y523166D01*
X745578Y522888D01*
X745689Y522648D01*
X745801Y522425D01*
X745912Y522240D01*
X746004Y522092D01*
X746097Y521981D01*
X746152Y521907D01*
X746171Y521888D01*
X746356Y521703D01*
X746541Y521555D01*
X746745Y521426D01*
X746912Y521314D01*
X747078Y521240D01*
X747208Y521185D01*
X747282Y521148D01*
X747319Y521129D01*
X747578Y521055D01*
X747856Y521000D01*
X748134Y520944D01*
X748393Y520926D01*
X748634Y520907D01*
X748819Y520888D01*
X750393D01*
Y528943D01*
D02*
G37*
G36*
X710860Y528943D02*
X709471D01*
X709082Y528925D01*
X708749Y528906D01*
X708434Y528851D01*
X708193Y528795D01*
X707990Y528740D01*
X707842Y528703D01*
X707749Y528666D01*
X707712Y528647D01*
X707471Y528536D01*
X707249Y528388D01*
X707045Y528258D01*
X706897Y528129D01*
X706768Y527999D01*
X706656Y527906D01*
X706601Y527832D01*
X706582Y527814D01*
X706434Y527610D01*
X706286Y527406D01*
X706175Y527184D01*
X706083Y526999D01*
X706027Y526814D01*
X705971Y526684D01*
X705934Y526592D01*
Y526555D01*
X705860Y526277D01*
X705805Y525999D01*
X705768Y525740D01*
X705731Y525499D01*
Y525295D01*
X705712Y525147D01*
Y525036D01*
Y525018D01*
Y524999D01*
X705731Y524610D01*
X705749Y524277D01*
X705786Y523962D01*
X705823Y523685D01*
X705879Y523462D01*
X705916Y523296D01*
X705934Y523203D01*
X705953Y523166D01*
X706046Y522888D01*
X706157Y522648D01*
X706268Y522425D01*
X706379Y522240D01*
X706471Y522092D01*
X706564Y521981D01*
X706619Y521907D01*
X706638Y521888D01*
X706823Y521703D01*
X707008Y521555D01*
X707212Y521426D01*
X707379Y521314D01*
X707545Y521240D01*
X707675Y521185D01*
X707749Y521148D01*
X707786Y521129D01*
X708045Y521055D01*
X708323Y521000D01*
X708601Y520944D01*
X708860Y520926D01*
X709101Y520907D01*
X709286Y520888D01*
X710860D01*
Y528943D01*
D02*
G37*
G36*
X659995D02*
X658606D01*
X658217Y528925D01*
X657884Y528906D01*
X657569Y528851D01*
X657328Y528795D01*
X657125Y528740D01*
X656976Y528703D01*
X656884Y528666D01*
X656847Y528647D01*
X656606Y528536D01*
X656384Y528388D01*
X656180Y528258D01*
X656032Y528129D01*
X655902Y527999D01*
X655791Y527906D01*
X655736Y527832D01*
X655717Y527814D01*
X655569Y527610D01*
X655421Y527406D01*
X655310Y527184D01*
X655217Y526999D01*
X655162Y526814D01*
X655106Y526684D01*
X655069Y526592D01*
Y526555D01*
X654995Y526277D01*
X654940Y525999D01*
X654903Y525740D01*
X654866Y525499D01*
Y525295D01*
X654847Y525147D01*
Y525036D01*
Y525018D01*
Y524999D01*
X654866Y524610D01*
X654884Y524277D01*
X654921Y523962D01*
X654958Y523685D01*
X655014Y523462D01*
X655051Y523296D01*
X655069Y523203D01*
X655088Y523166D01*
X655180Y522888D01*
X655292Y522648D01*
X655403Y522425D01*
X655514Y522240D01*
X655606Y522092D01*
X655699Y521981D01*
X655754Y521907D01*
X655773Y521888D01*
X655958Y521703D01*
X656143Y521555D01*
X656347Y521426D01*
X656514Y521314D01*
X656680Y521240D01*
X656810Y521185D01*
X656884Y521148D01*
X656921Y521129D01*
X657180Y521055D01*
X657458Y521000D01*
X657736Y520944D01*
X657995Y520926D01*
X658236Y520907D01*
X658421Y520888D01*
X659995D01*
Y528943D01*
D02*
G37*
G36*
X779593Y528962D02*
X778316D01*
X778056Y528943D01*
X777816Y528925D01*
X777723Y528906D01*
X777649D01*
X777612Y528888D01*
X777594D01*
X777316Y528832D01*
X777094Y528740D01*
X777001Y528703D01*
X776927Y528666D01*
X776890Y528647D01*
X776871Y528629D01*
X776742Y528536D01*
X776631Y528443D01*
X776446Y528240D01*
X776372Y528147D01*
X776316Y528073D01*
X776298Y528017D01*
X776279Y527999D01*
X776205Y527832D01*
X776131Y527647D01*
X776094Y527481D01*
X776075Y527314D01*
X776057Y527166D01*
X776038Y527055D01*
Y526981D01*
Y526944D01*
X776057Y526610D01*
X776075Y526462D01*
X776112Y526332D01*
X776131Y526221D01*
X776168Y526147D01*
X776186Y526092D01*
Y526073D01*
X776316Y525795D01*
X776464Y525592D01*
X776520Y525499D01*
X776575Y525444D01*
X776612Y525407D01*
X776631Y525388D01*
X776853Y525203D01*
X777075Y525055D01*
X777168Y525018D01*
X777242Y524981D01*
X777297Y524944D01*
X777316D01*
X777483Y524888D01*
X777649Y524851D01*
X777816Y524833D01*
X777982Y524814D01*
X778131Y524795D01*
X779593D01*
Y528962D01*
D02*
G37*
G36*
X647681Y528925D02*
X647663D01*
Y523240D01*
X651033D01*
X647681Y528925D01*
D02*
G37*
G36*
X671160Y526369D02*
X671086D01*
X670882Y526351D01*
X670679Y526314D01*
X670512Y526258D01*
X670346Y526203D01*
X670216Y526129D01*
X670123Y526073D01*
X670049Y526036D01*
X670031Y526018D01*
X669846Y525869D01*
X669660Y525703D01*
X669475Y525536D01*
X669327Y525369D01*
X669197Y525221D01*
X669086Y525110D01*
X669012Y525036D01*
X668994Y524999D01*
Y522111D01*
X669216Y521851D01*
X669420Y521629D01*
X669494Y521555D01*
X669549Y521500D01*
X669586Y521463D01*
X669605Y521444D01*
X669809Y521277D01*
X669975Y521129D01*
X670049Y521092D01*
X670105Y521055D01*
X670123Y521018D01*
X670142D01*
X670327Y520907D01*
X670475Y520833D01*
X670605Y520796D01*
X670623Y520777D01*
X670642D01*
X670827Y520740D01*
X670975Y520722D01*
X671142D01*
X671327Y520740D01*
X671494Y520759D01*
X671642Y520796D01*
X671771Y520852D01*
X671864Y520888D01*
X671956Y520926D01*
X671993Y520944D01*
X672012Y520963D01*
X672234Y521166D01*
X672401Y521370D01*
X672475Y521463D01*
X672512Y521537D01*
X672530Y521574D01*
X672549Y521592D01*
X672679Y521907D01*
X672734Y522074D01*
X672771Y522203D01*
X672808Y522333D01*
X672827Y522425D01*
X672845Y522500D01*
Y522518D01*
X672882Y522907D01*
X672901Y523092D01*
Y523259D01*
X672919Y523388D01*
Y523499D01*
Y523573D01*
Y523592D01*
X672901Y523962D01*
X672882Y524129D01*
X672864Y524296D01*
Y524407D01*
X672845Y524518D01*
X672827Y524573D01*
Y524592D01*
X672734Y524944D01*
X672679Y525092D01*
X672642Y525221D01*
X672586Y525332D01*
X672549Y525407D01*
X672512Y525462D01*
Y525481D01*
X672327Y525758D01*
X672234Y525869D01*
X672142Y525962D01*
X672067Y526036D01*
X671993Y526092D01*
X671956Y526110D01*
X671938Y526129D01*
X671808Y526203D01*
X671660Y526277D01*
X671382Y526332D01*
X671271Y526351D01*
X671160Y526369D01*
D02*
G37*
G36*
X688695Y495722D02*
X687362D01*
Y494185D01*
X687547Y494000D01*
X687714Y493833D01*
X687881Y493703D01*
X688029Y493592D01*
X688140Y493500D01*
X688232Y493444D01*
X688288Y493407D01*
X688307Y493388D01*
X688473Y493296D01*
X688640Y493240D01*
X688807Y493185D01*
X688955Y493166D01*
X689084Y493148D01*
X689177Y493129D01*
X689269D01*
X689492Y493148D01*
X689695Y493185D01*
X689862Y493222D01*
X689992Y493296D01*
X690103Y493352D01*
X690177Y493388D01*
X690232Y493426D01*
X690251Y493444D01*
X690362Y493574D01*
X690454Y493722D01*
X690510Y493870D01*
X690566Y494018D01*
X690584Y494148D01*
X690603Y494240D01*
Y494314D01*
Y494333D01*
X690584Y494555D01*
X690547Y494740D01*
X690529Y494814D01*
X690510Y494870D01*
X690491Y494888D01*
Y494907D01*
X690380Y495092D01*
X690251Y495222D01*
X690140Y495314D01*
X690121Y495351D01*
X690103D01*
X689899Y495481D01*
X689677Y495555D01*
X689584Y495592D01*
X689510Y495611D01*
X689473Y495629D01*
X689455D01*
X689140Y495685D01*
X688973Y495703D01*
X688825D01*
X688695Y495722D01*
D02*
G37*
G36*
X779593Y501462D02*
X778316D01*
X778056Y501443D01*
X777816Y501425D01*
X777723Y501406D01*
X777649D01*
X777612Y501388D01*
X777594D01*
X777316Y501332D01*
X777094Y501240D01*
X777001Y501203D01*
X776927Y501166D01*
X776890Y501147D01*
X776871Y501129D01*
X776742Y501036D01*
X776631Y500943D01*
X776446Y500740D01*
X776372Y500647D01*
X776316Y500573D01*
X776298Y500517D01*
X776279Y500499D01*
X776205Y500332D01*
X776131Y500147D01*
X776094Y499981D01*
X776075Y499814D01*
X776057Y499666D01*
X776038Y499555D01*
Y499481D01*
Y499444D01*
X776057Y499110D01*
X776075Y498962D01*
X776112Y498832D01*
X776131Y498721D01*
X776168Y498647D01*
X776186Y498592D01*
Y498573D01*
X776316Y498295D01*
X776464Y498092D01*
X776520Y497999D01*
X776575Y497944D01*
X776612Y497907D01*
X776631Y497888D01*
X776853Y497703D01*
X777075Y497555D01*
X777168Y497518D01*
X777242Y497481D01*
X777297Y497444D01*
X777316D01*
X777483Y497388D01*
X777649Y497351D01*
X777816Y497333D01*
X777982Y497314D01*
X778131Y497296D01*
X779593D01*
Y501462D01*
D02*
G37*
G36*
X748485Y501221D02*
X748467D01*
X746652Y496055D01*
X750263D01*
X748485Y501221D01*
D02*
G37*
G36*
X709545Y501221D02*
X709527D01*
X707712Y496055D01*
X711323D01*
X709545Y501221D01*
D02*
G37*
G36*
X659273D02*
X659254D01*
X657439Y496055D01*
X661050D01*
X659273Y501221D01*
D02*
G37*
G36*
X672345Y498869D02*
X672271D01*
X672067Y498851D01*
X671864Y498814D01*
X671697Y498758D01*
X671531Y498703D01*
X671401Y498629D01*
X671308Y498573D01*
X671234Y498536D01*
X671216Y498518D01*
X671031Y498369D01*
X670845Y498203D01*
X670660Y498036D01*
X670512Y497869D01*
X670383Y497721D01*
X670271Y497610D01*
X670197Y497536D01*
X670179Y497499D01*
Y494611D01*
X670401Y494351D01*
X670605Y494129D01*
X670679Y494055D01*
X670734Y494000D01*
X670771Y493963D01*
X670790Y493944D01*
X670994Y493777D01*
X671160Y493629D01*
X671234Y493592D01*
X671290Y493555D01*
X671308Y493518D01*
X671327D01*
X671512Y493407D01*
X671660Y493333D01*
X671790Y493296D01*
X671808Y493277D01*
X671827D01*
X672012Y493240D01*
X672160Y493222D01*
X672327D01*
X672512Y493240D01*
X672679Y493259D01*
X672827Y493296D01*
X672956Y493352D01*
X673049Y493388D01*
X673141Y493426D01*
X673178Y493444D01*
X673197Y493463D01*
X673419Y493666D01*
X673586Y493870D01*
X673660Y493963D01*
X673697Y494037D01*
X673716Y494074D01*
X673734Y494092D01*
X673864Y494407D01*
X673919Y494574D01*
X673956Y494703D01*
X673993Y494833D01*
X674012Y494925D01*
X674030Y495000D01*
Y495018D01*
X674067Y495407D01*
X674086Y495592D01*
Y495759D01*
X674104Y495888D01*
Y495999D01*
Y496073D01*
Y496092D01*
X674086Y496462D01*
X674067Y496629D01*
X674049Y496796D01*
Y496907D01*
X674030Y497018D01*
X674012Y497073D01*
Y497092D01*
X673919Y497444D01*
X673864Y497592D01*
X673827Y497721D01*
X673771Y497832D01*
X673734Y497907D01*
X673697Y497962D01*
Y497981D01*
X673512Y498258D01*
X673419Y498369D01*
X673327Y498462D01*
X673253Y498536D01*
X673178Y498592D01*
X673141Y498610D01*
X673123Y498629D01*
X672993Y498703D01*
X672845Y498777D01*
X672568Y498832D01*
X672456Y498851D01*
X672345Y498869D01*
D02*
G37*
%LPD*%
D13*
X637500Y515000D02*
X717500D01*
X637500Y535000D02*
X717500D01*
Y515000D02*
Y535000D01*
X637500Y515000D02*
Y535000D01*
X640000Y487500D02*
X720000D01*
X640000Y507500D02*
X720000D01*
Y487500D02*
Y507500D01*
X640000Y487500D02*
Y507500D01*
X617500Y540000D02*
X657500D01*
X617500Y560000D02*
X657500D01*
Y540000D02*
Y560000D01*
X617500Y540000D02*
Y560000D01*
M02*
