G04*
G04 #@! TF.GenerationSoftware,Altium Limited,Altium Designer,25.5.2 (35)*
G04*
G04 Layer_Color=32896*
%FSLAX25Y25*%
%MOIN*%
G70*
G04*
G04 #@! TF.SameCoordinates,158EF743-8888-4733-9C83-1880DC859FCE*
G04*
G04*
G04 #@! TF.FilePolarity,Positive*
G04*
G01*
G75*
%ADD13C,0.01000*%
G36*
X269252Y218635D02*
X269296Y218627D01*
X269332Y218613D01*
X269361Y218598D01*
X269376Y218591D01*
X269390Y218576D01*
X269412Y218547D01*
X269427Y218511D01*
X269449Y218430D01*
Y218387D01*
X269456Y218358D01*
Y218336D01*
Y218328D01*
Y218263D01*
X269449Y218212D01*
X269434Y218168D01*
X269420Y218139D01*
X269412Y218110D01*
X269398Y218095D01*
X269390Y218081D01*
X269361Y218059D01*
X269325Y218044D01*
X269245Y218030D01*
X269201Y218022D01*
X269077D01*
X269026Y218030D01*
X268975Y218044D01*
X268946Y218059D01*
X268917Y218066D01*
X268902Y218081D01*
X268887Y218088D01*
X268865Y218117D01*
X268844Y218154D01*
X268822Y218234D01*
X268814Y218277D01*
Y218307D01*
Y218328D01*
Y218336D01*
Y218401D01*
X268829Y218452D01*
X268836Y218496D01*
X268851Y218525D01*
X268865Y218554D01*
X268873Y218569D01*
X268887Y218584D01*
X268917Y218605D01*
X268953Y218620D01*
X269033Y218642D01*
X269077Y218649D01*
X269201D01*
X269252Y218635D01*
D02*
G37*
G36*
X302946Y218562D02*
X302997D01*
X303012Y218554D01*
X303019D01*
X303056Y218547D01*
X303063Y218540D01*
X303070D01*
X303092Y218533D01*
X303099Y218525D01*
X304032Y217928D01*
X304069Y217906D01*
X304076Y217898D01*
X304083Y217891D01*
X304098Y217862D01*
X304105Y217855D01*
Y217847D01*
X304113Y217826D01*
Y217804D01*
X304120Y217789D01*
Y217782D01*
Y217723D01*
Y217702D01*
Y217694D01*
Y217643D01*
X304113Y217607D01*
Y217578D01*
Y217570D01*
X304105Y217541D01*
X304098Y217519D01*
X304083Y217512D01*
Y217505D01*
X304062Y217490D01*
X304025D01*
X303996Y217497D01*
X303967Y217512D01*
X303938Y217527D01*
X303930Y217534D01*
X303143Y218000D01*
Y214902D01*
X303996D01*
X304025Y214895D01*
X304032Y214888D01*
X304040D01*
X304069Y214858D01*
X304076Y214851D01*
Y214844D01*
X304091Y214800D01*
X304098Y214778D01*
Y214771D01*
X304105Y214742D01*
Y214713D01*
Y214684D01*
Y214676D01*
Y214632D01*
X304098Y214603D01*
Y214581D01*
Y214574D01*
X304083Y214530D01*
X304076Y214516D01*
Y214509D01*
X304047Y214479D01*
X304040Y214472D01*
X304011Y214465D01*
X301867D01*
X301838Y214472D01*
X301823D01*
X301794Y214494D01*
X301787Y214509D01*
X301772Y214552D01*
X301765Y214567D01*
Y214574D01*
X301758Y214611D01*
X301751Y214640D01*
Y214669D01*
Y214676D01*
Y214713D01*
X301758Y214749D01*
X301765Y214764D01*
Y214771D01*
X301772Y214800D01*
X301780Y214822D01*
X301787Y214837D01*
Y214844D01*
X301809Y214880D01*
X301816Y214888D01*
X301823D01*
X301853Y214902D01*
X302604D01*
Y218474D01*
X302611Y218503D01*
X302618Y218511D01*
X302625Y218525D01*
X302640Y218533D01*
X302647Y218540D01*
X302655D01*
X302677Y218547D01*
X302706Y218554D01*
X302728Y218562D01*
X302735D01*
X302779Y218569D01*
X302924D01*
X302946Y218562D01*
D02*
G37*
G36*
X278182Y217512D02*
X278240Y217505D01*
X278284D01*
X278328Y217497D01*
X278357Y217490D01*
X278379Y217483D01*
X278386D01*
X278503Y217461D01*
X278554Y217446D01*
X278598Y217439D01*
X278634Y217425D01*
X278663Y217417D01*
X278678Y217410D01*
X278685D01*
X278780Y217373D01*
X278853Y217344D01*
X278882Y217330D01*
X278904Y217315D01*
X278918Y217308D01*
X278926D01*
X278991Y217271D01*
X279035Y217242D01*
X279064Y217220D01*
X279071Y217213D01*
X279093Y217184D01*
X279108Y217155D01*
X279122Y217133D01*
Y217126D01*
X279130Y217089D01*
Y217045D01*
Y217016D01*
Y217009D01*
Y217002D01*
Y216972D01*
Y216943D01*
Y216921D01*
Y216914D01*
X279115Y216870D01*
X279108Y216856D01*
Y216849D01*
X279086Y216819D01*
X279079Y216812D01*
X279042Y216805D01*
X279028D01*
X278998Y216812D01*
X278962Y216827D01*
X278933Y216841D01*
X278918Y216849D01*
X278853Y216885D01*
X278787Y216914D01*
X278765Y216929D01*
X278743Y216936D01*
X278729Y216943D01*
X278721D01*
X278634Y216987D01*
X278547Y217016D01*
X278510Y217031D01*
X278481Y217038D01*
X278466Y217045D01*
X278459D01*
X278343Y217075D01*
X278226Y217089D01*
X278182Y217096D01*
X278109D01*
X277985Y217089D01*
X277934Y217082D01*
X277890Y217075D01*
X277861Y217067D01*
X277832Y217060D01*
X277818Y217053D01*
X277810D01*
X277730Y217016D01*
X277664Y216972D01*
X277628Y216936D01*
X277613Y216929D01*
Y216921D01*
X277562Y216856D01*
X277526Y216783D01*
X277511Y216754D01*
X277504Y216732D01*
X277497Y216717D01*
Y216710D01*
X277475Y216615D01*
X277468Y216521D01*
X277460Y216484D01*
Y216455D01*
Y216433D01*
Y216426D01*
Y216207D01*
X277971D01*
X278087Y216200D01*
X278189Y216193D01*
X278277Y216178D01*
X278350Y216171D01*
X278401Y216156D01*
X278437Y216149D01*
X278452D01*
X278547Y216127D01*
X278634Y216098D01*
X278707Y216069D01*
X278773Y216039D01*
X278824Y216018D01*
X278860Y215996D01*
X278889Y215981D01*
X278896Y215974D01*
X278962Y215930D01*
X279013Y215879D01*
X279064Y215828D01*
X279101Y215784D01*
X279137Y215740D01*
X279159Y215704D01*
X279166Y215682D01*
X279173Y215675D01*
X279203Y215609D01*
X279224Y215536D01*
X279246Y215471D01*
X279254Y215405D01*
X279261Y215347D01*
X279268Y215303D01*
Y215274D01*
Y215267D01*
X279261Y215121D01*
X279246Y215062D01*
X279232Y215012D01*
X279224Y214961D01*
X279210Y214931D01*
X279203Y214910D01*
Y214902D01*
X279144Y214793D01*
X279108Y214742D01*
X279079Y214705D01*
X279050Y214669D01*
X279028Y214647D01*
X279013Y214632D01*
X279006Y214625D01*
X278904Y214552D01*
X278802Y214501D01*
X278765Y214487D01*
X278729Y214472D01*
X278707Y214465D01*
X278700D01*
X278561Y214428D01*
X278488Y214421D01*
X278430Y214414D01*
X278372Y214406D01*
X278291D01*
X278197Y214414D01*
X278109Y214421D01*
X278029Y214436D01*
X277956Y214458D01*
X277898Y214479D01*
X277847Y214494D01*
X277818Y214501D01*
X277810Y214509D01*
X277723Y214552D01*
X277650Y214603D01*
X277577Y214654D01*
X277511Y214705D01*
X277468Y214749D01*
X277424Y214786D01*
X277402Y214807D01*
X277395Y214815D01*
Y214530D01*
X277387Y214509D01*
X277380Y214494D01*
X277373Y214479D01*
X277351Y214472D01*
X277329Y214465D01*
X277307Y214458D01*
X277300D01*
X277256Y214450D01*
X277213Y214443D01*
X277118D01*
X277074Y214450D01*
X277052Y214458D01*
X277045D01*
X277008Y214465D01*
X276987Y214472D01*
X276979Y214479D01*
X276972D01*
X276957Y214494D01*
X276943Y214509D01*
Y214523D01*
Y214530D01*
Y216448D01*
Y216542D01*
X276950Y216630D01*
X276965Y216710D01*
X276972Y216776D01*
X276987Y216834D01*
X277001Y216870D01*
X277008Y216900D01*
Y216907D01*
X277030Y216980D01*
X277059Y217045D01*
X277096Y217104D01*
X277125Y217155D01*
X277154Y217191D01*
X277176Y217220D01*
X277191Y217235D01*
X277198Y217242D01*
X277249Y217286D01*
X277307Y217330D01*
X277424Y217395D01*
X277475Y217417D01*
X277511Y217432D01*
X277540Y217446D01*
X277548D01*
X277628Y217468D01*
X277715Y217490D01*
X277803Y217505D01*
X277883Y217512D01*
X277956Y217519D01*
X278065D01*
X278182Y217512D01*
D02*
G37*
G36*
X293046Y217468D02*
X293061D01*
X293097Y217461D01*
X293127Y217454D01*
X293148Y217446D01*
X293156Y217439D01*
X293170Y217425D01*
X293178Y217403D01*
X293185Y217395D01*
Y217388D01*
X293170Y217344D01*
X293156Y217322D01*
Y217315D01*
X292317Y215981D01*
X293199Y214596D01*
X293214Y214567D01*
X293229Y214545D01*
X293236Y214530D01*
Y214523D01*
X293229Y214501D01*
X293221Y214494D01*
X293214Y214479D01*
X293207D01*
X293178Y214472D01*
X293148Y214465D01*
X293127Y214458D01*
X293119D01*
X293068Y214450D01*
X293024Y214443D01*
X292915D01*
X292871Y214450D01*
X292835D01*
X292798Y214458D01*
X292769D01*
X292755Y214465D01*
X292747D01*
X292726Y214472D01*
X292711Y214479D01*
X292696Y214487D01*
X292667Y214516D01*
X292660Y214530D01*
X291982Y215653D01*
X291304Y214530D01*
X291282Y214501D01*
X291275Y214494D01*
Y214487D01*
X291246Y214472D01*
X291238Y214465D01*
X291231D01*
X291202Y214458D01*
X291173D01*
X291144Y214450D01*
X291136D01*
X291085Y214443D01*
X290925D01*
X290874Y214450D01*
X290838Y214458D01*
X290830D01*
X290787Y214465D01*
X290757Y214472D01*
X290743Y214479D01*
X290735D01*
X290721Y214494D01*
X290706Y214509D01*
Y214516D01*
Y214523D01*
X290714Y214545D01*
X290721Y214574D01*
X290728Y214589D01*
X290735Y214596D01*
X291610Y215996D01*
X290779Y217315D01*
X290765Y217344D01*
X290750Y217366D01*
Y217381D01*
Y217388D01*
Y217410D01*
X290757Y217425D01*
X290765Y217439D01*
X290772D01*
X290801Y217454D01*
X290823Y217461D01*
X290852Y217468D01*
X290859D01*
X290910Y217476D01*
X291107D01*
X291136Y217468D01*
X291144D01*
X291180Y217461D01*
X291202Y217454D01*
X291217Y217446D01*
X291224D01*
X291253Y217432D01*
X291260Y217425D01*
X291282Y217403D01*
X291289Y217395D01*
Y217388D01*
X291946Y216331D01*
X292587Y217388D01*
X292609Y217417D01*
X292616Y217425D01*
X292624D01*
X292653Y217446D01*
X292660Y217454D01*
X292667D01*
X292696Y217461D01*
X292718D01*
X292747Y217468D01*
X292755D01*
X292798Y217476D01*
X293017D01*
X293046Y217468D01*
D02*
G37*
G36*
X299651Y216258D02*
X299680Y216244D01*
X299695Y216222D01*
X299702Y216214D01*
X299709Y216193D01*
X299717Y216171D01*
X299724Y216112D01*
Y216069D01*
Y216054D01*
Y216047D01*
X299717Y215974D01*
X299709Y215923D01*
X299702Y215886D01*
Y215879D01*
X299673Y215857D01*
X299644Y215843D01*
X299622Y215835D01*
X298303D01*
X298266Y215843D01*
X298237Y215857D01*
X298222Y215872D01*
X298215Y215879D01*
X298208Y215901D01*
X298200Y215923D01*
X298186Y215981D01*
Y216025D01*
Y216039D01*
Y216047D01*
Y216090D01*
X298193Y216120D01*
X298200Y216142D01*
Y216149D01*
X298208Y216178D01*
X298215Y216200D01*
X298222Y216207D01*
Y216214D01*
X298237Y216236D01*
X298244Y216244D01*
X298251Y216251D01*
X298259D01*
X298288Y216265D01*
X299615D01*
X299651Y216258D01*
D02*
G37*
G36*
X273298Y218554D02*
X273312D01*
X273356Y218547D01*
X273385Y218540D01*
X273400Y218533D01*
X273407Y218525D01*
X273422Y218503D01*
X273429Y218482D01*
Y218467D01*
Y218460D01*
X273422Y218423D01*
X273414Y218387D01*
X273407Y218365D01*
X273400Y218350D01*
X272073Y214560D01*
X272059Y214523D01*
X272051Y214516D01*
Y214509D01*
X272029Y214487D01*
X272022Y214479D01*
X271993Y214472D01*
X271978Y214465D01*
X271935D01*
X271920Y214458D01*
X271913D01*
X271876Y214450D01*
X271818D01*
X271781Y214443D01*
X271636D01*
X271592Y214450D01*
X271548D01*
X271504Y214458D01*
X271475D01*
X271453Y214465D01*
X271446D01*
X271417Y214472D01*
X271395Y214479D01*
X271388Y214494D01*
X271380D01*
X271351Y214530D01*
X271344Y214545D01*
Y214552D01*
X270017Y218343D01*
X270003Y218394D01*
X269988Y218423D01*
Y218445D01*
Y218452D01*
Y218482D01*
X269995Y218503D01*
X270003Y218511D01*
Y218518D01*
X270025Y218533D01*
X270054Y218540D01*
X270076Y218547D01*
X270083D01*
X270127Y218554D01*
X270178Y218562D01*
X270345D01*
X270382Y218554D01*
X270389D01*
X270426Y218547D01*
X270455Y218540D01*
X270469Y218533D01*
X270477D01*
X270506Y218518D01*
X270520Y218511D01*
Y218503D01*
X270528Y218467D01*
X270535Y218452D01*
Y218445D01*
X271672Y215019D01*
X271679D01*
X272853Y218452D01*
X272875Y218489D01*
X272882Y218503D01*
X272889Y218518D01*
X272904Y218525D01*
X272911Y218533D01*
X272919D01*
X272941Y218540D01*
X272970Y218547D01*
X272992Y218554D01*
X272999D01*
X273043Y218562D01*
X273269D01*
X273298Y218554D01*
D02*
G37*
G36*
X255977D02*
X256006Y218547D01*
X256013D01*
X256042Y218540D01*
X256071Y218533D01*
X256086Y218525D01*
X256093D01*
X256122Y218511D01*
X256137Y218503D01*
Y218496D01*
X256144Y218474D01*
Y218467D01*
Y218460D01*
Y215930D01*
X256137Y215792D01*
X256130Y215668D01*
X256115Y215551D01*
X256093Y215456D01*
X256071Y215376D01*
X256057Y215318D01*
X256050Y215281D01*
X256042Y215267D01*
X255999Y215165D01*
X255948Y215070D01*
X255896Y214990D01*
X255845Y214917D01*
X255802Y214866D01*
X255765Y214822D01*
X255743Y214793D01*
X255736Y214786D01*
X255656Y214720D01*
X255576Y214662D01*
X255503Y214611D01*
X255423Y214574D01*
X255357Y214545D01*
X255306Y214516D01*
X255277Y214509D01*
X255262Y214501D01*
X255153Y214472D01*
X255051Y214450D01*
X254949Y214428D01*
X254854Y214421D01*
X254774Y214414D01*
X254708Y214406D01*
X254650D01*
X254511Y214414D01*
X254387Y214421D01*
X254278Y214436D01*
X254183Y214458D01*
X254103Y214479D01*
X254045Y214494D01*
X254008Y214501D01*
X253994Y214509D01*
X253892Y214552D01*
X253790Y214596D01*
X253710Y214647D01*
X253637Y214698D01*
X253578Y214742D01*
X253535Y214778D01*
X253505Y214800D01*
X253498Y214807D01*
X253425Y214888D01*
X253360Y214968D01*
X253309Y215055D01*
X253265Y215135D01*
X253228Y215201D01*
X253206Y215252D01*
X253192Y215288D01*
X253185Y215303D01*
X253148Y215412D01*
X253119Y215529D01*
X253104Y215638D01*
X253090Y215748D01*
X253083Y215835D01*
X253075Y215901D01*
Y215930D01*
Y215952D01*
Y215959D01*
Y215967D01*
Y218460D01*
X253083Y218489D01*
X253090Y218496D01*
X253104Y218511D01*
X253119Y218518D01*
X253134Y218525D01*
X253141D01*
X253163Y218533D01*
X253192Y218540D01*
X253214Y218547D01*
X253221D01*
X253265Y218554D01*
X253301Y218562D01*
X253396D01*
X253440Y218554D01*
X253469Y218547D01*
X253476D01*
X253513Y218540D01*
X253542Y218533D01*
X253556Y218525D01*
X253564D01*
X253593Y218511D01*
X253608Y218503D01*
Y218496D01*
X253615Y218474D01*
Y218467D01*
Y218460D01*
Y215967D01*
Y215872D01*
X253629Y215777D01*
X253637Y215697D01*
X253651Y215624D01*
X253666Y215565D01*
X253673Y215522D01*
X253688Y215493D01*
Y215485D01*
X253717Y215412D01*
X253746Y215347D01*
X253775Y215288D01*
X253812Y215237D01*
X253841Y215201D01*
X253863Y215165D01*
X253877Y215150D01*
X253885Y215143D01*
X253987Y215055D01*
X254081Y214990D01*
X254125Y214968D01*
X254162Y214953D01*
X254183Y214939D01*
X254191D01*
X254337Y214902D01*
X254402Y214888D01*
X254468Y214880D01*
X254526D01*
X254570Y214873D01*
X254613D01*
X254774Y214880D01*
X254847Y214895D01*
X254905Y214910D01*
X254956Y214917D01*
X254993Y214931D01*
X255022Y214939D01*
X255029D01*
X255153Y215004D01*
X255211Y215041D01*
X255255Y215070D01*
X255292Y215099D01*
X255321Y215128D01*
X255335Y215143D01*
X255343Y215150D01*
X255430Y215267D01*
X255488Y215376D01*
X255510Y215427D01*
X255525Y215463D01*
X255539Y215493D01*
Y215500D01*
X255576Y215668D01*
X255590Y215748D01*
X255598Y215828D01*
Y215894D01*
X255605Y215945D01*
Y215981D01*
Y215996D01*
Y218460D01*
X255612Y218489D01*
X255620Y218496D01*
X255649Y218518D01*
X255656Y218525D01*
X255663D01*
X255692Y218533D01*
X255714Y218540D01*
X255743Y218547D01*
X255751D01*
X255795Y218554D01*
X255831Y218562D01*
X255933D01*
X255977Y218554D01*
D02*
G37*
G36*
X289831Y218226D02*
X289839D01*
X289868Y218219D01*
X289890Y218212D01*
X289904Y218204D01*
X289912D01*
X289941Y218183D01*
X289955Y218175D01*
Y218168D01*
X289963Y218146D01*
Y218139D01*
Y218132D01*
Y217461D01*
X290364D01*
X290393Y217454D01*
X290400Y217446D01*
X290407D01*
X290437Y217417D01*
X290444Y217410D01*
Y217403D01*
X290451Y217381D01*
Y217359D01*
X290458Y217344D01*
Y217337D01*
X290466Y217308D01*
Y217279D01*
Y217249D01*
Y217242D01*
X290458Y217169D01*
X290451Y217118D01*
X290444Y217082D01*
Y217075D01*
X290422Y217053D01*
X290393Y217038D01*
X290371Y217031D01*
X289963D01*
Y215369D01*
Y215281D01*
X289955Y215201D01*
X289948Y215128D01*
X289941Y215070D01*
X289934Y215019D01*
X289926Y214975D01*
X289919Y214953D01*
Y214946D01*
X289875Y214822D01*
X289853Y214771D01*
X289831Y214727D01*
X289810Y214691D01*
X289788Y214662D01*
X289780Y214647D01*
X289773Y214640D01*
X289693Y214567D01*
X289605Y214509D01*
X289569Y214487D01*
X289540Y214479D01*
X289525Y214465D01*
X289518D01*
X289394Y214436D01*
X289329Y214428D01*
X289270Y214421D01*
X289219Y214414D01*
X289088D01*
X289037Y214421D01*
X289008Y214428D01*
X288993D01*
X288942Y214436D01*
X288898Y214443D01*
X288869Y214450D01*
X288862D01*
X288818Y214465D01*
X288782Y214472D01*
X288753Y214479D01*
X288745D01*
X288709Y214494D01*
X288687Y214509D01*
X288680Y214523D01*
X288672D01*
X288650Y214545D01*
X288636Y214574D01*
X288629Y214596D01*
Y214603D01*
X288621Y214654D01*
X288614Y214698D01*
Y214735D01*
Y214749D01*
Y214786D01*
Y214822D01*
X288621Y214837D01*
Y214844D01*
X288629Y214888D01*
X288636Y214895D01*
Y214902D01*
X288650Y214924D01*
X288658Y214931D01*
X288680Y214946D01*
X288687D01*
X288731Y214939D01*
X288745Y214931D01*
X288753D01*
X288796Y214910D01*
X288818Y214902D01*
X288825Y214895D01*
X288862Y214888D01*
X288891Y214873D01*
X288920Y214866D01*
X288928D01*
X288971Y214858D01*
X289052D01*
X289132Y214866D01*
X289197Y214880D01*
X289248Y214902D01*
X289292Y214931D01*
X289329Y214961D01*
X289350Y214982D01*
X289358Y214997D01*
X289365Y215004D01*
X289394Y215070D01*
X289409Y215135D01*
X289438Y215281D01*
Y215347D01*
X289445Y215398D01*
Y215434D01*
Y215449D01*
Y217031D01*
X288723D01*
X288687Y217038D01*
X288665Y217053D01*
X288650Y217067D01*
X288643Y217075D01*
X288629Y217126D01*
X288614Y217177D01*
Y217220D01*
Y217235D01*
Y217242D01*
Y217279D01*
Y217315D01*
X288621Y217330D01*
Y217337D01*
X288629Y217366D01*
X288636Y217388D01*
X288643Y217395D01*
Y217403D01*
X288665Y217439D01*
X288672Y217446D01*
X288680D01*
X288709Y217461D01*
X289445D01*
Y218132D01*
X289452Y218161D01*
X289460Y218168D01*
X289489Y218197D01*
X289496Y218204D01*
X289503D01*
X289525Y218212D01*
X289555Y218219D01*
X289576Y218226D01*
X289584D01*
X289620Y218234D01*
X289802D01*
X289831Y218226D01*
D02*
G37*
G36*
X286879Y217512D02*
X286981Y217505D01*
X287083Y217483D01*
X287163Y217468D01*
X287236Y217446D01*
X287287Y217425D01*
X287316Y217417D01*
X287331Y217410D01*
X287419Y217366D01*
X287506Y217315D01*
X287579Y217264D01*
X287637Y217213D01*
X287688Y217169D01*
X287732Y217133D01*
X287754Y217104D01*
X287761Y217096D01*
X287820Y217016D01*
X287878Y216936D01*
X287922Y216849D01*
X287958Y216776D01*
X287994Y216703D01*
X288016Y216652D01*
X288024Y216615D01*
X288031Y216601D01*
X288060Y216491D01*
X288082Y216375D01*
X288096Y216265D01*
X288104Y216163D01*
X288111Y216076D01*
X288118Y216003D01*
Y215959D01*
Y215952D01*
Y215945D01*
X288111Y215806D01*
X288104Y215675D01*
X288089Y215558D01*
X288075Y215463D01*
X288060Y215376D01*
X288045Y215318D01*
X288031Y215281D01*
Y215267D01*
X287994Y215165D01*
X287951Y215070D01*
X287907Y214990D01*
X287863Y214917D01*
X287820Y214866D01*
X287790Y214822D01*
X287768Y214793D01*
X287761Y214786D01*
X287688Y214720D01*
X287615Y214662D01*
X287542Y214611D01*
X287470Y214574D01*
X287411Y214545D01*
X287360Y214516D01*
X287331Y214509D01*
X287316Y214501D01*
X287214Y214472D01*
X287112Y214450D01*
X287010Y214428D01*
X286908Y214421D01*
X286828Y214414D01*
X286762Y214406D01*
X286704D01*
X286558Y214414D01*
X286493D01*
X286434Y214421D01*
X286391Y214428D01*
X286354D01*
X286332Y214436D01*
X286325D01*
X286201Y214458D01*
X286143Y214472D01*
X286099Y214479D01*
X286063Y214487D01*
X286033Y214494D01*
X286019Y214501D01*
X286012D01*
X285917Y214530D01*
X285844Y214552D01*
X285822Y214560D01*
X285800Y214567D01*
X285793Y214574D01*
X285786D01*
X285735Y214603D01*
X285698Y214618D01*
X285683Y214632D01*
X285669Y214654D01*
X285662Y214662D01*
X285647Y214691D01*
X285640Y214705D01*
X285632Y214749D01*
Y214756D01*
Y214764D01*
X285625Y214815D01*
Y214829D01*
Y214837D01*
Y214873D01*
Y214910D01*
X285632Y214924D01*
Y214931D01*
X285640Y214975D01*
X285647Y214982D01*
Y214990D01*
X285662Y215019D01*
X285669Y215026D01*
X285676D01*
X285698Y215041D01*
X285713D01*
X285749Y215033D01*
X285786Y215026D01*
X285815Y215012D01*
X285822Y215004D01*
X285829D01*
X285888Y214982D01*
X285953Y214961D01*
X285997Y214939D01*
X286012Y214931D01*
X286019D01*
X286114Y214902D01*
X286201Y214880D01*
X286238Y214873D01*
X286267Y214866D01*
X286288Y214858D01*
X286296D01*
X286413Y214844D01*
X286529Y214837D01*
X286580Y214829D01*
X286748D01*
X286828Y214837D01*
X286901Y214851D01*
X286966Y214866D01*
X287017Y214873D01*
X287061Y214888D01*
X287083Y214895D01*
X287090D01*
X287207Y214961D01*
X287258Y214990D01*
X287295Y215026D01*
X287331Y215055D01*
X287353Y215077D01*
X287368Y215092D01*
X287375Y215099D01*
X287448Y215208D01*
X287499Y215318D01*
X287513Y215361D01*
X287528Y215398D01*
X287535Y215420D01*
Y215427D01*
X287557Y215573D01*
X287572Y215646D01*
Y215711D01*
X287579Y215770D01*
Y215813D01*
Y215850D01*
Y215857D01*
X285713D01*
X285654Y215864D01*
X285611Y215886D01*
X285581Y215901D01*
X285574Y215908D01*
X285538Y215959D01*
X285516Y216018D01*
X285508Y216061D01*
Y216076D01*
Y216083D01*
Y216178D01*
Y216280D01*
X285523Y216375D01*
X285530Y216462D01*
X285545Y216542D01*
X285560Y216608D01*
X285567Y216652D01*
X285581Y216688D01*
Y216695D01*
X285611Y216783D01*
X285647Y216863D01*
X285683Y216936D01*
X285720Y216994D01*
X285756Y217045D01*
X285786Y217089D01*
X285800Y217111D01*
X285807Y217118D01*
X285866Y217184D01*
X285931Y217242D01*
X285997Y217293D01*
X286055Y217330D01*
X286106Y217366D01*
X286150Y217388D01*
X286187Y217403D01*
X286194Y217410D01*
X286288Y217446D01*
X286383Y217476D01*
X286478Y217490D01*
X286566Y217505D01*
X286646Y217512D01*
X286704Y217519D01*
X286762D01*
X286879Y217512D01*
D02*
G37*
G36*
X295824Y218533D02*
X295868Y218518D01*
X295897Y218496D01*
X295911Y218489D01*
X295948Y218438D01*
X295962Y218379D01*
X295970Y218336D01*
Y218321D01*
Y218314D01*
Y214684D01*
X295962Y214603D01*
X295940Y214552D01*
X295919Y214516D01*
X295911Y214509D01*
X295860Y214487D01*
X295817Y214472D01*
X295787Y214465D01*
X293819D01*
X293783Y214472D01*
X293775D01*
X293746Y214501D01*
X293739Y214509D01*
Y214516D01*
X293717Y214560D01*
X293710Y214574D01*
Y214581D01*
X293703Y214618D01*
Y214647D01*
Y214676D01*
Y214684D01*
Y214727D01*
Y214764D01*
X293710Y214786D01*
Y214793D01*
X293717Y214822D01*
X293724Y214844D01*
X293732Y214851D01*
X293739Y214858D01*
X293761Y214895D01*
X293768Y214902D01*
X293775D01*
X293805Y214917D01*
X295430D01*
Y216375D01*
X294067D01*
X294038Y216382D01*
X294023D01*
X293994Y216404D01*
X293987Y216419D01*
X293980Y216440D01*
X293972Y216462D01*
X293965Y216477D01*
Y216484D01*
X293958Y216521D01*
Y216550D01*
Y216572D01*
Y216579D01*
Y216623D01*
Y216659D01*
X293965Y216681D01*
Y216688D01*
X293972Y216717D01*
X293980Y216739D01*
X293987Y216746D01*
Y216754D01*
X294009Y216790D01*
X294016Y216798D01*
X294023D01*
X294052Y216812D01*
X295430D01*
Y218088D01*
X293834D01*
X293805Y218095D01*
X293790D01*
X293768Y218117D01*
X293761Y218132D01*
X293746Y218183D01*
X293739Y218197D01*
Y218204D01*
X293732Y218241D01*
X293724Y218270D01*
Y218299D01*
Y218307D01*
Y218350D01*
X293732Y218379D01*
X293739Y218401D01*
Y218409D01*
X293746Y218438D01*
X293754Y218460D01*
X293761Y218474D01*
Y218482D01*
X293775Y218518D01*
X293783Y218525D01*
X293790D01*
X293819Y218540D01*
X295773D01*
X295824Y218533D01*
D02*
G37*
G36*
X248884Y218533D02*
X248927Y218518D01*
X248956Y218496D01*
X248971Y218489D01*
X249008Y218438D01*
X249022Y218379D01*
X249029Y218336D01*
Y218321D01*
Y218314D01*
Y214684D01*
X249022Y214603D01*
X249000Y214552D01*
X248978Y214516D01*
X248971Y214509D01*
X248920Y214487D01*
X248876Y214472D01*
X248847Y214465D01*
X247681D01*
X247608Y214472D01*
X247535D01*
X247477Y214479D01*
X247426Y214487D01*
X247389D01*
X247367Y214494D01*
X247360D01*
X247229Y214523D01*
X247170Y214545D01*
X247127Y214560D01*
X247083Y214574D01*
X247054Y214589D01*
X247032Y214596D01*
X247025D01*
X246915Y214647D01*
X246864Y214676D01*
X246820Y214698D01*
X246791Y214720D01*
X246762Y214742D01*
X246748Y214749D01*
X246740Y214756D01*
X246653Y214829D01*
X246587Y214902D01*
X246565Y214939D01*
X246544Y214961D01*
X246536Y214975D01*
X246529Y214982D01*
X246471Y215084D01*
X246427Y215179D01*
X246412Y215216D01*
X246398Y215245D01*
X246390Y215267D01*
Y215274D01*
X246361Y215398D01*
X246354Y215456D01*
X246347Y215514D01*
X246339Y215558D01*
Y215595D01*
Y215624D01*
Y215631D01*
X246347Y215777D01*
X246361Y215835D01*
X246369Y215894D01*
X246383Y215937D01*
X246398Y215974D01*
X246405Y215996D01*
Y216003D01*
X246463Y216127D01*
X246492Y216178D01*
X246514Y216222D01*
X246544Y216258D01*
X246558Y216287D01*
X246573Y216302D01*
X246580Y216309D01*
X246660Y216397D01*
X246740Y216462D01*
X246777Y216491D01*
X246806Y216506D01*
X246820Y216521D01*
X246828D01*
X246937Y216579D01*
X247039Y216615D01*
X247083Y216623D01*
X247112Y216630D01*
X247134Y216637D01*
X247141D01*
X247046Y216688D01*
X246974Y216732D01*
X246944Y216754D01*
X246923Y216768D01*
X246915Y216783D01*
X246908D01*
X246835Y216849D01*
X246784Y216914D01*
X246755Y216965D01*
X246740Y216972D01*
Y216980D01*
X246689Y217067D01*
X246660Y217147D01*
X246645Y217177D01*
X246638Y217206D01*
X246631Y217220D01*
Y217228D01*
X246609Y217330D01*
X246602Y217417D01*
X246595Y217454D01*
Y217483D01*
Y217497D01*
Y217505D01*
Y217592D01*
X246609Y217672D01*
X246616Y217745D01*
X246631Y217811D01*
X246645Y217862D01*
X246660Y217898D01*
X246667Y217928D01*
X246675Y217935D01*
X246711Y218008D01*
X246748Y218066D01*
X246784Y218124D01*
X246828Y218175D01*
X246857Y218212D01*
X246886Y218241D01*
X246908Y218256D01*
X246915Y218263D01*
X246974Y218307D01*
X247039Y218350D01*
X247163Y218416D01*
X247221Y218438D01*
X247265Y218452D01*
X247294Y218467D01*
X247302D01*
X247396Y218489D01*
X247491Y218511D01*
X247593Y218525D01*
X247688Y218533D01*
X247768Y218540D01*
X248833D01*
X248884Y218533D01*
D02*
G37*
G36*
X307313Y218533D02*
X307357Y218511D01*
X307386Y218489D01*
X307400Y218482D01*
X307437Y218430D01*
X307459Y218372D01*
X307466Y218328D01*
Y218314D01*
Y218307D01*
Y214538D01*
X307459Y214509D01*
Y214501D01*
Y214494D01*
X307430Y214479D01*
X307422Y214472D01*
X307415D01*
X307357Y214465D01*
X307335Y214458D01*
X307328D01*
X307284Y214450D01*
X307240Y214443D01*
X307145D01*
X307109Y214450D01*
X307080Y214458D01*
X307072D01*
X307036Y214465D01*
X307014D01*
X306999Y214472D01*
X306992D01*
X306970Y214479D01*
X306956Y214487D01*
X306941Y214494D01*
X306926Y214523D01*
Y214538D01*
Y216010D01*
X306467D01*
X306329Y216018D01*
X306205Y216025D01*
X306096Y216039D01*
X306001Y216054D01*
X305921Y216069D01*
X305870Y216083D01*
X305833Y216098D01*
X305819D01*
X305716Y216134D01*
X305629Y216178D01*
X305549Y216222D01*
X305483Y216265D01*
X305425Y216309D01*
X305388Y216338D01*
X305359Y216360D01*
X305352Y216368D01*
X305286Y216433D01*
X305228Y216506D01*
X305177Y216579D01*
X305133Y216645D01*
X305104Y216703D01*
X305082Y216746D01*
X305068Y216783D01*
X305060Y216790D01*
X305024Y216885D01*
X305002Y216980D01*
X304980Y217075D01*
X304973Y217162D01*
X304965Y217235D01*
X304958Y217293D01*
Y217330D01*
Y217344D01*
X304965Y217505D01*
X304980Y217578D01*
X304987Y217636D01*
X305002Y217687D01*
X305017Y217723D01*
X305024Y217753D01*
Y217760D01*
X305082Y217891D01*
X305111Y217949D01*
X305140Y218000D01*
X305170Y218037D01*
X305191Y218073D01*
X305206Y218088D01*
X305213Y218095D01*
X305308Y218197D01*
X305403Y218277D01*
X305447Y218307D01*
X305476Y218328D01*
X305498Y218336D01*
X305505Y218343D01*
X305629Y218409D01*
X305687Y218430D01*
X305738Y218445D01*
X305775Y218460D01*
X305811Y218467D01*
X305833Y218474D01*
X305840D01*
X305957Y218496D01*
X306008Y218503D01*
X306052Y218511D01*
X306081Y218518D01*
X306110Y218525D01*
X306132D01*
X306219Y218533D01*
X306300Y218540D01*
X307255D01*
X307313Y218533D01*
D02*
G37*
G36*
X283547Y217512D02*
X283606Y217505D01*
X283650Y217497D01*
X283657Y217490D01*
X283664D01*
X283730Y217468D01*
X283788Y217439D01*
X283832Y217410D01*
X283839Y217403D01*
X283846D01*
X283912Y217352D01*
X283970Y217301D01*
X284021Y217257D01*
X284029Y217242D01*
X284036Y217235D01*
X284116Y217147D01*
X284182Y217060D01*
X284211Y217016D01*
X284233Y216987D01*
X284247Y216965D01*
X284255Y216958D01*
Y217373D01*
X284262Y217410D01*
X284269Y217417D01*
X284277Y217432D01*
X284291Y217439D01*
X284298Y217446D01*
X284306D01*
X284328Y217454D01*
X284349Y217461D01*
X284371Y217468D01*
X284379D01*
X284415Y217476D01*
X284575D01*
X284597Y217468D01*
X284605D01*
X284634Y217461D01*
X284656Y217454D01*
X284670Y217446D01*
X284678D01*
X284692Y217439D01*
X284707Y217425D01*
X284714Y217417D01*
X284721Y217388D01*
Y217381D01*
Y217373D01*
Y214538D01*
X284714Y214509D01*
Y214494D01*
X284685Y214472D01*
X284678Y214465D01*
X284670D01*
X284619Y214458D01*
X284605Y214450D01*
X284597D01*
X284554Y214443D01*
X284415D01*
X284371Y214450D01*
X284342D01*
X284306Y214458D01*
X284284D01*
X284269Y214465D01*
X284262D01*
X284226Y214487D01*
X284218Y214494D01*
X284204Y214523D01*
Y214530D01*
Y214538D01*
Y216404D01*
X284123Y216521D01*
X284094Y216572D01*
X284065Y216615D01*
X284043Y216652D01*
X284021Y216674D01*
X284014Y216688D01*
X284007Y216695D01*
X283941Y216776D01*
X283883Y216841D01*
X283846Y216878D01*
X283832Y216892D01*
X283766Y216936D01*
X283715Y216972D01*
X283686Y216987D01*
X283671Y216994D01*
X283613Y217016D01*
X283569Y217024D01*
X283533Y217031D01*
X283475D01*
X283431Y217024D01*
X283402Y217016D01*
X283394D01*
X283351Y217009D01*
X283321Y216994D01*
X283300Y216987D01*
X283292D01*
X283263Y216980D01*
X283234Y216965D01*
X283220Y216958D01*
X283212D01*
X283168Y216943D01*
X283147D01*
X283117Y216951D01*
X283110Y216958D01*
X283096Y216987D01*
X283088Y216994D01*
Y217002D01*
X283074Y217053D01*
Y217067D01*
Y217075D01*
X283066Y217111D01*
Y217147D01*
Y217177D01*
Y217191D01*
Y217242D01*
Y217271D01*
X283074Y217293D01*
Y217301D01*
Y217330D01*
Y217352D01*
X283081Y217359D01*
Y217366D01*
Y217395D01*
X283088Y217403D01*
X283103Y217425D01*
X283110Y217432D01*
X283117D01*
X283132Y217446D01*
X283154Y217454D01*
X283176Y217461D01*
X283183D01*
X283220Y217476D01*
X283249Y217483D01*
X283278Y217490D01*
X283285D01*
X283321Y217497D01*
X283358Y217505D01*
X283380Y217512D01*
X283387D01*
X283424Y217519D01*
X283482D01*
X283547Y217512D01*
D02*
G37*
G36*
X281135Y217512D02*
X281222Y217497D01*
X281302Y217476D01*
X281375Y217454D01*
X281441Y217432D01*
X281484Y217410D01*
X281514Y217395D01*
X281528Y217388D01*
X281616Y217337D01*
X281703Y217279D01*
X281783Y217213D01*
X281849Y217147D01*
X281915Y217089D01*
X281958Y217045D01*
X281987Y217016D01*
X282002Y217002D01*
Y217373D01*
X282009Y217410D01*
X282017Y217417D01*
X282024Y217432D01*
X282038Y217439D01*
X282046Y217446D01*
X282053D01*
X282075Y217454D01*
X282097Y217461D01*
X282119Y217468D01*
X282126D01*
X282162Y217476D01*
X282323D01*
X282345Y217468D01*
X282352D01*
X282381Y217461D01*
X282403Y217454D01*
X282418Y217446D01*
X282425D01*
X282439Y217439D01*
X282454Y217425D01*
X282461Y217417D01*
X282469Y217388D01*
Y217381D01*
Y217373D01*
Y214538D01*
X282461Y214509D01*
Y214494D01*
X282432Y214472D01*
X282425Y214465D01*
X282418D01*
X282366Y214458D01*
X282352Y214450D01*
X282345D01*
X282301Y214443D01*
X282162D01*
X282119Y214450D01*
X282089D01*
X282053Y214458D01*
X282031D01*
X282017Y214465D01*
X282009D01*
X281973Y214487D01*
X281966Y214494D01*
X281951Y214523D01*
Y214530D01*
Y214538D01*
Y216521D01*
X281871Y216615D01*
X281798Y216695D01*
X281732Y216761D01*
X281667Y216819D01*
X281616Y216863D01*
X281579Y216900D01*
X281550Y216914D01*
X281543Y216921D01*
X281470Y216972D01*
X281397Y217009D01*
X281331Y217031D01*
X281273Y217053D01*
X281222Y217060D01*
X281186Y217067D01*
X281149D01*
X281047Y217060D01*
X280960Y217038D01*
X280930Y217031D01*
X280908Y217016D01*
X280894Y217009D01*
X280887D01*
X280806Y216958D01*
X280748Y216907D01*
X280712Y216863D01*
X280697Y216849D01*
Y216841D01*
X280646Y216761D01*
X280617Y216674D01*
X280602Y216637D01*
X280595Y216615D01*
X280588Y216593D01*
Y216586D01*
X280573Y216528D01*
X280559Y216462D01*
X280551Y216338D01*
X280544Y216287D01*
Y216244D01*
Y216207D01*
Y216200D01*
Y214538D01*
X280537Y214509D01*
Y214494D01*
X280508Y214472D01*
X280500Y214465D01*
X280493D01*
X280442Y214458D01*
X280427Y214450D01*
X280420D01*
X280376Y214443D01*
X280238D01*
X280194Y214450D01*
X280165D01*
X280129Y214458D01*
X280107D01*
X280092Y214465D01*
X280085D01*
X280048Y214487D01*
X280041Y214494D01*
X280026Y214523D01*
Y214530D01*
Y214538D01*
Y216265D01*
Y216375D01*
X280034Y216477D01*
X280041Y216564D01*
X280056Y216637D01*
X280063Y216703D01*
X280078Y216746D01*
X280085Y216776D01*
Y216783D01*
X280107Y216863D01*
X280136Y216936D01*
X280165Y217002D01*
X280194Y217053D01*
X280216Y217096D01*
X280238Y217133D01*
X280252Y217155D01*
X280260Y217162D01*
X280304Y217220D01*
X280354Y217271D01*
X280413Y217315D01*
X280457Y217352D01*
X280508Y217381D01*
X280537Y217403D01*
X280566Y217410D01*
X280573Y217417D01*
X280646Y217454D01*
X280726Y217476D01*
X280806Y217497D01*
X280879Y217505D01*
X280945Y217512D01*
X280996Y217519D01*
X281047D01*
X281135Y217512D01*
D02*
G37*
G36*
X275857Y218846D02*
X275864D01*
X275893Y218839D01*
X275915Y218831D01*
X275929Y218824D01*
X275937D01*
X275966Y218802D01*
X275980Y218795D01*
Y218788D01*
X275988Y218766D01*
Y218759D01*
Y218751D01*
Y214538D01*
X275980Y214509D01*
Y214494D01*
X275951Y214472D01*
X275944Y214465D01*
X275937D01*
X275886Y214458D01*
X275871Y214450D01*
X275864D01*
X275820Y214443D01*
X275682D01*
X275638Y214450D01*
X275609D01*
X275572Y214458D01*
X275550D01*
X275536Y214465D01*
X275529D01*
X275492Y214487D01*
X275485Y214494D01*
X275470Y214523D01*
Y214530D01*
Y214538D01*
Y218751D01*
X275478Y218780D01*
X275485Y218788D01*
X275514Y218817D01*
X275521Y218824D01*
X275529D01*
X275550Y218831D01*
X275580Y218839D01*
X275601Y218846D01*
X275609D01*
X275645Y218853D01*
X275827D01*
X275857Y218846D01*
D02*
G37*
G36*
X269259Y217468D02*
X269266D01*
X269296Y217461D01*
X269317Y217454D01*
X269332Y217446D01*
X269339D01*
X269369Y217425D01*
X269383Y217417D01*
Y217410D01*
X269390Y217388D01*
Y217381D01*
Y217373D01*
Y214538D01*
X269383Y214509D01*
Y214494D01*
X269354Y214472D01*
X269347Y214465D01*
X269339D01*
X269288Y214458D01*
X269274Y214450D01*
X269266D01*
X269223Y214443D01*
X269084D01*
X269040Y214450D01*
X269011D01*
X268975Y214458D01*
X268953D01*
X268938Y214465D01*
X268931D01*
X268895Y214487D01*
X268887Y214494D01*
X268873Y214523D01*
Y214530D01*
Y214538D01*
Y217373D01*
X268880Y217403D01*
X268887Y217410D01*
X268917Y217439D01*
X268924Y217446D01*
X268931D01*
X268953Y217454D01*
X268982Y217461D01*
X269004Y217468D01*
X269011D01*
X269048Y217476D01*
X269230D01*
X269259Y217468D01*
D02*
G37*
G36*
X266576Y217512D02*
X266664Y217497D01*
X266744Y217476D01*
X266817Y217454D01*
X266883Y217432D01*
X266926Y217410D01*
X266955Y217395D01*
X266970Y217388D01*
X267057Y217337D01*
X267145Y217279D01*
X267225Y217213D01*
X267291Y217147D01*
X267356Y217089D01*
X267400Y217045D01*
X267429Y217016D01*
X267444Y217002D01*
Y217373D01*
X267451Y217410D01*
X267459Y217417D01*
X267466Y217432D01*
X267480Y217439D01*
X267488Y217446D01*
X267495D01*
X267517Y217454D01*
X267539Y217461D01*
X267561Y217468D01*
X267568D01*
X267604Y217476D01*
X267765D01*
X267787Y217468D01*
X267794D01*
X267823Y217461D01*
X267845Y217454D01*
X267859Y217446D01*
X267867D01*
X267881Y217439D01*
X267896Y217425D01*
X267903Y217417D01*
X267911Y217388D01*
Y217381D01*
Y217373D01*
Y214538D01*
X267903Y214509D01*
Y214494D01*
X267874Y214472D01*
X267867Y214465D01*
X267859D01*
X267808Y214458D01*
X267794Y214450D01*
X267787D01*
X267743Y214443D01*
X267604D01*
X267561Y214450D01*
X267531D01*
X267495Y214458D01*
X267473D01*
X267459Y214465D01*
X267451D01*
X267415Y214487D01*
X267407Y214494D01*
X267393Y214523D01*
Y214530D01*
Y214538D01*
Y216521D01*
X267313Y216615D01*
X267240Y216695D01*
X267174Y216761D01*
X267109Y216819D01*
X267057Y216863D01*
X267021Y216900D01*
X266992Y216914D01*
X266985Y216921D01*
X266912Y216972D01*
X266839Y217009D01*
X266773Y217031D01*
X266715Y217053D01*
X266664Y217060D01*
X266627Y217067D01*
X266591D01*
X266489Y217060D01*
X266401Y217038D01*
X266372Y217031D01*
X266350Y217016D01*
X266336Y217009D01*
X266329D01*
X266248Y216958D01*
X266190Y216907D01*
X266154Y216863D01*
X266139Y216849D01*
Y216841D01*
X266088Y216761D01*
X266059Y216674D01*
X266044Y216637D01*
X266037Y216615D01*
X266030Y216593D01*
Y216586D01*
X266015Y216528D01*
X266001Y216462D01*
X265993Y216338D01*
X265986Y216287D01*
Y216244D01*
Y216207D01*
Y216200D01*
Y214538D01*
X265979Y214509D01*
Y214494D01*
X265949Y214472D01*
X265942Y214465D01*
X265935D01*
X265884Y214458D01*
X265869Y214450D01*
X265862D01*
X265818Y214443D01*
X265680D01*
X265636Y214450D01*
X265607D01*
X265570Y214458D01*
X265548D01*
X265534Y214465D01*
X265527D01*
X265490Y214487D01*
X265483Y214494D01*
X265468Y214523D01*
Y214530D01*
Y214538D01*
Y216265D01*
Y216375D01*
X265476Y216477D01*
X265483Y216564D01*
X265497Y216637D01*
X265505Y216703D01*
X265519Y216746D01*
X265527Y216776D01*
Y216783D01*
X265548Y216863D01*
X265578Y216936D01*
X265607Y217002D01*
X265636Y217053D01*
X265658Y217096D01*
X265680Y217133D01*
X265694Y217155D01*
X265702Y217162D01*
X265745Y217220D01*
X265796Y217271D01*
X265855Y217315D01*
X265898Y217352D01*
X265949Y217381D01*
X265979Y217403D01*
X266008Y217410D01*
X266015Y217417D01*
X266088Y217454D01*
X266168Y217476D01*
X266248Y217497D01*
X266321Y217505D01*
X266387Y217512D01*
X266438Y217519D01*
X266489D01*
X266576Y217512D01*
D02*
G37*
G36*
X308931Y218554D02*
X308939D01*
X308975Y218547D01*
X309004Y218540D01*
X309019Y218533D01*
X309026D01*
X309055Y218511D01*
X309070Y218503D01*
Y218496D01*
X309077Y218474D01*
Y218467D01*
Y218460D01*
Y215544D01*
Y215471D01*
X309084Y215405D01*
Y215347D01*
X309092Y215303D01*
X309099Y215259D01*
Y215230D01*
X309106Y215216D01*
Y215208D01*
X309128Y215128D01*
X309150Y215063D01*
X309172Y215026D01*
X309179Y215012D01*
X309223Y214968D01*
X309267Y214931D01*
X309296Y214917D01*
X309303Y214910D01*
X309310D01*
X309369Y214895D01*
X309427Y214888D01*
X309493D01*
X309558Y214895D01*
X309609Y214902D01*
X309646Y214910D01*
X309660D01*
X309711Y214924D01*
X309755Y214946D01*
X309784Y214953D01*
X309791Y214961D01*
X309828Y214982D01*
X309857Y214997D01*
X309879Y215012D01*
X309886D01*
X309908Y215026D01*
X309930Y215041D01*
X309952D01*
X309981Y215033D01*
X309988Y215026D01*
X309996D01*
X310017Y214997D01*
X310025Y214990D01*
Y214982D01*
X310032Y214961D01*
Y214939D01*
X310039Y214924D01*
Y214917D01*
Y214880D01*
Y214844D01*
Y214815D01*
Y214800D01*
Y214756D01*
Y214727D01*
Y214705D01*
Y214698D01*
X310032Y214654D01*
Y214640D01*
Y214632D01*
X310017Y214603D01*
X310010Y214596D01*
Y214589D01*
X309988Y214567D01*
X309981Y214560D01*
Y214552D01*
X309966Y214538D01*
X309945Y214523D01*
X309923Y214516D01*
X309915Y214509D01*
X309872Y214487D01*
X309828Y214472D01*
X309799Y214465D01*
X309784Y214458D01*
X309726Y214443D01*
X309675Y214428D01*
X309638Y214421D01*
X309624D01*
X309558Y214414D01*
X309500Y214406D01*
X309354D01*
X309274Y214421D01*
X309201Y214428D01*
X309135Y214443D01*
X309084Y214458D01*
X309048Y214465D01*
X309026Y214479D01*
X309019D01*
X308953Y214509D01*
X308902Y214545D01*
X308851Y214581D01*
X308815Y214618D01*
X308786Y214647D01*
X308764Y214676D01*
X308749Y214691D01*
X308742Y214698D01*
X308669Y214815D01*
X308625Y214924D01*
X308611Y214968D01*
X308596Y215012D01*
X308589Y215033D01*
Y215041D01*
X308559Y215194D01*
X308552Y215274D01*
X308545Y215340D01*
X308538Y215398D01*
Y215442D01*
Y215478D01*
Y215485D01*
Y218460D01*
X308545Y218489D01*
X308552Y218496D01*
X308567Y218511D01*
X308581Y218525D01*
X308596Y218533D01*
X308603D01*
X308625Y218540D01*
X308654Y218547D01*
X308676Y218554D01*
X308683D01*
X308727Y218562D01*
X308902D01*
X308931Y218554D01*
D02*
G37*
G36*
X251165Y218584D02*
X251245Y218576D01*
X251318Y218562D01*
X251384Y218547D01*
X251428Y218540D01*
X251464Y218525D01*
X251471D01*
X251552Y218496D01*
X251625Y218460D01*
X251697Y218423D01*
X251756Y218394D01*
X251800Y218365D01*
X251836Y218336D01*
X251858Y218321D01*
X251865Y218314D01*
X251975Y218204D01*
X252018Y218154D01*
X252055Y218095D01*
X252084Y218051D01*
X252106Y218015D01*
X252113Y217986D01*
X252120Y217979D01*
X252150Y217906D01*
X252171Y217826D01*
X252186Y217753D01*
X252193Y217680D01*
X252201Y217621D01*
X252208Y217570D01*
Y217541D01*
Y217527D01*
X252201Y217439D01*
X252193Y217352D01*
X252179Y217279D01*
X252164Y217220D01*
X252150Y217169D01*
X252142Y217126D01*
X252128Y217104D01*
Y217096D01*
X252062Y216972D01*
X252026Y216921D01*
X251996Y216878D01*
X251967Y216841D01*
X251945Y216812D01*
X251931Y216798D01*
X251923Y216790D01*
X251821Y216695D01*
X251727Y216623D01*
X251690Y216593D01*
X251661Y216579D01*
X251639Y216564D01*
X251632Y216557D01*
X251508Y216491D01*
X251450Y216462D01*
X251399Y216433D01*
X251355Y216411D01*
X251326Y216397D01*
X251304Y216389D01*
X251296Y216382D01*
X251165Y216324D01*
X251114Y216295D01*
X251056Y216273D01*
X251020Y216251D01*
X250983Y216236D01*
X250961Y216229D01*
X250954Y216222D01*
X250837Y216163D01*
X250786Y216134D01*
X250743Y216112D01*
X250713Y216090D01*
X250684Y216069D01*
X250670Y216061D01*
X250662Y216054D01*
X250575Y215981D01*
X250509Y215915D01*
X250480Y215886D01*
X250465Y215864D01*
X250451Y215850D01*
Y215843D01*
X250422Y215792D01*
X250407Y215740D01*
X250378Y215646D01*
Y215609D01*
X250371Y215573D01*
Y215551D01*
Y215544D01*
X250378Y215434D01*
X250385Y215383D01*
X250400Y215340D01*
X250407Y215310D01*
X250422Y215281D01*
X250429Y215267D01*
Y215259D01*
X250480Y215172D01*
X250531Y215106D01*
X250575Y215062D01*
X250589Y215055D01*
X250597Y215048D01*
X250677Y214990D01*
X250757Y214953D01*
X250794Y214939D01*
X250823Y214924D01*
X250837Y214917D01*
X250845D01*
X250954Y214895D01*
X251056Y214880D01*
X251100Y214873D01*
X251253D01*
X251326Y214880D01*
X251399Y214888D01*
X251457Y214902D01*
X251508Y214910D01*
X251552Y214917D01*
X251574Y214924D01*
X251581D01*
X251705Y214968D01*
X251756Y214990D01*
X251800Y215004D01*
X251836Y215019D01*
X251865Y215033D01*
X251880Y215041D01*
X251887D01*
X251975Y215084D01*
X252033Y215121D01*
X252077Y215150D01*
X252084Y215157D01*
X252091D01*
X252142Y215194D01*
X252186Y215208D01*
X252208Y215216D01*
X252215D01*
X252244Y215208D01*
X252252Y215201D01*
X252259D01*
X252281Y215172D01*
X252288Y215165D01*
Y215157D01*
X252295Y215135D01*
X252303Y215114D01*
X252310Y215092D01*
Y215084D01*
Y215048D01*
Y215012D01*
Y214990D01*
Y214975D01*
Y214910D01*
X252303Y214858D01*
X252295Y214829D01*
Y214815D01*
X252281Y214778D01*
X252266Y214749D01*
X252252Y214727D01*
X252244Y214720D01*
X252208Y214691D01*
X252164Y214662D01*
X252128Y214632D01*
X252120Y214625D01*
X252113D01*
X252040Y214589D01*
X251967Y214552D01*
X251931Y214545D01*
X251909Y214530D01*
X251894Y214523D01*
X251887D01*
X251778Y214487D01*
X251676Y214465D01*
X251639Y214458D01*
X251603Y214450D01*
X251581Y214443D01*
X251574D01*
X251442Y214421D01*
X251377Y214414D01*
X251318D01*
X251267Y214406D01*
X251085D01*
X250983Y214421D01*
X250888Y214428D01*
X250808Y214443D01*
X250743Y214458D01*
X250692Y214465D01*
X250662Y214479D01*
X250648D01*
X250553Y214516D01*
X250473Y214552D01*
X250393Y214589D01*
X250327Y214625D01*
X250276Y214662D01*
X250239Y214691D01*
X250210Y214705D01*
X250203Y214713D01*
X250137Y214778D01*
X250079Y214837D01*
X250028Y214902D01*
X249984Y214961D01*
X249955Y215012D01*
X249933Y215055D01*
X249919Y215084D01*
X249911Y215092D01*
X249875Y215179D01*
X249846Y215267D01*
X249831Y215354D01*
X249817Y215434D01*
X249809Y215500D01*
X249802Y215551D01*
Y215587D01*
Y215602D01*
Y215689D01*
X249817Y215770D01*
X249824Y215843D01*
X249838Y215908D01*
X249853Y215959D01*
X249868Y215996D01*
X249875Y216018D01*
X249882Y216025D01*
X249948Y216149D01*
X249984Y216200D01*
X250021Y216244D01*
X250050Y216280D01*
X250072Y216309D01*
X250086Y216324D01*
X250094Y216331D01*
X250196Y216419D01*
X250290Y216491D01*
X250334Y216521D01*
X250363Y216542D01*
X250385Y216550D01*
X250393Y216557D01*
X250517Y216630D01*
X250575Y216659D01*
X250626Y216688D01*
X250670Y216710D01*
X250706Y216725D01*
X250728Y216739D01*
X250735D01*
X250859Y216798D01*
X250918Y216827D01*
X250969Y216849D01*
X251005Y216863D01*
X251041Y216878D01*
X251063Y216892D01*
X251071D01*
X251187Y216951D01*
X251238Y216980D01*
X251282Y217009D01*
X251318Y217031D01*
X251348Y217053D01*
X251362Y217060D01*
X251370Y217067D01*
X251457Y217140D01*
X251522Y217213D01*
X251552Y217242D01*
X251566Y217264D01*
X251574Y217279D01*
X251581Y217286D01*
X251625Y217381D01*
X251646Y217476D01*
Y217519D01*
X251654Y217548D01*
Y217570D01*
Y217578D01*
X251646Y217658D01*
X251632Y217731D01*
Y217760D01*
X251625Y217782D01*
X251617Y217789D01*
Y217796D01*
X251581Y217869D01*
X251537Y217920D01*
X251508Y217957D01*
X251493Y217971D01*
X251428Y218022D01*
X251362Y218066D01*
X251333Y218081D01*
X251311Y218088D01*
X251296Y218095D01*
X251289D01*
X251187Y218124D01*
X251092Y218139D01*
X251049Y218146D01*
X250990D01*
X250859Y218139D01*
X250808Y218132D01*
X250757Y218124D01*
X250721Y218110D01*
X250684Y218103D01*
X250670Y218095D01*
X250662D01*
X250560Y218059D01*
X250480Y218030D01*
X250451Y218015D01*
X250429Y218000D01*
X250422Y217993D01*
X250414D01*
X250342Y217957D01*
X250283Y217928D01*
X250247Y217906D01*
X250232Y217898D01*
X250181Y217877D01*
X250152Y217862D01*
X250130Y217855D01*
X250123D01*
X250094Y217862D01*
X250086D01*
X250064Y217891D01*
X250057Y217898D01*
Y217906D01*
X250050Y217957D01*
X250043Y217979D01*
Y217986D01*
X250035Y218022D01*
Y218051D01*
Y218081D01*
Y218088D01*
Y218124D01*
Y218161D01*
X250043Y218175D01*
Y218183D01*
Y218226D01*
X250050Y218241D01*
Y218248D01*
X250064Y218285D01*
X250072Y218292D01*
X250079Y218307D01*
X250094Y218328D01*
X250101Y218336D01*
X250108Y218343D01*
X250137Y218365D01*
X250181Y218394D01*
X250218Y218409D01*
X250225Y218416D01*
X250232D01*
X250305Y218452D01*
X250378Y218482D01*
X250407Y218489D01*
X250429Y218496D01*
X250444Y218503D01*
X250451D01*
X250538Y218533D01*
X250619Y218554D01*
X250655Y218562D01*
X250684D01*
X250699Y218569D01*
X250706D01*
X250801Y218584D01*
X250888Y218598D01*
X251071D01*
X251165Y218584D01*
D02*
G37*
G36*
X261452Y219087D02*
X261459D01*
X261488Y219079D01*
X261517Y219072D01*
X261532Y219065D01*
X261539D01*
X261576Y219043D01*
X261583Y219036D01*
X261590Y219028D01*
X261597Y219006D01*
X261612Y218985D01*
X261619Y218970D01*
Y218963D01*
X263522Y213750D01*
X263537Y213721D01*
Y213699D01*
Y213685D01*
Y213677D01*
X263522Y213648D01*
X263507Y213634D01*
X263485Y213619D01*
X263456Y213604D01*
X263434Y213597D01*
X263427D01*
X263383Y213590D01*
X263332Y213583D01*
X263245D01*
X263208Y213590D01*
X263179D01*
X263150Y213597D01*
X263128Y213604D01*
X263114Y213612D01*
X263106D01*
X263085Y213626D01*
X263070Y213634D01*
X263055Y213648D01*
X263041Y213670D01*
X263026Y213692D01*
X263019Y213707D01*
Y213714D01*
X261109Y218926D01*
X261102Y218955D01*
Y218977D01*
Y218992D01*
Y218999D01*
X261109Y219021D01*
X261123Y219036D01*
X261131Y219043D01*
X261138D01*
X261160Y219057D01*
X261189Y219072D01*
X261211Y219079D01*
X261218D01*
X261262Y219087D01*
X261298Y219094D01*
X261430D01*
X261452Y219087D01*
D02*
G37*
G36*
X303267Y208748D02*
X303325Y208741D01*
X303376Y208734D01*
X303420Y208727D01*
X303456Y208719D01*
X303478Y208712D01*
X303486D01*
X303602Y208683D01*
X303661Y208668D01*
X303704Y208654D01*
X303741Y208639D01*
X303770Y208625D01*
X303792Y208617D01*
X303799D01*
X303894Y208581D01*
X303967Y208544D01*
X303996Y208530D01*
X304018Y208515D01*
X304025Y208508D01*
X304032D01*
X304091Y208471D01*
X304134Y208442D01*
X304156Y208420D01*
X304164Y208413D01*
X304186Y208391D01*
X304200Y208377D01*
X304215Y208369D01*
Y208362D01*
X304229Y208326D01*
X304237Y208318D01*
Y208311D01*
X304244Y208275D01*
Y208260D01*
Y208253D01*
Y208202D01*
Y208180D01*
Y208172D01*
Y208129D01*
Y208092D01*
Y208063D01*
Y208056D01*
X304237Y208027D01*
Y208005D01*
X304229Y207990D01*
Y207983D01*
X304207Y207954D01*
X304200Y207939D01*
X304171Y207932D01*
X304156D01*
X304120Y207939D01*
X304076Y207961D01*
X304047Y207976D01*
X304032Y207983D01*
X303967Y208019D01*
X303901Y208063D01*
X303879Y208078D01*
X303857Y208092D01*
X303843Y208100D01*
X303836D01*
X303741Y208143D01*
X303653Y208180D01*
X303617Y208194D01*
X303588Y208209D01*
X303566Y208216D01*
X303559D01*
X303435Y208253D01*
X303376Y208260D01*
X303318Y208267D01*
X303274Y208275D01*
X303201D01*
X303085Y208267D01*
X303034Y208260D01*
X302990Y208245D01*
X302954Y208238D01*
X302924Y208224D01*
X302910Y208216D01*
X302903D01*
X302815Y208172D01*
X302742Y208121D01*
X302698Y208085D01*
X302691Y208078D01*
X302684Y208070D01*
X302625Y207997D01*
X302582Y207932D01*
X302567Y207903D01*
X302560Y207881D01*
X302553Y207866D01*
Y207859D01*
X302523Y207771D01*
X302509Y207691D01*
X302502Y207655D01*
Y207626D01*
Y207611D01*
Y207604D01*
X302509Y207502D01*
X302516Y207407D01*
X302523Y207371D01*
X302531Y207341D01*
X302538Y207319D01*
Y207312D01*
X302567Y207196D01*
X302611Y207086D01*
X302633Y207035D01*
X302647Y206999D01*
X302655Y206977D01*
X302662Y206970D01*
X302698Y206897D01*
X302742Y206824D01*
X302786Y206751D01*
X302822Y206685D01*
X302866Y206634D01*
X302895Y206583D01*
X302917Y206554D01*
X302924Y206547D01*
X302990Y206459D01*
X303063Y206372D01*
X303143Y206284D01*
X303216Y206204D01*
X303274Y206139D01*
X303333Y206087D01*
X303362Y206051D01*
X303376Y206036D01*
X304193Y205198D01*
X304215Y205169D01*
X304237Y205140D01*
X304251Y205125D01*
X304258Y205118D01*
X304288Y205067D01*
X304295Y205052D01*
Y205045D01*
X304309Y204994D01*
X304317Y204972D01*
Y204965D01*
Y204928D01*
Y204892D01*
Y204870D01*
Y204855D01*
Y204804D01*
X304309Y204768D01*
Y204739D01*
Y204732D01*
X304295Y204702D01*
X304288Y204681D01*
X304273Y204673D01*
Y204666D01*
X304237Y204637D01*
X304229Y204629D01*
X304222D01*
X304171Y204622D01*
X301889D01*
X301853Y204629D01*
X301838D01*
X301809Y204659D01*
X301802Y204666D01*
Y204673D01*
X301787Y204724D01*
X301780Y204746D01*
Y204753D01*
X301772Y204790D01*
X301765Y204819D01*
Y204841D01*
Y204848D01*
Y204892D01*
X301772Y204921D01*
X301780Y204943D01*
Y204950D01*
X301787Y204979D01*
X301794Y205001D01*
X301802Y205016D01*
Y205023D01*
X301831Y205060D01*
X301838Y205067D01*
X301845D01*
X301875Y205082D01*
X303661D01*
X303019Y205752D01*
X302895Y205883D01*
X302786Y206000D01*
X302691Y206109D01*
X302604Y206204D01*
X302545Y206277D01*
X302494Y206335D01*
X302465Y206372D01*
X302458Y206386D01*
X302385Y206488D01*
X302319Y206583D01*
X302261Y206663D01*
X302217Y206736D01*
X302181Y206802D01*
X302159Y206846D01*
X302144Y206875D01*
X302137Y206882D01*
X302093Y206962D01*
X302064Y207043D01*
X302035Y207115D01*
X302013Y207181D01*
X301998Y207232D01*
X301991Y207269D01*
X301984Y207298D01*
Y207305D01*
X301962Y207451D01*
X301955Y207516D01*
Y207575D01*
X301947Y207618D01*
Y207662D01*
Y207684D01*
Y207691D01*
X301962Y207844D01*
X301969Y207917D01*
X301984Y207976D01*
X301998Y208027D01*
X302006Y208070D01*
X302020Y208092D01*
Y208100D01*
X302049Y208172D01*
X302086Y208238D01*
X302122Y208296D01*
X302159Y208347D01*
X302195Y208384D01*
X302224Y208413D01*
X302239Y208435D01*
X302246Y208442D01*
X302305Y208493D01*
X302363Y208537D01*
X302487Y208610D01*
X302538Y208632D01*
X302582Y208654D01*
X302611Y208668D01*
X302618D01*
X302706Y208697D01*
X302793Y208719D01*
X302881Y208734D01*
X302961Y208748D01*
X303026D01*
X303085Y208756D01*
X303136D01*
X303267Y208748D01*
D02*
G37*
G36*
X291887Y208690D02*
X291931Y208676D01*
X291960Y208654D01*
X291968Y208646D01*
X291989Y208603D01*
X292004Y208544D01*
X292011Y208501D01*
Y208493D01*
Y208486D01*
Y206831D01*
X292004Y206758D01*
X291989Y206707D01*
X291982Y206678D01*
X291975Y206671D01*
X291938Y206649D01*
X291902Y206634D01*
X291865Y206627D01*
X291851D01*
X291763Y206634D01*
X291676Y206642D01*
X291647D01*
X291617Y206649D01*
X291596D01*
X291486Y206663D01*
X291377Y206671D01*
X291173D01*
X291078Y206663D01*
X290998Y206656D01*
X290932Y206649D01*
X290874Y206634D01*
X290838Y206627D01*
X290808Y206620D01*
X290801D01*
X290728Y206598D01*
X290670Y206576D01*
X290612Y206547D01*
X290568Y206525D01*
X290531Y206503D01*
X290502Y206481D01*
X290488Y206474D01*
X290480Y206467D01*
X290393Y206386D01*
X290335Y206306D01*
X290313Y206270D01*
X290298Y206248D01*
X290291Y206226D01*
Y206219D01*
X290254Y206102D01*
X290232Y205993D01*
X290225Y205949D01*
Y205913D01*
Y205883D01*
Y205876D01*
Y205796D01*
X290240Y205716D01*
X290247Y205650D01*
X290262Y205592D01*
X290276Y205548D01*
X290283Y205512D01*
X290298Y205490D01*
Y205483D01*
X290364Y205373D01*
X290393Y205329D01*
X290429Y205286D01*
X290458Y205257D01*
X290480Y205235D01*
X290495Y205220D01*
X290502Y205213D01*
X290604Y205140D01*
X290699Y205089D01*
X290743Y205074D01*
X290779Y205060D01*
X290801Y205052D01*
X290808D01*
X290940Y205030D01*
X291005Y205016D01*
X291063D01*
X291122Y205009D01*
X291275D01*
X291348Y205016D01*
X291421Y205023D01*
X291479Y205030D01*
X291523D01*
X291559Y205038D01*
X291581Y205045D01*
X291588D01*
X291698Y205074D01*
X291749Y205089D01*
X291785Y205103D01*
X291822Y205118D01*
X291844Y205125D01*
X291858Y205133D01*
X291865D01*
X291938Y205169D01*
X291997Y205198D01*
X292026Y205213D01*
X292040Y205220D01*
X292084Y205249D01*
X292113Y205257D01*
X292128Y205264D01*
X292135D01*
X292164Y205257D01*
X292172Y205249D01*
X292179D01*
X292201Y205220D01*
X292208Y205213D01*
Y205205D01*
X292215Y205184D01*
Y205162D01*
X292223Y205147D01*
Y205140D01*
Y205103D01*
Y205074D01*
Y205052D01*
Y205045D01*
Y205001D01*
Y204972D01*
Y204950D01*
Y204943D01*
X292215Y204899D01*
Y204885D01*
Y204877D01*
X292201Y204841D01*
X292193Y204834D01*
Y204826D01*
X292179Y204804D01*
X292164Y204797D01*
Y204790D01*
X292135Y204775D01*
X292099Y204753D01*
X292070Y204739D01*
X292055Y204732D01*
X291982Y204702D01*
X291909Y204681D01*
X291880Y204673D01*
X291858Y204666D01*
X291844Y204659D01*
X291836D01*
X291734Y204637D01*
X291639Y204615D01*
X291596Y204608D01*
X291566Y204600D01*
X291545Y204593D01*
X291537D01*
X291406Y204578D01*
X291348Y204571D01*
X291289D01*
X291238Y204564D01*
X291173D01*
X291049Y204571D01*
X290932Y204578D01*
X290830Y204593D01*
X290743Y204608D01*
X290663Y204622D01*
X290612Y204637D01*
X290575Y204651D01*
X290561D01*
X290458Y204688D01*
X290364Y204732D01*
X290283Y204775D01*
X290211Y204819D01*
X290160Y204855D01*
X290116Y204885D01*
X290087Y204907D01*
X290079Y204914D01*
X290006Y204979D01*
X289941Y205052D01*
X289890Y205125D01*
X289846Y205198D01*
X289810Y205257D01*
X289788Y205300D01*
X289773Y205329D01*
X289766Y205344D01*
X289729Y205446D01*
X289700Y205541D01*
X289678Y205643D01*
X289664Y205730D01*
X289656Y205810D01*
X289649Y205869D01*
Y205913D01*
Y205927D01*
Y206022D01*
X289664Y206117D01*
X289678Y206197D01*
X289693Y206270D01*
X289708Y206328D01*
X289722Y206372D01*
X289729Y206401D01*
X289737Y206408D01*
X289773Y206488D01*
X289810Y206561D01*
X289853Y206620D01*
X289897Y206678D01*
X289934Y206722D01*
X289963Y206751D01*
X289985Y206773D01*
X289992Y206780D01*
X290057Y206831D01*
X290130Y206882D01*
X290196Y206919D01*
X290269Y206955D01*
X290327Y206977D01*
X290371Y206999D01*
X290400Y207013D01*
X290415D01*
X290510Y207043D01*
X290612Y207064D01*
X290714Y207079D01*
X290801Y207094D01*
X290881D01*
X290947Y207101D01*
X291187D01*
X291217Y207094D01*
X291340D01*
X291406Y207086D01*
X291435Y207079D01*
X291457D01*
X291464Y207072D01*
X291472D01*
Y208224D01*
X290021D01*
X289985Y208231D01*
X289963Y208253D01*
X289948Y208275D01*
X289941Y208282D01*
X289919Y208340D01*
X289912Y208391D01*
X289904Y208442D01*
Y208450D01*
Y208457D01*
Y208501D01*
X289912Y208537D01*
X289919Y208559D01*
Y208566D01*
X289926Y208595D01*
X289934Y208617D01*
X289941Y208632D01*
Y208639D01*
X289963Y208676D01*
X289970Y208683D01*
X289977D01*
X290014Y208697D01*
X291829D01*
X291887Y208690D01*
D02*
G37*
G36*
X276323Y208690D02*
X276367Y208676D01*
X276396Y208654D01*
X276403Y208646D01*
X276425Y208603D01*
X276440Y208544D01*
X276447Y208501D01*
Y208493D01*
Y208486D01*
Y206831D01*
X276440Y206758D01*
X276425Y206707D01*
X276418Y206678D01*
X276411Y206671D01*
X276374Y206649D01*
X276338Y206634D01*
X276301Y206627D01*
X276287D01*
X276199Y206634D01*
X276112Y206642D01*
X276082D01*
X276053Y206649D01*
X276031D01*
X275922Y206663D01*
X275813Y206671D01*
X275609D01*
X275514Y206663D01*
X275434Y206656D01*
X275368Y206649D01*
X275310Y206634D01*
X275273Y206627D01*
X275244Y206620D01*
X275237D01*
X275164Y206598D01*
X275106Y206576D01*
X275047Y206547D01*
X275004Y206525D01*
X274967Y206503D01*
X274938Y206481D01*
X274923Y206474D01*
X274916Y206467D01*
X274829Y206386D01*
X274770Y206306D01*
X274748Y206270D01*
X274734Y206248D01*
X274727Y206226D01*
Y206219D01*
X274690Y206102D01*
X274668Y205993D01*
X274661Y205949D01*
Y205913D01*
Y205883D01*
Y205876D01*
Y205796D01*
X274676Y205716D01*
X274683Y205650D01*
X274697Y205592D01*
X274712Y205548D01*
X274719Y205512D01*
X274734Y205490D01*
Y205483D01*
X274799Y205373D01*
X274829Y205329D01*
X274865Y205286D01*
X274894Y205257D01*
X274916Y205235D01*
X274931Y205220D01*
X274938Y205213D01*
X275040Y205140D01*
X275135Y205089D01*
X275179Y205074D01*
X275215Y205060D01*
X275237Y205052D01*
X275244D01*
X275375Y205030D01*
X275441Y205016D01*
X275499D01*
X275558Y205009D01*
X275711D01*
X275784Y205016D01*
X275857Y205023D01*
X275915Y205030D01*
X275959D01*
X275995Y205038D01*
X276017Y205045D01*
X276024D01*
X276134Y205074D01*
X276185Y205089D01*
X276221Y205103D01*
X276257Y205118D01*
X276279Y205125D01*
X276294Y205133D01*
X276301D01*
X276374Y205169D01*
X276432Y205198D01*
X276462Y205213D01*
X276476Y205220D01*
X276520Y205249D01*
X276549Y205257D01*
X276564Y205264D01*
X276571D01*
X276600Y205257D01*
X276607Y205249D01*
X276615D01*
X276637Y205220D01*
X276644Y205213D01*
Y205205D01*
X276651Y205184D01*
Y205162D01*
X276659Y205147D01*
Y205140D01*
Y205103D01*
Y205074D01*
Y205052D01*
Y205045D01*
Y205001D01*
Y204972D01*
Y204950D01*
Y204943D01*
X276651Y204899D01*
Y204885D01*
Y204877D01*
X276637Y204841D01*
X276629Y204834D01*
Y204826D01*
X276615Y204804D01*
X276600Y204797D01*
Y204790D01*
X276571Y204775D01*
X276535Y204753D01*
X276505Y204739D01*
X276491Y204732D01*
X276418Y204702D01*
X276345Y204681D01*
X276316Y204673D01*
X276294Y204666D01*
X276279Y204659D01*
X276272D01*
X276170Y204637D01*
X276075Y204615D01*
X276031Y204608D01*
X276002Y204600D01*
X275980Y204593D01*
X275973D01*
X275842Y204578D01*
X275784Y204571D01*
X275725D01*
X275674Y204564D01*
X275609D01*
X275485Y204571D01*
X275368Y204578D01*
X275266Y204593D01*
X275179Y204608D01*
X275098Y204622D01*
X275047Y204637D01*
X275011Y204651D01*
X274996D01*
X274894Y204688D01*
X274799Y204732D01*
X274719Y204775D01*
X274646Y204819D01*
X274595Y204855D01*
X274552Y204885D01*
X274522Y204907D01*
X274515Y204914D01*
X274442Y204979D01*
X274377Y205052D01*
X274326Y205125D01*
X274282Y205198D01*
X274246Y205257D01*
X274224Y205300D01*
X274209Y205329D01*
X274202Y205344D01*
X274165Y205446D01*
X274136Y205541D01*
X274114Y205643D01*
X274100Y205730D01*
X274092Y205810D01*
X274085Y205869D01*
Y205913D01*
Y205927D01*
Y206022D01*
X274100Y206117D01*
X274114Y206197D01*
X274129Y206270D01*
X274143Y206328D01*
X274158Y206372D01*
X274165Y206401D01*
X274173Y206408D01*
X274209Y206488D01*
X274246Y206561D01*
X274289Y206620D01*
X274333Y206678D01*
X274369Y206722D01*
X274399Y206751D01*
X274420Y206773D01*
X274428Y206780D01*
X274493Y206831D01*
X274566Y206882D01*
X274632Y206919D01*
X274705Y206955D01*
X274763Y206977D01*
X274807Y206999D01*
X274836Y207013D01*
X274851D01*
X274945Y207043D01*
X275047Y207064D01*
X275149Y207079D01*
X275237Y207094D01*
X275317D01*
X275383Y207101D01*
X275623D01*
X275652Y207094D01*
X275776D01*
X275842Y207086D01*
X275871Y207079D01*
X275893D01*
X275900Y207072D01*
X275908D01*
Y208224D01*
X274457D01*
X274420Y208231D01*
X274399Y208253D01*
X274384Y208275D01*
X274377Y208282D01*
X274355Y208340D01*
X274347Y208391D01*
X274340Y208442D01*
Y208450D01*
Y208457D01*
Y208501D01*
X274347Y208537D01*
X274355Y208559D01*
Y208566D01*
X274362Y208595D01*
X274369Y208617D01*
X274377Y208632D01*
Y208639D01*
X274399Y208676D01*
X274406Y208683D01*
X274413D01*
X274450Y208697D01*
X276265D01*
X276323Y208690D01*
D02*
G37*
G36*
X270870Y207669D02*
X270929Y207662D01*
X270972D01*
X271016Y207655D01*
X271045Y207648D01*
X271067Y207640D01*
X271074D01*
X271191Y207618D01*
X271242Y207604D01*
X271286Y207597D01*
X271322Y207582D01*
X271351Y207575D01*
X271366Y207567D01*
X271373D01*
X271468Y207531D01*
X271541Y207502D01*
X271570Y207487D01*
X271592Y207473D01*
X271606Y207465D01*
X271614D01*
X271679Y207429D01*
X271723Y207400D01*
X271752Y207378D01*
X271760Y207371D01*
X271781Y207341D01*
X271796Y207312D01*
X271811Y207290D01*
Y207283D01*
X271818Y207247D01*
Y207203D01*
Y207174D01*
Y207166D01*
Y207159D01*
Y207130D01*
Y207101D01*
Y207079D01*
Y207072D01*
X271803Y207028D01*
X271796Y207013D01*
Y207006D01*
X271774Y206977D01*
X271767Y206970D01*
X271730Y206962D01*
X271716D01*
X271687Y206970D01*
X271650Y206984D01*
X271621Y206999D01*
X271606Y207006D01*
X271541Y207043D01*
X271475Y207072D01*
X271453Y207086D01*
X271431Y207094D01*
X271417Y207101D01*
X271410D01*
X271322Y207145D01*
X271235Y207174D01*
X271198Y207188D01*
X271169Y207196D01*
X271154Y207203D01*
X271147D01*
X271031Y207232D01*
X270914Y207247D01*
X270870Y207254D01*
X270797D01*
X270673Y207247D01*
X270622Y207239D01*
X270579Y207232D01*
X270549Y207225D01*
X270520Y207218D01*
X270506Y207210D01*
X270498D01*
X270418Y207174D01*
X270353Y207130D01*
X270316Y207094D01*
X270302Y207086D01*
Y207079D01*
X270251Y207013D01*
X270214Y206941D01*
X270199Y206911D01*
X270192Y206889D01*
X270185Y206875D01*
Y206868D01*
X270163Y206773D01*
X270156Y206678D01*
X270148Y206642D01*
Y206612D01*
Y206591D01*
Y206583D01*
Y206365D01*
X270659D01*
X270775Y206357D01*
X270878Y206350D01*
X270965Y206335D01*
X271038Y206328D01*
X271089Y206313D01*
X271125Y206306D01*
X271140D01*
X271235Y206284D01*
X271322Y206255D01*
X271395Y206226D01*
X271461Y206197D01*
X271512Y206175D01*
X271548Y206153D01*
X271577Y206139D01*
X271585Y206131D01*
X271650Y206087D01*
X271701Y206036D01*
X271752Y205985D01*
X271789Y205942D01*
X271825Y205898D01*
X271847Y205861D01*
X271854Y205840D01*
X271862Y205832D01*
X271891Y205767D01*
X271913Y205694D01*
X271935Y205628D01*
X271942Y205563D01*
X271949Y205504D01*
X271956Y205461D01*
Y205431D01*
Y205424D01*
X271949Y205278D01*
X271935Y205220D01*
X271920Y205169D01*
X271913Y205118D01*
X271898Y205089D01*
X271891Y205067D01*
Y205060D01*
X271832Y204950D01*
X271796Y204899D01*
X271767Y204863D01*
X271738Y204826D01*
X271716Y204804D01*
X271701Y204790D01*
X271694Y204783D01*
X271592Y204710D01*
X271490Y204659D01*
X271453Y204644D01*
X271417Y204629D01*
X271395Y204622D01*
X271388D01*
X271249Y204586D01*
X271176Y204578D01*
X271118Y204571D01*
X271060Y204564D01*
X270980D01*
X270885Y204571D01*
X270797Y204578D01*
X270717Y204593D01*
X270644Y204615D01*
X270586Y204637D01*
X270535Y204651D01*
X270506Y204659D01*
X270498Y204666D01*
X270411Y204710D01*
X270338Y204761D01*
X270265Y204812D01*
X270199Y204863D01*
X270156Y204907D01*
X270112Y204943D01*
X270090Y204965D01*
X270083Y204972D01*
Y204688D01*
X270076Y204666D01*
X270068Y204651D01*
X270061Y204637D01*
X270039Y204629D01*
X270017Y204622D01*
X269995Y204615D01*
X269988D01*
X269944Y204608D01*
X269901Y204600D01*
X269806D01*
X269762Y204608D01*
X269740Y204615D01*
X269733D01*
X269696Y204622D01*
X269675Y204629D01*
X269667Y204637D01*
X269660D01*
X269646Y204651D01*
X269631Y204666D01*
Y204681D01*
Y204688D01*
Y206605D01*
Y206700D01*
X269638Y206787D01*
X269653Y206868D01*
X269660Y206933D01*
X269675Y206992D01*
X269689Y207028D01*
X269696Y207057D01*
Y207064D01*
X269718Y207137D01*
X269747Y207203D01*
X269784Y207261D01*
X269813Y207312D01*
X269842Y207349D01*
X269864Y207378D01*
X269879Y207392D01*
X269886Y207400D01*
X269937Y207443D01*
X269995Y207487D01*
X270112Y207553D01*
X270163Y207575D01*
X270199Y207589D01*
X270229Y207604D01*
X270236D01*
X270316Y207626D01*
X270404Y207648D01*
X270491Y207662D01*
X270571Y207669D01*
X270644Y207677D01*
X270754D01*
X270870Y207669D01*
D02*
G37*
G36*
X299651Y206416D02*
X299680Y206401D01*
X299695Y206379D01*
X299702Y206372D01*
X299709Y206350D01*
X299717Y206328D01*
X299724Y206270D01*
Y206226D01*
Y206211D01*
Y206204D01*
X299717Y206131D01*
X299709Y206080D01*
X299702Y206044D01*
Y206036D01*
X299673Y206015D01*
X299644Y206000D01*
X299622Y205993D01*
X298303D01*
X298266Y206000D01*
X298237Y206015D01*
X298222Y206029D01*
X298215Y206036D01*
X298208Y206058D01*
X298200Y206080D01*
X298186Y206139D01*
Y206182D01*
Y206197D01*
Y206204D01*
Y206248D01*
X298193Y206277D01*
X298200Y206299D01*
Y206306D01*
X298208Y206335D01*
X298215Y206357D01*
X298222Y206365D01*
Y206372D01*
X298237Y206394D01*
X298244Y206401D01*
X298251Y206408D01*
X298259D01*
X298288Y206423D01*
X299615D01*
X299651Y206416D01*
D02*
G37*
G36*
X295824Y208690D02*
X295868Y208676D01*
X295897Y208654D01*
X295911Y208646D01*
X295948Y208595D01*
X295962Y208537D01*
X295970Y208493D01*
Y208479D01*
Y208471D01*
Y204841D01*
X295962Y204761D01*
X295940Y204710D01*
X295919Y204673D01*
X295911Y204666D01*
X295860Y204644D01*
X295817Y204629D01*
X295787Y204622D01*
X294905D01*
X294716Y204629D01*
X294548Y204644D01*
X294395Y204659D01*
X294264Y204688D01*
X294155Y204710D01*
X294111Y204717D01*
X294074Y204724D01*
X294045Y204732D01*
X294023Y204739D01*
X294016Y204746D01*
X294009D01*
X293870Y204797D01*
X293746Y204863D01*
X293644Y204928D01*
X293549Y204987D01*
X293477Y205045D01*
X293418Y205089D01*
X293389Y205118D01*
X293374Y205133D01*
X293280Y205235D01*
X293199Y205344D01*
X293134Y205453D01*
X293075Y205563D01*
X293032Y205650D01*
X292995Y205723D01*
X292988Y205752D01*
X292981Y205774D01*
X292973Y205781D01*
Y205789D01*
X292930Y205942D01*
X292893Y206102D01*
X292871Y206255D01*
X292849Y206401D01*
X292842Y206525D01*
Y206583D01*
X292835Y206627D01*
Y206663D01*
Y206693D01*
Y206707D01*
Y206715D01*
X292842Y206882D01*
X292857Y207035D01*
X292879Y207174D01*
X292901Y207298D01*
X292922Y207400D01*
X292944Y207473D01*
X292952Y207502D01*
X292959Y207524D01*
X292966Y207531D01*
Y207538D01*
X293017Y207669D01*
X293075Y207793D01*
X293141Y207903D01*
X293199Y207990D01*
X293250Y208063D01*
X293294Y208121D01*
X293323Y208151D01*
X293338Y208165D01*
X293433Y208253D01*
X293542Y208333D01*
X293644Y208399D01*
X293739Y208457D01*
X293826Y208501D01*
X293892Y208537D01*
X293943Y208552D01*
X293950Y208559D01*
X293958D01*
X294103Y208603D01*
X294249Y208639D01*
X294402Y208661D01*
X294541Y208683D01*
X294665Y208690D01*
X294716D01*
X294759Y208697D01*
X295773D01*
X295824Y208690D01*
D02*
G37*
G36*
X280260Y208690D02*
X280304Y208676D01*
X280333Y208654D01*
X280347Y208646D01*
X280384Y208595D01*
X280398Y208537D01*
X280405Y208493D01*
Y208479D01*
Y208471D01*
Y204841D01*
X280398Y204761D01*
X280376Y204710D01*
X280354Y204673D01*
X280347Y204666D01*
X280296Y204644D01*
X280252Y204629D01*
X280223Y204622D01*
X279341D01*
X279152Y204629D01*
X278984Y204644D01*
X278831Y204659D01*
X278700Y204688D01*
X278590Y204710D01*
X278547Y204717D01*
X278510Y204724D01*
X278481Y204732D01*
X278459Y204739D01*
X278452Y204746D01*
X278445D01*
X278306Y204797D01*
X278182Y204863D01*
X278080Y204928D01*
X277985Y204987D01*
X277912Y205045D01*
X277854Y205089D01*
X277825Y205118D01*
X277810Y205133D01*
X277715Y205235D01*
X277635Y205344D01*
X277570Y205453D01*
X277511Y205563D01*
X277468Y205650D01*
X277431Y205723D01*
X277424Y205752D01*
X277417Y205774D01*
X277409Y205781D01*
Y205789D01*
X277366Y205942D01*
X277329Y206102D01*
X277307Y206255D01*
X277285Y206401D01*
X277278Y206525D01*
Y206583D01*
X277271Y206627D01*
Y206663D01*
Y206693D01*
Y206707D01*
Y206715D01*
X277278Y206882D01*
X277293Y207035D01*
X277315Y207174D01*
X277336Y207298D01*
X277358Y207400D01*
X277380Y207473D01*
X277387Y207502D01*
X277395Y207524D01*
X277402Y207531D01*
Y207538D01*
X277453Y207669D01*
X277511Y207793D01*
X277577Y207903D01*
X277635Y207990D01*
X277686Y208063D01*
X277730Y208121D01*
X277759Y208151D01*
X277774Y208165D01*
X277869Y208253D01*
X277978Y208333D01*
X278080Y208399D01*
X278175Y208457D01*
X278262Y208501D01*
X278328Y208537D01*
X278379Y208552D01*
X278386Y208559D01*
X278394D01*
X278539Y208603D01*
X278685Y208639D01*
X278838Y208661D01*
X278977Y208683D01*
X279101Y208690D01*
X279152D01*
X279195Y208697D01*
X280209D01*
X280260Y208690D01*
D02*
G37*
G36*
X260234D02*
X260278Y208676D01*
X260307Y208654D01*
X260322Y208646D01*
X260358Y208595D01*
X260373Y208537D01*
X260380Y208493D01*
Y208479D01*
Y208471D01*
Y204841D01*
X260373Y204761D01*
X260351Y204710D01*
X260329Y204673D01*
X260322Y204666D01*
X260271Y204644D01*
X260227Y204629D01*
X260198Y204622D01*
X259315D01*
X259126Y204629D01*
X258958Y204644D01*
X258805Y204659D01*
X258674Y204688D01*
X258565Y204710D01*
X258521Y204717D01*
X258485Y204724D01*
X258455Y204732D01*
X258434Y204739D01*
X258426Y204746D01*
X258419D01*
X258280Y204797D01*
X258156Y204863D01*
X258054Y204928D01*
X257960Y204987D01*
X257887Y205045D01*
X257828Y205089D01*
X257799Y205118D01*
X257785Y205133D01*
X257690Y205235D01*
X257610Y205344D01*
X257544Y205453D01*
X257486Y205563D01*
X257442Y205650D01*
X257406Y205723D01*
X257398Y205752D01*
X257391Y205774D01*
X257384Y205781D01*
Y205789D01*
X257340Y205942D01*
X257304Y206102D01*
X257282Y206255D01*
X257260Y206401D01*
X257253Y206525D01*
Y206583D01*
X257245Y206627D01*
Y206663D01*
Y206693D01*
Y206707D01*
Y206715D01*
X257253Y206882D01*
X257267Y207035D01*
X257289Y207174D01*
X257311Y207298D01*
X257333Y207400D01*
X257354Y207473D01*
X257362Y207502D01*
X257369Y207524D01*
X257376Y207531D01*
Y207538D01*
X257427Y207669D01*
X257486Y207793D01*
X257551Y207903D01*
X257610Y207990D01*
X257661Y208063D01*
X257704Y208121D01*
X257734Y208151D01*
X257748Y208165D01*
X257843Y208253D01*
X257952Y208333D01*
X258054Y208399D01*
X258149Y208457D01*
X258237Y208501D01*
X258302Y208537D01*
X258353Y208552D01*
X258361Y208559D01*
X258368D01*
X258514Y208603D01*
X258660Y208639D01*
X258812Y208661D01*
X258951Y208683D01*
X259075Y208690D01*
X259126D01*
X259170Y208697D01*
X260183D01*
X260234Y208690D01*
D02*
G37*
G36*
X307313Y208690D02*
X307357Y208668D01*
X307386Y208646D01*
X307400Y208639D01*
X307437Y208588D01*
X307459Y208530D01*
X307466Y208486D01*
Y208471D01*
Y208464D01*
Y204695D01*
X307459Y204666D01*
Y204659D01*
Y204651D01*
X307430Y204637D01*
X307422Y204629D01*
X307415D01*
X307357Y204622D01*
X307335Y204615D01*
X307328D01*
X307284Y204608D01*
X307240Y204600D01*
X307145D01*
X307109Y204608D01*
X307080Y204615D01*
X307072D01*
X307036Y204622D01*
X307014D01*
X306999Y204629D01*
X306992D01*
X306970Y204637D01*
X306956Y204644D01*
X306941Y204651D01*
X306926Y204681D01*
Y204695D01*
Y206168D01*
X306467D01*
X306329Y206175D01*
X306205Y206182D01*
X306096Y206197D01*
X306001Y206211D01*
X305921Y206226D01*
X305870Y206241D01*
X305833Y206255D01*
X305819D01*
X305716Y206292D01*
X305629Y206335D01*
X305549Y206379D01*
X305483Y206423D01*
X305425Y206467D01*
X305388Y206496D01*
X305359Y206518D01*
X305352Y206525D01*
X305286Y206591D01*
X305228Y206663D01*
X305177Y206736D01*
X305133Y206802D01*
X305104Y206860D01*
X305082Y206904D01*
X305068Y206941D01*
X305060Y206948D01*
X305024Y207043D01*
X305002Y207137D01*
X304980Y207232D01*
X304973Y207319D01*
X304965Y207393D01*
X304958Y207451D01*
Y207487D01*
Y207502D01*
X304965Y207662D01*
X304980Y207735D01*
X304987Y207793D01*
X305002Y207844D01*
X305017Y207881D01*
X305024Y207910D01*
Y207917D01*
X305082Y208049D01*
X305111Y208107D01*
X305140Y208158D01*
X305170Y208194D01*
X305191Y208231D01*
X305206Y208245D01*
X305213Y208253D01*
X305308Y208355D01*
X305403Y208435D01*
X305447Y208464D01*
X305476Y208486D01*
X305498Y208493D01*
X305505Y208501D01*
X305629Y208566D01*
X305687Y208588D01*
X305738Y208603D01*
X305775Y208617D01*
X305811Y208625D01*
X305833Y208632D01*
X305840D01*
X305957Y208654D01*
X306008Y208661D01*
X306052Y208668D01*
X306081Y208676D01*
X306110Y208683D01*
X306132D01*
X306219Y208690D01*
X306300Y208697D01*
X307255D01*
X307313Y208690D01*
D02*
G37*
G36*
X267342Y207669D02*
X267429Y207655D01*
X267510Y207633D01*
X267582Y207611D01*
X267648Y207589D01*
X267692Y207567D01*
X267721Y207553D01*
X267736Y207545D01*
X267823Y207494D01*
X267911Y207436D01*
X267991Y207371D01*
X268056Y207305D01*
X268122Y207247D01*
X268166Y207203D01*
X268195Y207174D01*
X268209Y207159D01*
Y207531D01*
X268217Y207567D01*
X268224Y207575D01*
X268231Y207589D01*
X268246Y207597D01*
X268253Y207604D01*
X268260D01*
X268282Y207611D01*
X268304Y207618D01*
X268326Y207626D01*
X268333D01*
X268370Y207633D01*
X268530D01*
X268552Y207626D01*
X268559D01*
X268588Y207618D01*
X268610Y207611D01*
X268625Y207604D01*
X268632D01*
X268647Y207597D01*
X268661Y207582D01*
X268669Y207575D01*
X268676Y207545D01*
Y207538D01*
Y207531D01*
Y204695D01*
X268669Y204666D01*
Y204651D01*
X268639Y204629D01*
X268632Y204622D01*
X268625D01*
X268574Y204615D01*
X268559Y204608D01*
X268552D01*
X268508Y204600D01*
X268370D01*
X268326Y204608D01*
X268297D01*
X268260Y204615D01*
X268238D01*
X268224Y204622D01*
X268217D01*
X268180Y204644D01*
X268173Y204651D01*
X268158Y204681D01*
Y204688D01*
Y204695D01*
Y206678D01*
X268078Y206773D01*
X268005Y206853D01*
X267940Y206919D01*
X267874Y206977D01*
X267823Y207021D01*
X267787Y207057D01*
X267757Y207072D01*
X267750Y207079D01*
X267677Y207130D01*
X267604Y207166D01*
X267539Y207188D01*
X267480Y207210D01*
X267429Y207218D01*
X267393Y207225D01*
X267356D01*
X267254Y207218D01*
X267167Y207196D01*
X267138Y207188D01*
X267116Y207174D01*
X267101Y207166D01*
X267094D01*
X267014Y207115D01*
X266955Y207064D01*
X266919Y207021D01*
X266904Y207006D01*
Y206999D01*
X266853Y206919D01*
X266824Y206831D01*
X266810Y206795D01*
X266802Y206773D01*
X266795Y206751D01*
Y206744D01*
X266780Y206685D01*
X266766Y206620D01*
X266759Y206496D01*
X266751Y206445D01*
Y206401D01*
Y206365D01*
Y206357D01*
Y204695D01*
X266744Y204666D01*
Y204651D01*
X266715Y204629D01*
X266708Y204622D01*
X266700D01*
X266649Y204615D01*
X266635Y204608D01*
X266627D01*
X266584Y204600D01*
X266445D01*
X266401Y204608D01*
X266372D01*
X266336Y204615D01*
X266314D01*
X266299Y204622D01*
X266292D01*
X266256Y204644D01*
X266248Y204651D01*
X266234Y204681D01*
Y204688D01*
Y204695D01*
Y206423D01*
Y206532D01*
X266241Y206634D01*
X266248Y206722D01*
X266263Y206795D01*
X266270Y206860D01*
X266285Y206904D01*
X266292Y206933D01*
Y206941D01*
X266314Y207021D01*
X266343Y207094D01*
X266372Y207159D01*
X266401Y207210D01*
X266423Y207254D01*
X266445Y207290D01*
X266460Y207312D01*
X266467Y207319D01*
X266511Y207378D01*
X266562Y207429D01*
X266620Y207473D01*
X266664Y207509D01*
X266715Y207538D01*
X266744Y207560D01*
X266773Y207567D01*
X266780Y207575D01*
X266853Y207611D01*
X266934Y207633D01*
X267014Y207655D01*
X267087Y207662D01*
X267152Y207669D01*
X267203Y207677D01*
X267254D01*
X267342Y207669D01*
D02*
G37*
G36*
X255014Y208712D02*
X255029D01*
X255073Y208705D01*
X255109Y208697D01*
X255138Y208690D01*
X255146D01*
X255175Y208683D01*
X255204Y208676D01*
X255219Y208668D01*
X255226Y208661D01*
X255255Y208632D01*
X255270Y208624D01*
Y208617D01*
X256728Y206139D01*
X256742Y206109D01*
X256757Y206080D01*
X256764Y206066D01*
Y206058D01*
X256786Y206007D01*
X256793Y205985D01*
Y205978D01*
X256801Y205920D01*
Y205898D01*
Y205891D01*
Y205854D01*
Y205825D01*
Y205796D01*
Y205789D01*
Y205738D01*
X256793Y205701D01*
Y205672D01*
Y205665D01*
X256786Y205636D01*
X256779Y205614D01*
X256771Y205599D01*
Y205592D01*
X256742Y205570D01*
X256728Y205563D01*
X256684Y205555D01*
X254985D01*
Y204695D01*
X254978Y204666D01*
Y204651D01*
X254949Y204629D01*
X254942Y204622D01*
X254934D01*
X254912Y204615D01*
X254883D01*
X254861Y204608D01*
X254854D01*
X254810Y204600D01*
X254672D01*
X254628Y204608D01*
X254592D01*
X254555Y204615D01*
X254533D01*
X254519Y204622D01*
X254511D01*
X254490Y204637D01*
X254475Y204644D01*
X254460Y204651D01*
X254446Y204681D01*
Y204688D01*
Y204695D01*
Y205555D01*
X253987D01*
X253950Y205563D01*
X253928Y205585D01*
X253914Y205606D01*
X253906Y205614D01*
X253885Y205665D01*
X253877Y205716D01*
X253870Y205760D01*
Y205767D01*
Y205774D01*
X253877Y205847D01*
X253885Y205898D01*
X253899Y205934D01*
X253906Y205942D01*
X253928Y205978D01*
X253957Y205993D01*
X253979Y206000D01*
X254446D01*
Y208603D01*
X254453Y208624D01*
X254460Y208639D01*
X254468Y208654D01*
X254475D01*
X254497Y208668D01*
X254526Y208676D01*
X254548Y208683D01*
X254555D01*
X254592Y208690D01*
X254635Y208697D01*
X254664Y208705D01*
X254679D01*
X254737Y208712D01*
X254796Y208719D01*
X254978D01*
X255014Y208712D01*
D02*
G37*
G36*
X308931Y208712D02*
X308939D01*
X308975Y208705D01*
X309004Y208697D01*
X309019Y208690D01*
X309026D01*
X309055Y208668D01*
X309070Y208661D01*
Y208654D01*
X309077Y208632D01*
Y208625D01*
Y208617D01*
Y205701D01*
Y205628D01*
X309084Y205563D01*
Y205504D01*
X309092Y205461D01*
X309099Y205417D01*
Y205388D01*
X309106Y205373D01*
Y205366D01*
X309128Y205286D01*
X309150Y205220D01*
X309172Y205184D01*
X309179Y205169D01*
X309223Y205125D01*
X309267Y205089D01*
X309296Y205074D01*
X309303Y205067D01*
X309310D01*
X309369Y205052D01*
X309427Y205045D01*
X309493D01*
X309558Y205052D01*
X309609Y205060D01*
X309646Y205067D01*
X309660D01*
X309711Y205082D01*
X309755Y205103D01*
X309784Y205111D01*
X309791Y205118D01*
X309828Y205140D01*
X309857Y205154D01*
X309879Y205169D01*
X309886D01*
X309908Y205184D01*
X309930Y205198D01*
X309952D01*
X309981Y205191D01*
X309988Y205184D01*
X309996D01*
X310017Y205154D01*
X310025Y205147D01*
Y205140D01*
X310032Y205118D01*
Y205096D01*
X310039Y205082D01*
Y205074D01*
Y205038D01*
Y205001D01*
Y204972D01*
Y204958D01*
Y204914D01*
Y204885D01*
Y204863D01*
Y204855D01*
X310032Y204812D01*
Y204797D01*
Y204790D01*
X310017Y204761D01*
X310010Y204753D01*
Y204746D01*
X309988Y204724D01*
X309981Y204717D01*
Y204710D01*
X309966Y204695D01*
X309945Y204681D01*
X309923Y204673D01*
X309915Y204666D01*
X309872Y204644D01*
X309828Y204629D01*
X309799Y204622D01*
X309784Y204615D01*
X309726Y204600D01*
X309675Y204586D01*
X309638Y204578D01*
X309624D01*
X309558Y204571D01*
X309500Y204564D01*
X309354D01*
X309274Y204578D01*
X309201Y204586D01*
X309135Y204600D01*
X309084Y204615D01*
X309048Y204622D01*
X309026Y204637D01*
X309019D01*
X308953Y204666D01*
X308902Y204702D01*
X308851Y204739D01*
X308815Y204775D01*
X308786Y204804D01*
X308764Y204834D01*
X308749Y204848D01*
X308742Y204855D01*
X308669Y204972D01*
X308625Y205082D01*
X308611Y205125D01*
X308596Y205169D01*
X308589Y205191D01*
Y205198D01*
X308559Y205351D01*
X308552Y205431D01*
X308545Y205497D01*
X308538Y205555D01*
Y205599D01*
Y205636D01*
Y205643D01*
Y208617D01*
X308545Y208646D01*
X308552Y208654D01*
X308567Y208668D01*
X308581Y208683D01*
X308596Y208690D01*
X308603D01*
X308625Y208697D01*
X308654Y208705D01*
X308676Y208712D01*
X308683D01*
X308727Y208719D01*
X308902D01*
X308931Y208712D01*
D02*
G37*
G36*
X263216Y208989D02*
X263245Y208982D01*
X263252D01*
X263289Y208974D01*
X263311Y208967D01*
X263325Y208960D01*
X263332D01*
X263362Y208945D01*
X263376Y208938D01*
Y208931D01*
X263383Y208909D01*
Y208902D01*
Y208894D01*
Y207247D01*
X263456Y207319D01*
X263537Y207385D01*
X263602Y207443D01*
X263668Y207487D01*
X263719Y207524D01*
X263762Y207545D01*
X263792Y207560D01*
X263799Y207567D01*
X263879Y207604D01*
X263952Y207633D01*
X264032Y207648D01*
X264098Y207662D01*
X264163Y207669D01*
X264207Y207677D01*
X264251D01*
X264360Y207669D01*
X264462Y207662D01*
X264550Y207640D01*
X264630Y207618D01*
X264696Y207597D01*
X264739Y207582D01*
X264776Y207567D01*
X264783Y207560D01*
X264863Y207516D01*
X264936Y207465D01*
X265002Y207414D01*
X265060Y207356D01*
X265104Y207312D01*
X265133Y207276D01*
X265155Y207247D01*
X265162Y207239D01*
X265213Y207159D01*
X265264Y207072D01*
X265301Y206992D01*
X265337Y206911D01*
X265359Y206838D01*
X265381Y206787D01*
X265388Y206751D01*
X265395Y206736D01*
X265439Y206510D01*
X265454Y206401D01*
X265461Y206299D01*
Y206211D01*
X265468Y206139D01*
Y206095D01*
Y206087D01*
Y206080D01*
Y205964D01*
X265461Y205861D01*
X265446Y205760D01*
X265439Y205672D01*
X265425Y205599D01*
X265417Y205541D01*
X265410Y205504D01*
Y205490D01*
X265381Y205388D01*
X265352Y205300D01*
X265315Y205213D01*
X265286Y205147D01*
X265257Y205089D01*
X265235Y205045D01*
X265220Y205016D01*
X265213Y205009D01*
X265155Y204936D01*
X265096Y204870D01*
X265038Y204812D01*
X264980Y204768D01*
X264929Y204732D01*
X264892Y204702D01*
X264863Y204688D01*
X264856Y204681D01*
X264769Y204644D01*
X264674Y204615D01*
X264586Y204593D01*
X264499Y204578D01*
X264426Y204571D01*
X264368Y204564D01*
X264317D01*
X264214Y204571D01*
X264112Y204586D01*
X264025Y204608D01*
X263945Y204629D01*
X263879Y204651D01*
X263835Y204673D01*
X263799Y204688D01*
X263792Y204695D01*
X263704Y204753D01*
X263617Y204812D01*
X263537Y204877D01*
X263471Y204936D01*
X263412Y204994D01*
X263362Y205038D01*
X263332Y205067D01*
X263325Y205074D01*
Y204695D01*
X263318Y204666D01*
Y204659D01*
Y204651D01*
X263289Y204629D01*
X263281Y204622D01*
X263274D01*
X263223Y204615D01*
X263208Y204608D01*
X263201D01*
X263165Y204600D01*
X263048D01*
X263012Y204608D01*
X262982D01*
X262953Y204615D01*
X262931D01*
X262924Y204622D01*
X262917D01*
X262880Y204637D01*
X262873Y204644D01*
X262859Y204681D01*
Y204688D01*
Y204695D01*
Y208894D01*
X262866Y208923D01*
X262873Y208931D01*
X262902Y208952D01*
X262910Y208960D01*
X262917D01*
X262939Y208967D01*
X262968Y208974D01*
X262990Y208982D01*
X262997D01*
X263041Y208989D01*
X263085Y208996D01*
X263179D01*
X263216Y208989D01*
D02*
G37*
G36*
X285720Y209244D02*
X285727D01*
X285756Y209237D01*
X285786Y209229D01*
X285800Y209222D01*
X285807D01*
X285844Y209200D01*
X285851Y209193D01*
X285858Y209186D01*
X285866Y209164D01*
X285880Y209142D01*
X285888Y209127D01*
Y209120D01*
X287790Y203908D01*
X287805Y203879D01*
Y203857D01*
Y203842D01*
Y203835D01*
X287790Y203806D01*
X287776Y203791D01*
X287754Y203777D01*
X287725Y203762D01*
X287703Y203755D01*
X287696D01*
X287652Y203748D01*
X287601Y203740D01*
X287513D01*
X287477Y203748D01*
X287448D01*
X287419Y203755D01*
X287397Y203762D01*
X287382Y203769D01*
X287375D01*
X287353Y203784D01*
X287338Y203791D01*
X287324Y203806D01*
X287309Y203828D01*
X287295Y203850D01*
X287287Y203864D01*
Y203871D01*
X285377Y209084D01*
X285370Y209113D01*
Y209135D01*
Y209149D01*
Y209157D01*
X285377Y209178D01*
X285392Y209193D01*
X285399Y209200D01*
X285406D01*
X285428Y209215D01*
X285457Y209229D01*
X285479Y209237D01*
X285487D01*
X285530Y209244D01*
X285567Y209251D01*
X285698D01*
X285720Y209244D01*
D02*
G37*
G36*
X303267Y197922D02*
X303333Y197914D01*
X303384Y197907D01*
X303435Y197900D01*
X303471Y197892D01*
X303493Y197885D01*
X303500D01*
X303624Y197856D01*
X303675Y197841D01*
X303719Y197827D01*
X303755Y197812D01*
X303784Y197798D01*
X303799Y197790D01*
X303806D01*
X303894Y197754D01*
X303967Y197717D01*
X303996Y197703D01*
X304018Y197688D01*
X304025Y197681D01*
X304032D01*
X304091Y197645D01*
X304127Y197615D01*
X304149Y197601D01*
X304156Y197594D01*
X304186Y197557D01*
X304200Y197550D01*
Y197543D01*
X304215Y197506D01*
X304222Y197499D01*
Y197492D01*
X304229Y197455D01*
Y197441D01*
Y197433D01*
Y197375D01*
Y197353D01*
Y197346D01*
Y197302D01*
Y197266D01*
Y197244D01*
Y197236D01*
X304222Y197207D01*
Y197185D01*
X304215Y197178D01*
Y197171D01*
X304193Y197149D01*
X304186Y197142D01*
X304156Y197134D01*
X304142D01*
X304113Y197142D01*
X304076Y197163D01*
X304054Y197178D01*
X304040Y197185D01*
X303974Y197229D01*
X303908Y197266D01*
X303887Y197280D01*
X303865Y197295D01*
X303850Y197302D01*
X303843D01*
X303748Y197346D01*
X303661Y197389D01*
X303624Y197404D01*
X303595Y197419D01*
X303573Y197426D01*
X303566D01*
X303449Y197462D01*
X303347Y197477D01*
X303303Y197484D01*
X303238D01*
X303121Y197477D01*
X303070Y197470D01*
X303026Y197462D01*
X302997Y197448D01*
X302968Y197441D01*
X302954Y197433D01*
X302946D01*
X302859Y197389D01*
X302793Y197346D01*
X302749Y197309D01*
X302735Y197302D01*
Y197295D01*
X302684Y197229D01*
X302640Y197163D01*
X302625Y197142D01*
X302618Y197120D01*
X302611Y197105D01*
Y197098D01*
X302582Y197010D01*
X302574Y196938D01*
X302567Y196901D01*
Y196879D01*
Y196865D01*
Y196857D01*
X302574Y196733D01*
X302589Y196682D01*
X302596Y196639D01*
X302611Y196595D01*
X302625Y196566D01*
X302633Y196551D01*
Y196544D01*
X302684Y196449D01*
X302742Y196369D01*
X302764Y196340D01*
X302786Y196325D01*
X302800Y196310D01*
X302808Y196303D01*
X302903Y196238D01*
X302990Y196187D01*
X303034Y196172D01*
X303063Y196157D01*
X303085Y196150D01*
X303092D01*
X303216Y196121D01*
X303274Y196114D01*
X303333Y196106D01*
X303384Y196099D01*
X303806D01*
X303843Y196092D01*
X303850Y196084D01*
X303857D01*
X303887Y196063D01*
X303894Y196055D01*
X303901Y196048D01*
X303908Y196026D01*
X303916Y196004D01*
X303923Y195990D01*
Y195983D01*
X303930Y195953D01*
Y195924D01*
Y195895D01*
Y195888D01*
Y195844D01*
X303923Y195808D01*
Y195786D01*
Y195778D01*
X303908Y195749D01*
X303901Y195727D01*
X303894Y195720D01*
Y195713D01*
X303865Y195684D01*
X303850Y195676D01*
X303814Y195669D01*
X303311D01*
X303231Y195662D01*
X303150Y195654D01*
X303085Y195640D01*
X303034Y195633D01*
X302997Y195618D01*
X302968Y195611D01*
X302961D01*
X302888Y195589D01*
X302830Y195567D01*
X302771Y195538D01*
X302720Y195516D01*
X302684Y195494D01*
X302655Y195472D01*
X302640Y195465D01*
X302633Y195458D01*
X302538Y195377D01*
X302472Y195297D01*
X302450Y195268D01*
X302436Y195239D01*
X302421Y195224D01*
Y195217D01*
X302378Y195108D01*
X302356Y195006D01*
X302348Y194969D01*
Y194933D01*
Y194911D01*
Y194904D01*
X302356Y194794D01*
X302378Y194699D01*
X302385Y194663D01*
X302399Y194634D01*
X302407Y194619D01*
Y194612D01*
X302458Y194517D01*
X302509Y194444D01*
X302538Y194415D01*
X302553Y194401D01*
X302567Y194386D01*
X302574Y194379D01*
X302662Y194313D01*
X302749Y194269D01*
X302786Y194255D01*
X302815Y194240D01*
X302837Y194233D01*
X302844D01*
X302968Y194204D01*
X303034Y194196D01*
X303092Y194189D01*
X303143Y194182D01*
X303216D01*
X303369Y194189D01*
X303442Y194196D01*
X303500Y194204D01*
X303544Y194211D01*
X303588Y194218D01*
X303610Y194226D01*
X303617D01*
X303741Y194262D01*
X303792Y194284D01*
X303836Y194299D01*
X303879Y194313D01*
X303908Y194328D01*
X303923Y194335D01*
X303930D01*
X304018Y194379D01*
X304091Y194415D01*
X304134Y194444D01*
X304142Y194452D01*
X304149D01*
X304207Y194481D01*
X304237Y194495D01*
X304258Y194503D01*
X304266D01*
X304288Y194495D01*
X304309Y194481D01*
X304317Y194459D01*
X304324Y194452D01*
X304339Y194408D01*
X304346Y194357D01*
Y194313D01*
Y194306D01*
Y194299D01*
Y194255D01*
Y194218D01*
Y194189D01*
Y194182D01*
X304339Y194153D01*
Y194131D01*
X304331Y194116D01*
Y194109D01*
X304317Y194072D01*
X304309Y194065D01*
Y194058D01*
X304288Y194029D01*
X304273Y194021D01*
Y194014D01*
X304244Y193992D01*
X304207Y193970D01*
X304178Y193949D01*
X304164Y193941D01*
X304083Y193905D01*
X304011Y193876D01*
X303981Y193861D01*
X303952Y193854D01*
X303938Y193846D01*
X303930D01*
X303821Y193817D01*
X303719Y193796D01*
X303682Y193788D01*
X303646Y193781D01*
X303624Y193774D01*
X303617D01*
X303478Y193752D01*
X303413Y193745D01*
X303354D01*
X303303Y193737D01*
X303231D01*
X303107Y193745D01*
X302997Y193752D01*
X302888Y193766D01*
X302800Y193781D01*
X302728Y193796D01*
X302669Y193803D01*
X302640Y193817D01*
X302625D01*
X302531Y193854D01*
X302443Y193890D01*
X302363Y193934D01*
X302297Y193978D01*
X302246Y194007D01*
X302203Y194036D01*
X302181Y194058D01*
X302173Y194065D01*
X302108Y194131D01*
X302049Y194196D01*
X302006Y194255D01*
X301969Y194320D01*
X301933Y194371D01*
X301911Y194415D01*
X301904Y194444D01*
X301896Y194452D01*
X301860Y194539D01*
X301838Y194626D01*
X301816Y194714D01*
X301809Y194794D01*
X301802Y194860D01*
X301794Y194911D01*
Y194947D01*
Y194962D01*
X301809Y195100D01*
X301816Y195159D01*
X301831Y195210D01*
X301845Y195254D01*
X301853Y195290D01*
X301867Y195312D01*
Y195319D01*
X301926Y195436D01*
X301962Y195487D01*
X301991Y195530D01*
X302020Y195560D01*
X302042Y195589D01*
X302057Y195603D01*
X302064Y195611D01*
X302166Y195698D01*
X302261Y195764D01*
X302297Y195793D01*
X302334Y195808D01*
X302356Y195822D01*
X302363D01*
X302494Y195873D01*
X302560Y195895D01*
X302618Y195910D01*
X302677Y195917D01*
X302713Y195924D01*
X302742Y195931D01*
X302749D01*
X302625Y195968D01*
X302567Y195990D01*
X302523Y196004D01*
X302480Y196026D01*
X302450Y196041D01*
X302436Y196055D01*
X302429D01*
X302326Y196128D01*
X302254Y196201D01*
X302224Y196230D01*
X302203Y196252D01*
X302195Y196267D01*
X302188Y196274D01*
X302122Y196376D01*
X302071Y196471D01*
X302057Y196507D01*
X302042Y196537D01*
X302035Y196558D01*
Y196566D01*
X302006Y196690D01*
X301998Y196755D01*
X301991Y196806D01*
X301984Y196857D01*
Y196894D01*
Y196916D01*
Y196923D01*
Y197003D01*
X301998Y197083D01*
X302006Y197149D01*
X302020Y197214D01*
X302035Y197258D01*
X302042Y197302D01*
X302057Y197324D01*
Y197331D01*
X302122Y197455D01*
X302159Y197513D01*
X302195Y197557D01*
X302224Y197594D01*
X302254Y197623D01*
X302268Y197637D01*
X302275Y197645D01*
X302334Y197696D01*
X302392Y197739D01*
X302509Y197805D01*
X302553Y197827D01*
X302596Y197841D01*
X302625Y197856D01*
X302633D01*
X302800Y197900D01*
X302881Y197914D01*
X302954Y197922D01*
X303019Y197929D01*
X303121D01*
X303267Y197922D01*
D02*
G37*
G36*
X291370D02*
X291435Y197914D01*
X291486Y197907D01*
X291537Y197900D01*
X291574Y197892D01*
X291596Y197885D01*
X291603D01*
X291727Y197856D01*
X291778Y197841D01*
X291822Y197827D01*
X291858Y197812D01*
X291887Y197798D01*
X291902Y197790D01*
X291909D01*
X291997Y197754D01*
X292070Y197717D01*
X292099Y197703D01*
X292121Y197688D01*
X292128Y197681D01*
X292135D01*
X292193Y197645D01*
X292230Y197615D01*
X292252Y197601D01*
X292259Y197594D01*
X292288Y197557D01*
X292303Y197550D01*
Y197543D01*
X292317Y197506D01*
X292325Y197499D01*
Y197492D01*
X292332Y197455D01*
Y197441D01*
Y197433D01*
Y197375D01*
Y197353D01*
Y197346D01*
Y197302D01*
Y197266D01*
Y197244D01*
Y197236D01*
X292325Y197207D01*
Y197185D01*
X292317Y197178D01*
Y197171D01*
X292296Y197149D01*
X292288Y197142D01*
X292259Y197134D01*
X292245D01*
X292215Y197142D01*
X292179Y197163D01*
X292157Y197178D01*
X292142Y197185D01*
X292077Y197229D01*
X292011Y197266D01*
X291989Y197280D01*
X291968Y197295D01*
X291953Y197302D01*
X291946D01*
X291851Y197346D01*
X291763Y197389D01*
X291727Y197404D01*
X291698Y197419D01*
X291676Y197426D01*
X291669D01*
X291552Y197462D01*
X291450Y197477D01*
X291406Y197484D01*
X291340D01*
X291224Y197477D01*
X291173Y197470D01*
X291129Y197462D01*
X291100Y197448D01*
X291071Y197441D01*
X291056Y197433D01*
X291049D01*
X290961Y197389D01*
X290896Y197346D01*
X290852Y197309D01*
X290838Y197302D01*
Y197295D01*
X290787Y197229D01*
X290743Y197163D01*
X290728Y197142D01*
X290721Y197120D01*
X290714Y197105D01*
Y197098D01*
X290684Y197010D01*
X290677Y196938D01*
X290670Y196901D01*
Y196879D01*
Y196865D01*
Y196857D01*
X290677Y196733D01*
X290692Y196682D01*
X290699Y196639D01*
X290714Y196595D01*
X290728Y196566D01*
X290735Y196551D01*
Y196544D01*
X290787Y196449D01*
X290845Y196369D01*
X290867Y196340D01*
X290889Y196325D01*
X290903Y196310D01*
X290910Y196303D01*
X291005Y196238D01*
X291093Y196187D01*
X291136Y196172D01*
X291166Y196157D01*
X291187Y196150D01*
X291195D01*
X291319Y196121D01*
X291377Y196114D01*
X291435Y196106D01*
X291486Y196099D01*
X291909D01*
X291946Y196092D01*
X291953Y196084D01*
X291960D01*
X291989Y196063D01*
X291997Y196055D01*
X292004Y196048D01*
X292011Y196026D01*
X292019Y196004D01*
X292026Y195990D01*
Y195983D01*
X292033Y195953D01*
Y195924D01*
Y195895D01*
Y195888D01*
Y195844D01*
X292026Y195808D01*
Y195786D01*
Y195778D01*
X292011Y195749D01*
X292004Y195727D01*
X291997Y195720D01*
Y195713D01*
X291968Y195684D01*
X291953Y195676D01*
X291916Y195669D01*
X291413D01*
X291333Y195662D01*
X291253Y195654D01*
X291187Y195640D01*
X291136Y195633D01*
X291100Y195618D01*
X291071Y195611D01*
X291063D01*
X290991Y195589D01*
X290932Y195567D01*
X290874Y195538D01*
X290823Y195516D01*
X290787Y195494D01*
X290757Y195472D01*
X290743Y195465D01*
X290735Y195458D01*
X290641Y195377D01*
X290575Y195297D01*
X290553Y195268D01*
X290539Y195239D01*
X290524Y195224D01*
Y195217D01*
X290480Y195108D01*
X290458Y195006D01*
X290451Y194969D01*
Y194933D01*
Y194911D01*
Y194904D01*
X290458Y194794D01*
X290480Y194699D01*
X290488Y194663D01*
X290502Y194634D01*
X290510Y194619D01*
Y194612D01*
X290561Y194517D01*
X290612Y194444D01*
X290641Y194415D01*
X290655Y194401D01*
X290670Y194386D01*
X290677Y194379D01*
X290765Y194313D01*
X290852Y194269D01*
X290889Y194255D01*
X290918Y194240D01*
X290940Y194233D01*
X290947D01*
X291071Y194204D01*
X291136Y194196D01*
X291195Y194189D01*
X291246Y194182D01*
X291319D01*
X291472Y194189D01*
X291545Y194196D01*
X291603Y194204D01*
X291647Y194211D01*
X291690Y194218D01*
X291712Y194226D01*
X291720D01*
X291844Y194262D01*
X291895Y194284D01*
X291938Y194299D01*
X291982Y194313D01*
X292011Y194328D01*
X292026Y194335D01*
X292033D01*
X292121Y194379D01*
X292193Y194415D01*
X292237Y194444D01*
X292245Y194452D01*
X292252D01*
X292310Y194481D01*
X292339Y194495D01*
X292361Y194503D01*
X292368D01*
X292390Y194495D01*
X292412Y194481D01*
X292419Y194459D01*
X292427Y194452D01*
X292441Y194408D01*
X292449Y194357D01*
Y194313D01*
Y194306D01*
Y194299D01*
Y194255D01*
Y194218D01*
Y194189D01*
Y194182D01*
X292441Y194153D01*
Y194131D01*
X292434Y194116D01*
Y194109D01*
X292419Y194072D01*
X292412Y194065D01*
Y194058D01*
X292390Y194029D01*
X292376Y194021D01*
Y194014D01*
X292347Y193992D01*
X292310Y193970D01*
X292281Y193949D01*
X292266Y193941D01*
X292186Y193905D01*
X292113Y193876D01*
X292084Y193861D01*
X292055Y193854D01*
X292040Y193846D01*
X292033D01*
X291924Y193817D01*
X291822Y193796D01*
X291785Y193788D01*
X291749Y193781D01*
X291727Y193774D01*
X291720D01*
X291581Y193752D01*
X291515Y193745D01*
X291457D01*
X291406Y193737D01*
X291333D01*
X291209Y193745D01*
X291100Y193752D01*
X290991Y193766D01*
X290903Y193781D01*
X290830Y193796D01*
X290772Y193803D01*
X290743Y193817D01*
X290728D01*
X290633Y193854D01*
X290546Y193890D01*
X290466Y193934D01*
X290400Y193978D01*
X290349Y194007D01*
X290305Y194036D01*
X290283Y194058D01*
X290276Y194065D01*
X290211Y194131D01*
X290152Y194196D01*
X290108Y194255D01*
X290072Y194320D01*
X290036Y194371D01*
X290014Y194415D01*
X290006Y194444D01*
X289999Y194452D01*
X289963Y194539D01*
X289941Y194626D01*
X289919Y194714D01*
X289912Y194794D01*
X289904Y194860D01*
X289897Y194911D01*
Y194947D01*
Y194962D01*
X289912Y195100D01*
X289919Y195159D01*
X289934Y195210D01*
X289948Y195254D01*
X289955Y195290D01*
X289970Y195312D01*
Y195319D01*
X290028Y195436D01*
X290065Y195487D01*
X290094Y195530D01*
X290123Y195560D01*
X290145Y195589D01*
X290160Y195603D01*
X290167Y195611D01*
X290269Y195698D01*
X290364Y195764D01*
X290400Y195793D01*
X290437Y195808D01*
X290458Y195822D01*
X290466D01*
X290597Y195873D01*
X290663Y195895D01*
X290721Y195910D01*
X290779Y195917D01*
X290816Y195924D01*
X290845Y195931D01*
X290852D01*
X290728Y195968D01*
X290670Y195990D01*
X290626Y196004D01*
X290582Y196026D01*
X290553Y196041D01*
X290539Y196055D01*
X290531D01*
X290429Y196128D01*
X290356Y196201D01*
X290327Y196230D01*
X290305Y196252D01*
X290298Y196267D01*
X290291Y196274D01*
X290225Y196376D01*
X290174Y196471D01*
X290160Y196507D01*
X290145Y196537D01*
X290138Y196558D01*
Y196566D01*
X290108Y196690D01*
X290101Y196755D01*
X290094Y196806D01*
X290087Y196857D01*
Y196894D01*
Y196916D01*
Y196923D01*
Y197003D01*
X290101Y197083D01*
X290108Y197149D01*
X290123Y197214D01*
X290138Y197258D01*
X290145Y197302D01*
X290160Y197324D01*
Y197331D01*
X290225Y197455D01*
X290262Y197513D01*
X290298Y197557D01*
X290327Y197594D01*
X290356Y197623D01*
X290371Y197637D01*
X290378Y197645D01*
X290437Y197696D01*
X290495Y197739D01*
X290612Y197805D01*
X290655Y197827D01*
X290699Y197841D01*
X290728Y197856D01*
X290735D01*
X290903Y197900D01*
X290983Y197914D01*
X291056Y197922D01*
X291122Y197929D01*
X291224D01*
X291370Y197922D01*
D02*
G37*
G36*
X276039Y197922D02*
X276104Y197914D01*
X276155Y197907D01*
X276206Y197900D01*
X276243Y197892D01*
X276265Y197885D01*
X276272D01*
X276396Y197856D01*
X276447Y197841D01*
X276491Y197827D01*
X276527Y197812D01*
X276556Y197798D01*
X276571Y197790D01*
X276578D01*
X276666Y197754D01*
X276739Y197717D01*
X276768Y197703D01*
X276790Y197688D01*
X276797Y197681D01*
X276804D01*
X276863Y197645D01*
X276899Y197615D01*
X276921Y197601D01*
X276928Y197594D01*
X276957Y197557D01*
X276972Y197550D01*
Y197543D01*
X276987Y197506D01*
X276994Y197499D01*
Y197492D01*
X277001Y197455D01*
Y197441D01*
Y197433D01*
Y197375D01*
Y197353D01*
Y197346D01*
Y197302D01*
Y197266D01*
Y197244D01*
Y197236D01*
X276994Y197207D01*
Y197185D01*
X276987Y197178D01*
Y197171D01*
X276965Y197149D01*
X276957Y197142D01*
X276928Y197134D01*
X276914D01*
X276885Y197142D01*
X276848Y197163D01*
X276826Y197178D01*
X276812Y197185D01*
X276746Y197229D01*
X276680Y197266D01*
X276659Y197280D01*
X276637Y197295D01*
X276622Y197302D01*
X276615D01*
X276520Y197346D01*
X276432Y197389D01*
X276396Y197404D01*
X276367Y197419D01*
X276345Y197426D01*
X276338D01*
X276221Y197462D01*
X276119Y197477D01*
X276075Y197484D01*
X276010D01*
X275893Y197477D01*
X275842Y197470D01*
X275798Y197462D01*
X275769Y197448D01*
X275740Y197441D01*
X275725Y197433D01*
X275718D01*
X275631Y197389D01*
X275565Y197346D01*
X275521Y197309D01*
X275507Y197302D01*
Y197295D01*
X275456Y197229D01*
X275412Y197163D01*
X275397Y197142D01*
X275390Y197120D01*
X275383Y197105D01*
Y197098D01*
X275354Y197010D01*
X275346Y196938D01*
X275339Y196901D01*
Y196879D01*
Y196865D01*
Y196857D01*
X275346Y196733D01*
X275361Y196682D01*
X275368Y196639D01*
X275383Y196595D01*
X275397Y196566D01*
X275405Y196551D01*
Y196544D01*
X275456Y196449D01*
X275514Y196369D01*
X275536Y196340D01*
X275558Y196325D01*
X275572Y196310D01*
X275580Y196303D01*
X275674Y196238D01*
X275762Y196187D01*
X275805Y196172D01*
X275835Y196157D01*
X275857Y196150D01*
X275864D01*
X275988Y196121D01*
X276046Y196114D01*
X276104Y196106D01*
X276155Y196099D01*
X276578D01*
X276615Y196092D01*
X276622Y196084D01*
X276629D01*
X276659Y196063D01*
X276666Y196055D01*
X276673Y196048D01*
X276680Y196026D01*
X276688Y196004D01*
X276695Y195990D01*
Y195983D01*
X276702Y195953D01*
Y195924D01*
Y195895D01*
Y195888D01*
Y195844D01*
X276695Y195808D01*
Y195786D01*
Y195778D01*
X276680Y195749D01*
X276673Y195727D01*
X276666Y195720D01*
Y195713D01*
X276637Y195684D01*
X276622Y195676D01*
X276586Y195669D01*
X276082D01*
X276002Y195662D01*
X275922Y195654D01*
X275857Y195640D01*
X275805Y195633D01*
X275769Y195618D01*
X275740Y195611D01*
X275733D01*
X275660Y195589D01*
X275601Y195567D01*
X275543Y195538D01*
X275492Y195516D01*
X275456Y195494D01*
X275427Y195472D01*
X275412Y195465D01*
X275405Y195458D01*
X275310Y195377D01*
X275244Y195297D01*
X275222Y195268D01*
X275208Y195239D01*
X275193Y195224D01*
Y195217D01*
X275149Y195108D01*
X275128Y195006D01*
X275120Y194969D01*
Y194933D01*
Y194911D01*
Y194904D01*
X275128Y194794D01*
X275149Y194699D01*
X275157Y194663D01*
X275171Y194634D01*
X275179Y194619D01*
Y194612D01*
X275230Y194517D01*
X275281Y194444D01*
X275310Y194415D01*
X275324Y194401D01*
X275339Y194386D01*
X275346Y194379D01*
X275434Y194313D01*
X275521Y194269D01*
X275558Y194255D01*
X275587Y194240D01*
X275609Y194233D01*
X275616D01*
X275740Y194204D01*
X275805Y194196D01*
X275864Y194189D01*
X275915Y194182D01*
X275988D01*
X276141Y194189D01*
X276214Y194196D01*
X276272Y194204D01*
X276316Y194211D01*
X276360Y194218D01*
X276381Y194226D01*
X276389D01*
X276513Y194262D01*
X276564Y194284D01*
X276607Y194299D01*
X276651Y194313D01*
X276680Y194328D01*
X276695Y194335D01*
X276702D01*
X276790Y194379D01*
X276863Y194415D01*
X276906Y194444D01*
X276914Y194452D01*
X276921D01*
X276979Y194481D01*
X277008Y194495D01*
X277030Y194503D01*
X277038D01*
X277059Y194495D01*
X277081Y194481D01*
X277089Y194459D01*
X277096Y194452D01*
X277110Y194408D01*
X277118Y194357D01*
Y194313D01*
Y194306D01*
Y194299D01*
Y194255D01*
Y194218D01*
Y194189D01*
Y194182D01*
X277110Y194153D01*
Y194131D01*
X277103Y194116D01*
Y194109D01*
X277089Y194072D01*
X277081Y194065D01*
Y194058D01*
X277059Y194029D01*
X277045Y194021D01*
Y194014D01*
X277016Y193992D01*
X276979Y193970D01*
X276950Y193949D01*
X276936Y193941D01*
X276855Y193905D01*
X276782Y193876D01*
X276753Y193861D01*
X276724Y193854D01*
X276710Y193846D01*
X276702D01*
X276593Y193817D01*
X276491Y193796D01*
X276454Y193788D01*
X276418Y193781D01*
X276396Y193774D01*
X276389D01*
X276250Y193752D01*
X276185Y193744D01*
X276126D01*
X276075Y193737D01*
X276002D01*
X275878Y193744D01*
X275769Y193752D01*
X275660Y193766D01*
X275572Y193781D01*
X275499Y193796D01*
X275441Y193803D01*
X275412Y193817D01*
X275397D01*
X275303Y193854D01*
X275215Y193890D01*
X275135Y193934D01*
X275069Y193978D01*
X275018Y194007D01*
X274974Y194036D01*
X274953Y194058D01*
X274945Y194065D01*
X274880Y194131D01*
X274821Y194196D01*
X274778Y194255D01*
X274741Y194320D01*
X274705Y194371D01*
X274683Y194415D01*
X274676Y194444D01*
X274668Y194452D01*
X274632Y194539D01*
X274610Y194626D01*
X274588Y194714D01*
X274581Y194794D01*
X274573Y194860D01*
X274566Y194911D01*
Y194947D01*
Y194962D01*
X274581Y195100D01*
X274588Y195159D01*
X274603Y195210D01*
X274617Y195254D01*
X274624Y195290D01*
X274639Y195312D01*
Y195319D01*
X274697Y195436D01*
X274734Y195487D01*
X274763Y195530D01*
X274792Y195560D01*
X274814Y195589D01*
X274829Y195603D01*
X274836Y195611D01*
X274938Y195698D01*
X275033Y195764D01*
X275069Y195793D01*
X275106Y195808D01*
X275128Y195822D01*
X275135D01*
X275266Y195873D01*
X275332Y195895D01*
X275390Y195910D01*
X275448Y195917D01*
X275485Y195924D01*
X275514Y195931D01*
X275521D01*
X275397Y195968D01*
X275339Y195990D01*
X275295Y196004D01*
X275252Y196026D01*
X275222Y196041D01*
X275208Y196055D01*
X275201D01*
X275098Y196128D01*
X275026Y196201D01*
X274996Y196230D01*
X274974Y196252D01*
X274967Y196267D01*
X274960Y196274D01*
X274894Y196376D01*
X274843Y196471D01*
X274829Y196507D01*
X274814Y196537D01*
X274807Y196558D01*
Y196566D01*
X274778Y196690D01*
X274770Y196755D01*
X274763Y196806D01*
X274756Y196857D01*
Y196894D01*
Y196916D01*
Y196923D01*
Y197003D01*
X274770Y197083D01*
X274778Y197149D01*
X274792Y197214D01*
X274807Y197258D01*
X274814Y197302D01*
X274829Y197324D01*
Y197331D01*
X274894Y197455D01*
X274931Y197513D01*
X274967Y197557D01*
X274996Y197594D01*
X275026Y197623D01*
X275040Y197637D01*
X275047Y197645D01*
X275106Y197696D01*
X275164Y197739D01*
X275281Y197805D01*
X275324Y197827D01*
X275368Y197841D01*
X275397Y197856D01*
X275405D01*
X275572Y197900D01*
X275652Y197914D01*
X275725Y197922D01*
X275791Y197929D01*
X275893D01*
X276039Y197922D01*
D02*
G37*
G36*
X256997Y197863D02*
X257041Y197849D01*
X257070Y197827D01*
X257078Y197820D01*
X257099Y197776D01*
X257114Y197717D01*
X257121Y197674D01*
Y197667D01*
Y197659D01*
Y196004D01*
X257114Y195931D01*
X257099Y195880D01*
X257092Y195851D01*
X257085Y195844D01*
X257048Y195822D01*
X257012Y195808D01*
X256976Y195800D01*
X256961D01*
X256873Y195808D01*
X256786Y195815D01*
X256757D01*
X256728Y195822D01*
X256706D01*
X256596Y195837D01*
X256487Y195844D01*
X256283D01*
X256188Y195837D01*
X256108Y195829D01*
X256042Y195822D01*
X255984Y195808D01*
X255948Y195800D01*
X255918Y195793D01*
X255911D01*
X255838Y195771D01*
X255780Y195749D01*
X255722Y195720D01*
X255678Y195698D01*
X255641Y195676D01*
X255612Y195654D01*
X255598Y195647D01*
X255590Y195640D01*
X255503Y195560D01*
X255445Y195480D01*
X255423Y195443D01*
X255408Y195421D01*
X255401Y195399D01*
Y195392D01*
X255364Y195275D01*
X255343Y195166D01*
X255335Y195122D01*
Y195086D01*
Y195057D01*
Y195049D01*
Y194969D01*
X255350Y194889D01*
X255357Y194823D01*
X255372Y194765D01*
X255386Y194721D01*
X255394Y194685D01*
X255408Y194663D01*
Y194656D01*
X255474Y194546D01*
X255503Y194503D01*
X255539Y194459D01*
X255569Y194430D01*
X255590Y194408D01*
X255605Y194393D01*
X255612Y194386D01*
X255714Y194313D01*
X255809Y194262D01*
X255853Y194247D01*
X255889Y194233D01*
X255911Y194226D01*
X255918D01*
X256050Y194204D01*
X256115Y194189D01*
X256174D01*
X256232Y194182D01*
X256385D01*
X256458Y194189D01*
X256531Y194196D01*
X256589Y194204D01*
X256633D01*
X256669Y194211D01*
X256691Y194218D01*
X256698D01*
X256808Y194247D01*
X256859Y194262D01*
X256895Y194277D01*
X256932Y194291D01*
X256954Y194299D01*
X256968Y194306D01*
X256976D01*
X257048Y194342D01*
X257107Y194371D01*
X257136Y194386D01*
X257150Y194393D01*
X257194Y194422D01*
X257223Y194430D01*
X257238Y194437D01*
X257245D01*
X257274Y194430D01*
X257282Y194422D01*
X257289D01*
X257311Y194393D01*
X257318Y194386D01*
Y194379D01*
X257325Y194357D01*
Y194335D01*
X257333Y194320D01*
Y194313D01*
Y194277D01*
Y194247D01*
Y194226D01*
Y194218D01*
Y194175D01*
Y194145D01*
Y194123D01*
Y194116D01*
X257325Y194072D01*
Y194058D01*
Y194051D01*
X257311Y194014D01*
X257304Y194007D01*
Y194000D01*
X257289Y193978D01*
X257274Y193970D01*
Y193963D01*
X257245Y193949D01*
X257209Y193927D01*
X257180Y193912D01*
X257165Y193905D01*
X257092Y193876D01*
X257019Y193854D01*
X256990Y193846D01*
X256968Y193839D01*
X256954Y193832D01*
X256946D01*
X256844Y193810D01*
X256750Y193788D01*
X256706Y193781D01*
X256677Y193774D01*
X256655Y193766D01*
X256647D01*
X256516Y193752D01*
X256458Y193744D01*
X256399D01*
X256348Y193737D01*
X256283D01*
X256159Y193744D01*
X256042Y193752D01*
X255940Y193766D01*
X255853Y193781D01*
X255773Y193796D01*
X255722Y193810D01*
X255685Y193825D01*
X255671D01*
X255569Y193861D01*
X255474Y193905D01*
X255394Y193949D01*
X255321Y193992D01*
X255270Y194029D01*
X255226Y194058D01*
X255197Y194080D01*
X255189Y194087D01*
X255117Y194153D01*
X255051Y194226D01*
X255000Y194299D01*
X254956Y194371D01*
X254920Y194430D01*
X254898Y194473D01*
X254883Y194503D01*
X254876Y194517D01*
X254839Y194619D01*
X254810Y194714D01*
X254788Y194816D01*
X254774Y194904D01*
X254767Y194984D01*
X254759Y195042D01*
Y195086D01*
Y195100D01*
Y195195D01*
X254774Y195290D01*
X254788Y195370D01*
X254803Y195443D01*
X254818Y195501D01*
X254832Y195545D01*
X254839Y195574D01*
X254847Y195581D01*
X254883Y195662D01*
X254920Y195735D01*
X254963Y195793D01*
X255007Y195851D01*
X255044Y195895D01*
X255073Y195924D01*
X255095Y195946D01*
X255102Y195953D01*
X255168Y196004D01*
X255240Y196055D01*
X255306Y196092D01*
X255379Y196128D01*
X255437Y196150D01*
X255481Y196172D01*
X255510Y196187D01*
X255525D01*
X255620Y196216D01*
X255722Y196238D01*
X255824Y196252D01*
X255911Y196267D01*
X255991D01*
X256057Y196274D01*
X256297D01*
X256327Y196267D01*
X256451D01*
X256516Y196259D01*
X256545Y196252D01*
X256567D01*
X256575Y196245D01*
X256582D01*
Y197397D01*
X255131D01*
X255095Y197404D01*
X255073Y197426D01*
X255058Y197448D01*
X255051Y197455D01*
X255029Y197513D01*
X255022Y197564D01*
X255014Y197615D01*
Y197623D01*
Y197630D01*
Y197674D01*
X255022Y197710D01*
X255029Y197732D01*
Y197739D01*
X255036Y197768D01*
X255044Y197790D01*
X255051Y197805D01*
Y197812D01*
X255073Y197849D01*
X255080Y197856D01*
X255087D01*
X255124Y197871D01*
X256939D01*
X256997Y197863D01*
D02*
G37*
G36*
X271337Y196843D02*
X271395Y196835D01*
X271439D01*
X271483Y196828D01*
X271512Y196821D01*
X271534Y196813D01*
X271541D01*
X271657Y196792D01*
X271709Y196777D01*
X271752Y196770D01*
X271789Y196755D01*
X271818Y196748D01*
X271832Y196741D01*
X271840D01*
X271935Y196704D01*
X272007Y196675D01*
X272037Y196660D01*
X272059Y196646D01*
X272073Y196639D01*
X272080D01*
X272146Y196602D01*
X272190Y196573D01*
X272219Y196551D01*
X272226Y196544D01*
X272248Y196515D01*
X272263Y196485D01*
X272277Y196464D01*
Y196456D01*
X272285Y196420D01*
Y196376D01*
Y196347D01*
Y196340D01*
Y196332D01*
Y196303D01*
Y196274D01*
Y196252D01*
Y196245D01*
X272270Y196201D01*
X272263Y196187D01*
Y196179D01*
X272241Y196150D01*
X272233Y196143D01*
X272197Y196136D01*
X272182D01*
X272153Y196143D01*
X272117Y196157D01*
X272088Y196172D01*
X272073Y196179D01*
X272007Y196216D01*
X271942Y196245D01*
X271920Y196259D01*
X271898Y196267D01*
X271884Y196274D01*
X271876D01*
X271789Y196318D01*
X271701Y196347D01*
X271665Y196362D01*
X271636Y196369D01*
X271621Y196376D01*
X271614D01*
X271497Y196405D01*
X271380Y196420D01*
X271337Y196427D01*
X271264D01*
X271140Y196420D01*
X271089Y196413D01*
X271045Y196405D01*
X271016Y196398D01*
X270987Y196391D01*
X270972Y196383D01*
X270965D01*
X270885Y196347D01*
X270819Y196303D01*
X270783Y196267D01*
X270768Y196259D01*
Y196252D01*
X270717Y196187D01*
X270681Y196114D01*
X270666Y196084D01*
X270659Y196063D01*
X270652Y196048D01*
Y196041D01*
X270630Y195946D01*
X270622Y195851D01*
X270615Y195815D01*
Y195786D01*
Y195764D01*
Y195756D01*
Y195538D01*
X271125D01*
X271242Y195530D01*
X271344Y195523D01*
X271431Y195509D01*
X271504Y195501D01*
X271555Y195487D01*
X271592Y195480D01*
X271606D01*
X271701Y195458D01*
X271789Y195428D01*
X271862Y195399D01*
X271927Y195370D01*
X271978Y195348D01*
X272015Y195326D01*
X272044Y195312D01*
X272051Y195305D01*
X272117Y195261D01*
X272168Y195210D01*
X272219Y195159D01*
X272255Y195115D01*
X272292Y195071D01*
X272314Y195035D01*
X272321Y195013D01*
X272328Y195006D01*
X272357Y194940D01*
X272379Y194867D01*
X272401Y194801D01*
X272408Y194736D01*
X272416Y194678D01*
X272423Y194634D01*
Y194605D01*
Y194597D01*
X272416Y194452D01*
X272401Y194393D01*
X272387Y194342D01*
X272379Y194291D01*
X272365Y194262D01*
X272357Y194240D01*
Y194233D01*
X272299Y194123D01*
X272263Y194072D01*
X272233Y194036D01*
X272204Y194000D01*
X272182Y193978D01*
X272168Y193963D01*
X272161Y193956D01*
X272059Y193883D01*
X271956Y193832D01*
X271920Y193817D01*
X271884Y193803D01*
X271862Y193796D01*
X271854D01*
X271716Y193759D01*
X271643Y193752D01*
X271585Y193744D01*
X271526Y193737D01*
X271446D01*
X271351Y193744D01*
X271264Y193752D01*
X271184Y193766D01*
X271111Y193788D01*
X271052Y193810D01*
X271001Y193825D01*
X270972Y193832D01*
X270965Y193839D01*
X270878Y193883D01*
X270805Y193934D01*
X270732Y193985D01*
X270666Y194036D01*
X270622Y194080D01*
X270579Y194116D01*
X270557Y194138D01*
X270549Y194145D01*
Y193861D01*
X270542Y193839D01*
X270535Y193825D01*
X270528Y193810D01*
X270506Y193803D01*
X270484Y193796D01*
X270462Y193788D01*
X270455D01*
X270411Y193781D01*
X270367Y193774D01*
X270272D01*
X270229Y193781D01*
X270207Y193788D01*
X270199D01*
X270163Y193796D01*
X270141Y193803D01*
X270134Y193810D01*
X270127D01*
X270112Y193825D01*
X270097Y193839D01*
Y193854D01*
Y193861D01*
Y195778D01*
Y195873D01*
X270105Y195961D01*
X270119Y196041D01*
X270127Y196106D01*
X270141Y196165D01*
X270156Y196201D01*
X270163Y196230D01*
Y196238D01*
X270185Y196310D01*
X270214Y196376D01*
X270251Y196434D01*
X270280Y196485D01*
X270309Y196522D01*
X270331Y196551D01*
X270345Y196566D01*
X270353Y196573D01*
X270404Y196617D01*
X270462Y196660D01*
X270579Y196726D01*
X270630Y196748D01*
X270666Y196763D01*
X270695Y196777D01*
X270703D01*
X270783Y196799D01*
X270870Y196821D01*
X270958Y196835D01*
X271038Y196843D01*
X271111Y196850D01*
X271220D01*
X271337Y196843D01*
D02*
G37*
G36*
X299651Y195589D02*
X299680Y195574D01*
X299695Y195552D01*
X299702Y195545D01*
X299709Y195523D01*
X299717Y195501D01*
X299724Y195443D01*
Y195399D01*
Y195385D01*
Y195377D01*
X299717Y195305D01*
X299709Y195254D01*
X299702Y195217D01*
Y195210D01*
X299673Y195188D01*
X299644Y195173D01*
X299622Y195166D01*
X298303D01*
X298266Y195173D01*
X298237Y195188D01*
X298222Y195202D01*
X298215Y195210D01*
X298208Y195232D01*
X298200Y195254D01*
X298186Y195312D01*
Y195355D01*
Y195370D01*
Y195377D01*
Y195421D01*
X298193Y195450D01*
X298200Y195472D01*
Y195480D01*
X298208Y195509D01*
X298215Y195530D01*
X298222Y195538D01*
Y195545D01*
X298237Y195567D01*
X298244Y195574D01*
X298251Y195581D01*
X298259D01*
X298288Y195596D01*
X299615D01*
X299651Y195589D01*
D02*
G37*
G36*
X307313Y197863D02*
X307357Y197841D01*
X307386Y197820D01*
X307400Y197812D01*
X307437Y197761D01*
X307459Y197703D01*
X307466Y197659D01*
Y197645D01*
Y197637D01*
Y193868D01*
X307459Y193839D01*
Y193832D01*
Y193825D01*
X307430Y193810D01*
X307422Y193803D01*
X307415D01*
X307357Y193796D01*
X307335Y193788D01*
X307328D01*
X307284Y193781D01*
X307240Y193774D01*
X307145D01*
X307109Y193781D01*
X307080Y193788D01*
X307072D01*
X307036Y193796D01*
X307014D01*
X306999Y193803D01*
X306992D01*
X306970Y193810D01*
X306956Y193817D01*
X306941Y193825D01*
X306926Y193854D01*
Y193868D01*
Y195341D01*
X306467D01*
X306329Y195348D01*
X306205Y195355D01*
X306096Y195370D01*
X306001Y195385D01*
X305921Y195399D01*
X305870Y195414D01*
X305833Y195428D01*
X305819D01*
X305716Y195465D01*
X305629Y195509D01*
X305549Y195552D01*
X305483Y195596D01*
X305425Y195640D01*
X305388Y195669D01*
X305359Y195691D01*
X305352Y195698D01*
X305286Y195764D01*
X305228Y195837D01*
X305177Y195910D01*
X305133Y195975D01*
X305104Y196034D01*
X305082Y196077D01*
X305068Y196114D01*
X305060Y196121D01*
X305024Y196216D01*
X305002Y196310D01*
X304980Y196405D01*
X304973Y196493D01*
X304965Y196566D01*
X304958Y196624D01*
Y196660D01*
Y196675D01*
X304965Y196835D01*
X304980Y196908D01*
X304987Y196967D01*
X305002Y197018D01*
X305017Y197054D01*
X305024Y197083D01*
Y197091D01*
X305082Y197222D01*
X305111Y197280D01*
X305140Y197331D01*
X305170Y197368D01*
X305191Y197404D01*
X305206Y197419D01*
X305213Y197426D01*
X305308Y197528D01*
X305403Y197608D01*
X305447Y197637D01*
X305476Y197659D01*
X305498Y197667D01*
X305505Y197674D01*
X305629Y197739D01*
X305687Y197761D01*
X305738Y197776D01*
X305775Y197790D01*
X305811Y197798D01*
X305833Y197805D01*
X305840D01*
X305957Y197827D01*
X306008Y197834D01*
X306052Y197841D01*
X306081Y197849D01*
X306110Y197856D01*
X306132D01*
X306219Y197863D01*
X306300Y197871D01*
X307255D01*
X307313Y197863D01*
D02*
G37*
G36*
X294803Y197885D02*
X294818D01*
X294862Y197878D01*
X294891Y197871D01*
X294913Y197863D01*
X294920D01*
X294964Y197849D01*
X294971Y197841D01*
X294978Y197834D01*
X295000Y197798D01*
X295007Y197783D01*
Y197776D01*
X296371Y193985D01*
X296385Y193934D01*
X296392Y193897D01*
X296400Y193876D01*
Y193868D01*
X296392Y193846D01*
X296385Y193825D01*
X296378Y193817D01*
Y193810D01*
X296356Y193803D01*
X296327Y193796D01*
X296305Y193788D01*
X296298D01*
X296247Y193781D01*
X296196Y193774D01*
X296086D01*
X296043Y193781D01*
X296006D01*
X295970Y193788D01*
X295940D01*
X295926Y193796D01*
X295919D01*
X295882Y193817D01*
X295875Y193832D01*
X295853Y193868D01*
X295846Y193876D01*
Y193883D01*
X295518Y194867D01*
X293819D01*
X293469Y193868D01*
X293447Y193832D01*
X293440Y193825D01*
Y193817D01*
X293411Y193803D01*
X293404Y193796D01*
X293396D01*
X293367Y193788D01*
X293338D01*
X293316Y193781D01*
X293309D01*
X293258Y193774D01*
X293090D01*
X293039Y193781D01*
X292995D01*
X292959Y193788D01*
X292930Y193796D01*
X292922Y193803D01*
X292915D01*
X292901Y193825D01*
X292893Y193846D01*
Y193861D01*
Y193868D01*
Y193905D01*
X292901Y193941D01*
X292908Y193970D01*
X292915Y193985D01*
X294286Y197776D01*
X294307Y197812D01*
X294315Y197827D01*
X294322D01*
X294344Y197849D01*
X294366Y197856D01*
X294380Y197863D01*
X294388D01*
X294417Y197871D01*
X294453Y197878D01*
X294475Y197885D01*
X294490D01*
X294541Y197892D01*
X294774D01*
X294803Y197885D01*
D02*
G37*
G36*
X279472Y197885D02*
X279487D01*
X279531Y197878D01*
X279560Y197871D01*
X279582Y197863D01*
X279589D01*
X279633Y197849D01*
X279640Y197841D01*
X279647Y197834D01*
X279669Y197798D01*
X279677Y197783D01*
Y197776D01*
X281040Y193985D01*
X281054Y193934D01*
X281062Y193897D01*
X281069Y193876D01*
Y193868D01*
X281062Y193846D01*
X281054Y193825D01*
X281047Y193817D01*
Y193810D01*
X281025Y193803D01*
X280996Y193796D01*
X280974Y193788D01*
X280967D01*
X280916Y193781D01*
X280865Y193774D01*
X280755D01*
X280712Y193781D01*
X280675D01*
X280639Y193788D01*
X280610D01*
X280595Y193796D01*
X280588D01*
X280551Y193817D01*
X280544Y193832D01*
X280522Y193868D01*
X280515Y193876D01*
Y193883D01*
X280187Y194867D01*
X278488D01*
X278138Y193868D01*
X278116Y193832D01*
X278109Y193825D01*
Y193817D01*
X278080Y193803D01*
X278073Y193796D01*
X278065D01*
X278036Y193788D01*
X278007D01*
X277985Y193781D01*
X277978D01*
X277927Y193774D01*
X277759D01*
X277708Y193781D01*
X277664D01*
X277628Y193788D01*
X277599Y193796D01*
X277592Y193803D01*
X277584D01*
X277570Y193825D01*
X277562Y193846D01*
Y193861D01*
Y193868D01*
Y193905D01*
X277570Y193941D01*
X277577Y193970D01*
X277584Y193985D01*
X278955Y197776D01*
X278977Y197812D01*
X278984Y197827D01*
X278991D01*
X279013Y197849D01*
X279035Y197856D01*
X279050Y197863D01*
X279057D01*
X279086Y197871D01*
X279122Y197878D01*
X279144Y197885D01*
X279159D01*
X279210Y197892D01*
X279443D01*
X279472Y197885D01*
D02*
G37*
G36*
X267808Y196843D02*
X267896Y196828D01*
X267976Y196806D01*
X268049Y196784D01*
X268115Y196763D01*
X268158Y196741D01*
X268187Y196726D01*
X268202Y196719D01*
X268289Y196668D01*
X268377Y196609D01*
X268457Y196544D01*
X268523Y196478D01*
X268588Y196420D01*
X268632Y196376D01*
X268661Y196347D01*
X268676Y196332D01*
Y196704D01*
X268683Y196741D01*
X268690Y196748D01*
X268698Y196763D01*
X268712Y196770D01*
X268720Y196777D01*
X268727D01*
X268749Y196784D01*
X268771Y196792D01*
X268793Y196799D01*
X268800D01*
X268836Y196806D01*
X268997D01*
X269019Y196799D01*
X269026D01*
X269055Y196792D01*
X269077Y196784D01*
X269091Y196777D01*
X269099D01*
X269113Y196770D01*
X269128Y196755D01*
X269135Y196748D01*
X269143Y196719D01*
Y196712D01*
Y196704D01*
Y193868D01*
X269135Y193839D01*
Y193825D01*
X269106Y193803D01*
X269099Y193796D01*
X269091D01*
X269040Y193788D01*
X269026Y193781D01*
X269019D01*
X268975Y193774D01*
X268836D01*
X268793Y193781D01*
X268763D01*
X268727Y193788D01*
X268705D01*
X268690Y193796D01*
X268683D01*
X268647Y193817D01*
X268639Y193825D01*
X268625Y193854D01*
Y193861D01*
Y193868D01*
Y195851D01*
X268545Y195946D01*
X268472Y196026D01*
X268406Y196092D01*
X268341Y196150D01*
X268289Y196194D01*
X268253Y196230D01*
X268224Y196245D01*
X268217Y196252D01*
X268144Y196303D01*
X268071Y196340D01*
X268005Y196362D01*
X267947Y196383D01*
X267896Y196391D01*
X267859Y196398D01*
X267823D01*
X267721Y196391D01*
X267633Y196369D01*
X267604Y196362D01*
X267582Y196347D01*
X267568Y196340D01*
X267561D01*
X267480Y196289D01*
X267422Y196238D01*
X267386Y196194D01*
X267371Y196179D01*
Y196172D01*
X267320Y196092D01*
X267291Y196004D01*
X267276Y195968D01*
X267269Y195946D01*
X267262Y195924D01*
Y195917D01*
X267247Y195859D01*
X267232Y195793D01*
X267225Y195669D01*
X267218Y195618D01*
Y195574D01*
Y195538D01*
Y195530D01*
Y193868D01*
X267211Y193839D01*
Y193825D01*
X267181Y193803D01*
X267174Y193796D01*
X267167D01*
X267116Y193788D01*
X267101Y193781D01*
X267094D01*
X267050Y193774D01*
X266912D01*
X266868Y193781D01*
X266839D01*
X266802Y193788D01*
X266780D01*
X266766Y193796D01*
X266759D01*
X266722Y193817D01*
X266715Y193825D01*
X266700Y193854D01*
Y193861D01*
Y193868D01*
Y195596D01*
Y195705D01*
X266708Y195808D01*
X266715Y195895D01*
X266729Y195968D01*
X266737Y196034D01*
X266751Y196077D01*
X266759Y196106D01*
Y196114D01*
X266780Y196194D01*
X266810Y196267D01*
X266839Y196332D01*
X266868Y196383D01*
X266890Y196427D01*
X266912Y196464D01*
X266926Y196485D01*
X266934Y196493D01*
X266977Y196551D01*
X267028Y196602D01*
X267087Y196646D01*
X267130Y196682D01*
X267181Y196712D01*
X267211Y196733D01*
X267240Y196741D01*
X267247Y196748D01*
X267320Y196784D01*
X267400Y196806D01*
X267480Y196828D01*
X267553Y196835D01*
X267619Y196843D01*
X267670Y196850D01*
X267721D01*
X267808Y196843D01*
D02*
G37*
G36*
X259680Y197885D02*
X259695D01*
X259738Y197878D01*
X259768Y197871D01*
X259789Y197863D01*
X259797D01*
X259840Y197849D01*
X259848Y197841D01*
X259855Y197834D01*
X259877Y197798D01*
X259884Y197783D01*
Y197776D01*
X261247Y193985D01*
X261262Y193934D01*
X261269Y193897D01*
X261277Y193876D01*
Y193868D01*
X261269Y193846D01*
X261262Y193825D01*
X261255Y193817D01*
Y193810D01*
X261233Y193803D01*
X261204Y193796D01*
X261182Y193788D01*
X261175D01*
X261123Y193781D01*
X261072Y193774D01*
X260963D01*
X260919Y193781D01*
X260883D01*
X260846Y193788D01*
X260817D01*
X260803Y193796D01*
X260795D01*
X260759Y193817D01*
X260752Y193832D01*
X260730Y193868D01*
X260722Y193876D01*
Y193883D01*
X260395Y194867D01*
X258696D01*
X258346Y193868D01*
X258324Y193832D01*
X258317Y193825D01*
Y193817D01*
X258288Y193803D01*
X258280Y193796D01*
X258273D01*
X258244Y193788D01*
X258215D01*
X258193Y193781D01*
X258186D01*
X258135Y193774D01*
X257967D01*
X257916Y193781D01*
X257872D01*
X257836Y193788D01*
X257806Y193796D01*
X257799Y193803D01*
X257792D01*
X257777Y193825D01*
X257770Y193846D01*
Y193861D01*
Y193868D01*
Y193905D01*
X257777Y193941D01*
X257785Y193970D01*
X257792Y193985D01*
X259162Y197776D01*
X259184Y197812D01*
X259192Y197827D01*
X259199D01*
X259221Y197849D01*
X259243Y197856D01*
X259257Y197863D01*
X259264D01*
X259294Y197871D01*
X259330Y197878D01*
X259352Y197885D01*
X259367D01*
X259418Y197892D01*
X259651D01*
X259680Y197885D01*
D02*
G37*
G36*
X308931Y197885D02*
X308939D01*
X308975Y197878D01*
X309004Y197871D01*
X309019Y197863D01*
X309026D01*
X309055Y197841D01*
X309070Y197834D01*
Y197827D01*
X309077Y197805D01*
Y197798D01*
Y197790D01*
Y194874D01*
Y194801D01*
X309084Y194736D01*
Y194678D01*
X309092Y194634D01*
X309099Y194590D01*
Y194561D01*
X309106Y194546D01*
Y194539D01*
X309128Y194459D01*
X309150Y194393D01*
X309172Y194357D01*
X309179Y194342D01*
X309223Y194299D01*
X309267Y194262D01*
X309296Y194247D01*
X309303Y194240D01*
X309310D01*
X309369Y194226D01*
X309427Y194218D01*
X309493D01*
X309558Y194226D01*
X309609Y194233D01*
X309646Y194240D01*
X309660D01*
X309711Y194255D01*
X309755Y194277D01*
X309784Y194284D01*
X309791Y194291D01*
X309828Y194313D01*
X309857Y194328D01*
X309879Y194342D01*
X309886D01*
X309908Y194357D01*
X309930Y194371D01*
X309952D01*
X309981Y194364D01*
X309988Y194357D01*
X309996D01*
X310017Y194328D01*
X310025Y194320D01*
Y194313D01*
X310032Y194291D01*
Y194269D01*
X310039Y194255D01*
Y194247D01*
Y194211D01*
Y194175D01*
Y194145D01*
Y194131D01*
Y194087D01*
Y194058D01*
Y194036D01*
Y194029D01*
X310032Y193985D01*
Y193970D01*
Y193963D01*
X310017Y193934D01*
X310010Y193927D01*
Y193919D01*
X309988Y193897D01*
X309981Y193890D01*
Y193883D01*
X309966Y193868D01*
X309945Y193854D01*
X309923Y193846D01*
X309915Y193839D01*
X309872Y193817D01*
X309828Y193803D01*
X309799Y193796D01*
X309784Y193788D01*
X309726Y193774D01*
X309675Y193759D01*
X309638Y193752D01*
X309624D01*
X309558Y193745D01*
X309500Y193737D01*
X309354D01*
X309274Y193752D01*
X309201Y193759D01*
X309135Y193774D01*
X309084Y193788D01*
X309048Y193796D01*
X309026Y193810D01*
X309019D01*
X308953Y193839D01*
X308902Y193876D01*
X308851Y193912D01*
X308815Y193949D01*
X308786Y193978D01*
X308764Y194007D01*
X308749Y194021D01*
X308742Y194029D01*
X308669Y194145D01*
X308625Y194255D01*
X308611Y194299D01*
X308596Y194342D01*
X308589Y194364D01*
Y194371D01*
X308559Y194525D01*
X308552Y194605D01*
X308545Y194670D01*
X308538Y194729D01*
Y194772D01*
Y194809D01*
Y194816D01*
Y197790D01*
X308545Y197820D01*
X308552Y197827D01*
X308567Y197841D01*
X308581Y197856D01*
X308596Y197863D01*
X308603D01*
X308625Y197871D01*
X308654Y197878D01*
X308676Y197885D01*
X308683D01*
X308727Y197892D01*
X308902D01*
X308931Y197885D01*
D02*
G37*
G36*
X263682Y198162D02*
X263711Y198155D01*
X263719D01*
X263755Y198148D01*
X263777Y198140D01*
X263792Y198133D01*
X263799D01*
X263828Y198118D01*
X263843Y198111D01*
Y198104D01*
X263850Y198082D01*
Y198075D01*
Y198067D01*
Y196420D01*
X263923Y196493D01*
X264003Y196558D01*
X264069Y196617D01*
X264134Y196660D01*
X264185Y196697D01*
X264229Y196719D01*
X264258Y196733D01*
X264265Y196741D01*
X264346Y196777D01*
X264419Y196806D01*
X264499Y196821D01*
X264564Y196835D01*
X264630Y196843D01*
X264674Y196850D01*
X264717D01*
X264827Y196843D01*
X264929Y196835D01*
X265016Y196813D01*
X265096Y196792D01*
X265162Y196770D01*
X265206Y196755D01*
X265242Y196741D01*
X265250Y196733D01*
X265330Y196690D01*
X265403Y196639D01*
X265468Y196588D01*
X265527Y196529D01*
X265570Y196485D01*
X265599Y196449D01*
X265621Y196420D01*
X265629Y196413D01*
X265680Y196332D01*
X265731Y196245D01*
X265767Y196165D01*
X265804Y196084D01*
X265826Y196012D01*
X265847Y195961D01*
X265855Y195924D01*
X265862Y195910D01*
X265906Y195684D01*
X265920Y195574D01*
X265928Y195472D01*
Y195385D01*
X265935Y195312D01*
Y195268D01*
Y195261D01*
Y195254D01*
Y195137D01*
X265928Y195035D01*
X265913Y194933D01*
X265906Y194845D01*
X265891Y194772D01*
X265884Y194714D01*
X265877Y194678D01*
Y194663D01*
X265847Y194561D01*
X265818Y194473D01*
X265782Y194386D01*
X265753Y194320D01*
X265723Y194262D01*
X265702Y194218D01*
X265687Y194189D01*
X265680Y194182D01*
X265621Y194109D01*
X265563Y194043D01*
X265505Y193985D01*
X265446Y193941D01*
X265395Y193905D01*
X265359Y193876D01*
X265330Y193861D01*
X265322Y193854D01*
X265235Y193817D01*
X265140Y193788D01*
X265053Y193766D01*
X264965Y193752D01*
X264892Y193744D01*
X264834Y193737D01*
X264783D01*
X264681Y193744D01*
X264579Y193759D01*
X264491Y193781D01*
X264411Y193803D01*
X264346Y193825D01*
X264302Y193846D01*
X264265Y193861D01*
X264258Y193868D01*
X264171Y193927D01*
X264083Y193985D01*
X264003Y194051D01*
X263937Y194109D01*
X263879Y194167D01*
X263828Y194211D01*
X263799Y194240D01*
X263792Y194247D01*
Y193868D01*
X263784Y193839D01*
Y193832D01*
Y193825D01*
X263755Y193803D01*
X263748Y193796D01*
X263741D01*
X263690Y193788D01*
X263675Y193781D01*
X263668D01*
X263631Y193774D01*
X263515D01*
X263478Y193781D01*
X263449D01*
X263420Y193788D01*
X263398D01*
X263391Y193796D01*
X263383D01*
X263347Y193810D01*
X263340Y193817D01*
X263325Y193854D01*
Y193861D01*
Y193868D01*
Y198067D01*
X263332Y198097D01*
X263340Y198104D01*
X263369Y198126D01*
X263376Y198133D01*
X263383D01*
X263405Y198140D01*
X263434Y198148D01*
X263456Y198155D01*
X263464D01*
X263507Y198162D01*
X263551Y198170D01*
X263646D01*
X263682Y198162D01*
D02*
G37*
G36*
X285953Y198417D02*
X285961D01*
X285990Y198410D01*
X286019Y198403D01*
X286033Y198396D01*
X286041D01*
X286077Y198374D01*
X286084Y198366D01*
X286092Y198359D01*
X286099Y198337D01*
X286114Y198315D01*
X286121Y198301D01*
Y198293D01*
X288024Y193081D01*
X288038Y193052D01*
Y193030D01*
Y193016D01*
Y193008D01*
X288024Y192979D01*
X288009Y192964D01*
X287987Y192950D01*
X287958Y192935D01*
X287936Y192928D01*
X287929D01*
X287885Y192921D01*
X287834Y192913D01*
X287747D01*
X287710Y192921D01*
X287681D01*
X287652Y192928D01*
X287630Y192935D01*
X287615Y192943D01*
X287608D01*
X287586Y192957D01*
X287572Y192964D01*
X287557Y192979D01*
X287542Y193001D01*
X287528Y193023D01*
X287521Y193037D01*
Y193045D01*
X285611Y198257D01*
X285603Y198286D01*
Y198308D01*
Y198323D01*
Y198330D01*
X285611Y198352D01*
X285625Y198366D01*
X285632Y198374D01*
X285640D01*
X285662Y198388D01*
X285691Y198403D01*
X285713Y198410D01*
X285720D01*
X285764Y198417D01*
X285800Y198425D01*
X285931D01*
X285953Y198417D01*
D02*
G37*
%LPC*%
G36*
X277985Y215835D02*
X277460D01*
Y215230D01*
X277533Y215157D01*
X277599Y215092D01*
X277664Y215041D01*
X277723Y214997D01*
X277766Y214961D01*
X277803Y214939D01*
X277825Y214924D01*
X277832Y214917D01*
X277898Y214880D01*
X277963Y214858D01*
X278029Y214837D01*
X278087Y214829D01*
X278138Y214822D01*
X278175Y214815D01*
X278211D01*
X278299Y214822D01*
X278379Y214837D01*
X278445Y214851D01*
X278496Y214880D01*
X278539Y214902D01*
X278568Y214917D01*
X278590Y214931D01*
X278598Y214939D01*
X278641Y214990D01*
X278678Y215048D01*
X278700Y215106D01*
X278721Y215165D01*
X278729Y215216D01*
X278736Y215252D01*
Y215281D01*
Y215288D01*
X278729Y215376D01*
X278714Y215449D01*
X278707Y215478D01*
X278700Y215500D01*
X278692Y215507D01*
Y215514D01*
X278649Y215587D01*
X278598Y215638D01*
X278554Y215675D01*
X278547Y215689D01*
X278539D01*
X278459Y215740D01*
X278372Y215770D01*
X278335Y215784D01*
X278306Y215792D01*
X278291Y215799D01*
X278284D01*
X278160Y215821D01*
X278095Y215828D01*
X278036D01*
X277985Y215835D01*
D02*
G37*
G36*
X286857Y217111D02*
X286784D01*
X286653Y217104D01*
X286536Y217075D01*
X286442Y217038D01*
X286362Y216994D01*
X286303Y216951D01*
X286259Y216914D01*
X286230Y216885D01*
X286223Y216878D01*
X286157Y216783D01*
X286114Y216681D01*
X286077Y216572D01*
X286055Y216470D01*
X286041Y216375D01*
X286033Y216302D01*
Y216273D01*
Y216258D01*
Y216244D01*
Y216236D01*
X287579D01*
X287572Y216360D01*
X287564Y216411D01*
X287550Y216462D01*
X287542Y216506D01*
X287535Y216535D01*
X287528Y216557D01*
Y216564D01*
X287477Y216674D01*
X287455Y216725D01*
X287426Y216761D01*
X287411Y216798D01*
X287389Y216819D01*
X287382Y216834D01*
X287375Y216841D01*
X287295Y216921D01*
X287214Y216987D01*
X287178Y217009D01*
X287149Y217024D01*
X287134Y217038D01*
X287127D01*
X287010Y217082D01*
X286901Y217104D01*
X286857Y217111D01*
D02*
G37*
G36*
X248490Y218095D02*
X247848D01*
X247768Y218088D01*
X247710Y218081D01*
X247652Y218073D01*
X247615Y218059D01*
X247579Y218051D01*
X247564Y218044D01*
X247557D01*
X247462Y218008D01*
X247382Y217964D01*
X247360Y217949D01*
X247338Y217935D01*
X247331Y217928D01*
X247323Y217920D01*
X247265Y217855D01*
X247221Y217789D01*
X247207Y217760D01*
X247200Y217738D01*
X247192Y217723D01*
Y217716D01*
X247163Y217629D01*
X247156Y217541D01*
X247148Y217505D01*
Y217476D01*
Y217454D01*
Y217446D01*
X247156Y217352D01*
X247170Y217271D01*
X247178Y217235D01*
X247185Y217213D01*
X247192Y217198D01*
Y217191D01*
X247229Y217104D01*
X247265Y217038D01*
X247287Y217009D01*
X247302Y216987D01*
X247309Y216980D01*
X247316Y216972D01*
X247389Y216914D01*
X247455Y216870D01*
X247491Y216849D01*
X247513Y216834D01*
X247528Y216827D01*
X247535D01*
X247586Y216812D01*
X247637Y216798D01*
X247746Y216783D01*
X247797Y216776D01*
X248490D01*
Y218095D01*
D02*
G37*
G36*
Y216346D02*
X247746D01*
X247666Y216338D01*
X247593Y216331D01*
X247535Y216324D01*
X247484Y216309D01*
X247447Y216302D01*
X247426Y216295D01*
X247418D01*
X247302Y216251D01*
X247258Y216229D01*
X247214Y216200D01*
X247185Y216185D01*
X247163Y216163D01*
X247148Y216156D01*
X247141Y216149D01*
X247061Y216076D01*
X247010Y215996D01*
X246988Y215967D01*
X246974Y215937D01*
X246966Y215923D01*
Y215915D01*
X246930Y215806D01*
X246915Y215704D01*
X246908Y215660D01*
Y215624D01*
Y215602D01*
Y215595D01*
X246915Y215478D01*
X246930Y215427D01*
X246937Y215383D01*
X246952Y215347D01*
X246966Y215318D01*
X246974Y215303D01*
Y215296D01*
X247025Y215208D01*
X247076Y215135D01*
X247119Y215092D01*
X247134Y215084D01*
X247141Y215077D01*
X247221Y215026D01*
X247302Y214982D01*
X247331Y214975D01*
X247360Y214961D01*
X247375Y214953D01*
X247382D01*
X247491Y214931D01*
X247593Y214917D01*
X247637Y214910D01*
X248490D01*
Y216346D01*
D02*
G37*
G36*
X306926Y218095D02*
X306423D01*
X306322Y218088D01*
X306227Y218081D01*
X306190Y218073D01*
X306161D01*
X306147Y218066D01*
X306139D01*
X306030Y218044D01*
X305942Y218008D01*
X305906Y217993D01*
X305877Y217979D01*
X305862Y217971D01*
X305855Y217964D01*
X305804Y217928D01*
X305760Y217891D01*
X305687Y217811D01*
X305658Y217774D01*
X305636Y217745D01*
X305629Y217723D01*
X305622Y217716D01*
X305592Y217651D01*
X305563Y217578D01*
X305549Y217512D01*
X305541Y217446D01*
X305534Y217388D01*
X305527Y217344D01*
Y217315D01*
Y217301D01*
X305534Y217169D01*
X305541Y217111D01*
X305556Y217060D01*
X305563Y217016D01*
X305578Y216987D01*
X305585Y216965D01*
Y216958D01*
X305636Y216849D01*
X305695Y216768D01*
X305716Y216732D01*
X305738Y216710D01*
X305753Y216695D01*
X305760Y216688D01*
X305848Y216615D01*
X305935Y216557D01*
X305972Y216542D01*
X306001Y216528D01*
X306023Y216513D01*
X306030D01*
X306096Y216491D01*
X306161Y216477D01*
X306227Y216470D01*
X306292Y216462D01*
X306351Y216455D01*
X306926D01*
Y218095D01*
D02*
G37*
G36*
X270673Y205993D02*
X270148D01*
Y205388D01*
X270221Y205315D01*
X270287Y205249D01*
X270353Y205198D01*
X270411Y205154D01*
X270455Y205118D01*
X270491Y205096D01*
X270513Y205082D01*
X270520Y205074D01*
X270586Y205038D01*
X270652Y205016D01*
X270717Y204994D01*
X270775Y204987D01*
X270827Y204979D01*
X270863Y204972D01*
X270899D01*
X270987Y204979D01*
X271067Y204994D01*
X271133Y205009D01*
X271184Y205038D01*
X271227Y205060D01*
X271257Y205074D01*
X271278Y205089D01*
X271286Y205096D01*
X271329Y205147D01*
X271366Y205205D01*
X271388Y205264D01*
X271410Y205322D01*
X271417Y205373D01*
X271424Y205410D01*
Y205439D01*
Y205446D01*
X271417Y205534D01*
X271402Y205606D01*
X271395Y205636D01*
X271388Y205657D01*
X271380Y205665D01*
Y205672D01*
X271337Y205745D01*
X271286Y205796D01*
X271242Y205832D01*
X271235Y205847D01*
X271227D01*
X271147Y205898D01*
X271060Y205927D01*
X271023Y205942D01*
X270994Y205949D01*
X270980Y205956D01*
X270972D01*
X270848Y205978D01*
X270783Y205985D01*
X270724D01*
X270673Y205993D01*
D02*
G37*
G36*
X295430Y208245D02*
X294883D01*
X294730Y208238D01*
X294599Y208231D01*
X294475Y208209D01*
X294380Y208187D01*
X294300Y208165D01*
X294242Y208151D01*
X294205Y208136D01*
X294191Y208129D01*
X294096Y208085D01*
X294009Y208027D01*
X293929Y207976D01*
X293870Y207925D01*
X293819Y207874D01*
X293775Y207837D01*
X293754Y207808D01*
X293746Y207801D01*
X293688Y207720D01*
X293630Y207640D01*
X293586Y207553D01*
X293549Y207480D01*
X293528Y207407D01*
X293506Y207356D01*
X293491Y207319D01*
Y207305D01*
X293462Y207196D01*
X293440Y207086D01*
X293425Y206984D01*
X293411Y206889D01*
Y206809D01*
X293404Y206751D01*
Y206707D01*
Y206700D01*
Y206693D01*
X293411Y206540D01*
X293418Y206408D01*
X293433Y206284D01*
X293447Y206175D01*
X293469Y206087D01*
X293484Y206022D01*
X293491Y205985D01*
X293498Y205971D01*
X293535Y205861D01*
X293579Y205767D01*
X293622Y205679D01*
X293666Y205606D01*
X293703Y205548D01*
X293739Y205504D01*
X293761Y205475D01*
X293768Y205468D01*
X293841Y205395D01*
X293914Y205337D01*
X293994Y205286D01*
X294060Y205242D01*
X294125Y205213D01*
X294176Y205191D01*
X294205Y205176D01*
X294220Y205169D01*
X294322Y205140D01*
X294431Y205118D01*
X294541Y205096D01*
X294643Y205089D01*
X294738Y205082D01*
X294811Y205074D01*
X295430D01*
Y208245D01*
D02*
G37*
G36*
X279866Y208245D02*
X279319D01*
X279166Y208238D01*
X279035Y208231D01*
X278911Y208209D01*
X278816Y208187D01*
X278736Y208165D01*
X278678Y208151D01*
X278641Y208136D01*
X278627Y208129D01*
X278532Y208085D01*
X278445Y208027D01*
X278364Y207976D01*
X278306Y207925D01*
X278255Y207874D01*
X278211Y207837D01*
X278189Y207808D01*
X278182Y207801D01*
X278124Y207720D01*
X278065Y207640D01*
X278022Y207553D01*
X277985Y207480D01*
X277963Y207407D01*
X277941Y207356D01*
X277927Y207319D01*
Y207305D01*
X277898Y207196D01*
X277876Y207086D01*
X277861Y206984D01*
X277847Y206889D01*
Y206809D01*
X277839Y206751D01*
Y206707D01*
Y206700D01*
Y206693D01*
X277847Y206540D01*
X277854Y206408D01*
X277869Y206284D01*
X277883Y206175D01*
X277905Y206087D01*
X277920Y206022D01*
X277927Y205985D01*
X277934Y205971D01*
X277971Y205861D01*
X278014Y205767D01*
X278058Y205679D01*
X278102Y205606D01*
X278138Y205548D01*
X278175Y205504D01*
X278197Y205475D01*
X278204Y205468D01*
X278277Y205395D01*
X278350Y205337D01*
X278430Y205286D01*
X278496Y205242D01*
X278561Y205213D01*
X278612Y205191D01*
X278641Y205176D01*
X278656Y205169D01*
X278758Y205140D01*
X278867Y205118D01*
X278977Y205096D01*
X279079Y205089D01*
X279173Y205082D01*
X279246Y205074D01*
X279866D01*
Y208245D01*
D02*
G37*
G36*
X259840D02*
X259294D01*
X259141Y208238D01*
X259009Y208231D01*
X258885Y208209D01*
X258791Y208187D01*
X258711Y208165D01*
X258652Y208151D01*
X258616Y208136D01*
X258601Y208129D01*
X258506Y208085D01*
X258419Y208027D01*
X258339Y207976D01*
X258280Y207925D01*
X258229Y207874D01*
X258186Y207837D01*
X258164Y207808D01*
X258156Y207801D01*
X258098Y207720D01*
X258040Y207640D01*
X257996Y207553D01*
X257960Y207480D01*
X257938Y207407D01*
X257916Y207356D01*
X257901Y207319D01*
Y207305D01*
X257872Y207196D01*
X257850Y207086D01*
X257836Y206984D01*
X257821Y206889D01*
Y206809D01*
X257814Y206751D01*
Y206707D01*
Y206700D01*
Y206693D01*
X257821Y206540D01*
X257828Y206408D01*
X257843Y206284D01*
X257857Y206175D01*
X257879Y206087D01*
X257894Y206022D01*
X257901Y205985D01*
X257909Y205971D01*
X257945Y205861D01*
X257989Y205767D01*
X258032Y205679D01*
X258076Y205606D01*
X258113Y205548D01*
X258149Y205504D01*
X258171Y205475D01*
X258178Y205468D01*
X258251Y205395D01*
X258324Y205337D01*
X258404Y205286D01*
X258470Y205242D01*
X258536Y205213D01*
X258587Y205191D01*
X258616Y205176D01*
X258630Y205169D01*
X258732Y205140D01*
X258842Y205118D01*
X258951Y205096D01*
X259053Y205089D01*
X259148Y205082D01*
X259221Y205074D01*
X259840D01*
Y208245D01*
D02*
G37*
G36*
X306926Y208253D02*
X306423D01*
X306322Y208245D01*
X306227Y208238D01*
X306190Y208231D01*
X306161D01*
X306147Y208224D01*
X306139D01*
X306030Y208202D01*
X305942Y208165D01*
X305906Y208151D01*
X305877Y208136D01*
X305862Y208129D01*
X305855Y208121D01*
X305804Y208085D01*
X305760Y208049D01*
X305687Y207968D01*
X305658Y207932D01*
X305636Y207903D01*
X305629Y207881D01*
X305622Y207874D01*
X305592Y207808D01*
X305563Y207735D01*
X305549Y207669D01*
X305541Y207604D01*
X305534Y207545D01*
X305527Y207502D01*
Y207473D01*
Y207458D01*
X305534Y207327D01*
X305541Y207269D01*
X305556Y207218D01*
X305563Y207174D01*
X305578Y207145D01*
X305585Y207123D01*
Y207115D01*
X305636Y207006D01*
X305695Y206926D01*
X305716Y206889D01*
X305738Y206868D01*
X305753Y206853D01*
X305760Y206846D01*
X305848Y206773D01*
X305935Y206715D01*
X305972Y206700D01*
X306001Y206685D01*
X306023Y206671D01*
X306030D01*
X306096Y206649D01*
X306161Y206634D01*
X306227Y206627D01*
X306292Y206620D01*
X306351Y206612D01*
X306926D01*
Y208253D01*
D02*
G37*
G36*
X254993Y208238D02*
X254985D01*
Y206000D01*
X256312D01*
X254993Y208238D01*
D02*
G37*
G36*
X264236Y207232D02*
X264207D01*
X264127Y207225D01*
X264047Y207210D01*
X263981Y207188D01*
X263915Y207166D01*
X263864Y207137D01*
X263828Y207115D01*
X263799Y207101D01*
X263792Y207094D01*
X263719Y207035D01*
X263646Y206970D01*
X263573Y206904D01*
X263515Y206838D01*
X263464Y206780D01*
X263420Y206736D01*
X263391Y206707D01*
X263383Y206693D01*
Y205555D01*
X263471Y205453D01*
X263551Y205366D01*
X263580Y205337D01*
X263602Y205315D01*
X263617Y205300D01*
X263624Y205293D01*
X263704Y205227D01*
X263770Y205169D01*
X263799Y205154D01*
X263821Y205140D01*
X263828Y205125D01*
X263835D01*
X263908Y205082D01*
X263967Y205052D01*
X264018Y205038D01*
X264025Y205030D01*
X264032D01*
X264105Y205016D01*
X264163Y205009D01*
X264229D01*
X264302Y205016D01*
X264368Y205023D01*
X264426Y205038D01*
X264477Y205060D01*
X264513Y205074D01*
X264550Y205089D01*
X264564Y205096D01*
X264572Y205103D01*
X264659Y205184D01*
X264725Y205264D01*
X264754Y205300D01*
X264769Y205329D01*
X264776Y205344D01*
X264783Y205351D01*
X264834Y205475D01*
X264856Y205541D01*
X264871Y205592D01*
X264885Y205643D01*
X264892Y205679D01*
X264900Y205708D01*
Y205716D01*
X264914Y205869D01*
X264922Y205942D01*
Y206007D01*
X264929Y206058D01*
Y206102D01*
Y206131D01*
Y206139D01*
X264922Y206284D01*
X264914Y206350D01*
X264907Y206416D01*
Y206459D01*
X264900Y206503D01*
X264892Y206525D01*
Y206532D01*
X264856Y206671D01*
X264834Y206729D01*
X264820Y206780D01*
X264798Y206824D01*
X264783Y206853D01*
X264769Y206875D01*
Y206882D01*
X264696Y206992D01*
X264659Y207035D01*
X264623Y207072D01*
X264594Y207101D01*
X264564Y207123D01*
X264550Y207130D01*
X264543Y207137D01*
X264491Y207166D01*
X264433Y207196D01*
X264324Y207218D01*
X264280Y207225D01*
X264236Y207232D01*
D02*
G37*
G36*
X271140Y195166D02*
X270615D01*
Y194561D01*
X270688Y194488D01*
X270754Y194422D01*
X270819Y194371D01*
X270878Y194328D01*
X270921Y194291D01*
X270958Y194269D01*
X270980Y194255D01*
X270987Y194247D01*
X271052Y194211D01*
X271118Y194189D01*
X271184Y194167D01*
X271242Y194160D01*
X271293Y194153D01*
X271329Y194145D01*
X271366D01*
X271453Y194153D01*
X271534Y194167D01*
X271599Y194182D01*
X271650Y194211D01*
X271694Y194233D01*
X271723Y194247D01*
X271745Y194262D01*
X271752Y194269D01*
X271796Y194320D01*
X271832Y194379D01*
X271854Y194437D01*
X271876Y194495D01*
X271884Y194546D01*
X271891Y194583D01*
Y194612D01*
Y194619D01*
X271884Y194707D01*
X271869Y194780D01*
X271862Y194809D01*
X271854Y194831D01*
X271847Y194838D01*
Y194845D01*
X271803Y194918D01*
X271752Y194969D01*
X271709Y195006D01*
X271701Y195020D01*
X271694D01*
X271614Y195071D01*
X271526Y195100D01*
X271490Y195115D01*
X271461Y195122D01*
X271446Y195130D01*
X271439D01*
X271315Y195151D01*
X271249Y195159D01*
X271191D01*
X271140Y195166D01*
D02*
G37*
G36*
X306926Y197426D02*
X306423D01*
X306322Y197419D01*
X306227Y197411D01*
X306190Y197404D01*
X306161D01*
X306147Y197397D01*
X306139D01*
X306030Y197375D01*
X305942Y197338D01*
X305906Y197324D01*
X305877Y197309D01*
X305862Y197302D01*
X305855Y197295D01*
X305804Y197258D01*
X305760Y197222D01*
X305687Y197142D01*
X305658Y197105D01*
X305636Y197076D01*
X305629Y197054D01*
X305622Y197047D01*
X305592Y196981D01*
X305563Y196908D01*
X305549Y196843D01*
X305541Y196777D01*
X305534Y196719D01*
X305527Y196675D01*
Y196646D01*
Y196631D01*
X305534Y196500D01*
X305541Y196442D01*
X305556Y196391D01*
X305563Y196347D01*
X305578Y196318D01*
X305585Y196296D01*
Y196289D01*
X305636Y196179D01*
X305695Y196099D01*
X305716Y196063D01*
X305738Y196041D01*
X305753Y196026D01*
X305760Y196019D01*
X305848Y195946D01*
X305935Y195888D01*
X305972Y195873D01*
X306001Y195859D01*
X306023Y195844D01*
X306030D01*
X306096Y195822D01*
X306161Y195808D01*
X306227Y195800D01*
X306292Y195793D01*
X306351Y195786D01*
X306926D01*
Y197426D01*
D02*
G37*
G36*
X294679Y197331D02*
X294672D01*
X293958Y195297D01*
X295379D01*
X294679Y197331D01*
D02*
G37*
G36*
X279348Y197331D02*
X279341D01*
X278627Y195297D01*
X280048D01*
X279348Y197331D01*
D02*
G37*
G36*
X259556D02*
X259549D01*
X258834Y195297D01*
X260256D01*
X259556Y197331D01*
D02*
G37*
G36*
X264703Y196405D02*
X264674D01*
X264594Y196398D01*
X264513Y196383D01*
X264448Y196362D01*
X264382Y196340D01*
X264331Y196310D01*
X264295Y196289D01*
X264265Y196274D01*
X264258Y196267D01*
X264185Y196209D01*
X264112Y196143D01*
X264039Y196077D01*
X263981Y196012D01*
X263930Y195953D01*
X263886Y195910D01*
X263857Y195880D01*
X263850Y195866D01*
Y194729D01*
X263937Y194626D01*
X264018Y194539D01*
X264047Y194510D01*
X264069Y194488D01*
X264083Y194473D01*
X264090Y194466D01*
X264171Y194401D01*
X264236Y194342D01*
X264265Y194328D01*
X264287Y194313D01*
X264295Y194299D01*
X264302D01*
X264375Y194255D01*
X264433Y194226D01*
X264484Y194211D01*
X264491Y194204D01*
X264499D01*
X264572Y194189D01*
X264630Y194182D01*
X264696D01*
X264769Y194189D01*
X264834Y194196D01*
X264892Y194211D01*
X264943Y194233D01*
X264980Y194247D01*
X265016Y194262D01*
X265031Y194269D01*
X265038Y194277D01*
X265126Y194357D01*
X265191Y194437D01*
X265220Y194473D01*
X265235Y194503D01*
X265242Y194517D01*
X265250Y194525D01*
X265301Y194648D01*
X265322Y194714D01*
X265337Y194765D01*
X265352Y194816D01*
X265359Y194852D01*
X265366Y194882D01*
Y194889D01*
X265381Y195042D01*
X265388Y195115D01*
Y195181D01*
X265395Y195232D01*
Y195275D01*
Y195305D01*
Y195312D01*
X265388Y195458D01*
X265381Y195523D01*
X265373Y195589D01*
Y195633D01*
X265366Y195676D01*
X265359Y195698D01*
Y195705D01*
X265322Y195844D01*
X265301Y195902D01*
X265286Y195953D01*
X265264Y195997D01*
X265250Y196026D01*
X265235Y196048D01*
Y196055D01*
X265162Y196165D01*
X265126Y196209D01*
X265089Y196245D01*
X265060Y196274D01*
X265031Y196296D01*
X265016Y196303D01*
X265009Y196310D01*
X264958Y196340D01*
X264900Y196369D01*
X264790Y196391D01*
X264747Y196398D01*
X264703Y196405D01*
D02*
G37*
%LPD*%
D13*
X251969Y191929D02*
X283465D01*
X251969Y199803D02*
X283465D01*
Y191929D02*
Y199803D01*
X251969Y191929D02*
Y199803D01*
X243110Y212598D02*
X258858D01*
X243110Y220472D02*
X258858D01*
Y212598D02*
Y220472D01*
X243110Y212598D02*
Y220472D01*
X250984Y202756D02*
X282480D01*
X250984Y210630D02*
X282480D01*
Y202756D02*
Y210630D01*
X250984Y202756D02*
Y210630D01*
M02*
