G04*
G04 #@! TF.GenerationSoftware,Altium Limited,Altium Designer,25.5.2 (35)*
G04*
G04 Layer_Physical_Order=2*
G04 Layer_Color=16711680*
%FSLAX25Y25*%
%MOIN*%
G70*
G04*
G04 #@! TF.SameCoordinates,AD08EBE7-E67C-455F-8013-DBC13013D67F*
G04*
G04*
G04 #@! TF.FilePolarity,Positive*
G04*
G01*
G75*
%ADD40C,0.01968*%
%ADD42R,0.19354X0.19354*%
%ADD43C,0.19354*%
%ADD44O,0.10236X0.05118*%
%ADD45C,0.06000*%
%ADD46R,0.06000X0.06000*%
%ADD47O,0.09843X0.06890*%
%ADD48C,0.07874*%
%ADD49C,0.05512*%
%ADD50C,0.02756*%
%ADD51C,0.03150*%
%ADD52C,0.02362*%
G36*
X301181Y0D02*
X0D01*
Y374016D01*
X301181D01*
Y0D01*
D02*
G37*
%LPC*%
G36*
X180009Y371948D02*
X165608D01*
X164990Y371825D01*
X164466Y371475D01*
X160354Y367363D01*
X121335D01*
X120991Y367958D01*
X120321Y368629D01*
X119500Y369103D01*
X118584Y369348D01*
X117636D01*
X116721Y369103D01*
X115900Y368629D01*
X115229Y367958D01*
X114756Y367138D01*
X114510Y366222D01*
Y365274D01*
X114756Y364358D01*
X115229Y363538D01*
X115900Y362867D01*
X116721Y362393D01*
X117636Y362148D01*
X118584D01*
X119500Y362393D01*
X120321Y362867D01*
X120991Y363538D01*
X121335Y364133D01*
X161024D01*
X161642Y364256D01*
X162166Y364606D01*
X166277Y368717D01*
X175139D01*
X175388Y368117D01*
X175230Y367958D01*
X174756Y367138D01*
X174510Y366222D01*
Y365274D01*
X174756Y364358D01*
X175230Y363538D01*
X175900Y362867D01*
X176721Y362393D01*
X177636Y362148D01*
X178584D01*
X179500Y362393D01*
X180321Y362867D01*
X180991Y363538D01*
X181465Y364358D01*
X181710Y365274D01*
Y365498D01*
X182310Y365747D01*
X193480Y354577D01*
Y350673D01*
X193602Y350055D01*
X193953Y349531D01*
X207357Y336126D01*
X207181Y335702D01*
X207042Y334646D01*
X207181Y333590D01*
X207589Y332606D01*
X208237Y331761D01*
X209082Y331113D01*
X210066Y330705D01*
X211122Y330566D01*
X214075D01*
X215131Y330705D01*
X216115Y331113D01*
X216960Y331761D01*
X217608Y332606D01*
X218016Y333590D01*
X218155Y334646D01*
X218016Y335702D01*
X217608Y336686D01*
X216960Y337530D01*
X216115Y338179D01*
X215131Y338586D01*
X214075Y338725D01*
X211122D01*
X210066Y338586D01*
X209642Y338411D01*
X196710Y351342D01*
Y355247D01*
X196587Y355865D01*
X196237Y356389D01*
X181151Y371475D01*
X180627Y371825D01*
X180009Y371948D01*
D02*
G37*
G36*
X290050Y369104D02*
X288691D01*
X287358Y368839D01*
X286102Y368319D01*
X284972Y367564D01*
X284011Y366603D01*
X283256Y365473D01*
X282736Y364217D01*
X282471Y362884D01*
Y361525D01*
X282736Y360192D01*
X283256Y358937D01*
X284011Y357807D01*
X284972Y356846D01*
X286102Y356091D01*
X287358Y355571D01*
X288691Y355306D01*
X290050D01*
X291383Y355571D01*
X292638Y356091D01*
X293768Y356846D01*
X294729Y357807D01*
X295484Y358937D01*
X296004Y360192D01*
X296269Y361525D01*
Y362884D01*
X296004Y364217D01*
X295484Y365473D01*
X294729Y366603D01*
X293768Y367564D01*
X292638Y368319D01*
X291383Y368839D01*
X290050Y369104D01*
D02*
G37*
G36*
X12490D02*
X11131D01*
X9799Y368839D01*
X8543Y368319D01*
X7413Y367564D01*
X6452Y366603D01*
X5697Y365473D01*
X5177Y364217D01*
X4912Y362884D01*
Y361525D01*
X5177Y360192D01*
X5697Y358937D01*
X6452Y357807D01*
X7413Y356846D01*
X8543Y356091D01*
X9799Y355571D01*
X11131Y355306D01*
X12490D01*
X13823Y355571D01*
X15079Y356091D01*
X16209Y356846D01*
X17170Y357807D01*
X17925Y358937D01*
X18445Y360192D01*
X18710Y361525D01*
Y362884D01*
X18445Y364217D01*
X17925Y365473D01*
X17170Y366603D01*
X16209Y367564D01*
X15079Y368319D01*
X13823Y368839D01*
X12490Y369104D01*
D02*
G37*
G36*
X178584Y359348D02*
X177636D01*
X176721Y359103D01*
X175900Y358629D01*
X175230Y357959D01*
X174756Y357138D01*
X174510Y356222D01*
Y355274D01*
X174756Y354359D01*
X175230Y353538D01*
X175900Y352867D01*
X176721Y352393D01*
X177636Y352148D01*
X178584D01*
X179500Y352393D01*
X180321Y352867D01*
X180991Y353538D01*
X181465Y354359D01*
X181710Y355274D01*
Y356222D01*
X181465Y357138D01*
X180991Y357959D01*
X180321Y358629D01*
X179500Y359103D01*
X178584Y359348D01*
D02*
G37*
G36*
X118584D02*
X117636D01*
X116721Y359103D01*
X115900Y358629D01*
X115229Y357959D01*
X114756Y357138D01*
X114510Y356222D01*
Y355274D01*
X114756Y354359D01*
X115229Y353538D01*
X115900Y352867D01*
X116721Y352393D01*
X117636Y352148D01*
X118584D01*
X119500Y352393D01*
X120321Y352867D01*
X120991Y353538D01*
X121465Y354359D01*
X121710Y355274D01*
Y356222D01*
X121465Y357138D01*
X120991Y357959D01*
X120321Y358629D01*
X119500Y359103D01*
X118584Y359348D01*
D02*
G37*
G36*
X249508Y358411D02*
X246555D01*
X245499Y358272D01*
X244515Y357864D01*
X243670Y357215D01*
X243022Y356371D01*
X242614Y355387D01*
X242475Y354331D01*
X242614Y353275D01*
X243022Y352291D01*
X243670Y351446D01*
X244515Y350798D01*
X245499Y350390D01*
X246555Y350251D01*
X249508D01*
X250564Y350390D01*
X251548Y350798D01*
X252393Y351446D01*
X253041Y352291D01*
X253449Y353275D01*
X253588Y354331D01*
X253449Y355387D01*
X253041Y356371D01*
X252393Y357215D01*
X251548Y357864D01*
X250564Y358272D01*
X249508Y358411D01*
D02*
G37*
G36*
X214075D02*
X211122D01*
X210066Y358272D01*
X209082Y357864D01*
X208237Y357215D01*
X207589Y356371D01*
X207181Y355387D01*
X207042Y354331D01*
X207181Y353275D01*
X207589Y352291D01*
X208237Y351446D01*
X209082Y350798D01*
X210066Y350390D01*
X211122Y350251D01*
X214075D01*
X215131Y350390D01*
X216115Y350798D01*
X216960Y351446D01*
X217608Y352291D01*
X218016Y353275D01*
X218155Y354331D01*
X218016Y355387D01*
X217608Y356371D01*
X216960Y357215D01*
X216115Y357864D01*
X215131Y358272D01*
X214075Y358411D01*
D02*
G37*
G36*
Y348971D02*
X213099D01*
Y344988D01*
X218492D01*
X218405Y345649D01*
X217957Y346730D01*
X217245Y347658D01*
X216316Y348371D01*
X215235Y348819D01*
X214075Y348971D01*
D02*
G37*
G36*
X212099D02*
X211122D01*
X209962Y348819D01*
X208880Y348371D01*
X207952Y347658D01*
X207240Y346730D01*
X206792Y345649D01*
X206705Y344988D01*
X212099D01*
Y348971D01*
D02*
G37*
G36*
X249508D02*
X248532D01*
Y344988D01*
X253925D01*
X253838Y345649D01*
X253391Y346730D01*
X252678Y347658D01*
X251749Y348371D01*
X250668Y348819D01*
X249508Y348971D01*
D02*
G37*
G36*
X247532D02*
X246555D01*
X245395Y348819D01*
X244314Y348371D01*
X243385Y347658D01*
X242672Y346730D01*
X242225Y345649D01*
X242138Y344988D01*
X247532D01*
Y348971D01*
D02*
G37*
G36*
X178584Y349348D02*
X177636D01*
X176721Y349103D01*
X175900Y348629D01*
X175230Y347958D01*
X174756Y347138D01*
X174510Y346222D01*
Y345274D01*
X174756Y344358D01*
X175230Y343538D01*
X175900Y342867D01*
X176721Y342393D01*
X177636Y342148D01*
X178584D01*
X179500Y342393D01*
X180321Y342867D01*
X180991Y343538D01*
X181465Y344358D01*
X181710Y345274D01*
Y346222D01*
X181465Y347138D01*
X180991Y347958D01*
X180321Y348629D01*
X179500Y349103D01*
X178584Y349348D01*
D02*
G37*
G36*
X118584D02*
X117636D01*
X116721Y349103D01*
X115900Y348629D01*
X115229Y347958D01*
X114756Y347138D01*
X114510Y346222D01*
Y345274D01*
X114756Y344358D01*
X115229Y343538D01*
X115900Y342867D01*
X116721Y342393D01*
X117636Y342148D01*
X118584D01*
X119500Y342393D01*
X120321Y342867D01*
X120991Y343538D01*
X121465Y344358D01*
X121710Y345274D01*
Y346222D01*
X121465Y347138D01*
X120991Y347958D01*
X120321Y348629D01*
X119500Y349103D01*
X118584Y349348D01*
D02*
G37*
G36*
X253925Y343988D02*
X248532D01*
Y340005D01*
X249508D01*
X250668Y340158D01*
X251749Y340606D01*
X252678Y341318D01*
X253391Y342247D01*
X253838Y343328D01*
X253925Y343988D01*
D02*
G37*
G36*
X247532D02*
X242138D01*
X242225Y343328D01*
X242672Y342247D01*
X243385Y341318D01*
X244314Y340606D01*
X245395Y340158D01*
X246555Y340005D01*
X247532D01*
Y343988D01*
D02*
G37*
G36*
X218492Y343988D02*
X213099D01*
Y340005D01*
X214075D01*
X215235Y340158D01*
X216316Y340606D01*
X217245Y341318D01*
X217957Y342247D01*
X218405Y343328D01*
X218492Y343988D01*
D02*
G37*
G36*
X212099D02*
X206705D01*
X206792Y343328D01*
X207240Y342247D01*
X207952Y341318D01*
X208880Y340606D01*
X209962Y340158D01*
X211122Y340005D01*
X212099D01*
Y343988D01*
D02*
G37*
G36*
X12408Y347687D02*
X11214D01*
X10060Y347377D01*
X9025Y346780D01*
X8180Y345935D01*
X7583Y344901D01*
X7274Y343747D01*
Y342552D01*
X7583Y341398D01*
X8180Y340364D01*
X9025Y339519D01*
X10060Y338922D01*
X11214Y338613D01*
X12408D01*
X13562Y338922D01*
X14597Y339519D01*
X15441Y340364D01*
X16039Y341398D01*
X16348Y342552D01*
Y343747D01*
X16039Y344901D01*
X15441Y345935D01*
X14597Y346780D01*
X13562Y347377D01*
X12408Y347687D01*
D02*
G37*
G36*
X289967Y341466D02*
X288773D01*
X287619Y341157D01*
X286584Y340560D01*
X285740Y339715D01*
X285142Y338680D01*
X284833Y337526D01*
Y336332D01*
X285142Y335178D01*
X285740Y334143D01*
X286584Y333299D01*
X287619Y332701D01*
X288773Y332392D01*
X289967D01*
X291121Y332701D01*
X292156Y333299D01*
X293001Y334143D01*
X293598Y335178D01*
X293907Y336332D01*
Y337526D01*
X293598Y338680D01*
X293001Y339715D01*
X292156Y340560D01*
X291121Y341157D01*
X289967Y341466D01*
D02*
G37*
G36*
X178584Y339348D02*
X177636D01*
X176721Y339103D01*
X175900Y338629D01*
X175230Y337959D01*
X174756Y337138D01*
X174510Y336222D01*
Y335274D01*
X174756Y334359D01*
X175230Y333538D01*
X175900Y332867D01*
X176721Y332393D01*
X177636Y332148D01*
X178584D01*
X179500Y332393D01*
X180321Y332867D01*
X180991Y333538D01*
X181465Y334359D01*
X181710Y335274D01*
Y336222D01*
X181465Y337138D01*
X180991Y337959D01*
X180321Y338629D01*
X179500Y339103D01*
X178584Y339348D01*
D02*
G37*
G36*
X118584D02*
X117636D01*
X116721Y339103D01*
X115900Y338629D01*
X115229Y337959D01*
X114756Y337138D01*
X114510Y336222D01*
Y335274D01*
X114756Y334359D01*
X115229Y333538D01*
X115900Y332867D01*
X116721Y332393D01*
X117636Y332148D01*
X118584D01*
X119500Y332393D01*
X120321Y332867D01*
X120991Y333538D01*
X121465Y334359D01*
X121710Y335274D01*
Y336222D01*
X121465Y337138D01*
X120991Y337959D01*
X120321Y338629D01*
X119500Y339103D01*
X118584Y339348D01*
D02*
G37*
G36*
X249508Y338725D02*
X246555D01*
X245499Y338586D01*
X244515Y338179D01*
X243670Y337530D01*
X243022Y336686D01*
X242614Y335702D01*
X242475Y334646D01*
X242614Y333590D01*
X243022Y332606D01*
X243670Y331761D01*
X244515Y331113D01*
X245499Y330705D01*
X246555Y330566D01*
X249508D01*
X250564Y330705D01*
X251548Y331113D01*
X252393Y331761D01*
X253041Y332606D01*
X253449Y333590D01*
X253588Y334646D01*
X253449Y335702D01*
X253041Y336686D01*
X252393Y337530D01*
X251548Y338179D01*
X250564Y338586D01*
X249508Y338725D01*
D02*
G37*
G36*
X12408Y337687D02*
X11214D01*
X10060Y337377D01*
X9025Y336780D01*
X8180Y335935D01*
X7583Y334901D01*
X7274Y333747D01*
Y332552D01*
X7583Y331398D01*
X8180Y330364D01*
X9025Y329519D01*
X10060Y328922D01*
X11214Y328613D01*
X12408D01*
X13562Y328922D01*
X14597Y329519D01*
X15441Y330364D01*
X16039Y331398D01*
X16348Y332552D01*
Y333747D01*
X16039Y334901D01*
X15441Y335935D01*
X14597Y336780D01*
X13562Y337377D01*
X12408Y337687D01*
D02*
G37*
G36*
X289967Y331466D02*
X288773D01*
X287619Y331157D01*
X286584Y330560D01*
X285740Y329715D01*
X285142Y328680D01*
X284833Y327526D01*
Y326332D01*
X285142Y325178D01*
X285213Y325056D01*
X271703Y311547D01*
X252585D01*
X252447Y312147D01*
X253041Y312921D01*
X253449Y313905D01*
X253588Y314961D01*
X253449Y316017D01*
X253041Y317001D01*
X252393Y317846D01*
X251548Y318494D01*
X250564Y318901D01*
X249508Y319040D01*
X246555D01*
X245499Y318901D01*
X244515Y318494D01*
X243670Y317846D01*
X243022Y317001D01*
X242614Y316017D01*
X242475Y314961D01*
X242614Y313905D01*
X243022Y312921D01*
X243616Y312147D01*
X243478Y311547D01*
X217152D01*
X217014Y312147D01*
X217608Y312921D01*
X218016Y313905D01*
X218155Y314961D01*
X218016Y316017D01*
X217608Y317001D01*
X216960Y317846D01*
X216115Y318494D01*
X215131Y318901D01*
X214075Y319040D01*
X211122D01*
X210066Y318901D01*
X209082Y318494D01*
X208237Y317846D01*
X207589Y317001D01*
X207181Y316017D01*
X207042Y314961D01*
X207181Y313905D01*
X207589Y312921D01*
X208183Y312147D01*
X208045Y311547D01*
X184596D01*
X181532Y314610D01*
X181710Y315274D01*
Y316222D01*
X181465Y317138D01*
X180991Y317958D01*
X180321Y318629D01*
X179500Y319103D01*
X178584Y319348D01*
X177636D01*
X176721Y319103D01*
X175900Y318629D01*
X175230Y317958D01*
X174756Y317138D01*
X174510Y316222D01*
Y315274D01*
X174756Y314358D01*
X175230Y313538D01*
X175900Y312867D01*
X176721Y312393D01*
X177636Y312148D01*
X178584D01*
X179248Y312326D01*
X182785Y308789D01*
X183309Y308439D01*
X183927Y308316D01*
X272372D01*
X272991Y308439D01*
X273515Y308789D01*
X287497Y322772D01*
X287619Y322701D01*
X288773Y322392D01*
X289967D01*
X291121Y322701D01*
X292156Y323299D01*
X293001Y324143D01*
X293598Y325178D01*
X293907Y326332D01*
Y327526D01*
X293598Y328680D01*
X293001Y329715D01*
X292156Y330560D01*
X291121Y331157D01*
X289967Y331466D01*
D02*
G37*
G36*
X178584Y329348D02*
X177636D01*
X176721Y329103D01*
X175900Y328629D01*
X175230Y327958D01*
X174756Y327138D01*
X174510Y326222D01*
Y325274D01*
X174756Y324359D01*
X175230Y323538D01*
X175900Y322867D01*
X176721Y322393D01*
X177636Y322148D01*
X178584D01*
X179500Y322393D01*
X180321Y322867D01*
X180991Y323538D01*
X181465Y324359D01*
X181710Y325274D01*
Y326222D01*
X181465Y327138D01*
X180991Y327958D01*
X180321Y328629D01*
X179500Y329103D01*
X178584Y329348D01*
D02*
G37*
G36*
X118584D02*
X117636D01*
X116721Y329103D01*
X115900Y328629D01*
X115229Y327958D01*
X114756Y327138D01*
X114510Y326222D01*
Y325274D01*
X114756Y324359D01*
X115229Y323538D01*
X115900Y322867D01*
X116721Y322393D01*
X117636Y322148D01*
X118584D01*
X119500Y322393D01*
X120321Y322867D01*
X120991Y323538D01*
X121465Y324359D01*
X121710Y325274D01*
Y326222D01*
X121465Y327138D01*
X120991Y327958D01*
X120321Y328629D01*
X119500Y329103D01*
X118584Y329348D01*
D02*
G37*
G36*
X249508Y328883D02*
X246555D01*
X245499Y328744D01*
X244515Y328336D01*
X243670Y327688D01*
X243022Y326843D01*
X242614Y325859D01*
X242475Y324803D01*
X242614Y323747D01*
X243022Y322763D01*
X243670Y321918D01*
X244515Y321270D01*
X245499Y320862D01*
X246555Y320723D01*
X249508D01*
X250564Y320862D01*
X251548Y321270D01*
X252393Y321918D01*
X253041Y322763D01*
X253449Y323747D01*
X253588Y324803D01*
X253449Y325859D01*
X253041Y326843D01*
X252393Y327688D01*
X251548Y328336D01*
X250564Y328744D01*
X249508Y328883D01*
D02*
G37*
G36*
X214075D02*
X211122D01*
X210066Y328744D01*
X209082Y328336D01*
X208237Y327688D01*
X207589Y326843D01*
X207181Y325859D01*
X207042Y324803D01*
X207181Y323747D01*
X207589Y322763D01*
X208237Y321918D01*
X209082Y321270D01*
X210066Y320862D01*
X211122Y320723D01*
X214075D01*
X215131Y320862D01*
X216115Y321270D01*
X216960Y321918D01*
X217608Y322763D01*
X218016Y323747D01*
X218155Y324803D01*
X218016Y325859D01*
X217608Y326843D01*
X216960Y327688D01*
X216115Y328336D01*
X215131Y328744D01*
X214075Y328883D01*
D02*
G37*
G36*
X12408Y327687D02*
X11214D01*
X10060Y327377D01*
X9025Y326780D01*
X8180Y325935D01*
X7583Y324901D01*
X7274Y323747D01*
Y322552D01*
X7583Y321398D01*
X8180Y320364D01*
X9025Y319519D01*
X10060Y318922D01*
X11214Y318613D01*
X12408D01*
X13562Y318922D01*
X14597Y319519D01*
X15441Y320364D01*
X16039Y321398D01*
X16348Y322552D01*
Y323747D01*
X16039Y324901D01*
X15441Y325935D01*
X14597Y326780D01*
X13562Y327377D01*
X12408Y327687D01*
D02*
G37*
G36*
X289967Y321466D02*
X288773D01*
X287619Y321157D01*
X286584Y320560D01*
X285740Y319715D01*
X285142Y318680D01*
X284833Y317526D01*
Y316332D01*
X285142Y315178D01*
X285740Y314143D01*
X286584Y313299D01*
X287619Y312701D01*
X288773Y312392D01*
X289967D01*
X291121Y312701D01*
X292156Y313299D01*
X293001Y314143D01*
X293598Y315178D01*
X293907Y316332D01*
Y317526D01*
X293598Y318680D01*
X293001Y319715D01*
X292156Y320560D01*
X291121Y321157D01*
X289967Y321466D01*
D02*
G37*
G36*
X118584Y319348D02*
X117636D01*
X116721Y319103D01*
X115900Y318629D01*
X115229Y317958D01*
X114756Y317138D01*
X114510Y316222D01*
Y315274D01*
X114756Y314358D01*
X115229Y313538D01*
X115900Y312867D01*
X116721Y312393D01*
X117636Y312148D01*
X118584D01*
X119500Y312393D01*
X120321Y312867D01*
X120991Y313538D01*
X121465Y314358D01*
X121710Y315274D01*
Y316222D01*
X121465Y317138D01*
X120991Y317958D01*
X120321Y318629D01*
X119500Y319103D01*
X118584Y319348D01*
D02*
G37*
G36*
X12408Y317687D02*
X11214D01*
X10060Y317377D01*
X9025Y316780D01*
X8180Y315935D01*
X7583Y314901D01*
X7274Y313747D01*
Y312552D01*
X7583Y311398D01*
X8180Y310364D01*
X9025Y309519D01*
X10060Y308922D01*
X11214Y308613D01*
X12408D01*
X13562Y308922D01*
X14597Y309519D01*
X15441Y310364D01*
X16039Y311398D01*
X16348Y312552D01*
Y313747D01*
X16039Y314901D01*
X15441Y315935D01*
X14597Y316780D01*
X13562Y317377D01*
X12408Y317687D01*
D02*
G37*
G36*
X289967Y311466D02*
X288773D01*
X287619Y311157D01*
X286584Y310560D01*
X285740Y309715D01*
X285142Y308680D01*
X284833Y307526D01*
Y306332D01*
X285142Y305178D01*
X285740Y304143D01*
X286584Y303299D01*
X287619Y302701D01*
X288773Y302392D01*
X289967D01*
X291121Y302701D01*
X292156Y303299D01*
X293001Y304143D01*
X293598Y305178D01*
X293907Y306332D01*
Y307526D01*
X293598Y308680D01*
X293001Y309715D01*
X292156Y310560D01*
X291121Y311157D01*
X289967Y311466D01*
D02*
G37*
G36*
X118584Y309348D02*
X117636D01*
X116721Y309103D01*
X115900Y308629D01*
X115229Y307959D01*
X114756Y307138D01*
X114510Y306222D01*
Y305274D01*
X114756Y304359D01*
X115229Y303538D01*
X115900Y302867D01*
X116721Y302393D01*
X117636Y302148D01*
X118584D01*
X119500Y302393D01*
X120321Y302867D01*
X120991Y303538D01*
X121465Y304359D01*
X121710Y305274D01*
Y306222D01*
X121465Y307138D01*
X120991Y307959D01*
X120321Y308629D01*
X119500Y309103D01*
X118584Y309348D01*
D02*
G37*
G36*
X12408Y307687D02*
X11214D01*
X10060Y307377D01*
X9025Y306780D01*
X8180Y305935D01*
X7583Y304901D01*
X7274Y303747D01*
Y302552D01*
X7583Y301398D01*
X8180Y300364D01*
X9025Y299519D01*
X10060Y298922D01*
X11214Y298613D01*
X12408D01*
X13562Y298922D01*
X14597Y299519D01*
X15441Y300364D01*
X16039Y301398D01*
X16348Y302552D01*
Y303747D01*
X16039Y304901D01*
X15441Y305935D01*
X14597Y306780D01*
X13562Y307377D01*
X12408Y307687D01*
D02*
G37*
G36*
X289967Y301466D02*
X288773D01*
X287619Y301157D01*
X286584Y300560D01*
X285740Y299715D01*
X285142Y298680D01*
X284833Y297526D01*
Y296332D01*
X285142Y295178D01*
X285740Y294143D01*
X286584Y293299D01*
X287619Y292701D01*
X288773Y292392D01*
X289967D01*
X291121Y292701D01*
X292156Y293299D01*
X293001Y294143D01*
X293598Y295178D01*
X293907Y296332D01*
Y297526D01*
X293598Y298680D01*
X293001Y299715D01*
X292156Y300560D01*
X291121Y301157D01*
X289967Y301466D01*
D02*
G37*
G36*
X178584Y299348D02*
X177636D01*
X176721Y299103D01*
X175900Y298629D01*
X175230Y297958D01*
X174756Y297138D01*
X174510Y296222D01*
Y295274D01*
X174688Y294610D01*
X142857Y262779D01*
X121081D01*
X120832Y263379D01*
X120991Y263538D01*
X121465Y264358D01*
X121710Y265274D01*
Y266222D01*
X121465Y267138D01*
X120991Y267958D01*
X120321Y268629D01*
X119500Y269103D01*
X118584Y269348D01*
X117636D01*
X116972Y269170D01*
X101851Y284292D01*
X101327Y284642D01*
X100709Y284765D01*
X16075D01*
X16039Y284901D01*
X15441Y285935D01*
X14597Y286780D01*
X13562Y287377D01*
X12408Y287687D01*
X11214D01*
X10060Y287377D01*
X9025Y286780D01*
X8180Y285935D01*
X7583Y284901D01*
X7274Y283747D01*
Y282552D01*
X7583Y281398D01*
X8180Y280364D01*
X9025Y279519D01*
X10060Y278922D01*
X11022Y278664D01*
X11010Y278046D01*
X9905Y277750D01*
X8780Y277100D01*
X7860Y276181D01*
X7210Y275055D01*
X6874Y273800D01*
Y273650D01*
X16748D01*
Y273800D01*
X16412Y275055D01*
X15762Y276181D01*
X14842Y277100D01*
X13717Y277750D01*
X12612Y278046D01*
X12600Y278664D01*
X13562Y278922D01*
X14597Y279519D01*
X15441Y280364D01*
X16039Y281398D01*
X16075Y281534D01*
X100040D01*
X114688Y266886D01*
X114510Y266222D01*
Y265274D01*
X114756Y264358D01*
X115229Y263538D01*
X115388Y263379D01*
X115139Y262779D01*
X113526D01*
X112908Y262656D01*
X112384Y262306D01*
X87974Y237896D01*
X87574Y237730D01*
X87073Y237229D01*
X86802Y236575D01*
Y235866D01*
X87073Y235212D01*
X87574Y234711D01*
X88228Y234439D01*
X88937D01*
X89592Y234711D01*
X90093Y235212D01*
X90258Y235612D01*
X114195Y259548D01*
X116293D01*
X116454Y258948D01*
X115900Y258629D01*
X115229Y257959D01*
X114756Y257138D01*
X114510Y256222D01*
Y255274D01*
X114756Y254359D01*
X115229Y253538D01*
X115900Y252867D01*
X116721Y252393D01*
X117636Y252148D01*
X118584D01*
X119500Y252393D01*
X120321Y252867D01*
X120991Y253538D01*
X121335Y254133D01*
X171627D01*
X172245Y254256D01*
X172769Y254606D01*
X173576Y255413D01*
X174136Y255124D01*
X174383Y254204D01*
X174909Y253292D01*
X175654Y252547D01*
X176566Y252021D01*
X177584Y251748D01*
X177610D01*
Y255748D01*
X178110D01*
Y256248D01*
X182110D01*
Y256275D01*
X181838Y257292D01*
X181311Y258204D01*
X180567Y258948D01*
X180567Y258950D01*
X180728Y259548D01*
X186853D01*
X187471Y259671D01*
X187995Y260022D01*
X209642Y281668D01*
X210066Y281492D01*
X211122Y281353D01*
X214075D01*
X215131Y281492D01*
X215555Y281668D01*
X224744Y272480D01*
X225268Y272130D01*
X225886Y272007D01*
X229560D01*
X229961Y271841D01*
X230669D01*
X231324Y272112D01*
X231825Y272613D01*
X232096Y273268D01*
Y273976D01*
X231825Y274631D01*
X231324Y275132D01*
X230669Y275403D01*
X229961D01*
X229560Y275237D01*
X226555D01*
X217840Y283953D01*
X218016Y284377D01*
X218155Y285433D01*
X218016Y286489D01*
X217608Y287473D01*
X216960Y288318D01*
X216115Y288966D01*
X215131Y289374D01*
X214075Y289513D01*
X211122D01*
X210066Y289374D01*
X209082Y288966D01*
X208237Y288318D01*
X207589Y287473D01*
X207181Y286489D01*
X207042Y285433D01*
X207181Y284377D01*
X207357Y283953D01*
X186184Y262779D01*
X181081D01*
X180832Y263379D01*
X180991Y263538D01*
X181465Y264358D01*
X181710Y265274D01*
Y266222D01*
X181465Y267138D01*
X180991Y267958D01*
X180321Y268629D01*
X179500Y269103D01*
X178584Y269348D01*
X177636D01*
X176721Y269103D01*
X175900Y268629D01*
X175230Y267958D01*
X174756Y267138D01*
X174510Y266222D01*
Y265274D01*
X174756Y264358D01*
X175230Y263538D01*
X175804Y262963D01*
X175862Y262571D01*
X175817Y262222D01*
X170958Y257363D01*
X121335D01*
X120991Y257959D01*
X120321Y258629D01*
X119767Y258948D01*
X119928Y259548D01*
X143526D01*
X144144Y259671D01*
X144668Y260022D01*
X176972Y292326D01*
X177636Y292148D01*
X178584D01*
X179500Y292393D01*
X180321Y292867D01*
X180991Y293538D01*
X181465Y294358D01*
X181710Y295274D01*
Y296222D01*
X181465Y297138D01*
X180991Y297958D01*
X180321Y298629D01*
X179500Y299103D01*
X178584Y299348D01*
D02*
G37*
G36*
X118584D02*
X117636D01*
X116721Y299103D01*
X115900Y298629D01*
X115229Y297958D01*
X114756Y297138D01*
X114510Y296222D01*
Y295274D01*
X114756Y294358D01*
X115229Y293538D01*
X115900Y292867D01*
X116721Y292393D01*
X117636Y292148D01*
X118584D01*
X119500Y292393D01*
X120321Y292867D01*
X120991Y293538D01*
X121465Y294358D01*
X121710Y295274D01*
Y296222D01*
X121465Y297138D01*
X120991Y297958D01*
X120321Y298629D01*
X119500Y299103D01*
X118584Y299348D01*
D02*
G37*
G36*
X12408Y297687D02*
X11214D01*
X10060Y297377D01*
X9025Y296780D01*
X8180Y295935D01*
X7583Y294901D01*
X7274Y293747D01*
Y292552D01*
X7583Y291398D01*
X8180Y290364D01*
X9025Y289519D01*
X10060Y288922D01*
X11214Y288613D01*
X12408D01*
X13562Y288922D01*
X14597Y289519D01*
X15441Y290364D01*
X16039Y291398D01*
X16348Y292552D01*
Y293747D01*
X16039Y294901D01*
X15441Y295935D01*
X14597Y296780D01*
X13562Y297377D01*
X12408Y297687D01*
D02*
G37*
G36*
X289967Y291466D02*
X288773D01*
X287619Y291157D01*
X286584Y290560D01*
X285740Y289715D01*
X285142Y288680D01*
X284833Y287526D01*
Y286332D01*
X285142Y285178D01*
X285740Y284143D01*
X286584Y283299D01*
X287619Y282701D01*
X288773Y282392D01*
X289967D01*
X291121Y282701D01*
X292156Y283299D01*
X293001Y284143D01*
X293598Y285178D01*
X293907Y286332D01*
Y287526D01*
X293598Y288680D01*
X293001Y289715D01*
X292156Y290560D01*
X291121Y291157D01*
X289967Y291466D01*
D02*
G37*
G36*
X178584Y289348D02*
X177636D01*
X176721Y289103D01*
X175900Y288629D01*
X175230Y287959D01*
X174756Y287138D01*
X174510Y286222D01*
Y285274D01*
X174756Y284359D01*
X175230Y283538D01*
X175900Y282867D01*
X176721Y282393D01*
X177636Y282148D01*
X178584D01*
X179500Y282393D01*
X180321Y282867D01*
X180991Y283538D01*
X181465Y284359D01*
X181710Y285274D01*
Y286222D01*
X181465Y287138D01*
X180991Y287959D01*
X180321Y288629D01*
X179500Y289103D01*
X178584Y289348D01*
D02*
G37*
G36*
X118584D02*
X117636D01*
X116721Y289103D01*
X115900Y288629D01*
X115229Y287959D01*
X114756Y287138D01*
X114510Y286222D01*
Y285274D01*
X114756Y284359D01*
X115229Y283538D01*
X115900Y282867D01*
X116721Y282393D01*
X117636Y282148D01*
X118584D01*
X119500Y282393D01*
X120321Y282867D01*
X120991Y283538D01*
X121465Y284359D01*
X121710Y285274D01*
Y286222D01*
X121465Y287138D01*
X120991Y287959D01*
X120321Y288629D01*
X119500Y289103D01*
X118584Y289348D01*
D02*
G37*
G36*
X214075Y280074D02*
X213098D01*
Y276091D01*
X218492D01*
X218405Y276751D01*
X217957Y277832D01*
X217245Y278761D01*
X216316Y279473D01*
X215235Y279921D01*
X214075Y280074D01*
D02*
G37*
G36*
X212098D02*
X211122D01*
X209962Y279921D01*
X208880Y279473D01*
X207952Y278761D01*
X207240Y277832D01*
X206792Y276751D01*
X206705Y276091D01*
X212098D01*
Y280074D01*
D02*
G37*
G36*
X249508D02*
X248532D01*
Y276091D01*
X253925D01*
X253838Y276751D01*
X253391Y277832D01*
X252678Y278761D01*
X251749Y279473D01*
X250668Y279921D01*
X249508Y280074D01*
D02*
G37*
G36*
X247532D02*
X246555D01*
X245395Y279921D01*
X244314Y279473D01*
X243385Y278761D01*
X242672Y277832D01*
X242225Y276751D01*
X242138Y276091D01*
X247532D01*
Y280074D01*
D02*
G37*
G36*
X289967Y281466D02*
X288773D01*
X287619Y281157D01*
X286584Y280560D01*
X285740Y279715D01*
X285142Y278680D01*
X284833Y277526D01*
Y276332D01*
X285142Y275178D01*
X285740Y274143D01*
X286584Y273299D01*
X287619Y272701D01*
X288773Y272392D01*
X289967D01*
X291121Y272701D01*
X292156Y273299D01*
X293001Y274143D01*
X293598Y275178D01*
X293907Y276332D01*
Y277526D01*
X293598Y278680D01*
X293001Y279715D01*
X292156Y280560D01*
X291121Y281157D01*
X289967Y281466D01*
D02*
G37*
G36*
X178584Y279348D02*
X177636D01*
X176721Y279103D01*
X175900Y278629D01*
X175230Y277958D01*
X174756Y277138D01*
X174510Y276222D01*
Y275274D01*
X174756Y274359D01*
X175230Y273538D01*
X175900Y272867D01*
X176721Y272393D01*
X177636Y272148D01*
X178584D01*
X179500Y272393D01*
X180321Y272867D01*
X180991Y273538D01*
X181465Y274359D01*
X181710Y275274D01*
Y276222D01*
X181465Y277138D01*
X180991Y277958D01*
X180321Y278629D01*
X179500Y279103D01*
X178584Y279348D01*
D02*
G37*
G36*
X118584D02*
X117636D01*
X116721Y279103D01*
X115900Y278629D01*
X115229Y277958D01*
X114756Y277138D01*
X114510Y276222D01*
Y275274D01*
X114756Y274359D01*
X115229Y273538D01*
X115900Y272867D01*
X116721Y272393D01*
X117636Y272148D01*
X118584D01*
X119500Y272393D01*
X120321Y272867D01*
X120991Y273538D01*
X121465Y274359D01*
X121710Y275274D01*
Y276222D01*
X121465Y277138D01*
X120991Y277958D01*
X120321Y278629D01*
X119500Y279103D01*
X118584Y279348D01*
D02*
G37*
G36*
X253925Y275091D02*
X248532D01*
Y271107D01*
X249508D01*
X250668Y271260D01*
X251749Y271708D01*
X252678Y272420D01*
X253391Y273349D01*
X253838Y274430D01*
X253925Y275091D01*
D02*
G37*
G36*
X247532D02*
X242138D01*
X242225Y274430D01*
X242672Y273349D01*
X243385Y272420D01*
X244314Y271708D01*
X245395Y271260D01*
X246555Y271107D01*
X247532D01*
Y275091D01*
D02*
G37*
G36*
X218492Y275091D02*
X213098D01*
Y271107D01*
X214075D01*
X215235Y271260D01*
X216316Y271708D01*
X217245Y272420D01*
X217957Y273349D01*
X218405Y274430D01*
X218492Y275091D01*
D02*
G37*
G36*
X212098D02*
X206705D01*
X206792Y274430D01*
X207240Y273349D01*
X207952Y272420D01*
X208880Y271708D01*
X209962Y271260D01*
X211122Y271107D01*
X212098D01*
Y275091D01*
D02*
G37*
G36*
X16748Y272650D02*
X12311D01*
Y268213D01*
X12461D01*
X13717Y268549D01*
X14842Y269199D01*
X15762Y270118D01*
X16412Y271244D01*
X16748Y272500D01*
Y272650D01*
D02*
G37*
G36*
X11311D02*
X6874D01*
Y272500D01*
X7210Y271244D01*
X7860Y270118D01*
X8780Y269199D01*
X9905Y268549D01*
X11161Y268213D01*
X11311D01*
Y272650D01*
D02*
G37*
G36*
X249508Y289513D02*
X246555D01*
X245499Y289374D01*
X244515Y288966D01*
X243670Y288318D01*
X243022Y287473D01*
X242614Y286489D01*
X242475Y285433D01*
X242614Y284377D01*
X243022Y283393D01*
X243670Y282548D01*
X244515Y281900D01*
X245499Y281492D01*
X246555Y281353D01*
X249508D01*
X250564Y281492D01*
X251548Y281900D01*
X252393Y282548D01*
X253041Y283393D01*
X253217Y283818D01*
X270197D01*
X285213Y268802D01*
X285142Y268680D01*
X284833Y267526D01*
Y266332D01*
X285142Y265178D01*
X285740Y264143D01*
X286584Y263299D01*
X287619Y262701D01*
X288773Y262392D01*
X289967D01*
X291121Y262701D01*
X292156Y263299D01*
X293001Y264143D01*
X293598Y265178D01*
X293907Y266332D01*
Y267526D01*
X293598Y268680D01*
X293001Y269715D01*
X292156Y270560D01*
X291121Y271157D01*
X289967Y271466D01*
X288773D01*
X287619Y271157D01*
X287497Y271087D01*
X272008Y286575D01*
X271484Y286925D01*
X270866Y287048D01*
X253217D01*
X253041Y287473D01*
X252393Y288318D01*
X251548Y288966D01*
X250564Y289374D01*
X249508Y289513D01*
D02*
G37*
G36*
X178584Y309348D02*
X177636D01*
X176721Y309103D01*
X175900Y308629D01*
X175230Y307959D01*
X174756Y307138D01*
X174510Y306222D01*
Y305274D01*
X174756Y304359D01*
X175230Y303538D01*
X175900Y302867D01*
X176721Y302393D01*
X177636Y302148D01*
X178584D01*
X179248Y302326D01*
X183503Y298070D01*
X184028Y297720D01*
X184646Y297597D01*
X212421D01*
X242790Y267229D01*
X242614Y266804D01*
X242475Y265748D01*
X242614Y264692D01*
X243022Y263708D01*
X243670Y262863D01*
X244515Y262215D01*
X245499Y261807D01*
X246555Y261668D01*
X249508D01*
X250564Y261807D01*
X251548Y262215D01*
X252393Y262863D01*
X253041Y263708D01*
X253449Y264692D01*
X253588Y265748D01*
X253449Y266804D01*
X253041Y267788D01*
X252393Y268633D01*
X251548Y269281D01*
X250564Y269689D01*
X249508Y269828D01*
X246555D01*
X245499Y269689D01*
X245075Y269513D01*
X214233Y300355D01*
X213709Y300705D01*
X213090Y300828D01*
X185315D01*
X181532Y304610D01*
X181710Y305274D01*
Y306222D01*
X181465Y307138D01*
X180991Y307959D01*
X180321Y308629D01*
X179500Y309103D01*
X178584Y309348D01*
D02*
G37*
G36*
X214075Y269828D02*
X211122D01*
X210066Y269689D01*
X209082Y269281D01*
X208237Y268633D01*
X207589Y267788D01*
X207181Y266804D01*
X207042Y265748D01*
X207181Y264692D01*
X207589Y263708D01*
X208237Y262863D01*
X209082Y262215D01*
X210066Y261807D01*
X211122Y261668D01*
X214075D01*
X215131Y261807D01*
X216115Y262215D01*
X216960Y262863D01*
X217608Y263708D01*
X218016Y264692D01*
X218155Y265748D01*
X218016Y266804D01*
X217608Y267788D01*
X216960Y268633D01*
X216115Y269281D01*
X215131Y269689D01*
X214075Y269828D01*
D02*
G37*
G36*
X249508Y259985D02*
X246555D01*
X245499Y259846D01*
X244515Y259439D01*
X243670Y258790D01*
X243022Y257945D01*
X242614Y256961D01*
X242475Y255906D01*
X242614Y254850D01*
X243022Y253866D01*
X243670Y253021D01*
X244515Y252372D01*
X245499Y251965D01*
X246555Y251826D01*
X249508D01*
X250564Y251965D01*
X251548Y252372D01*
X252393Y253021D01*
X253041Y253866D01*
X253449Y254850D01*
X253588Y255906D01*
X253449Y256961D01*
X253041Y257945D01*
X252393Y258790D01*
X251548Y259439D01*
X250564Y259846D01*
X249508Y259985D01*
D02*
G37*
G36*
X214075D02*
X211122D01*
X210066Y259846D01*
X209082Y259439D01*
X208237Y258790D01*
X207589Y257945D01*
X207181Y256961D01*
X207042Y255906D01*
X207181Y254850D01*
X207589Y253866D01*
X208237Y253021D01*
X209082Y252372D01*
X210066Y251965D01*
X211122Y251826D01*
X214075D01*
X215131Y251965D01*
X216115Y252372D01*
X216960Y253021D01*
X217608Y253866D01*
X218016Y254850D01*
X218155Y255906D01*
X218016Y256961D01*
X217608Y257945D01*
X216960Y258790D01*
X216115Y259439D01*
X215131Y259846D01*
X214075Y259985D01*
D02*
G37*
G36*
X182110Y255248D02*
X178610D01*
Y251748D01*
X178637D01*
X179654Y252021D01*
X180566Y252547D01*
X181311Y253292D01*
X181838Y254204D01*
X182110Y255221D01*
Y255248D01*
D02*
G37*
G36*
X289967Y261466D02*
X288773D01*
X287619Y261157D01*
X286584Y260560D01*
X285740Y259715D01*
X285142Y258680D01*
X284833Y257526D01*
Y256332D01*
X285142Y255178D01*
X285740Y254143D01*
X286584Y253299D01*
X287619Y252701D01*
X288580Y252444D01*
X288569Y251826D01*
X287464Y251530D01*
X286339Y250880D01*
X285420Y249960D01*
X284770Y248835D01*
X284433Y247579D01*
Y247429D01*
X294307D01*
Y247579D01*
X293971Y248835D01*
X293321Y249960D01*
X292402Y250880D01*
X291276Y251530D01*
X290171Y251826D01*
X290160Y252444D01*
X291121Y252701D01*
X292156Y253299D01*
X293001Y254143D01*
X293598Y255178D01*
X293907Y256332D01*
Y257526D01*
X293598Y258680D01*
X293001Y259715D01*
X292156Y260560D01*
X291121Y261157D01*
X289967Y261466D01*
D02*
G37*
G36*
X15256Y255064D02*
X12303D01*
X11247Y254925D01*
X10263Y254517D01*
X9418Y253869D01*
X8770Y253024D01*
X8362Y252040D01*
X8223Y250984D01*
X8362Y249928D01*
X8770Y248944D01*
X9418Y248099D01*
X10263Y247451D01*
X11247Y247043D01*
X12303Y246904D01*
X15256D01*
X16312Y247043D01*
X17296Y247451D01*
X18141Y248099D01*
X18789Y248944D01*
X19197Y249928D01*
X19336Y250984D01*
X19197Y252040D01*
X18789Y253024D01*
X18141Y253869D01*
X17296Y254517D01*
X16312Y254925D01*
X15256Y255064D01*
D02*
G37*
G36*
X178584Y249348D02*
X177636D01*
X176721Y249103D01*
X175900Y248629D01*
X175230Y247958D01*
X174756Y247138D01*
X174510Y246222D01*
Y245274D01*
X174756Y244358D01*
X175230Y243538D01*
X175900Y242867D01*
X176721Y242393D01*
X177636Y242148D01*
X178584D01*
X179500Y242393D01*
X180321Y242867D01*
X180991Y243538D01*
X181465Y244358D01*
X181710Y245274D01*
Y246222D01*
X181465Y247138D01*
X180991Y247958D01*
X180321Y248629D01*
X179500Y249103D01*
X178584Y249348D01*
D02*
G37*
G36*
X118584D02*
X117636D01*
X116721Y249103D01*
X115900Y248629D01*
X115229Y247958D01*
X114756Y247138D01*
X114510Y246222D01*
Y245274D01*
X114756Y244358D01*
X115229Y243538D01*
X115900Y242867D01*
X116721Y242393D01*
X117636Y242148D01*
X118584D01*
X119500Y242393D01*
X120321Y242867D01*
X120991Y243538D01*
X121465Y244358D01*
X121710Y245274D01*
Y246222D01*
X121465Y247138D01*
X120991Y247958D01*
X120321Y248629D01*
X119500Y249103D01*
X118584Y249348D01*
D02*
G37*
G36*
X294307Y246429D02*
X289870D01*
Y241992D01*
X290020D01*
X291276Y242329D01*
X292402Y242979D01*
X293321Y243898D01*
X293971Y245023D01*
X294307Y246279D01*
Y246429D01*
D02*
G37*
G36*
X288870D02*
X284433D01*
Y246279D01*
X284770Y245023D01*
X285420Y243898D01*
X286339Y242979D01*
X287464Y242329D01*
X288720Y241992D01*
X288870D01*
Y246429D01*
D02*
G37*
G36*
X249508Y250143D02*
X246555D01*
X245499Y250004D01*
X244515Y249596D01*
X243670Y248948D01*
X243022Y248103D01*
X242614Y247119D01*
X242475Y246063D01*
X242614Y245007D01*
X243022Y244023D01*
X243670Y243178D01*
X244515Y242530D01*
X245499Y242122D01*
X246555Y241983D01*
X249508D01*
X250564Y242122D01*
X251548Y242530D01*
X252393Y243178D01*
X253041Y244023D01*
X253449Y245007D01*
X253588Y246063D01*
X253449Y247119D01*
X253041Y248103D01*
X252393Y248948D01*
X251548Y249596D01*
X250564Y250004D01*
X249508Y250143D01*
D02*
G37*
G36*
X214075D02*
X211122D01*
X210066Y250004D01*
X209082Y249596D01*
X208237Y248948D01*
X207589Y248103D01*
X207181Y247119D01*
X207042Y246063D01*
X207181Y245007D01*
X207589Y244023D01*
X208237Y243178D01*
X209082Y242530D01*
X210066Y242122D01*
X211122Y241983D01*
X214075D01*
X215131Y242122D01*
X216115Y242530D01*
X216960Y243178D01*
X217608Y244023D01*
X218016Y245007D01*
X218155Y246063D01*
X218016Y247119D01*
X217608Y248103D01*
X216960Y248948D01*
X216115Y249596D01*
X215131Y250004D01*
X214075Y250143D01*
D02*
G37*
G36*
X15256Y245625D02*
X14279D01*
Y241642D01*
X19673D01*
X19586Y242302D01*
X19139Y243383D01*
X18426Y244312D01*
X17497Y245024D01*
X16416Y245472D01*
X15256Y245625D01*
D02*
G37*
G36*
X13280D02*
X12303D01*
X11143Y245472D01*
X10062Y245024D01*
X9133Y244312D01*
X8421Y243383D01*
X7973Y242302D01*
X7886Y241642D01*
X13280D01*
Y245625D01*
D02*
G37*
G36*
X19673Y240642D02*
X14279D01*
Y236659D01*
X15256D01*
X16416Y236811D01*
X17497Y237259D01*
X18426Y237972D01*
X19139Y238900D01*
X19586Y239981D01*
X19673Y240642D01*
D02*
G37*
G36*
X13280D02*
X7886D01*
X7973Y239981D01*
X8421Y238900D01*
X9133Y237972D01*
X10062Y237259D01*
X11143Y236811D01*
X12303Y236659D01*
X13280D01*
Y240642D01*
D02*
G37*
G36*
X118637Y239748D02*
X118610D01*
Y236248D01*
X122110D01*
Y236275D01*
X121838Y237292D01*
X121311Y238204D01*
X120566Y238949D01*
X119654Y239475D01*
X118637Y239748D01*
D02*
G37*
G36*
X117610D02*
X117584D01*
X116566Y239475D01*
X115654Y238949D01*
X114909Y238204D01*
X114383Y237292D01*
X114110Y236275D01*
Y236248D01*
X117610D01*
Y239748D01*
D02*
G37*
G36*
X178584Y239348D02*
X177636D01*
X176721Y239103D01*
X175900Y238629D01*
X175230Y237959D01*
X174756Y237138D01*
X174510Y236222D01*
Y235274D01*
X174756Y234359D01*
X175230Y233538D01*
X175900Y232867D01*
X176721Y232393D01*
X177636Y232148D01*
X178584D01*
X179500Y232393D01*
X180321Y232867D01*
X180991Y233538D01*
X181465Y234359D01*
X181710Y235274D01*
Y236222D01*
X181465Y237138D01*
X180991Y237959D01*
X180321Y238629D01*
X179500Y239103D01*
X178584Y239348D01*
D02*
G37*
G36*
X122110Y235248D02*
X118610D01*
Y231748D01*
X118637D01*
X119654Y232021D01*
X120566Y232547D01*
X121311Y233292D01*
X121838Y234204D01*
X122110Y235221D01*
Y235248D01*
D02*
G37*
G36*
X117610D02*
X114110D01*
Y235221D01*
X114383Y234204D01*
X114909Y233292D01*
X115654Y232547D01*
X116566Y232021D01*
X117584Y231748D01*
X117610D01*
Y235248D01*
D02*
G37*
G36*
X181710Y229348D02*
X174510D01*
Y222148D01*
X181710D01*
Y229348D01*
D02*
G37*
G36*
X118584D02*
X117636D01*
X116721Y229103D01*
X115900Y228629D01*
X115229Y227958D01*
X114756Y227138D01*
X114510Y226222D01*
Y225274D01*
X114756Y224359D01*
X115229Y223538D01*
X115900Y222867D01*
X116721Y222393D01*
X117636Y222148D01*
X118584D01*
X119500Y222393D01*
X120321Y222867D01*
X120991Y223538D01*
X121465Y224359D01*
X121710Y225274D01*
Y226222D01*
X121465Y227138D01*
X120991Y227958D01*
X120321Y228629D01*
X119500Y229103D01*
X118584Y229348D01*
D02*
G37*
G36*
X248622Y172281D02*
X243504D01*
X242679Y172172D01*
X241911Y171854D01*
X241251Y171347D01*
X240744Y170688D01*
X240426Y169919D01*
X240318Y169095D01*
X240426Y168270D01*
X240744Y167501D01*
X241251Y166841D01*
X241911Y166335D01*
X242679Y166017D01*
X243504Y165908D01*
X248622D01*
X249447Y166017D01*
X250215Y166335D01*
X250875Y166841D01*
X251381Y167501D01*
X251700Y168270D01*
X251808Y169095D01*
X251700Y169919D01*
X251381Y170688D01*
X250875Y171347D01*
X250215Y171854D01*
X249447Y172172D01*
X248622Y172281D01*
D02*
G37*
G36*
X45866Y117163D02*
X40748D01*
X39923Y117054D01*
X39155Y116736D01*
X38495Y116229D01*
X37989Y115569D01*
X37670Y114801D01*
X37562Y113976D01*
X37670Y113152D01*
X37989Y112383D01*
X38495Y111723D01*
X39155Y111217D01*
X39923Y110899D01*
X40748Y110790D01*
X45866D01*
X46691Y110899D01*
X47459Y111217D01*
X48119Y111723D01*
X48626Y112383D01*
X48944Y113152D01*
X49053Y113976D01*
X48944Y114801D01*
X48626Y115569D01*
X48119Y116229D01*
X47459Y116736D01*
X46691Y117054D01*
X45866Y117163D01*
D02*
G37*
G36*
X248622Y97871D02*
X243504D01*
X242679Y97763D01*
X241911Y97444D01*
X241251Y96938D01*
X240744Y96278D01*
X240426Y95510D01*
X240318Y94685D01*
X240426Y93860D01*
X240744Y93092D01*
X241251Y92432D01*
X241911Y91926D01*
X242679Y91607D01*
X243504Y91499D01*
X248622D01*
X249447Y91607D01*
X250215Y91926D01*
X250875Y92432D01*
X251381Y93092D01*
X251700Y93860D01*
X251808Y94685D01*
X251700Y95510D01*
X251381Y96278D01*
X250875Y96938D01*
X250215Y97444D01*
X249447Y97763D01*
X248622Y97871D01*
D02*
G37*
G36*
X183071Y185689D02*
X151575D01*
X151116Y185499D01*
X145210Y179593D01*
X145020Y179134D01*
X145020Y82677D01*
X145210Y82218D01*
X151116Y76312D01*
X151575Y76122D01*
X220472Y76122D01*
X220932Y76312D01*
X226837Y82218D01*
X227027Y82677D01*
Y118110D01*
X226837Y118570D01*
X218963Y126444D01*
X218504Y126634D01*
X199088Y126634D01*
X189626Y136096D01*
Y179134D01*
X189436Y179593D01*
X183530Y185499D01*
X183071Y185689D01*
D02*
G37*
G36*
X129921D02*
X55118Y185689D01*
X54659Y185499D01*
X50722Y181562D01*
X50532Y181102D01*
X50532Y84646D01*
X50722Y84187D01*
X58596Y76312D01*
X59055Y76122D01*
X131890Y76122D01*
X132349Y76312D01*
X136286Y80249D01*
X136476Y80709D01*
Y108268D01*
Y133858D01*
Y179134D01*
X136286Y179593D01*
X130380Y185499D01*
X129921Y185689D01*
D02*
G37*
G36*
X45866Y42753D02*
X40748D01*
X39923Y42645D01*
X39155Y42326D01*
X38495Y41820D01*
X37989Y41160D01*
X37670Y40392D01*
X37562Y39567D01*
X37670Y38742D01*
X37989Y37974D01*
X38495Y37314D01*
X39155Y36808D01*
X39923Y36489D01*
X40748Y36381D01*
X45866D01*
X46691Y36489D01*
X47459Y36808D01*
X48119Y37314D01*
X48626Y37974D01*
X48944Y38742D01*
X49053Y39567D01*
X48944Y40392D01*
X48626Y41160D01*
X48119Y41820D01*
X47459Y42326D01*
X46691Y42645D01*
X45866Y42753D01*
D02*
G37*
G36*
X290050Y16742D02*
X288691D01*
X287358Y16477D01*
X286102Y15957D01*
X284972Y15202D01*
X284011Y14241D01*
X283256Y13111D01*
X282736Y11855D01*
X282471Y10522D01*
Y9163D01*
X282736Y7830D01*
X283256Y6575D01*
X284011Y5444D01*
X284972Y4484D01*
X286102Y3729D01*
X287358Y3208D01*
X288691Y2943D01*
X290050D01*
X291383Y3208D01*
X292638Y3729D01*
X293768Y4484D01*
X294729Y5444D01*
X295484Y6575D01*
X296004Y7830D01*
X296269Y9163D01*
Y10522D01*
X296004Y11855D01*
X295484Y13111D01*
X294729Y14241D01*
X293768Y15202D01*
X292638Y15957D01*
X291383Y16477D01*
X290050Y16742D01*
D02*
G37*
G36*
X12490D02*
X11131D01*
X9799Y16477D01*
X8543Y15957D01*
X7413Y15202D01*
X6452Y14241D01*
X5697Y13111D01*
X5177Y11855D01*
X4912Y10522D01*
Y9163D01*
X5177Y7830D01*
X5697Y6575D01*
X6452Y5444D01*
X7413Y4484D01*
X8543Y3729D01*
X9799Y3208D01*
X11131Y2943D01*
X12490D01*
X13823Y3208D01*
X15079Y3729D01*
X16209Y4484D01*
X17170Y5444D01*
X17925Y6575D01*
X18445Y7830D01*
X18710Y9163D01*
Y10522D01*
X18445Y11855D01*
X17925Y13111D01*
X17170Y14241D01*
X16209Y15202D01*
X15079Y15957D01*
X13823Y16477D01*
X12490Y16742D01*
D02*
G37*
%LPD*%
G36*
X188976Y179134D02*
Y135827D01*
X198819Y125984D01*
X218504Y125984D01*
X226378Y118110D01*
Y82677D01*
X220472Y76772D01*
X151575Y76772D01*
X145669Y82677D01*
X145669Y179134D01*
X151575Y185039D01*
X183071D01*
X188976Y179134D01*
D02*
G37*
G36*
X135827Y179134D02*
Y133858D01*
Y108268D01*
Y80709D01*
X131890Y76772D01*
X59055Y76772D01*
X51181Y84646D01*
X51181Y181102D01*
X55118Y185039D01*
X129921Y185039D01*
X135827Y179134D01*
D02*
G37*
D40*
X214075Y285433D02*
X225886Y273622D01*
X230315D01*
X211122Y285433D02*
X214075D01*
X88583Y236221D02*
X113526Y261164D01*
X143526D01*
X178110Y295748D01*
X186853Y261164D02*
X211122Y285433D01*
X177043Y261164D02*
X186853D01*
X171627Y255748D02*
X177043Y261164D01*
X118110Y255748D02*
X171627D01*
X270866Y285433D02*
X289370Y266929D01*
X248031Y285433D02*
X270866D01*
X246555Y265748D02*
X248031D01*
X213090Y299213D02*
X246555Y265748D01*
X184646Y299213D02*
X213090D01*
X178110Y305748D02*
X184646Y299213D01*
X100709Y283150D02*
X118110Y265748D01*
X11811Y283150D02*
X100709D01*
X272372Y309931D02*
X289370Y326929D01*
X183927Y309931D02*
X272372D01*
X178110Y315748D02*
X183927Y309931D01*
X211122Y334646D02*
X212598D01*
X195095Y350673D02*
X211122Y334646D01*
X195095Y350673D02*
Y355247D01*
X180009Y370332D02*
X195095Y355247D01*
X165608Y370332D02*
X180009D01*
X161024Y365748D02*
X165608Y370332D01*
X118110Y365748D02*
X161024D01*
D42*
X80315Y98228D02*
D03*
X209055Y110433D02*
D03*
D43*
X80315Y55315D02*
D03*
X209055Y153347D02*
D03*
D44*
X43307Y113976D02*
D03*
Y39567D02*
D03*
X246063Y94685D02*
D03*
Y169095D02*
D03*
D45*
X178110Y345748D02*
D03*
Y335748D02*
D03*
Y325748D02*
D03*
Y315748D02*
D03*
Y305748D02*
D03*
Y295748D02*
D03*
Y285748D02*
D03*
Y275748D02*
D03*
Y265748D02*
D03*
Y255748D02*
D03*
Y245748D02*
D03*
Y235748D02*
D03*
X118110Y225748D02*
D03*
X178110Y355748D02*
D03*
Y365748D02*
D03*
X118110Y235748D02*
D03*
Y245748D02*
D03*
Y255748D02*
D03*
Y265748D02*
D03*
Y275748D02*
D03*
Y285748D02*
D03*
Y295748D02*
D03*
Y305748D02*
D03*
Y315748D02*
D03*
Y345748D02*
D03*
Y325748D02*
D03*
Y335748D02*
D03*
Y355748D02*
D03*
Y365748D02*
D03*
D46*
X178110Y225748D02*
D03*
D47*
X13780Y250984D02*
D03*
Y241142D02*
D03*
X248031Y275590D02*
D03*
X212598Y344488D02*
D03*
X248031D02*
D03*
X212598Y275590D02*
D03*
Y255906D02*
D03*
X248031Y324803D02*
D03*
X212598D02*
D03*
X248031Y354331D02*
D03*
X212598D02*
D03*
Y285433D02*
D03*
X248031D02*
D03*
Y314961D02*
D03*
Y265748D02*
D03*
X212598Y246063D02*
D03*
Y314961D02*
D03*
Y265748D02*
D03*
X248031Y334646D02*
D03*
X212598D02*
D03*
X248031Y255906D02*
D03*
Y246063D02*
D03*
D48*
X11811Y273150D02*
D03*
X289370Y246929D02*
D03*
Y266929D02*
D03*
X11811Y333150D02*
D03*
Y283150D02*
D03*
X289370Y296929D02*
D03*
X11811Y323150D02*
D03*
Y343150D02*
D03*
X289370Y326929D02*
D03*
Y256929D02*
D03*
Y306929D02*
D03*
X11811Y303150D02*
D03*
X289370Y286929D02*
D03*
Y336929D02*
D03*
X11811Y293150D02*
D03*
X289370Y316929D02*
D03*
Y276929D02*
D03*
X11811Y313150D02*
D03*
D49*
Y362205D02*
D03*
X289370Y9843D02*
D03*
Y362205D02*
D03*
X11811Y9843D02*
D03*
D50*
X6299Y29921D02*
D03*
X12205Y41732D02*
D03*
X6299Y53543D02*
D03*
X12205Y65354D02*
D03*
X6299Y77165D02*
D03*
X12205Y88976D02*
D03*
X6299Y100787D02*
D03*
X12205Y112598D02*
D03*
X6299Y124409D02*
D03*
X12205Y136220D02*
D03*
X6299Y148031D02*
D03*
X12205Y159843D02*
D03*
X6299Y171653D02*
D03*
X12205Y183465D02*
D03*
X6299Y195275D02*
D03*
X12205Y207086D02*
D03*
X6299Y218898D02*
D03*
X12205Y230709D02*
D03*
X6299Y242520D02*
D03*
Y266142D02*
D03*
Y289764D02*
D03*
Y337008D02*
D03*
X24016Y18110D02*
D03*
X18110Y29921D02*
D03*
X24016Y41732D02*
D03*
X18110Y53543D02*
D03*
X24016Y65354D02*
D03*
X18110Y77165D02*
D03*
X24016Y88976D02*
D03*
X18110Y100787D02*
D03*
X24016Y112598D02*
D03*
X18110Y124409D02*
D03*
X24016Y136220D02*
D03*
X18110Y148031D02*
D03*
X24016Y159843D02*
D03*
X18110Y171653D02*
D03*
X24016Y183465D02*
D03*
X18110Y195275D02*
D03*
X24016Y207086D02*
D03*
X18110Y218898D02*
D03*
X24016Y230709D02*
D03*
Y254331D02*
D03*
X18110Y266142D02*
D03*
X24016Y277953D02*
D03*
X18110Y289764D02*
D03*
Y337008D02*
D03*
X24016Y348819D02*
D03*
X29921Y6299D02*
D03*
X35827Y18110D02*
D03*
X29921Y29921D02*
D03*
X35827Y41732D02*
D03*
X29921Y53543D02*
D03*
X35827Y65354D02*
D03*
X29921Y77165D02*
D03*
X35827Y88976D02*
D03*
X29921Y100787D02*
D03*
X35827Y112598D02*
D03*
X29921Y124409D02*
D03*
X35827Y136220D02*
D03*
X29921Y148031D02*
D03*
X35827Y159843D02*
D03*
X29921Y171653D02*
D03*
X35827Y183465D02*
D03*
X29921Y195275D02*
D03*
X35827Y207086D02*
D03*
X29921Y218898D02*
D03*
X35827Y230709D02*
D03*
X29921Y242520D02*
D03*
Y266142D02*
D03*
X35827Y277953D02*
D03*
X29921Y289764D02*
D03*
X35827Y348819D02*
D03*
X29921Y360630D02*
D03*
X41732Y6299D02*
D03*
X47638Y18110D02*
D03*
X41732Y29921D02*
D03*
Y53543D02*
D03*
X47638Y65354D02*
D03*
X41732Y77165D02*
D03*
X47638Y88976D02*
D03*
X41732Y100787D02*
D03*
Y124409D02*
D03*
X47638Y136220D02*
D03*
X41732Y148031D02*
D03*
X47638Y159843D02*
D03*
X41732Y171653D02*
D03*
X47638Y183465D02*
D03*
X41732Y195275D02*
D03*
X47638Y207086D02*
D03*
X41732Y218898D02*
D03*
Y242520D02*
D03*
X47638Y254331D02*
D03*
X41732Y289764D02*
D03*
X47638Y348819D02*
D03*
X41732Y360630D02*
D03*
X53543Y6299D02*
D03*
X59449Y18110D02*
D03*
X53543Y29921D02*
D03*
X59449Y41732D02*
D03*
X53543Y53543D02*
D03*
X59449Y65354D02*
D03*
X53543Y77165D02*
D03*
X59449Y254331D02*
D03*
Y277953D02*
D03*
X53543Y289764D02*
D03*
X59449Y348819D02*
D03*
X53543Y360630D02*
D03*
X65354Y6299D02*
D03*
X71260Y18110D02*
D03*
X65354Y29921D02*
D03*
X71260Y41732D02*
D03*
X65354Y53543D02*
D03*
X71260Y65354D02*
D03*
X65354Y242520D02*
D03*
X71260Y254331D02*
D03*
Y277953D02*
D03*
X65354Y289764D02*
D03*
X71260Y348819D02*
D03*
X65354Y360630D02*
D03*
X77165Y6299D02*
D03*
X83071Y18110D02*
D03*
X77165Y29921D02*
D03*
X83071Y41732D02*
D03*
X77165Y242520D02*
D03*
X83071Y254331D02*
D03*
X77165Y266142D02*
D03*
Y289764D02*
D03*
X83071Y348819D02*
D03*
X77165Y360630D02*
D03*
X88976Y6299D02*
D03*
X94882Y18110D02*
D03*
X88976Y29921D02*
D03*
X94882Y41732D02*
D03*
Y65354D02*
D03*
X88976Y242520D02*
D03*
X94882Y254331D02*
D03*
X88976Y266142D02*
D03*
Y289764D02*
D03*
X94882Y301575D02*
D03*
Y348819D02*
D03*
X88976Y360630D02*
D03*
X100787Y6299D02*
D03*
X106693Y18110D02*
D03*
X100787Y29921D02*
D03*
X106693Y41732D02*
D03*
X100787Y53543D02*
D03*
X106693Y65354D02*
D03*
Y207086D02*
D03*
X100787Y218898D02*
D03*
Y242520D02*
D03*
Y266142D02*
D03*
Y289764D02*
D03*
X106693Y301575D02*
D03*
Y348819D02*
D03*
X100787Y360630D02*
D03*
X112598Y6299D02*
D03*
X118504Y18110D02*
D03*
X112598Y29921D02*
D03*
X118504Y41732D02*
D03*
X112598Y53543D02*
D03*
X118504Y65354D02*
D03*
Y207086D02*
D03*
X112598Y218898D02*
D03*
Y242520D02*
D03*
Y289764D02*
D03*
Y360630D02*
D03*
X124409Y6299D02*
D03*
X130315Y18110D02*
D03*
X124409Y29921D02*
D03*
X130315Y41732D02*
D03*
X124409Y53543D02*
D03*
X130315Y65354D02*
D03*
X124409Y195275D02*
D03*
X130315Y207086D02*
D03*
X124409Y242520D02*
D03*
Y266142D02*
D03*
X130315Y277953D02*
D03*
X124409Y289764D02*
D03*
X130315Y301575D02*
D03*
X124409Y313386D02*
D03*
X130315Y325197D02*
D03*
X124409Y337008D02*
D03*
X130315Y348819D02*
D03*
X124409Y360630D02*
D03*
X136220Y6299D02*
D03*
X142126Y18110D02*
D03*
X136220Y29921D02*
D03*
X142126Y41732D02*
D03*
X136220Y53543D02*
D03*
X142126Y65354D02*
D03*
X136220Y77165D02*
D03*
X142126Y88976D02*
D03*
Y112598D02*
D03*
Y183465D02*
D03*
X136220Y195275D02*
D03*
X142126Y207086D02*
D03*
X136220Y218898D02*
D03*
X142126Y230709D02*
D03*
X136220Y242520D02*
D03*
Y266142D02*
D03*
X142126Y277953D02*
D03*
X136220Y289764D02*
D03*
X142126Y301575D02*
D03*
X136220Y313386D02*
D03*
X142126Y325197D02*
D03*
X136220Y337008D02*
D03*
X142126Y348819D02*
D03*
X136220Y360630D02*
D03*
X148031Y6299D02*
D03*
X153937Y18110D02*
D03*
X148031Y29921D02*
D03*
X153937Y41732D02*
D03*
X148031Y53543D02*
D03*
X153937Y65354D02*
D03*
X148031Y77165D02*
D03*
Y195275D02*
D03*
X153937Y207086D02*
D03*
X148031Y218898D02*
D03*
X153937Y230709D02*
D03*
Y277953D02*
D03*
X148031Y289764D02*
D03*
X153937Y301575D02*
D03*
X148031Y313386D02*
D03*
X153937Y325197D02*
D03*
X148031Y337008D02*
D03*
X153937Y348819D02*
D03*
X148031Y360630D02*
D03*
X159842Y6299D02*
D03*
X165748Y18110D02*
D03*
X159842Y29921D02*
D03*
X165748Y41732D02*
D03*
X159842Y53543D02*
D03*
X165748Y65354D02*
D03*
X159842Y195275D02*
D03*
X165748Y207086D02*
D03*
X159842Y218898D02*
D03*
X165748Y230709D02*
D03*
X159842Y242520D02*
D03*
Y289764D02*
D03*
X165748Y301575D02*
D03*
X159842Y313386D02*
D03*
X165748Y325197D02*
D03*
X159842Y337008D02*
D03*
X165748Y348819D02*
D03*
X159842Y360630D02*
D03*
X171653Y6299D02*
D03*
X177559Y18110D02*
D03*
X171653Y29921D02*
D03*
X177559Y41732D02*
D03*
X171653Y53543D02*
D03*
X177559Y65354D02*
D03*
X171653Y195275D02*
D03*
X177559Y207086D02*
D03*
X171653Y218898D02*
D03*
Y242520D02*
D03*
Y313386D02*
D03*
Y337008D02*
D03*
X183465Y6299D02*
D03*
X189370Y18110D02*
D03*
X183465Y29921D02*
D03*
X189370Y41732D02*
D03*
X183465Y53543D02*
D03*
X189370Y65354D02*
D03*
Y183465D02*
D03*
X183465Y195275D02*
D03*
X189370Y207086D02*
D03*
Y230709D02*
D03*
X183465Y242520D02*
D03*
Y266142D02*
D03*
Y337008D02*
D03*
X189370Y348819D02*
D03*
X195275Y6299D02*
D03*
X201181Y18110D02*
D03*
X195275Y29921D02*
D03*
X201181Y41732D02*
D03*
X195275Y53543D02*
D03*
X201181Y65354D02*
D03*
Y136220D02*
D03*
X195275Y148031D02*
D03*
Y171653D02*
D03*
X201181Y183465D02*
D03*
X195275Y195275D02*
D03*
X201181Y207086D02*
D03*
X195275Y242520D02*
D03*
Y289764D02*
D03*
Y313386D02*
D03*
Y360630D02*
D03*
X207086Y6299D02*
D03*
X212992Y18110D02*
D03*
X207086Y29921D02*
D03*
X212992Y41732D02*
D03*
X207086Y53543D02*
D03*
X212992Y65354D02*
D03*
Y136220D02*
D03*
X207086Y171653D02*
D03*
X212992Y183465D02*
D03*
X207086Y195275D02*
D03*
X212992Y207086D02*
D03*
X207086Y360630D02*
D03*
X218898Y6299D02*
D03*
X224803Y18110D02*
D03*
X218898Y29921D02*
D03*
X224803Y41732D02*
D03*
X218898Y53543D02*
D03*
X224803Y65354D02*
D03*
Y136220D02*
D03*
Y159843D02*
D03*
X218898Y171653D02*
D03*
X224803Y183465D02*
D03*
X218898Y195275D02*
D03*
X224803Y207086D02*
D03*
Y254331D02*
D03*
Y348819D02*
D03*
X218898Y360630D02*
D03*
X230709Y6299D02*
D03*
X236614Y18110D02*
D03*
X230709Y29921D02*
D03*
X236614Y41732D02*
D03*
X230709Y53543D02*
D03*
X236614Y65354D02*
D03*
X230709Y77165D02*
D03*
X236614Y88976D02*
D03*
X230709Y100787D02*
D03*
X236614Y112598D02*
D03*
X230709Y124409D02*
D03*
X236614Y136220D02*
D03*
X230709Y148031D02*
D03*
X236614Y159843D02*
D03*
X230709Y171653D02*
D03*
X236614Y183465D02*
D03*
X230709Y195275D02*
D03*
X236614Y207086D02*
D03*
Y254331D02*
D03*
X230709Y266142D02*
D03*
Y289764D02*
D03*
X236614Y348819D02*
D03*
X230709Y360630D02*
D03*
X242520Y6299D02*
D03*
X248425Y18110D02*
D03*
X242520Y29921D02*
D03*
X248425Y41732D02*
D03*
X242520Y53543D02*
D03*
X248425Y65354D02*
D03*
X242520Y77165D02*
D03*
X248425Y88976D02*
D03*
X242520Y100787D02*
D03*
X248425Y112598D02*
D03*
X242520Y124409D02*
D03*
X248425Y136220D02*
D03*
X242520Y148031D02*
D03*
X248425Y159843D02*
D03*
Y183465D02*
D03*
X242520Y195275D02*
D03*
X248425Y207086D02*
D03*
X242520Y360630D02*
D03*
X254331Y6299D02*
D03*
X260236Y18110D02*
D03*
X254331Y29921D02*
D03*
X260236Y41732D02*
D03*
X254331Y53543D02*
D03*
X260236Y65354D02*
D03*
X254331Y77165D02*
D03*
X260236Y88976D02*
D03*
X254331Y100787D02*
D03*
X260236Y112598D02*
D03*
X254331Y124409D02*
D03*
X260236Y136220D02*
D03*
X254331Y148031D02*
D03*
X260236Y159843D02*
D03*
X254331Y171653D02*
D03*
X260236Y183465D02*
D03*
X254331Y195275D02*
D03*
X260236Y207086D02*
D03*
Y348819D02*
D03*
X254331Y360630D02*
D03*
X266142Y6299D02*
D03*
X272047Y18110D02*
D03*
X266142Y29921D02*
D03*
X272047Y41732D02*
D03*
X266142Y53543D02*
D03*
X272047Y65354D02*
D03*
X266142Y77165D02*
D03*
X272047Y88976D02*
D03*
X266142Y100787D02*
D03*
X272047Y112598D02*
D03*
X266142Y124409D02*
D03*
X272047Y136220D02*
D03*
X266142Y148031D02*
D03*
X272047Y159843D02*
D03*
X266142Y171653D02*
D03*
X272047Y183465D02*
D03*
X266142Y195275D02*
D03*
X272047Y207086D02*
D03*
Y325197D02*
D03*
Y348819D02*
D03*
X266142Y360630D02*
D03*
X277953Y6299D02*
D03*
X283858Y18110D02*
D03*
X277953Y29921D02*
D03*
X283858Y41732D02*
D03*
X277953Y53543D02*
D03*
X283858Y65354D02*
D03*
X277953Y77165D02*
D03*
X283858Y88976D02*
D03*
X277953Y100787D02*
D03*
X283858Y112598D02*
D03*
X277953Y124409D02*
D03*
X283858Y136220D02*
D03*
X277953Y148031D02*
D03*
X283858Y159843D02*
D03*
X277953Y171653D02*
D03*
X283858Y183465D02*
D03*
X277953Y195275D02*
D03*
X283858Y207086D02*
D03*
X277953Y218898D02*
D03*
X283858Y230709D02*
D03*
X277953Y289764D02*
D03*
Y337008D02*
D03*
X283858Y348819D02*
D03*
X295669Y18110D02*
D03*
X289764Y29921D02*
D03*
X295669Y41732D02*
D03*
X289764Y53543D02*
D03*
X295669Y65354D02*
D03*
X289764Y77165D02*
D03*
X295669Y88976D02*
D03*
X289764Y100787D02*
D03*
X295669Y112598D02*
D03*
X289764Y124409D02*
D03*
X295669Y136220D02*
D03*
X289764Y148031D02*
D03*
X295669Y159843D02*
D03*
X289764Y171653D02*
D03*
X295669Y183465D02*
D03*
X289764Y195275D02*
D03*
X295669Y207086D02*
D03*
X289764Y218898D02*
D03*
X295669Y230709D02*
D03*
Y254331D02*
D03*
Y277953D02*
D03*
Y301575D02*
D03*
Y325197D02*
D03*
Y348819D02*
D03*
D51*
X103347Y170276D02*
D03*
X106299Y146653D02*
D03*
X76772Y112205D02*
D03*
X107283Y93504D02*
D03*
X119095Y158465D02*
D03*
X131890Y86614D02*
D03*
X109252Y106299D02*
D03*
X121063Y93504D02*
D03*
X92520Y124016D02*
D03*
X128937Y92520D02*
D03*
X110236Y80709D02*
D03*
X60039Y153543D02*
D03*
X131890Y158465D02*
D03*
X112205Y142717D02*
D03*
X114173Y149606D02*
D03*
X125000Y156496D02*
D03*
X125984Y107283D02*
D03*
X97441Y96457D02*
D03*
X114173Y99410D02*
D03*
X116142Y85630D02*
D03*
Y106299D02*
D03*
X75787Y177165D02*
D03*
X93504Y141732D02*
D03*
X123031Y86614D02*
D03*
X127953Y80709D02*
D03*
X61024Y139764D02*
D03*
X122047Y102362D02*
D03*
X76772Y128937D02*
D03*
X68898Y170276D02*
D03*
X107283Y101378D02*
D03*
X102362Y178150D02*
D03*
X119095Y80709D02*
D03*
X73819Y163386D02*
D03*
X83661Y162402D02*
D03*
X125000Y146653D02*
D03*
X84646Y132874D02*
D03*
X82677Y143701D02*
D03*
X86614Y153543D02*
D03*
X72835D02*
D03*
X107283Y86614D02*
D03*
X114173Y91535D02*
D03*
X74803Y141732D02*
D03*
X60039Y131890D02*
D03*
X93504Y163386D02*
D03*
X106299Y154528D02*
D03*
X131890Y103347D02*
D03*
X60039Y166339D02*
D03*
X104331Y125984D02*
D03*
X96457Y85630D02*
D03*
X102362Y116142D02*
D03*
X94488Y132874D02*
D03*
X96457Y105315D02*
D03*
X59055Y114173D02*
D03*
X65945Y103347D02*
D03*
X58071Y105315D02*
D03*
X130905Y137795D02*
D03*
X124016Y134843D02*
D03*
X113189Y133858D02*
D03*
X130905Y145669D02*
D03*
X124016Y141732D02*
D03*
X118110Y138779D02*
D03*
Y144685D02*
D03*
X107283Y136811D02*
D03*
X112205Y157480D02*
D03*
X60039Y96457D02*
D03*
X64961Y92520D02*
D03*
X61024Y84646D02*
D03*
X73819Y83661D02*
D03*
X65945Y124016D02*
D03*
X85630Y82677D02*
D03*
X154528Y175197D02*
D03*
X165354D02*
D03*
X180118D02*
D03*
X154528Y163386D02*
D03*
X165354D02*
D03*
X180118Y162402D02*
D03*
X154528Y151575D02*
D03*
X166339D02*
D03*
X179134D02*
D03*
X152559Y137795D02*
D03*
X166339D02*
D03*
X181102Y138779D02*
D03*
X155512Y120079D02*
D03*
X175197D02*
D03*
X166339D02*
D03*
X177165Y110236D02*
D03*
X167323Y107283D02*
D03*
X155512Y108268D02*
D03*
X154528Y95472D02*
D03*
X176181Y97441D02*
D03*
X190945Y122047D02*
D03*
X191929Y112205D02*
D03*
X190945Y100394D02*
D03*
X221457Y113189D02*
D03*
Y102362D02*
D03*
X220472Y86614D02*
D03*
X208661Y92520D02*
D03*
X198819Y82677D02*
D03*
X191929Y90551D02*
D03*
X177165Y83661D02*
D03*
X157480D02*
D03*
X165354Y97441D02*
D03*
X173228Y170276D02*
D03*
X174213Y130905D02*
D03*
X158465D02*
D03*
X184055D02*
D03*
D52*
X230315Y273622D02*
D03*
X88583Y236221D02*
D03*
M02*
