G04*
G04 #@! TF.GenerationSoftware,Altium Limited,Altium Designer,25.5.2 (35)*
G04*
G04 Layer_Color=8421504*
%FSLAX25Y25*%
%MOIN*%
G70*
G04*
G04 #@! TF.SameCoordinates,158EF743-8888-4733-9C83-1880DC859FCE*
G04*
G04*
G04 #@! TF.FilePolarity,Positive*
G04*
G01*
G75*
G04:AMPARAMS|DCode=16|XSize=162.21mil|YSize=37.01mil|CornerRadius=9.25mil|HoleSize=0mil|Usage=FLASHONLY|Rotation=270.000|XOffset=0mil|YOffset=0mil|HoleType=Round|Shape=RoundedRectangle|*
%AMROUNDEDRECTD16*
21,1,0.16221,0.01850,0,0,270.0*
21,1,0.14370,0.03701,0,0,270.0*
1,1,0.01850,-0.00925,-0.07185*
1,1,0.01850,-0.00925,0.07185*
1,1,0.01850,0.00925,0.07185*
1,1,0.01850,0.00925,-0.07185*
%
%ADD16ROUNDEDRECTD16*%
%ADD17R,0.07874X0.14961*%
%ADD18R,0.07874X0.05906*%
%ADD19R,0.03150X0.03543*%
%ADD20R,0.09843X0.06693*%
%ADD21R,0.05315X0.04528*%
%ADD22R,0.05512X0.05118*%
%ADD23R,0.03937X0.03543*%
%ADD24R,0.06496X0.04724*%
%ADD25R,0.04134X0.02362*%
%ADD26R,0.03543X0.02756*%
%ADD27R,0.03740X0.03347*%
%ADD28R,0.05906X0.03937*%
%ADD29R,0.04724X0.06496*%
G36*
X192992Y49449D02*
Y54843D01*
X198465D01*
Y49449D01*
X192992D01*
D02*
G37*
G36*
Y57992D02*
Y63386D01*
X198465D01*
Y57992D01*
X192992D01*
D02*
G37*
G36*
X201614Y49449D02*
Y54843D01*
X207087D01*
Y49449D01*
X201614D01*
D02*
G37*
G36*
Y57992D02*
Y63386D01*
X207087D01*
Y57992D01*
X201614D01*
D02*
G37*
G36*
X192992Y66535D02*
Y71929D01*
X198465D01*
Y66535D01*
X192992D01*
D02*
G37*
G36*
Y75079D02*
Y80472D01*
X198465D01*
Y75079D01*
X192992D01*
D02*
G37*
G36*
X201614Y66535D02*
Y71929D01*
X207087D01*
Y66535D01*
X201614D01*
D02*
G37*
G36*
Y75079D02*
Y80472D01*
X207087D01*
Y75079D01*
X201614D01*
D02*
G37*
G36*
X210236Y49449D02*
Y54843D01*
X215709D01*
Y49449D01*
X210236D01*
D02*
G37*
G36*
Y57992D02*
Y63386D01*
X215709D01*
Y57992D01*
X210236D01*
D02*
G37*
G36*
X218858Y49449D02*
Y54843D01*
X224331D01*
Y49449D01*
X218858D01*
D02*
G37*
G36*
Y57992D02*
Y63386D01*
X224331D01*
Y57992D01*
X218858D01*
D02*
G37*
G36*
X210236Y66535D02*
Y71929D01*
X215709D01*
Y66535D01*
X210236D01*
D02*
G37*
G36*
Y75079D02*
Y80472D01*
X215709D01*
Y75079D01*
X210236D01*
D02*
G37*
G36*
X218858Y66535D02*
Y71929D01*
X224331D01*
Y66535D01*
X218858D01*
D02*
G37*
G36*
Y75079D02*
Y80472D01*
X224331D01*
Y75079D01*
X218858D01*
D02*
G37*
G36*
X244173Y49449D02*
Y54843D01*
X249646D01*
Y49449D01*
X244173D01*
D02*
G37*
G36*
Y57992D02*
Y63386D01*
X249646D01*
Y57992D01*
X244173D01*
D02*
G37*
G36*
X252795Y49449D02*
Y54843D01*
X258268D01*
Y49449D01*
X252795D01*
D02*
G37*
G36*
Y57992D02*
Y63386D01*
X258268D01*
Y57992D01*
X252795D01*
D02*
G37*
G36*
X244173Y66535D02*
Y71929D01*
X249646D01*
Y66535D01*
X244173D01*
D02*
G37*
G36*
Y75079D02*
Y80472D01*
X249646D01*
Y75079D01*
X244173D01*
D02*
G37*
G36*
X252795Y66535D02*
Y71929D01*
X258268D01*
Y66535D01*
X252795D01*
D02*
G37*
G36*
Y75079D02*
Y80472D01*
X258268D01*
Y75079D01*
X252795D01*
D02*
G37*
G36*
X261417Y49449D02*
Y54843D01*
X266890D01*
Y49449D01*
X261417D01*
D02*
G37*
G36*
Y57992D02*
Y63386D01*
X266890D01*
Y57992D01*
X261417D01*
D02*
G37*
G36*
X270039Y49449D02*
Y54843D01*
X275512D01*
Y49449D01*
X270039D01*
D02*
G37*
G36*
Y57992D02*
Y63386D01*
X275512D01*
Y57992D01*
X270039D01*
D02*
G37*
G36*
X261417Y66535D02*
Y71929D01*
X266890D01*
Y66535D01*
X261417D01*
D02*
G37*
G36*
Y75079D02*
Y80472D01*
X266890D01*
Y75079D01*
X261417D01*
D02*
G37*
G36*
X270039Y66535D02*
Y71929D01*
X275512D01*
Y66535D01*
X270039D01*
D02*
G37*
G36*
Y75079D02*
Y80472D01*
X275512D01*
Y75079D01*
X270039D01*
D02*
G37*
D16*
X218661Y105118D02*
D03*
X198661D02*
D03*
X269843D02*
D03*
X249843D02*
D03*
D17*
X294685Y159449D02*
D03*
D18*
X319488D02*
D03*
Y168504D02*
D03*
Y150394D02*
D03*
D19*
X259646Y164370D02*
D03*
X255906Y156496D02*
D03*
X252165Y164370D02*
D03*
D20*
X245079Y145669D02*
D03*
X229331D02*
D03*
D21*
X259842Y180610D02*
D03*
X62008Y166831D02*
D03*
X45276D02*
D03*
X250000Y180610D02*
D03*
X45276Y159941D02*
D03*
Y147146D02*
D03*
X62008Y159941D02*
D03*
Y146161D02*
D03*
X259842Y173721D02*
D03*
X250000D02*
D03*
X62008Y139272D02*
D03*
X45276Y140256D02*
D03*
D22*
X320866Y181890D02*
D03*
X295276Y188189D02*
D03*
X320866Y188189D02*
D03*
X295276Y181890D02*
D03*
D23*
X135827Y158760D02*
D03*
X145669Y164075D02*
D03*
X135827D02*
D03*
X145669Y158760D02*
D03*
D24*
X79724Y168898D02*
D03*
Y135236D02*
D03*
Y146260D02*
D03*
Y157874D02*
D03*
D25*
X163386Y159646D02*
D03*
Y167126D02*
D03*
X185039D02*
D03*
Y159646D02*
D03*
X100394Y166142D02*
D03*
Y158661D02*
D03*
D26*
X312795Y181102D02*
D03*
X305315Y178543D02*
D03*
Y183661D02*
D03*
D27*
X125000Y163976D02*
D03*
Y158858D02*
D03*
D28*
X211614Y143307D02*
D03*
Y155905D02*
D03*
D29*
X240748Y160433D02*
D03*
X229724D02*
D03*
M02*
