G04*
G04 #@! TF.GenerationSoftware,Altium Limited,Altium Designer,25.5.2 (35)*
G04*
G04 Layer_Color=8421504*
%FSLAX25Y25*%
%MOIN*%
G70*
G04*
G04 #@! TF.SameCoordinates,AD08EBE7-E67C-455F-8013-DBC13013D67F*
G04*
G04*
G04 #@! TF.FilePolarity,Positive*
G04*
G01*
G75*
%ADD14R,0.04724X0.06496*%
%ADD15R,0.06496X0.04724*%
%ADD16R,0.04724X0.04724*%
%ADD17R,0.03150X0.03543*%
G04:AMPARAMS|DCode=18|XSize=162.21mil|YSize=37.01mil|CornerRadius=9.25mil|HoleSize=0mil|Usage=FLASHONLY|Rotation=0.000|XOffset=0mil|YOffset=0mil|HoleType=Round|Shape=RoundedRectangle|*
%AMROUNDEDRECTD18*
21,1,0.16221,0.01850,0,0,0.0*
21,1,0.14370,0.03701,0,0,0.0*
1,1,0.01850,0.07185,-0.00925*
1,1,0.01850,-0.07185,-0.00925*
1,1,0.01850,-0.07185,0.00925*
1,1,0.01850,0.07185,0.00925*
%
%ADD18ROUNDEDRECTD18*%
%ADD19R,0.06693X0.09843*%
%ADD20R,0.02362X0.04134*%
G36*
X157047Y92598D02*
X151654D01*
Y98071D01*
X157047D01*
Y92598D01*
D02*
G37*
G36*
X165591D02*
X160197D01*
Y98071D01*
X165591D01*
Y92598D01*
D02*
G37*
G36*
X157047Y101221D02*
X151654D01*
Y106693D01*
X157047D01*
Y101221D01*
D02*
G37*
G36*
X165591D02*
X160197D01*
Y106693D01*
X165591D01*
Y101221D01*
D02*
G37*
G36*
X174134Y92598D02*
X168740D01*
Y98071D01*
X174134D01*
Y92598D01*
D02*
G37*
G36*
X182677D02*
X177284D01*
Y98071D01*
X182677D01*
Y92598D01*
D02*
G37*
G36*
X174134Y101221D02*
X168740D01*
Y106693D01*
X174134D01*
Y101221D01*
D02*
G37*
G36*
X182677D02*
X177284D01*
Y106693D01*
X182677D01*
Y101221D01*
D02*
G37*
G36*
X157047Y109843D02*
X151654D01*
Y115315D01*
X157047D01*
Y109843D01*
D02*
G37*
G36*
X165591D02*
X160197D01*
Y115315D01*
X165591D01*
Y109843D01*
D02*
G37*
G36*
X157047Y118465D02*
X151654D01*
Y123937D01*
X157047D01*
Y118465D01*
D02*
G37*
G36*
X165591D02*
X160197D01*
Y123937D01*
X165591D01*
Y118465D01*
D02*
G37*
G36*
X174134Y109843D02*
X168740D01*
Y115315D01*
X174134D01*
Y109843D01*
D02*
G37*
G36*
X182677D02*
X177284D01*
Y115315D01*
X182677D01*
Y109843D01*
D02*
G37*
G36*
X174134Y118465D02*
X168740D01*
Y123937D01*
X174134D01*
Y118465D01*
D02*
G37*
G36*
X182677D02*
X177284D01*
Y123937D01*
X182677D01*
Y118465D01*
D02*
G37*
G36*
X157047Y145748D02*
X151654D01*
Y151221D01*
X157047D01*
Y145748D01*
D02*
G37*
G36*
X165591D02*
X160197D01*
Y151221D01*
X165591D01*
Y145748D01*
D02*
G37*
G36*
X157047Y154370D02*
X151654D01*
Y159843D01*
X157047D01*
Y154370D01*
D02*
G37*
G36*
X165591D02*
X160197D01*
Y159843D01*
X165591D01*
Y154370D01*
D02*
G37*
G36*
X174134Y145748D02*
X168740D01*
Y151221D01*
X174134D01*
Y145748D01*
D02*
G37*
G36*
X182677D02*
X177284D01*
Y151221D01*
X182677D01*
Y145748D01*
D02*
G37*
G36*
X174134Y154370D02*
X168740D01*
Y159843D01*
X174134D01*
Y154370D01*
D02*
G37*
G36*
X182677D02*
X177284D01*
Y159843D01*
X182677D01*
Y154370D01*
D02*
G37*
G36*
X157047Y162992D02*
X151654D01*
Y168465D01*
X157047D01*
Y162992D01*
D02*
G37*
G36*
X165591D02*
X160197D01*
Y168465D01*
X165591D01*
Y162992D01*
D02*
G37*
G36*
X157047Y171614D02*
X151654D01*
Y177087D01*
X157047D01*
Y171614D01*
D02*
G37*
G36*
X165591D02*
X160197D01*
Y177087D01*
X165591D01*
Y171614D01*
D02*
G37*
G36*
X174134Y162992D02*
X168740D01*
Y168465D01*
X174134D01*
Y162992D01*
D02*
G37*
G36*
X182677D02*
X177284D01*
Y168465D01*
X182677D01*
Y162992D01*
D02*
G37*
G36*
X174134Y171614D02*
X168740D01*
Y177087D01*
X174134D01*
Y171614D01*
D02*
G37*
G36*
X182677D02*
X177284D01*
Y177087D01*
X182677D01*
Y171614D01*
D02*
G37*
D14*
X82284Y267717D02*
D03*
Y283465D02*
D03*
Y299213D02*
D03*
X46063Y267717D02*
D03*
X45669Y283465D02*
D03*
Y299213D02*
D03*
X71260D02*
D03*
X56693D02*
D03*
X71260Y283465D02*
D03*
X56693D02*
D03*
X82284Y246063D02*
D03*
X57087Y267717D02*
D03*
X71260Y267717D02*
D03*
X71260Y246063D02*
D03*
X73228Y212598D02*
D03*
X84252D02*
D03*
D15*
X35433Y212205D02*
D03*
X62992Y179528D02*
D03*
X15748Y212205D02*
D03*
X62992Y190551D02*
D03*
X35433Y201181D02*
D03*
X15748D02*
D03*
D16*
X49016Y246063D02*
D03*
X57284D02*
D03*
D17*
X60827Y204724D02*
D03*
X53347D02*
D03*
X57087Y212598D02*
D03*
D18*
X127008Y151417D02*
D03*
Y98268D02*
D03*
Y118268D02*
D03*
Y171417D02*
D03*
D19*
X88583Y179134D02*
D03*
Y194882D02*
D03*
D20*
X75000Y230315D02*
D03*
X82480D02*
D03*
M02*
