G04*
G04 #@! TF.GenerationSoftware,Altium Limited,Altium Designer,25.5.2 (35)*
G04*
G04 Layer_Color=16711935*
%FSLAX25Y25*%
%MOIN*%
G70*
G04*
G04 #@! TF.SameCoordinates,158EF743-8888-4733-9C83-1880DC859FCE*
G04*
G04*
G04 #@! TF.FilePolarity,Negative*
G04*
G01*
G75*
%ADD46R,0.20154X0.20154*%
%ADD47O,0.11036X0.05918*%
%ADD48C,0.03950*%
%ADD49O,0.36233X0.18517*%
%ADD50O,0.10642X0.07690*%
%ADD51C,0.06737*%
%ADD52R,0.10839X0.10839*%
%ADD53C,0.10839*%
%ADD54C,0.06312*%
%ADD55C,0.08674*%
%ADD56C,0.06706*%
%ADD57C,0.06800*%
%ADD58R,0.06800X0.06800*%
%ADD59R,0.06706X0.06706*%
%ADD60C,0.03162*%
%ADD80C,0.20154*%
D46*
X80315Y96063D02*
D03*
X301575Y53543D02*
D03*
D47*
X43307Y111811D02*
D03*
Y37402D02*
D03*
X338583Y112205D02*
D03*
Y37795D02*
D03*
D48*
X106299Y66929D02*
D03*
X103150Y64488D02*
D03*
Y60354D02*
D03*
X105709Y56811D02*
D03*
X110276Y55630D02*
D03*
X115512D02*
D03*
X120748D02*
D03*
X125984D02*
D03*
X129921Y56811D02*
D03*
X133071Y60354D02*
D03*
Y64488D02*
D03*
X129921Y66929D02*
D03*
X110276Y68228D02*
D03*
X115512D02*
D03*
X120748D02*
D03*
X125984D02*
D03*
X145669Y66929D02*
D03*
X142520Y64488D02*
D03*
Y60354D02*
D03*
X145079Y56811D02*
D03*
X149646Y55630D02*
D03*
X154882D02*
D03*
X160118D02*
D03*
X165354D02*
D03*
X169291Y56811D02*
D03*
X172441Y60354D02*
D03*
Y64488D02*
D03*
X169291Y66929D02*
D03*
X149646Y68228D02*
D03*
X154882D02*
D03*
X160118D02*
D03*
X165354D02*
D03*
D49*
X118110Y61929D02*
D03*
X157480D02*
D03*
D50*
X15748Y152559D02*
D03*
Y142717D02*
D03*
X344488Y253937D02*
D03*
Y244094D02*
D03*
Y263779D02*
D03*
Y234252D02*
D03*
Y273622D02*
D03*
X309055Y253937D02*
D03*
Y244094D02*
D03*
Y234252D02*
D03*
Y263779D02*
D03*
Y273622D02*
D03*
X271654Y253937D02*
D03*
Y244094D02*
D03*
Y263779D02*
D03*
Y234252D02*
D03*
Y273622D02*
D03*
D51*
X374016Y179134D02*
D03*
Y135827D02*
D03*
D52*
X334646Y167323D02*
D03*
D53*
Y147638D02*
D03*
D54*
X370079Y9843D02*
D03*
Y279528D02*
D03*
X9843Y9843D02*
D03*
Y279528D02*
D03*
D55*
X203661Y183504D02*
D03*
X213661D02*
D03*
Y233504D02*
D03*
Y223504D02*
D03*
X203661Y253504D02*
D03*
Y243504D02*
D03*
Y233504D02*
D03*
Y223504D02*
D03*
Y213504D02*
D03*
Y203504D02*
D03*
Y193504D02*
D03*
X213661D02*
D03*
Y203504D02*
D03*
Y213504D02*
D03*
Y243504D02*
D03*
Y253504D02*
D03*
D56*
X137795Y146181D02*
D03*
X130276D02*
D03*
D57*
X148110Y194882D02*
D03*
X128110Y254882D02*
D03*
X18110Y194882D02*
D03*
X28110D02*
D03*
X48110D02*
D03*
X58110D02*
D03*
X38110D02*
D03*
X68110D02*
D03*
X78110D02*
D03*
X88110D02*
D03*
X98110D02*
D03*
X108110D02*
D03*
X118110D02*
D03*
X128110D02*
D03*
X138110D02*
D03*
X18110Y254882D02*
D03*
X28110D02*
D03*
X158110Y194882D02*
D03*
X148110Y254882D02*
D03*
X138110D02*
D03*
X118110D02*
D03*
X108110D02*
D03*
X98110D02*
D03*
X88110D02*
D03*
X78110D02*
D03*
X68110D02*
D03*
X58110D02*
D03*
X48110D02*
D03*
X38110D02*
D03*
D58*
X158110D02*
D03*
D59*
X145315Y146181D02*
D03*
D60*
X98425Y175197D02*
D03*
X175197Y167323D02*
D03*
X198819Y153543D02*
D03*
X285433Y159449D02*
D03*
X176575Y193504D02*
D03*
D80*
X80315Y53150D02*
D03*
X301575Y96457D02*
D03*
M02*
