G04*
G04 #@! TF.GenerationSoftware,Altium Limited,Altium Designer,25.5.2 (35)*
G04*
G04 Layer_Physical_Order=2*
G04 Layer_Color=16711680*
%FSLAX25Y25*%
%MOIN*%
G70*
G04*
G04 #@! TF.SameCoordinates,158EF743-8888-4733-9C83-1880DC859FCE*
G04*
G04*
G04 #@! TF.FilePolarity,Positive*
G04*
G01*
G75*
%ADD62C,0.01968*%
%ADD63R,0.19354X0.19354*%
%ADD64O,0.10236X0.05118*%
%ADD65C,0.03150*%
%ADD66O,0.35433X0.17717*%
%ADD67O,0.09843X0.06890*%
%ADD68C,0.05937*%
%ADD69R,0.10039X0.10039*%
%ADD70C,0.10039*%
%ADD71C,0.05512*%
%ADD72C,0.07874*%
%ADD73C,0.05906*%
%ADD74C,0.06000*%
%ADD75R,0.06000X0.06000*%
%ADD76R,0.05906X0.05906*%
%ADD77C,0.02756*%
%ADD78C,0.02362*%
%ADD79C,0.19354*%
G36*
X368110Y88583D02*
Y23622D01*
X344488Y-0D01*
X72835Y0D01*
X64961Y7874D01*
X64961D01*
X57087Y15748D01*
Y15748D01*
Y59055D01*
Y59055D01*
X66929Y68898D01*
X82677Y68898D01*
X90551Y61024D01*
Y35433D01*
X98425Y27559D01*
X336614D01*
X344488Y35433D01*
X344488Y62992D01*
X326772Y80709D01*
X295276D01*
X289370Y86614D01*
Y86614D01*
Y104331D01*
Y104331D01*
X293307Y108268D01*
X348425D01*
X368110Y88583D01*
D02*
G37*
G36*
X381890Y0D02*
X346191D01*
X345961Y554D01*
X368569Y23163D01*
X368760Y23622D01*
Y88583D01*
X368569Y89042D01*
X348884Y108727D01*
X348425Y108917D01*
X342991D01*
X342875Y109156D01*
X342829Y109517D01*
X343395Y109952D01*
X343901Y110612D01*
X344219Y111380D01*
X344328Y112205D01*
X344219Y113029D01*
X343901Y113798D01*
X343395Y114458D01*
X342735Y114964D01*
X341966Y115282D01*
X341142Y115391D01*
X336024D01*
X335199Y115282D01*
X334431Y114964D01*
X333771Y114458D01*
X333264Y113798D01*
X332946Y113029D01*
X332837Y112205D01*
X332946Y111380D01*
X333264Y110612D01*
X333771Y109952D01*
X334337Y109517D01*
X334290Y109156D01*
X334175Y108917D01*
X293307D01*
X292848Y108727D01*
X288911Y104790D01*
X288721Y104331D01*
Y86614D01*
X288911Y86155D01*
X294816Y80249D01*
X295276Y80059D01*
X326503D01*
X343839Y62723D01*
X343839Y40388D01*
X343239Y40168D01*
X342735Y40555D01*
X341966Y40873D01*
X341142Y40982D01*
X336024D01*
X335199Y40873D01*
X334431Y40555D01*
X333771Y40048D01*
X333264Y39388D01*
X332946Y38620D01*
X332837Y37795D01*
X332946Y36971D01*
X333264Y36202D01*
X333771Y35542D01*
X334431Y35036D01*
X335199Y34718D01*
X336024Y34609D01*
X341142D01*
X341966Y34718D01*
X342033Y34745D01*
X342373Y34237D01*
X336345Y28209D01*
X98694D01*
X91201Y35702D01*
Y61024D01*
X91010Y61483D01*
X83136Y69357D01*
X82677Y69547D01*
X66929Y69547D01*
X66470Y69357D01*
X56627Y59514D01*
X56437Y59055D01*
Y15748D01*
X56627Y15289D01*
X64501Y7415D01*
X64501Y7415D01*
X71362Y554D01*
X71132Y0D01*
X0D01*
Y289370D01*
X381890D01*
Y0D01*
D02*
G37*
%LPC*%
G36*
X370758Y286427D02*
X369399D01*
X368066Y286162D01*
X366811Y285642D01*
X365681Y284887D01*
X364720Y283926D01*
X363965Y282796D01*
X363445Y281540D01*
X363179Y280207D01*
Y278848D01*
X363445Y277515D01*
X363965Y276260D01*
X364720Y275130D01*
X365681Y274169D01*
X366811Y273414D01*
X368066Y272894D01*
X369399Y272628D01*
X370758D01*
X372091Y272894D01*
X373347Y273414D01*
X374477Y274169D01*
X375438Y275130D01*
X376193Y276260D01*
X376713Y277515D01*
X376978Y278848D01*
Y280207D01*
X376713Y281540D01*
X376193Y282796D01*
X375438Y283926D01*
X374477Y284887D01*
X373347Y285642D01*
X372091Y286162D01*
X370758Y286427D01*
D02*
G37*
G36*
X10522D02*
X9163D01*
X7830Y286162D01*
X6575Y285642D01*
X5444Y284887D01*
X4484Y283926D01*
X3729Y282796D01*
X3208Y281540D01*
X2943Y280207D01*
Y278848D01*
X3208Y277515D01*
X3729Y276260D01*
X4484Y275130D01*
X5444Y274169D01*
X6575Y273414D01*
X7830Y272894D01*
X9163Y272628D01*
X10522D01*
X11855Y272894D01*
X13111Y273414D01*
X14241Y274169D01*
X15202Y275130D01*
X15957Y276260D01*
X16477Y277515D01*
X16742Y278848D01*
Y280207D01*
X16477Y281540D01*
X15957Y282796D01*
X15202Y283926D01*
X14241Y284887D01*
X13111Y285642D01*
X11855Y286162D01*
X10522Y286427D01*
D02*
G37*
G36*
X345965Y277702D02*
X343012D01*
X341956Y277563D01*
X340972Y277155D01*
X340127Y276507D01*
X339479Y275662D01*
X339071Y274678D01*
X338932Y273622D01*
X339071Y272566D01*
X339479Y271582D01*
X340127Y270737D01*
X340972Y270089D01*
X341956Y269681D01*
X343012Y269542D01*
X345965D01*
X347021Y269681D01*
X348005Y270089D01*
X348849Y270737D01*
X349498Y271582D01*
X349905Y272566D01*
X350044Y273622D01*
X349905Y274678D01*
X349498Y275662D01*
X348849Y276507D01*
X348005Y277155D01*
X347021Y277563D01*
X345965Y277702D01*
D02*
G37*
G36*
X310531D02*
X307579D01*
X306523Y277563D01*
X305539Y277155D01*
X304694Y276507D01*
X304046Y275662D01*
X303638Y274678D01*
X303499Y273622D01*
X303638Y272566D01*
X304046Y271582D01*
X304694Y270737D01*
X305539Y270089D01*
X306523Y269681D01*
X307579Y269542D01*
X310531D01*
X311587Y269681D01*
X312571Y270089D01*
X313416Y270737D01*
X314065Y271582D01*
X314472Y272566D01*
X314611Y273622D01*
X314472Y274678D01*
X314065Y275662D01*
X313416Y276507D01*
X312571Y277155D01*
X311587Y277563D01*
X310531Y277702D01*
D02*
G37*
G36*
X273130D02*
X270177D01*
X269121Y277563D01*
X268137Y277155D01*
X267292Y276507D01*
X266644Y275662D01*
X266236Y274678D01*
X266097Y273622D01*
X266236Y272566D01*
X266644Y271582D01*
X267292Y270737D01*
X268137Y270089D01*
X269121Y269681D01*
X270177Y269542D01*
X273130D01*
X274186Y269681D01*
X275170Y270089D01*
X276015Y270737D01*
X276663Y271582D01*
X277071Y272566D01*
X277210Y273622D01*
X277071Y274678D01*
X276663Y275662D01*
X276015Y276507D01*
X275170Y277155D01*
X274186Y277563D01*
X273130Y277702D01*
D02*
G37*
G36*
Y268263D02*
X272153D01*
Y264280D01*
X277547D01*
X277460Y264940D01*
X277012Y266021D01*
X276300Y266950D01*
X275372Y267662D01*
X274290Y268110D01*
X273130Y268263D01*
D02*
G37*
G36*
X271153D02*
X270177D01*
X269017Y268110D01*
X267935Y267662D01*
X267007Y266950D01*
X266295Y266021D01*
X265847Y264940D01*
X265760Y264280D01*
X271153D01*
Y268263D01*
D02*
G37*
G36*
X310531D02*
X309555D01*
Y264280D01*
X314949D01*
X314862Y264940D01*
X314414Y266021D01*
X313702Y266950D01*
X312773Y267662D01*
X311692Y268110D01*
X310531Y268263D01*
D02*
G37*
G36*
X308555D02*
X307579D01*
X306418Y268110D01*
X305337Y267662D01*
X304409Y266950D01*
X303696Y266021D01*
X303248Y264940D01*
X303161Y264280D01*
X308555D01*
Y268263D01*
D02*
G37*
G36*
X345965D02*
X344988D01*
Y264280D01*
X350382D01*
X350295Y264940D01*
X349847Y266021D01*
X349135Y266950D01*
X348206Y267662D01*
X347125Y268110D01*
X345965Y268263D01*
D02*
G37*
G36*
X343988D02*
X343012D01*
X341851Y268110D01*
X340770Y267662D01*
X339842Y266950D01*
X339129Y266021D01*
X338681Y264940D01*
X338594Y264280D01*
X343988D01*
Y268263D01*
D02*
G37*
G36*
X350382Y263280D02*
X344988D01*
Y259296D01*
X345965D01*
X347125Y259449D01*
X348206Y259897D01*
X349135Y260609D01*
X349847Y261538D01*
X350295Y262619D01*
X350382Y263280D01*
D02*
G37*
G36*
X343988D02*
X338594D01*
X338681Y262619D01*
X339129Y261538D01*
X339842Y260609D01*
X340770Y259897D01*
X341851Y259449D01*
X343012Y259296D01*
X343988D01*
Y263280D01*
D02*
G37*
G36*
X314949Y263280D02*
X309555D01*
Y259296D01*
X310531D01*
X311692Y259449D01*
X312773Y259897D01*
X313702Y260609D01*
X314414Y261538D01*
X314862Y262619D01*
X314949Y263280D01*
D02*
G37*
G36*
X308555D02*
X303161D01*
X303248Y262619D01*
X303696Y261538D01*
X304409Y260609D01*
X305337Y259897D01*
X306418Y259449D01*
X307579Y259296D01*
X308555D01*
Y263280D01*
D02*
G37*
G36*
X277547Y263280D02*
X272153D01*
Y259296D01*
X273130D01*
X274290Y259449D01*
X275372Y259897D01*
X276300Y260609D01*
X277012Y261538D01*
X277460Y262619D01*
X277547Y263280D01*
D02*
G37*
G36*
X271153D02*
X265760D01*
X265847Y262619D01*
X266295Y261538D01*
X267007Y260609D01*
X267935Y259897D01*
X269017Y259449D01*
X270177Y259296D01*
X271153D01*
Y263280D01*
D02*
G37*
G36*
X128637Y258882D02*
X128610D01*
Y255382D01*
X132110D01*
Y255409D01*
X131838Y256426D01*
X131311Y257338D01*
X130566Y258083D01*
X129654Y258609D01*
X128637Y258882D01*
D02*
G37*
G36*
X127610D02*
X127584D01*
X126566Y258609D01*
X125654Y258083D01*
X124909Y257338D01*
X124383Y256426D01*
X124110Y255409D01*
Y255382D01*
X127610D01*
Y258882D01*
D02*
G37*
G36*
X148584Y258482D02*
X147636D01*
X146721Y258237D01*
X145900Y257763D01*
X145229Y257092D01*
X144756Y256271D01*
X144510Y255356D01*
Y254408D01*
X144756Y253492D01*
X145229Y252671D01*
X145900Y252001D01*
X146721Y251527D01*
X147636Y251282D01*
X148584D01*
X149500Y251527D01*
X150321Y252001D01*
X150991Y252671D01*
X151465Y253492D01*
X151710Y254408D01*
Y255356D01*
X151465Y256271D01*
X150991Y257092D01*
X150321Y257763D01*
X149500Y258237D01*
X148584Y258482D01*
D02*
G37*
G36*
X138584D02*
X137636D01*
X136721Y258237D01*
X135900Y257763D01*
X135230Y257092D01*
X134756Y256271D01*
X134510Y255356D01*
Y254408D01*
X134756Y253492D01*
X135230Y252671D01*
X135900Y252001D01*
X136721Y251527D01*
X137636Y251282D01*
X138584D01*
X139500Y251527D01*
X140321Y252001D01*
X140991Y252671D01*
X141465Y253492D01*
X141710Y254408D01*
Y255356D01*
X141465Y256271D01*
X140991Y257092D01*
X140321Y257763D01*
X139500Y258237D01*
X138584Y258482D01*
D02*
G37*
G36*
X118584D02*
X117636D01*
X116721Y258237D01*
X115900Y257763D01*
X115229Y257092D01*
X114756Y256271D01*
X114510Y255356D01*
Y254408D01*
X114756Y253492D01*
X115229Y252671D01*
X115900Y252001D01*
X116721Y251527D01*
X117636Y251282D01*
X118584D01*
X119500Y251527D01*
X120321Y252001D01*
X120991Y252671D01*
X121465Y253492D01*
X121710Y254408D01*
Y255356D01*
X121465Y256271D01*
X120991Y257092D01*
X120321Y257763D01*
X119500Y258237D01*
X118584Y258482D01*
D02*
G37*
G36*
X108584D02*
X107636D01*
X106721Y258237D01*
X105900Y257763D01*
X105229Y257092D01*
X104756Y256271D01*
X104510Y255356D01*
Y254408D01*
X104756Y253492D01*
X105229Y252671D01*
X105900Y252001D01*
X106721Y251527D01*
X107636Y251282D01*
X108584D01*
X109500Y251527D01*
X110321Y252001D01*
X110991Y252671D01*
X111465Y253492D01*
X111710Y254408D01*
Y255356D01*
X111465Y256271D01*
X110991Y257092D01*
X110321Y257763D01*
X109500Y258237D01*
X108584Y258482D01*
D02*
G37*
G36*
X98584D02*
X97636D01*
X96721Y258237D01*
X95900Y257763D01*
X95230Y257092D01*
X94756Y256271D01*
X94510Y255356D01*
Y254408D01*
X94756Y253492D01*
X95230Y252671D01*
X95900Y252001D01*
X96721Y251527D01*
X97636Y251282D01*
X98584D01*
X99500Y251527D01*
X100321Y252001D01*
X100991Y252671D01*
X101465Y253492D01*
X101710Y254408D01*
Y255356D01*
X101465Y256271D01*
X100991Y257092D01*
X100321Y257763D01*
X99500Y258237D01*
X98584Y258482D01*
D02*
G37*
G36*
X88584D02*
X87636D01*
X86721Y258237D01*
X85900Y257763D01*
X85229Y257092D01*
X84756Y256271D01*
X84510Y255356D01*
Y254408D01*
X84756Y253492D01*
X85229Y252671D01*
X85900Y252001D01*
X86721Y251527D01*
X87636Y251282D01*
X88584D01*
X89500Y251527D01*
X90321Y252001D01*
X90991Y252671D01*
X91465Y253492D01*
X91710Y254408D01*
Y255356D01*
X91465Y256271D01*
X90991Y257092D01*
X90321Y257763D01*
X89500Y258237D01*
X88584Y258482D01*
D02*
G37*
G36*
X78584D02*
X77636D01*
X76721Y258237D01*
X75900Y257763D01*
X75230Y257092D01*
X74756Y256271D01*
X74510Y255356D01*
Y254408D01*
X74756Y253492D01*
X75230Y252671D01*
X75900Y252001D01*
X76721Y251527D01*
X77636Y251282D01*
X78584D01*
X79500Y251527D01*
X80321Y252001D01*
X80991Y252671D01*
X81465Y253492D01*
X81710Y254408D01*
Y255356D01*
X81465Y256271D01*
X80991Y257092D01*
X80321Y257763D01*
X79500Y258237D01*
X78584Y258482D01*
D02*
G37*
G36*
X68584D02*
X67636D01*
X66721Y258237D01*
X65900Y257763D01*
X65229Y257092D01*
X64756Y256271D01*
X64510Y255356D01*
Y254408D01*
X64756Y253492D01*
X65229Y252671D01*
X65900Y252001D01*
X66721Y251527D01*
X67636Y251282D01*
X68584D01*
X69500Y251527D01*
X70321Y252001D01*
X70991Y252671D01*
X71465Y253492D01*
X71710Y254408D01*
Y255356D01*
X71465Y256271D01*
X70991Y257092D01*
X70321Y257763D01*
X69500Y258237D01*
X68584Y258482D01*
D02*
G37*
G36*
X58584D02*
X57636D01*
X56721Y258237D01*
X55900Y257763D01*
X55230Y257092D01*
X54756Y256271D01*
X54510Y255356D01*
Y254408D01*
X54756Y253492D01*
X55230Y252671D01*
X55900Y252001D01*
X56721Y251527D01*
X57636Y251282D01*
X58584D01*
X59500Y251527D01*
X60321Y252001D01*
X60991Y252671D01*
X61465Y253492D01*
X61710Y254408D01*
Y255356D01*
X61465Y256271D01*
X60991Y257092D01*
X60321Y257763D01*
X59500Y258237D01*
X58584Y258482D01*
D02*
G37*
G36*
X48584D02*
X47636D01*
X46721Y258237D01*
X45900Y257763D01*
X45230Y257092D01*
X44756Y256271D01*
X44510Y255356D01*
Y254408D01*
X44756Y253492D01*
X45230Y252671D01*
X45900Y252001D01*
X46721Y251527D01*
X47636Y251282D01*
X48584D01*
X49500Y251527D01*
X50321Y252001D01*
X50991Y252671D01*
X51465Y253492D01*
X51710Y254408D01*
Y255356D01*
X51465Y256271D01*
X50991Y257092D01*
X50321Y257763D01*
X49500Y258237D01*
X48584Y258482D01*
D02*
G37*
G36*
X38584D02*
X37636D01*
X36721Y258237D01*
X35900Y257763D01*
X35230Y257092D01*
X34756Y256271D01*
X34510Y255356D01*
Y254408D01*
X34756Y253492D01*
X35230Y252671D01*
X35900Y252001D01*
X36721Y251527D01*
X37636Y251282D01*
X38584D01*
X39500Y251527D01*
X40321Y252001D01*
X40991Y252671D01*
X41465Y253492D01*
X41710Y254408D01*
Y255356D01*
X41465Y256271D01*
X40991Y257092D01*
X40321Y257763D01*
X39500Y258237D01*
X38584Y258482D01*
D02*
G37*
G36*
X28584D02*
X27636D01*
X26721Y258237D01*
X25900Y257763D01*
X25229Y257092D01*
X24756Y256271D01*
X24510Y255356D01*
Y254408D01*
X24756Y253492D01*
X25229Y252671D01*
X25900Y252001D01*
X26721Y251527D01*
X27636Y251282D01*
X28584D01*
X29500Y251527D01*
X30321Y252001D01*
X30991Y252671D01*
X31465Y253492D01*
X31710Y254408D01*
Y255356D01*
X31465Y256271D01*
X30991Y257092D01*
X30321Y257763D01*
X29500Y258237D01*
X28584Y258482D01*
D02*
G37*
G36*
X18584D02*
X17636D01*
X16721Y258237D01*
X15900Y257763D01*
X15229Y257092D01*
X14756Y256271D01*
X14510Y255356D01*
Y254408D01*
X14756Y253492D01*
X15229Y252671D01*
X15900Y252001D01*
X16721Y251527D01*
X17636Y251282D01*
X18584D01*
X19500Y251527D01*
X20321Y252001D01*
X20991Y252671D01*
X21465Y253492D01*
X21710Y254408D01*
Y255356D01*
X21465Y256271D01*
X20991Y257092D01*
X20321Y257763D01*
X19500Y258237D01*
X18584Y258482D01*
D02*
G37*
G36*
X132110Y254382D02*
X128610D01*
Y250882D01*
X128637D01*
X129654Y251154D01*
X130566Y251681D01*
X131311Y252426D01*
X131838Y253338D01*
X132110Y254355D01*
Y254382D01*
D02*
G37*
G36*
X127610D02*
X124110D01*
Y254355D01*
X124383Y253338D01*
X124909Y252426D01*
X125654Y251681D01*
X126566Y251154D01*
X127584Y250882D01*
X127610D01*
Y254382D01*
D02*
G37*
G36*
X345965Y258017D02*
X343012D01*
X341956Y257878D01*
X340972Y257470D01*
X340127Y256822D01*
X339479Y255977D01*
X339071Y254993D01*
X338932Y253937D01*
X339071Y252881D01*
X339479Y251897D01*
X340127Y251052D01*
X340972Y250404D01*
X341956Y249996D01*
X343012Y249857D01*
X345965D01*
X347021Y249996D01*
X348005Y250404D01*
X348849Y251052D01*
X349498Y251897D01*
X349905Y252881D01*
X350044Y253937D01*
X349905Y254993D01*
X349498Y255977D01*
X348849Y256822D01*
X348005Y257470D01*
X347021Y257878D01*
X345965Y258017D01*
D02*
G37*
G36*
X310531D02*
X307579D01*
X306523Y257878D01*
X305539Y257470D01*
X304694Y256822D01*
X304046Y255977D01*
X303638Y254993D01*
X303499Y253937D01*
X303638Y252881D01*
X304046Y251897D01*
X304694Y251052D01*
X305539Y250404D01*
X306523Y249996D01*
X307579Y249857D01*
X310531D01*
X311587Y249996D01*
X312571Y250404D01*
X313416Y251052D01*
X314065Y251897D01*
X314472Y252881D01*
X314611Y253937D01*
X314472Y254993D01*
X314065Y255977D01*
X313416Y256822D01*
X312571Y257470D01*
X311587Y257878D01*
X310531Y258017D01*
D02*
G37*
G36*
X273130D02*
X270177D01*
X269121Y257878D01*
X268137Y257470D01*
X267292Y256822D01*
X266644Y255977D01*
X266236Y254993D01*
X266097Y253937D01*
X266236Y252881D01*
X266644Y251897D01*
X267292Y251052D01*
X268137Y250404D01*
X269121Y249996D01*
X270177Y249857D01*
X273130D01*
X274186Y249996D01*
X275170Y250404D01*
X276015Y251052D01*
X276663Y251897D01*
X277071Y252881D01*
X277210Y253937D01*
X277071Y254993D01*
X276663Y255977D01*
X276015Y256822D01*
X275170Y257470D01*
X274186Y257878D01*
X273130Y258017D01*
D02*
G37*
G36*
X214259Y258041D02*
X213064D01*
X211910Y257732D01*
X210876Y257135D01*
X210031Y256290D01*
X209434Y255255D01*
X209124Y254101D01*
Y252907D01*
X209434Y251753D01*
X210031Y250718D01*
X210876Y249873D01*
X211910Y249276D01*
X213064Y248967D01*
X214259D01*
X215413Y249276D01*
X216447Y249873D01*
X217292Y250718D01*
X217889Y251753D01*
X218198Y252907D01*
Y254101D01*
X217889Y255255D01*
X217292Y256290D01*
X216447Y257135D01*
X215413Y257732D01*
X214259Y258041D01*
D02*
G37*
G36*
X204259D02*
X203064D01*
X201910Y257732D01*
X200876Y257135D01*
X200031Y256290D01*
X199434Y255255D01*
X199124Y254101D01*
Y252907D01*
X199434Y251753D01*
X200031Y250718D01*
X200876Y249873D01*
X201910Y249276D01*
X203064Y248967D01*
X204259D01*
X205413Y249276D01*
X206447Y249873D01*
X207292Y250718D01*
X207889Y251753D01*
X208198Y252907D01*
Y254101D01*
X207889Y255255D01*
X207292Y256290D01*
X206447Y257135D01*
X205413Y257732D01*
X204259Y258041D01*
D02*
G37*
G36*
X218504Y265395D02*
X202756D01*
X202138Y265272D01*
X201614Y264922D01*
X156811Y220119D01*
X101732D01*
X101114Y219996D01*
X100590Y219646D01*
X79248Y198304D01*
X78584Y198482D01*
X77636D01*
X76721Y198237D01*
X75900Y197763D01*
X75230Y197092D01*
X74756Y196271D01*
X74510Y195356D01*
Y194408D01*
X74756Y193492D01*
X75230Y192671D01*
X75900Y192001D01*
X76721Y191527D01*
X77636Y191282D01*
X78584D01*
X79500Y191527D01*
X80321Y192001D01*
X80991Y192671D01*
X81465Y193492D01*
X81710Y194408D01*
Y195356D01*
X81532Y196020D01*
X102401Y216889D01*
X157480D01*
X158098Y217012D01*
X158623Y217362D01*
X203425Y262164D01*
X217835D01*
X218857Y261142D01*
Y250984D01*
X215534Y247661D01*
X215413Y247732D01*
X214259Y248041D01*
X213064D01*
X211910Y247732D01*
X210876Y247134D01*
X210031Y246290D01*
X209434Y245255D01*
X209124Y244101D01*
Y242907D01*
X209434Y241753D01*
X210031Y240718D01*
X210876Y239873D01*
X211910Y239276D01*
X213064Y238967D01*
X214259D01*
X215413Y239276D01*
X216447Y239873D01*
X217292Y240718D01*
X217889Y241753D01*
X218198Y242907D01*
Y244101D01*
X217889Y245255D01*
X217819Y245377D01*
X221615Y249173D01*
X221965Y249697D01*
X222088Y250315D01*
Y261811D01*
X221965Y262429D01*
X221615Y262953D01*
X219646Y264922D01*
X219122Y265272D01*
X218504Y265395D01*
D02*
G37*
G36*
X345965Y248174D02*
X343012D01*
X341956Y248035D01*
X340972Y247628D01*
X340127Y246979D01*
X339479Y246134D01*
X339071Y245150D01*
X338932Y244094D01*
X339071Y243039D01*
X339479Y242055D01*
X340127Y241210D01*
X340972Y240561D01*
X341956Y240154D01*
X343012Y240015D01*
X345965D01*
X347021Y240154D01*
X348005Y240561D01*
X348849Y241210D01*
X349498Y242055D01*
X349905Y243039D01*
X350044Y244094D01*
X349905Y245150D01*
X349498Y246134D01*
X348849Y246979D01*
X348005Y247628D01*
X347021Y248035D01*
X345965Y248174D01*
D02*
G37*
G36*
X310531D02*
X307579D01*
X306523Y248035D01*
X305539Y247628D01*
X304694Y246979D01*
X304046Y246134D01*
X303638Y245150D01*
X303499Y244094D01*
X303638Y243039D01*
X304046Y242055D01*
X304694Y241210D01*
X305539Y240561D01*
X306523Y240154D01*
X307579Y240015D01*
X310531D01*
X311587Y240154D01*
X312571Y240561D01*
X313416Y241210D01*
X314065Y242055D01*
X314472Y243039D01*
X314611Y244094D01*
X314472Y245150D01*
X314065Y246134D01*
X313416Y246979D01*
X312571Y247628D01*
X311587Y248035D01*
X310531Y248174D01*
D02*
G37*
G36*
X273130D02*
X270177D01*
X269121Y248035D01*
X268137Y247628D01*
X267292Y246979D01*
X266644Y246134D01*
X266236Y245150D01*
X266097Y244094D01*
X266236Y243039D01*
X266644Y242055D01*
X267292Y241210D01*
X268137Y240561D01*
X269121Y240154D01*
X270177Y240015D01*
X273130D01*
X274186Y240154D01*
X275170Y240561D01*
X276015Y241210D01*
X276663Y242055D01*
X277071Y243039D01*
X277210Y244094D01*
X277071Y245150D01*
X276663Y246134D01*
X276015Y246979D01*
X275170Y247628D01*
X274186Y248035D01*
X273130Y248174D01*
D02*
G37*
G36*
X204259Y248041D02*
X203064D01*
X201910Y247732D01*
X200876Y247134D01*
X200031Y246290D01*
X199434Y245255D01*
X199124Y244101D01*
Y242907D01*
X199434Y241753D01*
X200031Y240718D01*
X200876Y239873D01*
X201910Y239276D01*
X203064Y238967D01*
X204259D01*
X205413Y239276D01*
X206447Y239873D01*
X207292Y240718D01*
X207889Y241753D01*
X208198Y242907D01*
Y244101D01*
X207889Y245255D01*
X207292Y246290D01*
X206447Y247134D01*
X205413Y247732D01*
X204259Y248041D01*
D02*
G37*
G36*
X220472Y271300D02*
X198819D01*
X198201Y271177D01*
X197677Y270827D01*
X152874Y226025D01*
X87638D01*
X87020Y225902D01*
X86496Y225552D01*
X59248Y198304D01*
X58584Y198482D01*
X57636D01*
X56721Y198237D01*
X55900Y197763D01*
X55230Y197092D01*
X54756Y196271D01*
X54510Y195356D01*
Y194408D01*
X54756Y193492D01*
X55230Y192671D01*
X55900Y192001D01*
X56721Y191527D01*
X57636Y191282D01*
X58584D01*
X59500Y191527D01*
X60321Y192001D01*
X60991Y192671D01*
X61465Y193492D01*
X61710Y194408D01*
Y195356D01*
X61532Y196020D01*
X88307Y222794D01*
X153543D01*
X154162Y222917D01*
X154685Y223267D01*
X199488Y268070D01*
X219803D01*
X224763Y263110D01*
Y246889D01*
X215534Y237661D01*
X215413Y237732D01*
X214259Y238041D01*
X213064D01*
X211910Y237732D01*
X210876Y237135D01*
X210031Y236290D01*
X209434Y235255D01*
X209124Y234101D01*
Y232907D01*
X209434Y231753D01*
X210031Y230718D01*
X210876Y229873D01*
X211910Y229276D01*
X213064Y228967D01*
X214259D01*
X215413Y229276D01*
X216447Y229873D01*
X217292Y230718D01*
X217889Y231753D01*
X218198Y232907D01*
Y234101D01*
X217889Y235255D01*
X217819Y235377D01*
X227520Y245078D01*
X227870Y245602D01*
X227993Y246220D01*
Y263779D01*
X227870Y264398D01*
X227520Y264922D01*
X221615Y270827D01*
X221091Y271177D01*
X220472Y271300D01*
D02*
G37*
G36*
X345965Y238332D02*
X343012D01*
X341956Y238193D01*
X340972Y237785D01*
X340127Y237137D01*
X339479Y236292D01*
X339071Y235308D01*
X338932Y234252D01*
X339071Y233196D01*
X339479Y232212D01*
X340127Y231367D01*
X340972Y230719D01*
X341956Y230311D01*
X343012Y230172D01*
X345965D01*
X347021Y230311D01*
X348005Y230719D01*
X348849Y231367D01*
X349498Y232212D01*
X349905Y233196D01*
X350044Y234252D01*
X349905Y235308D01*
X349498Y236292D01*
X348849Y237137D01*
X348005Y237785D01*
X347021Y238193D01*
X345965Y238332D01*
D02*
G37*
G36*
X310531D02*
X307579D01*
X306523Y238193D01*
X305539Y237785D01*
X304694Y237137D01*
X304046Y236292D01*
X303638Y235308D01*
X303499Y234252D01*
X303638Y233196D01*
X304046Y232212D01*
X304694Y231367D01*
X305539Y230719D01*
X306523Y230311D01*
X307579Y230172D01*
X310531D01*
X311587Y230311D01*
X312571Y230719D01*
X313416Y231367D01*
X314065Y232212D01*
X314472Y233196D01*
X314611Y234252D01*
X314472Y235308D01*
X314065Y236292D01*
X313416Y237137D01*
X312571Y237785D01*
X311587Y238193D01*
X310531Y238332D01*
D02*
G37*
G36*
X273130D02*
X270177D01*
X269121Y238193D01*
X268137Y237785D01*
X267292Y237137D01*
X266644Y236292D01*
X266236Y235308D01*
X266097Y234252D01*
X266236Y233196D01*
X266644Y232212D01*
X267292Y231367D01*
X268137Y230719D01*
X269121Y230311D01*
X270177Y230172D01*
X273130D01*
X274186Y230311D01*
X275170Y230719D01*
X276015Y231367D01*
X276663Y232212D01*
X277071Y233196D01*
X277210Y234252D01*
X277071Y235308D01*
X276663Y236292D01*
X276015Y237137D01*
X275170Y237785D01*
X274186Y238193D01*
X273130Y238332D01*
D02*
G37*
G36*
X204259Y238041D02*
X203064D01*
X201910Y237732D01*
X200876Y237135D01*
X200031Y236290D01*
X199434Y235255D01*
X199124Y234101D01*
Y232907D01*
X199434Y231753D01*
X200031Y230718D01*
X200876Y229873D01*
X201910Y229276D01*
X203064Y228967D01*
X204259D01*
X205413Y229276D01*
X206447Y229873D01*
X207292Y230718D01*
X207889Y231753D01*
X208198Y232907D01*
Y234101D01*
X207889Y235255D01*
X207292Y236290D01*
X206447Y237135D01*
X205413Y237732D01*
X204259Y238041D01*
D02*
G37*
G36*
X224409Y275237D02*
X196850D01*
X196232Y275114D01*
X195708Y274764D01*
X154843Y233899D01*
X85512D01*
X84894Y233776D01*
X84370Y233426D01*
X49248Y198304D01*
X48584Y198482D01*
X47636D01*
X46721Y198237D01*
X45900Y197763D01*
X45230Y197092D01*
X44756Y196271D01*
X44510Y195356D01*
Y194408D01*
X44756Y193492D01*
X45230Y192671D01*
X45900Y192001D01*
X46721Y191527D01*
X47636Y191282D01*
X48584D01*
X49500Y191527D01*
X50321Y192001D01*
X50991Y192671D01*
X51465Y193492D01*
X51710Y194408D01*
Y195356D01*
X51532Y196020D01*
X86181Y230668D01*
X155512D01*
X156130Y230791D01*
X156654Y231141D01*
X197520Y272007D01*
X223740D01*
X230668Y265079D01*
Y242795D01*
X215534Y227661D01*
X215413Y227732D01*
X214259Y228041D01*
X213064D01*
X211910Y227732D01*
X210876Y227134D01*
X210031Y226290D01*
X209434Y225255D01*
X209124Y224101D01*
Y222907D01*
X209434Y221753D01*
X210031Y220718D01*
X210876Y219873D01*
X211910Y219276D01*
X213064Y218967D01*
X214259D01*
X215413Y219276D01*
X216447Y219873D01*
X217292Y220718D01*
X217889Y221753D01*
X218198Y222907D01*
Y224101D01*
X217889Y225255D01*
X217819Y225377D01*
X233426Y240984D01*
X233776Y241508D01*
X233899Y242126D01*
Y265748D01*
X233776Y266366D01*
X233426Y266890D01*
X225552Y274764D01*
X225028Y275114D01*
X224409Y275237D01*
D02*
G37*
G36*
X204259Y228041D02*
X203064D01*
X201910Y227732D01*
X200876Y227134D01*
X200031Y226290D01*
X199434Y225255D01*
X199124Y224101D01*
Y222907D01*
X199434Y221753D01*
X200031Y220718D01*
X200876Y219873D01*
X201910Y219276D01*
X203064Y218967D01*
X204259D01*
X205413Y219276D01*
X206447Y219873D01*
X207292Y220718D01*
X207889Y221753D01*
X208198Y222907D01*
Y224101D01*
X207889Y225255D01*
X207292Y226290D01*
X206447Y227134D01*
X205413Y227732D01*
X204259Y228041D01*
D02*
G37*
G36*
X226378Y279174D02*
X194882D01*
X194264Y279051D01*
X193740Y278701D01*
X152874Y237836D01*
X79449D01*
X78831Y237713D01*
X78307Y237363D01*
X39248Y198304D01*
X38584Y198482D01*
X37636D01*
X36721Y198237D01*
X35900Y197763D01*
X35230Y197092D01*
X34756Y196271D01*
X34510Y195356D01*
Y194408D01*
X34756Y193492D01*
X35230Y192671D01*
X35900Y192001D01*
X36721Y191527D01*
X37636Y191282D01*
X38584D01*
X39500Y191527D01*
X40321Y192001D01*
X40991Y192671D01*
X41465Y193492D01*
X41710Y194408D01*
Y195356D01*
X41532Y196020D01*
X80118Y234605D01*
X153543D01*
X154162Y234728D01*
X154685Y235078D01*
X195551Y275944D01*
X225709D01*
X234605Y267047D01*
Y236732D01*
X215534Y217661D01*
X215413Y217732D01*
X214259Y218041D01*
X213064D01*
X211910Y217732D01*
X210876Y217134D01*
X210031Y216290D01*
X209434Y215255D01*
X209124Y214101D01*
Y212907D01*
X209434Y211753D01*
X210031Y210718D01*
X210876Y209873D01*
X211910Y209276D01*
X213064Y208967D01*
X214259D01*
X215413Y209276D01*
X216447Y209873D01*
X217292Y210718D01*
X217889Y211753D01*
X218198Y212907D01*
Y214101D01*
X217889Y215255D01*
X217819Y215377D01*
X237363Y234921D01*
X237713Y235445D01*
X237836Y236063D01*
Y267717D01*
X237713Y268335D01*
X237363Y268859D01*
X227520Y278701D01*
X226996Y279051D01*
X226378Y279174D01*
D02*
G37*
G36*
X204259Y218041D02*
X203064D01*
X201910Y217732D01*
X200876Y217134D01*
X200031Y216290D01*
X199434Y215255D01*
X199124Y214101D01*
Y212907D01*
X199434Y211753D01*
X200031Y210718D01*
X200876Y209873D01*
X201910Y209276D01*
X203064Y208967D01*
X204259D01*
X205413Y209276D01*
X206447Y209873D01*
X207292Y210718D01*
X207889Y211753D01*
X208198Y212907D01*
Y214101D01*
X207889Y215255D01*
X207292Y216290D01*
X206447Y217134D01*
X205413Y217732D01*
X204259Y218041D01*
D02*
G37*
G36*
X230315Y283111D02*
X192965D01*
X192347Y282988D01*
X191823Y282638D01*
X162265Y253080D01*
X161710Y253310D01*
Y258482D01*
X154510D01*
Y251282D01*
X159682D01*
X159912Y250728D01*
X150957Y241773D01*
X73386D01*
X72768Y241650D01*
X72244Y241300D01*
X29248Y198304D01*
X28584Y198482D01*
X27636D01*
X26721Y198237D01*
X25900Y197763D01*
X25229Y197092D01*
X24756Y196271D01*
X24510Y195356D01*
Y194408D01*
X24756Y193492D01*
X25229Y192671D01*
X25900Y192001D01*
X26721Y191527D01*
X27636Y191282D01*
X28584D01*
X29500Y191527D01*
X30321Y192001D01*
X30991Y192671D01*
X31465Y193492D01*
X31710Y194408D01*
Y195356D01*
X31532Y196020D01*
X74055Y238542D01*
X151626D01*
X152244Y238665D01*
X152769Y239015D01*
X193634Y279881D01*
X229646D01*
X240511Y269016D01*
Y232638D01*
X215534Y207661D01*
X215413Y207732D01*
X214259Y208041D01*
X213064D01*
X211910Y207732D01*
X210876Y207135D01*
X210031Y206290D01*
X209434Y205255D01*
X209124Y204101D01*
Y202907D01*
X209434Y201753D01*
X210031Y200718D01*
X210876Y199873D01*
X211910Y199276D01*
X213064Y198967D01*
X214259D01*
X215413Y199276D01*
X216447Y199873D01*
X217292Y200718D01*
X217889Y201753D01*
X218198Y202907D01*
Y204101D01*
X217889Y205255D01*
X217819Y205377D01*
X243268Y230826D01*
X243618Y231350D01*
X243741Y231968D01*
Y269685D01*
X243618Y270303D01*
X243268Y270827D01*
X231457Y282638D01*
X230933Y282988D01*
X230315Y283111D01*
D02*
G37*
G36*
X204259Y208041D02*
X203064D01*
X201910Y207732D01*
X200876Y207135D01*
X200031Y206290D01*
X199434Y205255D01*
X199124Y204101D01*
Y202907D01*
X199434Y201753D01*
X200031Y200718D01*
X200876Y199873D01*
X201910Y199276D01*
X203064Y198967D01*
X204259D01*
X205413Y199276D01*
X206447Y199873D01*
X207292Y200718D01*
X207889Y201753D01*
X208198Y202907D01*
Y204101D01*
X207889Y205255D01*
X207292Y206290D01*
X206447Y207135D01*
X205413Y207732D01*
X204259Y208041D01*
D02*
G37*
G36*
X148637Y198882D02*
X148610D01*
Y195382D01*
X152110D01*
Y195408D01*
X151838Y196426D01*
X151311Y197338D01*
X150566Y198083D01*
X149654Y198609D01*
X148637Y198882D01*
D02*
G37*
G36*
X147610D02*
X147584D01*
X146566Y198609D01*
X145654Y198083D01*
X144909Y197338D01*
X144383Y196426D01*
X144110Y195408D01*
Y195382D01*
X147610D01*
Y198882D01*
D02*
G37*
G36*
X158584Y198482D02*
X157636D01*
X156721Y198237D01*
X155900Y197763D01*
X155229Y197092D01*
X154756Y196271D01*
X154510Y195356D01*
Y194408D01*
X154688Y193744D01*
X152401Y191457D01*
X152051Y190933D01*
X151928Y190315D01*
Y157480D01*
X152051Y156862D01*
X152401Y156338D01*
X174055Y134685D01*
X174579Y134334D01*
X175197Y134212D01*
X303150D01*
X303768Y134334D01*
X304292Y134685D01*
X331310Y161703D01*
X340265D01*
Y172942D01*
X329026D01*
Y163988D01*
X302481Y137442D01*
X175866D01*
X155159Y158149D01*
Y189646D01*
X156973Y191460D01*
X157636Y191282D01*
X158584D01*
X159500Y191527D01*
X160321Y192001D01*
X160991Y192671D01*
X161465Y193492D01*
X161710Y194408D01*
Y195356D01*
X161465Y196271D01*
X160991Y197092D01*
X160321Y197763D01*
X159500Y198237D01*
X158584Y198482D01*
D02*
G37*
G36*
X138584D02*
X137636D01*
X136721Y198237D01*
X135900Y197763D01*
X135230Y197092D01*
X134756Y196271D01*
X134510Y195356D01*
Y194408D01*
X134756Y193492D01*
X135230Y192671D01*
X135900Y192001D01*
X136721Y191527D01*
X137636Y191282D01*
X138584D01*
X139500Y191527D01*
X140321Y192001D01*
X140991Y192671D01*
X141465Y193492D01*
X141710Y194408D01*
Y195356D01*
X141465Y196271D01*
X140991Y197092D01*
X140321Y197763D01*
X139500Y198237D01*
X138584Y198482D01*
D02*
G37*
G36*
X128584D02*
X127636D01*
X126721Y198237D01*
X125900Y197763D01*
X125230Y197092D01*
X124756Y196271D01*
X124510Y195356D01*
Y194408D01*
X124756Y193492D01*
X125230Y192671D01*
X125900Y192001D01*
X126721Y191527D01*
X127636Y191282D01*
X128584D01*
X129500Y191527D01*
X130321Y192001D01*
X130991Y192671D01*
X131465Y193492D01*
X131710Y194408D01*
Y195356D01*
X131465Y196271D01*
X130991Y197092D01*
X130321Y197763D01*
X129500Y198237D01*
X128584Y198482D01*
D02*
G37*
G36*
X118584D02*
X117636D01*
X116721Y198237D01*
X115900Y197763D01*
X115229Y197092D01*
X114756Y196271D01*
X114510Y195356D01*
Y194408D01*
X114756Y193492D01*
X115229Y192671D01*
X115900Y192001D01*
X116721Y191527D01*
X117636Y191282D01*
X118584D01*
X119500Y191527D01*
X120321Y192001D01*
X120991Y192671D01*
X121465Y193492D01*
X121710Y194408D01*
Y195356D01*
X121465Y196271D01*
X120991Y197092D01*
X120321Y197763D01*
X119500Y198237D01*
X118584Y198482D01*
D02*
G37*
G36*
X108584D02*
X107636D01*
X106721Y198237D01*
X105900Y197763D01*
X105229Y197092D01*
X104756Y196271D01*
X104510Y195356D01*
Y194408D01*
X104756Y193492D01*
X105229Y192671D01*
X105900Y192001D01*
X106721Y191527D01*
X107636Y191282D01*
X108584D01*
X109500Y191527D01*
X110321Y192001D01*
X110991Y192671D01*
X111465Y193492D01*
X111710Y194408D01*
Y195356D01*
X111465Y196271D01*
X110991Y197092D01*
X110321Y197763D01*
X109500Y198237D01*
X108584Y198482D01*
D02*
G37*
G36*
X98584D02*
X97636D01*
X96721Y198237D01*
X95900Y197763D01*
X95230Y197092D01*
X94756Y196271D01*
X94510Y195356D01*
Y194408D01*
X94756Y193492D01*
X95230Y192671D01*
X95900Y192001D01*
X96721Y191527D01*
X97636Y191282D01*
X98584D01*
X99500Y191527D01*
X100321Y192001D01*
X100991Y192671D01*
X101465Y193492D01*
X101710Y194408D01*
Y195356D01*
X101465Y196271D01*
X100991Y197092D01*
X100321Y197763D01*
X99500Y198237D01*
X98584Y198482D01*
D02*
G37*
G36*
X88584D02*
X87636D01*
X86721Y198237D01*
X85900Y197763D01*
X85229Y197092D01*
X84756Y196271D01*
X84510Y195356D01*
Y194408D01*
X84756Y193492D01*
X85229Y192671D01*
X85900Y192001D01*
X86721Y191527D01*
X87636Y191282D01*
X88584D01*
X89500Y191527D01*
X90321Y192001D01*
X90991Y192671D01*
X91465Y193492D01*
X91710Y194408D01*
Y195356D01*
X91465Y196271D01*
X90991Y197092D01*
X90321Y197763D01*
X89500Y198237D01*
X88584Y198482D01*
D02*
G37*
G36*
X18584D02*
X17636D01*
X16721Y198237D01*
X15900Y197763D01*
X15229Y197092D01*
X14756Y196271D01*
X14510Y195356D01*
Y194408D01*
X14756Y193492D01*
X15229Y192671D01*
X15900Y192001D01*
X16721Y191527D01*
X17636Y191282D01*
X18584D01*
X19500Y191527D01*
X20321Y192001D01*
X20991Y192671D01*
X21465Y193492D01*
X21710Y194408D01*
Y195356D01*
X21465Y196271D01*
X20991Y197092D01*
X20321Y197763D01*
X19500Y198237D01*
X18584Y198482D01*
D02*
G37*
G36*
X152110Y194382D02*
X148610D01*
Y190882D01*
X148637D01*
X149654Y191155D01*
X150566Y191681D01*
X151311Y192426D01*
X151838Y193338D01*
X152110Y194355D01*
Y194382D01*
D02*
G37*
G36*
X147610D02*
X144110D01*
Y194355D01*
X144383Y193338D01*
X144909Y192426D01*
X145654Y191681D01*
X146566Y191155D01*
X147584Y190882D01*
X147610D01*
Y194382D01*
D02*
G37*
G36*
X214259Y198041D02*
X213064D01*
X211910Y197732D01*
X210876Y197134D01*
X210031Y196290D01*
X209434Y195255D01*
X209124Y194101D01*
Y192907D01*
X209434Y191753D01*
X210031Y190718D01*
X210876Y189873D01*
X211910Y189276D01*
X212872Y189018D01*
X212860Y188400D01*
X211756Y188104D01*
X210630Y187454D01*
X209711Y186535D01*
X209061Y185409D01*
X208972Y185078D01*
X208351D01*
X208262Y185409D01*
X207612Y186535D01*
X206693Y187454D01*
X205567Y188104D01*
X204463Y188400D01*
X204451Y189018D01*
X205413Y189276D01*
X206447Y189873D01*
X207292Y190718D01*
X207889Y191753D01*
X208198Y192907D01*
Y194101D01*
X207889Y195255D01*
X207292Y196290D01*
X206447Y197134D01*
X205413Y197732D01*
X204259Y198041D01*
X203064D01*
X201910Y197732D01*
X200876Y197134D01*
X200031Y196290D01*
X199434Y195255D01*
X199397Y195119D01*
X177329D01*
X176929Y195285D01*
X176221D01*
X175566Y195014D01*
X175065Y194513D01*
X174794Y193858D01*
Y193150D01*
X175065Y192495D01*
X175566Y191994D01*
X176221Y191723D01*
X176929D01*
X177329Y191889D01*
X199397D01*
X199434Y191753D01*
X200031Y190718D01*
X200876Y189873D01*
X201910Y189276D01*
X202872Y189018D01*
X202860Y188400D01*
X201756Y188104D01*
X200630Y187454D01*
X199711Y186535D01*
X199061Y185409D01*
X198724Y184154D01*
Y184004D01*
X203661D01*
Y183504D01*
X204161D01*
Y178567D01*
X204311D01*
X205567Y178903D01*
X206693Y179553D01*
X207612Y180473D01*
X208262Y181598D01*
X208351Y181930D01*
X208972D01*
X209061Y181598D01*
X209711Y180473D01*
X210630Y179553D01*
X211756Y178903D01*
X213012Y178567D01*
X213161D01*
Y183504D01*
X213661D01*
Y184004D01*
X218598D01*
Y184154D01*
X218262Y185409D01*
X217612Y186535D01*
X216693Y187454D01*
X215567Y188104D01*
X214463Y188400D01*
X214451Y189018D01*
X215413Y189276D01*
X216447Y189873D01*
X217292Y190718D01*
X217889Y191753D01*
X218198Y192907D01*
Y193182D01*
X218325Y193267D01*
X220619D01*
X220826Y193060D01*
Y181772D01*
X215866Y176812D01*
X183071D01*
X182453Y176689D01*
X181929Y176339D01*
X174588Y168999D01*
X174188Y168833D01*
X173687Y168332D01*
X173416Y167677D01*
Y166969D01*
X173687Y166314D01*
X174188Y165813D01*
X174843Y165542D01*
X175551D01*
X176206Y165813D01*
X176707Y166314D01*
X176873Y166714D01*
X183740Y173582D01*
X216535D01*
X217154Y173705D01*
X217678Y174055D01*
X223583Y179960D01*
X223933Y180484D01*
X224056Y181102D01*
Y193729D01*
X223933Y194347D01*
X223583Y194871D01*
X222430Y196024D01*
X221906Y196374D01*
X221288Y196497D01*
X217767D01*
X217198Y196384D01*
X216447Y197134D01*
X215413Y197732D01*
X214259Y198041D01*
D02*
G37*
G36*
X218598Y183004D02*
X214161D01*
Y178567D01*
X214311D01*
X215567Y178903D01*
X216693Y179553D01*
X217612Y180473D01*
X218262Y181598D01*
X218598Y182854D01*
Y183004D01*
D02*
G37*
G36*
X203161D02*
X198724D01*
Y182854D01*
X199061Y181598D01*
X199711Y180473D01*
X200630Y179553D01*
X201756Y178903D01*
X203011Y178567D01*
X203161D01*
Y183004D01*
D02*
G37*
G36*
X374486Y182702D02*
X373546D01*
X372638Y182459D01*
X371825Y181989D01*
X371160Y181325D01*
X370690Y180511D01*
X370447Y179604D01*
Y178664D01*
X370690Y177757D01*
X371160Y176943D01*
X371825Y176278D01*
X372638Y175809D01*
X373546Y175565D01*
X374486D01*
X375393Y175809D01*
X376207Y176278D01*
X376871Y176943D01*
X377341Y177757D01*
X377584Y178664D01*
Y179604D01*
X377341Y180511D01*
X376871Y181325D01*
X376207Y181989D01*
X375393Y182459D01*
X374486Y182702D01*
D02*
G37*
G36*
X68584Y198482D02*
X67636D01*
X66721Y198237D01*
X65900Y197763D01*
X65229Y197092D01*
X64756Y196271D01*
X64510Y195356D01*
Y194408D01*
X64756Y193492D01*
X65229Y192671D01*
X65900Y192001D01*
X66721Y191527D01*
X67636Y191282D01*
X68584D01*
X69248Y191460D01*
X86653Y174055D01*
X87177Y173705D01*
X87795Y173582D01*
X97671D01*
X98071Y173416D01*
X98779D01*
X99434Y173687D01*
X99935Y174188D01*
X100206Y174843D01*
Y175551D01*
X99935Y176206D01*
X99434Y176707D01*
X98779Y176978D01*
X98071D01*
X97671Y176812D01*
X88464D01*
X71532Y193744D01*
X71710Y194408D01*
Y195356D01*
X71465Y196271D01*
X70991Y197092D01*
X70321Y197763D01*
X69500Y198237D01*
X68584Y198482D01*
D02*
G37*
G36*
X285787Y161230D02*
X285079D01*
X284424Y160959D01*
X283923Y160458D01*
X283757Y160057D01*
X278858Y155159D01*
X199574D01*
X199173Y155324D01*
X198465D01*
X197810Y155053D01*
X197309Y154552D01*
X197038Y153898D01*
Y153189D01*
X197309Y152534D01*
X197810Y152033D01*
X198465Y151762D01*
X199173D01*
X199574Y151928D01*
X279528D01*
X280146Y152051D01*
X280670Y152401D01*
X286042Y157773D01*
X286442Y157939D01*
X286943Y158440D01*
X287214Y159095D01*
Y159803D01*
X286943Y160458D01*
X286442Y160959D01*
X285787Y161230D01*
D02*
G37*
G36*
X17224Y156639D02*
X14272D01*
X13216Y156500D01*
X12232Y156092D01*
X11387Y155444D01*
X10739Y154599D01*
X10331Y153615D01*
X10192Y152559D01*
X10331Y151503D01*
X10739Y150519D01*
X11387Y149674D01*
X12232Y149026D01*
X13216Y148618D01*
X14272Y148479D01*
X17224D01*
X18280Y148618D01*
X19264Y149026D01*
X20109Y149674D01*
X20758Y150519D01*
X21165Y151503D01*
X21304Y152559D01*
X21165Y153615D01*
X20758Y154599D01*
X20109Y155444D01*
X19264Y156092D01*
X18280Y156500D01*
X17224Y156639D01*
D02*
G37*
G36*
X335239Y153657D02*
X335146D01*
Y148138D01*
X340665D01*
Y148231D01*
X340434Y149394D01*
X339980Y150489D01*
X339321Y151475D01*
X338483Y152314D01*
X337497Y152972D01*
X336402Y153426D01*
X335239Y153657D01*
D02*
G37*
G36*
X334146D02*
X334053D01*
X332890Y153426D01*
X331794Y152972D01*
X330808Y152314D01*
X329970Y151475D01*
X329311Y150489D01*
X328857Y149394D01*
X328626Y148231D01*
Y148138D01*
X334146D01*
Y153657D01*
D02*
G37*
G36*
X137295Y150134D02*
X137275D01*
X136270Y149864D01*
X135368Y149344D01*
X134632Y148608D01*
X134135Y147747D01*
X134029Y147710D01*
X134019Y147708D01*
X133493Y147714D01*
X133118Y148363D01*
X132457Y149024D01*
X131647Y149492D01*
X130743Y149734D01*
X129808D01*
X128904Y149492D01*
X128094Y149024D01*
X127433Y148363D01*
X126965Y147552D01*
X126723Y146649D01*
Y145713D01*
X126965Y144810D01*
X127433Y144000D01*
X128094Y143338D01*
X128904Y142870D01*
X129808Y142628D01*
X130743D01*
X131647Y142870D01*
X132457Y143338D01*
X133118Y144000D01*
X133493Y144648D01*
X134019Y144654D01*
X134029Y144652D01*
X134135Y144615D01*
X134632Y143754D01*
X135368Y143018D01*
X136270Y142498D01*
X137275Y142228D01*
X137295D01*
Y146181D01*
Y150134D01*
D02*
G37*
G36*
X17224Y147200D02*
X16248D01*
Y143217D01*
X21642D01*
X21555Y143877D01*
X21107Y144958D01*
X20394Y145887D01*
X19466Y146599D01*
X18385Y147047D01*
X17224Y147200D01*
D02*
G37*
G36*
X15248D02*
X14272D01*
X13111Y147047D01*
X12030Y146599D01*
X11101Y145887D01*
X10389Y144958D01*
X9941Y143877D01*
X9854Y143217D01*
X15248D01*
Y147200D01*
D02*
G37*
G36*
X138316Y150134D02*
X138295D01*
Y146181D01*
Y142228D01*
X138316D01*
X139321Y142498D01*
X140222Y143018D01*
X140958Y143754D01*
X141162Y144107D01*
X141762Y143947D01*
Y142628D01*
X148868D01*
Y149734D01*
X141762D01*
Y148416D01*
X141162Y148255D01*
X140958Y148608D01*
X140222Y149344D01*
X139321Y149864D01*
X138316Y150134D01*
D02*
G37*
G36*
X340665Y147138D02*
X335146D01*
Y141618D01*
X335239D01*
X336402Y141849D01*
X337497Y142303D01*
X338483Y142962D01*
X339321Y143800D01*
X339980Y144786D01*
X340434Y145882D01*
X340665Y147045D01*
Y147138D01*
D02*
G37*
G36*
X334146D02*
X328626D01*
Y147045D01*
X328857Y145882D01*
X329311Y144786D01*
X329970Y143800D01*
X330808Y142962D01*
X331794Y142303D01*
X332890Y141849D01*
X334053Y141618D01*
X334146D01*
Y147138D01*
D02*
G37*
G36*
X21642Y142217D02*
X16248D01*
Y138233D01*
X17224D01*
X18385Y138386D01*
X19466Y138834D01*
X20394Y139546D01*
X21107Y140475D01*
X21555Y141556D01*
X21642Y142217D01*
D02*
G37*
G36*
X15248D02*
X9854D01*
X9941Y141556D01*
X10389Y140475D01*
X11101Y139546D01*
X12030Y138834D01*
X13111Y138386D01*
X14272Y138233D01*
X15248D01*
Y142217D01*
D02*
G37*
G36*
X374486Y139395D02*
X373546D01*
X372638Y139152D01*
X371825Y138682D01*
X371160Y138018D01*
X370690Y137204D01*
X370447Y136297D01*
Y135357D01*
X370690Y134449D01*
X371160Y133636D01*
X371825Y132971D01*
X372638Y132501D01*
X373546Y132258D01*
X374486D01*
X375393Y132501D01*
X376207Y132971D01*
X376871Y133636D01*
X377341Y134449D01*
X377584Y135357D01*
Y136297D01*
X377341Y137204D01*
X376871Y138018D01*
X376207Y138682D01*
X375393Y139152D01*
X374486Y139395D01*
D02*
G37*
G36*
X45866Y114997D02*
X40748D01*
X39923Y114889D01*
X39155Y114570D01*
X38495Y114064D01*
X37989Y113404D01*
X37670Y112636D01*
X37562Y111811D01*
X37670Y110986D01*
X37989Y110218D01*
X38495Y109558D01*
X39155Y109052D01*
X39923Y108733D01*
X40748Y108625D01*
X45866D01*
X46691Y108733D01*
X47459Y109052D01*
X48119Y109558D01*
X48626Y110218D01*
X48944Y110986D01*
X49053Y111811D01*
X48944Y112636D01*
X48626Y113404D01*
X48119Y114064D01*
X47459Y114570D01*
X46691Y114889D01*
X45866Y114997D01*
D02*
G37*
G36*
X248031Y130571D02*
X157480D01*
X157021Y130380D01*
X139305Y112664D01*
X139114Y112205D01*
Y49213D01*
X139305Y48753D01*
X143242Y44816D01*
X143701Y44626D01*
X175197D01*
X175656Y44816D01*
X179593Y48753D01*
X179783Y49213D01*
Y80440D01*
X185308Y85965D01*
X248031D01*
X248491Y86155D01*
X258333Y95998D01*
X258524Y96457D01*
Y120079D01*
X258333Y120538D01*
X248491Y130380D01*
X248031Y130571D01*
D02*
G37*
G36*
X118110Y120728D02*
X62992D01*
X62533Y120538D01*
X54659Y112664D01*
X54469Y112205D01*
Y84646D01*
X54659Y84187D01*
X62533Y76312D01*
X62992Y76122D01*
X86345D01*
X93839Y68629D01*
X93839Y53150D01*
X94029Y52690D01*
X101903Y44816D01*
X102362Y44626D01*
X129921D01*
X130380Y44816D01*
X137270Y51706D01*
X137460Y52165D01*
Y101378D01*
X137270Y101837D01*
X118570Y120538D01*
X118110Y120728D01*
D02*
G37*
G36*
X45866Y40588D02*
X40748D01*
X39923Y40479D01*
X39155Y40161D01*
X38495Y39655D01*
X37989Y38995D01*
X37670Y38226D01*
X37562Y37402D01*
X37670Y36577D01*
X37989Y35808D01*
X38495Y35149D01*
X39155Y34642D01*
X39923Y34324D01*
X40748Y34215D01*
X45866D01*
X46691Y34324D01*
X47459Y34642D01*
X48119Y35149D01*
X48626Y35808D01*
X48944Y36577D01*
X49053Y37402D01*
X48944Y38226D01*
X48626Y38995D01*
X48119Y39655D01*
X47459Y40161D01*
X46691Y40479D01*
X45866Y40588D01*
D02*
G37*
G36*
X282972Y85295D02*
X188484D01*
X188025Y85105D01*
X184088Y81168D01*
X183898Y80709D01*
Y38386D01*
X184088Y37927D01*
X189009Y33005D01*
X189469Y32815D01*
X306594Y32815D01*
X307054Y33005D01*
X314928Y40879D01*
X315118Y41339D01*
Y62992D01*
X314928Y63451D01*
X310991Y67388D01*
X310531Y67579D01*
X291115D01*
X287559Y71135D01*
Y80709D01*
X287369Y81168D01*
X283432Y85105D01*
X282972Y85295D01*
D02*
G37*
G36*
X370758Y16742D02*
X369399D01*
X368066Y16477D01*
X366811Y15957D01*
X365681Y15202D01*
X364720Y14241D01*
X363965Y13111D01*
X363445Y11855D01*
X363179Y10522D01*
Y9163D01*
X363445Y7830D01*
X363965Y6575D01*
X364720Y5444D01*
X365681Y4484D01*
X366811Y3729D01*
X368066Y3208D01*
X369399Y2943D01*
X370758D01*
X372091Y3208D01*
X373347Y3729D01*
X374477Y4484D01*
X375438Y5444D01*
X376193Y6575D01*
X376713Y7830D01*
X376978Y9163D01*
Y10522D01*
X376713Y11855D01*
X376193Y13111D01*
X375438Y14241D01*
X374477Y15202D01*
X373347Y15957D01*
X372091Y16477D01*
X370758Y16742D01*
D02*
G37*
G36*
X10522D02*
X9163D01*
X7830Y16477D01*
X6575Y15957D01*
X5444Y15202D01*
X4484Y14241D01*
X3729Y13111D01*
X3208Y11855D01*
X2943Y10522D01*
Y9163D01*
X3208Y7830D01*
X3729Y6575D01*
X4484Y5444D01*
X5444Y4484D01*
X6575Y3729D01*
X7830Y3208D01*
X9163Y2943D01*
X10522D01*
X11855Y3208D01*
X13111Y3729D01*
X14241Y4484D01*
X15202Y5444D01*
X15957Y6575D01*
X16477Y7830D01*
X16742Y9163D01*
Y10522D01*
X16477Y11855D01*
X15957Y13111D01*
X15202Y14241D01*
X14241Y15202D01*
X13111Y15957D01*
X11855Y16477D01*
X10522Y16742D01*
D02*
G37*
%LPD*%
G36*
X257874Y120079D02*
Y96457D01*
X248031Y86614D01*
X185039D01*
X179134Y80709D01*
Y49213D01*
X175197Y45276D01*
X143701D01*
X139764Y49213D01*
Y112205D01*
X157480Y129921D01*
X248031D01*
X257874Y120079D01*
D02*
G37*
G36*
X136811Y101378D02*
Y52165D01*
X129921Y45276D01*
X102362D01*
X94488Y53150D01*
X94488Y68898D01*
X86614Y76772D01*
X62992D01*
X55118Y84646D01*
Y112205D01*
X62992Y120079D01*
X118110D01*
X136811Y101378D01*
D02*
G37*
G36*
X286910Y80709D02*
Y70866D01*
X290846Y66929D01*
X310531D01*
X314469Y62992D01*
Y41339D01*
X306594Y33465D01*
X189469Y33465D01*
X184547Y38386D01*
Y80709D01*
X188484Y84646D01*
X282972D01*
X286910Y80709D01*
D02*
G37*
D62*
X87795Y175197D02*
X98425D01*
X68110Y194882D02*
X87795Y175197D01*
X153543Y157480D02*
Y190315D01*
Y157480D02*
X175197Y135827D01*
X303150D01*
X153543Y190315D02*
X158110Y194882D01*
X175197Y167323D02*
X183071Y175197D01*
X216535D01*
X279528Y153543D02*
X285433Y159449D01*
X198819Y153543D02*
X279528D01*
X303150Y135827D02*
X334646Y167323D01*
X216535Y175197D02*
X222441Y181102D01*
X221288Y194882D02*
X222441Y193729D01*
Y181102D02*
Y193729D01*
X217767Y194882D02*
X221288D01*
X213661Y193504D02*
X214791Y194634D01*
X217519D01*
X217767Y194882D01*
X176575Y193504D02*
X203661D01*
X213661Y203504D02*
X242126Y231968D01*
X230315Y281496D02*
X242126Y269685D01*
Y231968D02*
Y269685D01*
X213661Y213504D02*
X236221Y236063D01*
Y267717D01*
X226378Y277559D02*
X236221Y267717D01*
X192965Y281496D02*
X230315D01*
X194882Y277559D02*
X226378D01*
X213661Y223504D02*
X232283Y242126D01*
Y265748D01*
X224409Y273622D02*
X232283Y265748D01*
X196850Y273622D02*
X224409D01*
X220472Y269685D02*
X226378Y263779D01*
X213661Y233504D02*
X226378Y246220D01*
Y263779D01*
X220472Y250315D02*
Y261811D01*
X218504Y263779D02*
X220472Y261811D01*
X213661Y243504D02*
X220472Y250315D01*
X202756Y263779D02*
X218504D01*
X157480Y218504D02*
X202756Y263779D01*
X101732Y218504D02*
X157480D01*
X78110Y194882D02*
X101732Y218504D01*
X58110Y194882D02*
X87638Y224410D01*
X153543D01*
X198819Y269685D01*
X220472D01*
X155512Y232283D02*
X196850Y273622D01*
X85512Y232283D02*
X155512D01*
X48110Y194882D02*
X85512Y232283D01*
X153543Y236221D02*
X194882Y277559D01*
X79449Y236221D02*
X153543D01*
X38110Y194882D02*
X79449Y236221D01*
X151626Y240158D02*
X192965Y281496D01*
X73386Y240158D02*
X151626D01*
X28110Y194882D02*
X73386Y240158D01*
D63*
X80315Y96063D02*
D03*
X301575Y53543D02*
D03*
D64*
X43307Y111811D02*
D03*
Y37402D02*
D03*
X338583Y112205D02*
D03*
Y37795D02*
D03*
D65*
X106299Y66929D02*
D03*
X103150Y64488D02*
D03*
Y60354D02*
D03*
X105709Y56811D02*
D03*
X110276Y55630D02*
D03*
X115512D02*
D03*
X120748D02*
D03*
X125984D02*
D03*
X129921Y56811D02*
D03*
X133071Y60354D02*
D03*
Y64488D02*
D03*
X129921Y66929D02*
D03*
X110276Y68228D02*
D03*
X115512D02*
D03*
X120748D02*
D03*
X125984D02*
D03*
X145669Y66929D02*
D03*
X142520Y64488D02*
D03*
Y60354D02*
D03*
X145079Y56811D02*
D03*
X149646Y55630D02*
D03*
X154882D02*
D03*
X160118D02*
D03*
X165354D02*
D03*
X169291Y56811D02*
D03*
X172441Y60354D02*
D03*
Y64488D02*
D03*
X169291Y66929D02*
D03*
X149646Y68228D02*
D03*
X154882D02*
D03*
X160118D02*
D03*
X165354D02*
D03*
X66929Y23622D02*
D03*
X348425Y27559D02*
D03*
X340551Y13780D02*
D03*
X332677Y21654D02*
D03*
X322835Y15748D02*
D03*
X311024Y19685D02*
D03*
X295276Y13780D02*
D03*
X287402Y19685D02*
D03*
X271654Y13780D02*
D03*
X263779Y19685D02*
D03*
X248031Y13780D02*
D03*
X242126Y21654D02*
D03*
X228346Y13780D02*
D03*
X218504Y21654D02*
D03*
X204724Y15748D02*
D03*
X194882Y19685D02*
D03*
X181102Y13780D02*
D03*
X173228Y17717D02*
D03*
X161417Y13780D02*
D03*
X151575Y19685D02*
D03*
X139764Y13780D02*
D03*
X129921Y19685D02*
D03*
X120079Y13780D02*
D03*
X112205Y19685D02*
D03*
X102362Y13780D02*
D03*
X92520Y21654D02*
D03*
X82677Y13780D02*
D03*
X96457Y114173D02*
D03*
X104331Y106299D02*
D03*
X96457Y100394D02*
D03*
X104331Y92520D02*
D03*
X98425Y84646D02*
D03*
X104331Y78740D02*
D03*
X277559Y45276D02*
D03*
X257874Y39370D02*
D03*
X236221Y45276D02*
D03*
X222441Y39370D02*
D03*
X198819Y47244D02*
D03*
X194882Y37402D02*
D03*
X208661Y43307D02*
D03*
X250000Y47244D02*
D03*
X271654Y37402D02*
D03*
X251969Y76772D02*
D03*
X267717Y74803D02*
D03*
X269685Y64961D02*
D03*
X253937D02*
D03*
X220472Y78740D02*
D03*
X196850D02*
D03*
X206693Y76772D02*
D03*
X198819Y68898D02*
D03*
Y61024D02*
D03*
X214567D02*
D03*
X208661Y68898D02*
D03*
X220472D02*
D03*
X261811Y57087D02*
D03*
X259842Y80709D02*
D03*
X240158Y104331D02*
D03*
X236221Y114173D02*
D03*
Y92520D02*
D03*
X246063Y120079D02*
D03*
X173228Y80709D02*
D03*
X171260Y96457D02*
D03*
X183071Y104331D02*
D03*
X171260Y112205D02*
D03*
X179134Y120079D02*
D03*
D66*
X118110Y61929D02*
D03*
X157480D02*
D03*
D67*
X15748Y152559D02*
D03*
Y142717D02*
D03*
X344488Y253937D02*
D03*
Y244094D02*
D03*
Y263779D02*
D03*
Y234252D02*
D03*
Y273622D02*
D03*
X309055Y253937D02*
D03*
Y244094D02*
D03*
Y234252D02*
D03*
Y263779D02*
D03*
Y273622D02*
D03*
X271654Y253937D02*
D03*
Y244094D02*
D03*
Y263779D02*
D03*
Y234252D02*
D03*
Y273622D02*
D03*
D68*
X374016Y179134D02*
D03*
Y135827D02*
D03*
D69*
X334646Y167323D02*
D03*
D70*
Y147638D02*
D03*
D71*
X370079Y9843D02*
D03*
Y279528D02*
D03*
X9843Y9843D02*
D03*
Y279528D02*
D03*
D72*
X203661Y183504D02*
D03*
X213661D02*
D03*
Y233504D02*
D03*
Y223504D02*
D03*
X203661Y253504D02*
D03*
Y243504D02*
D03*
Y233504D02*
D03*
Y223504D02*
D03*
Y213504D02*
D03*
Y203504D02*
D03*
Y193504D02*
D03*
X213661D02*
D03*
Y203504D02*
D03*
Y213504D02*
D03*
Y243504D02*
D03*
Y253504D02*
D03*
D73*
X137795Y146181D02*
D03*
X130276D02*
D03*
D74*
X148110Y194882D02*
D03*
X128110Y254882D02*
D03*
X18110Y194882D02*
D03*
X28110D02*
D03*
X48110D02*
D03*
X58110D02*
D03*
X38110D02*
D03*
X68110D02*
D03*
X78110D02*
D03*
X88110D02*
D03*
X98110D02*
D03*
X108110D02*
D03*
X118110D02*
D03*
X128110D02*
D03*
X138110D02*
D03*
X18110Y254882D02*
D03*
X28110D02*
D03*
X158110Y194882D02*
D03*
X148110Y254882D02*
D03*
X138110D02*
D03*
X118110D02*
D03*
X108110D02*
D03*
X98110D02*
D03*
X88110D02*
D03*
X78110D02*
D03*
X68110D02*
D03*
X58110D02*
D03*
X48110D02*
D03*
X38110D02*
D03*
D75*
X158110D02*
D03*
D76*
X145315Y146181D02*
D03*
D77*
X378346Y260236D02*
D03*
X372441Y248425D02*
D03*
X378346Y236614D02*
D03*
X372441Y224803D02*
D03*
X378346Y212992D02*
D03*
X372441Y201181D02*
D03*
X378346Y189370D02*
D03*
Y165748D02*
D03*
X372441Y153937D02*
D03*
X378346Y142126D02*
D03*
X372441Y130315D02*
D03*
X378346Y118504D02*
D03*
X372441Y106693D02*
D03*
X378346Y94882D02*
D03*
X372441Y83071D02*
D03*
X378346Y71260D02*
D03*
X372441Y59449D02*
D03*
X378346Y47638D02*
D03*
X372441Y35827D02*
D03*
X378346Y24016D02*
D03*
X360630Y272047D02*
D03*
X366535Y260236D02*
D03*
X360630Y248425D02*
D03*
X366535Y236614D02*
D03*
X360630Y224803D02*
D03*
X366535Y212992D02*
D03*
X360630Y201181D02*
D03*
X366535Y189370D02*
D03*
X360630Y177559D02*
D03*
X366535Y165748D02*
D03*
X360630Y153937D02*
D03*
X366535Y142126D02*
D03*
X360630Y130315D02*
D03*
X366535Y118504D02*
D03*
X360630Y106693D02*
D03*
X366535Y94882D02*
D03*
X360630Y12205D02*
D03*
X354724Y212992D02*
D03*
X348819Y201181D02*
D03*
X354724Y189370D02*
D03*
X348819Y177559D02*
D03*
X354724Y165748D02*
D03*
X348819Y153937D02*
D03*
X354724Y142126D02*
D03*
X348819Y130315D02*
D03*
X354724Y118504D02*
D03*
X337008Y248425D02*
D03*
X342913Y212992D02*
D03*
X337008Y201181D02*
D03*
X342913Y189370D02*
D03*
X337008Y177559D02*
D03*
X342913Y165748D02*
D03*
Y142126D02*
D03*
X337008Y130315D02*
D03*
X342913Y118504D02*
D03*
X337008Y59449D02*
D03*
X331102Y260236D02*
D03*
X325197Y248425D02*
D03*
X331102Y236614D02*
D03*
Y189370D02*
D03*
X325197Y130315D02*
D03*
X331102Y118504D02*
D03*
Y71260D02*
D03*
X325197Y59449D02*
D03*
X331102Y47638D02*
D03*
X325197Y35827D02*
D03*
X319291Y260236D02*
D03*
Y236614D02*
D03*
Y212992D02*
D03*
X313386Y201181D02*
D03*
X319291Y142126D02*
D03*
X313386Y130315D02*
D03*
X319291Y118504D02*
D03*
Y71260D02*
D03*
Y47638D02*
D03*
X313386Y35827D02*
D03*
X301575Y248425D02*
D03*
X307480Y212992D02*
D03*
X301575Y201181D02*
D03*
X307480Y165748D02*
D03*
X301575Y153937D02*
D03*
Y130315D02*
D03*
X307480Y118504D02*
D03*
Y71260D02*
D03*
X295669Y260236D02*
D03*
X289764Y248425D02*
D03*
X295669Y236614D02*
D03*
Y212992D02*
D03*
X289764Y201181D02*
D03*
Y177559D02*
D03*
X295669Y142126D02*
D03*
X289764Y130315D02*
D03*
X295669Y118504D02*
D03*
X289764Y83071D02*
D03*
X295669Y71260D02*
D03*
X283858Y260236D02*
D03*
X277953Y248425D02*
D03*
X283858Y236614D02*
D03*
Y212992D02*
D03*
X277953Y201181D02*
D03*
X283858Y189370D02*
D03*
X277953Y177559D02*
D03*
X283858Y165748D02*
D03*
Y142126D02*
D03*
X277953Y130315D02*
D03*
X283858Y118504D02*
D03*
X277953Y106693D02*
D03*
X283858Y94882D02*
D03*
X272047Y212992D02*
D03*
X266142Y201181D02*
D03*
X272047Y189370D02*
D03*
X266142Y177559D02*
D03*
X272047Y165748D02*
D03*
Y142126D02*
D03*
X266142Y130315D02*
D03*
X272047Y94882D02*
D03*
X254331Y224803D02*
D03*
X260236Y212992D02*
D03*
X254331Y201181D02*
D03*
X260236Y189370D02*
D03*
Y142126D02*
D03*
Y118504D02*
D03*
Y94882D02*
D03*
X242520Y224803D02*
D03*
X248425Y212992D02*
D03*
X242520Y201181D02*
D03*
X248425Y189370D02*
D03*
X242520Y177559D02*
D03*
X230709Y224803D02*
D03*
X236614Y212992D02*
D03*
X230709Y201181D02*
D03*
X236614Y189370D02*
D03*
X230709Y177559D02*
D03*
X224803Y165748D02*
D03*
X212992Y260236D02*
D03*
X207086Y248425D02*
D03*
X195275Y224803D02*
D03*
X201181Y165748D02*
D03*
X183465Y224803D02*
D03*
X189370Y189370D02*
D03*
Y165748D02*
D03*
X183465Y35827D02*
D03*
X177559Y189370D02*
D03*
X171653Y177559D02*
D03*
Y35827D02*
D03*
X165748Y260236D02*
D03*
Y189370D02*
D03*
X159842Y177559D02*
D03*
Y35827D02*
D03*
X153937Y260236D02*
D03*
Y212992D02*
D03*
Y142126D02*
D03*
X148031Y130315D02*
D03*
Y35827D02*
D03*
X142126Y260236D02*
D03*
Y212992D02*
D03*
Y189370D02*
D03*
X136220Y177559D02*
D03*
Y153937D02*
D03*
Y130315D02*
D03*
X142126Y118504D02*
D03*
X136220Y106693D02*
D03*
Y35827D02*
D03*
X130315Y260236D02*
D03*
Y212992D02*
D03*
X124409Y130315D02*
D03*
X130315Y118504D02*
D03*
X124409Y35827D02*
D03*
X118504Y260236D02*
D03*
Y212992D02*
D03*
Y189370D02*
D03*
X112598Y177559D02*
D03*
Y153937D02*
D03*
X118504Y142126D02*
D03*
X112598Y130315D02*
D03*
Y35827D02*
D03*
X106693Y260236D02*
D03*
Y212992D02*
D03*
X100787Y177559D02*
D03*
X106693Y165748D02*
D03*
X100787Y153937D02*
D03*
X106693Y142126D02*
D03*
X100787Y130315D02*
D03*
Y35827D02*
D03*
X94882Y260236D02*
D03*
X88976Y248425D02*
D03*
X94882Y165748D02*
D03*
X88976Y153937D02*
D03*
X94882Y142126D02*
D03*
X88976Y130315D02*
D03*
X94882Y47638D02*
D03*
X77165Y248425D02*
D03*
X83071Y212992D02*
D03*
X77165Y201181D02*
D03*
Y130315D02*
D03*
X83071Y71260D02*
D03*
X65354Y248425D02*
D03*
Y177559D02*
D03*
Y153937D02*
D03*
Y130315D02*
D03*
X71260Y71260D02*
D03*
X53543Y248425D02*
D03*
X59449Y236614D02*
D03*
X53543Y224803D02*
D03*
X59449Y189370D02*
D03*
X53543Y177559D02*
D03*
Y153937D02*
D03*
Y130315D02*
D03*
X59449Y71260D02*
D03*
X53543Y59449D02*
D03*
Y35827D02*
D03*
Y12205D02*
D03*
X41732Y272047D02*
D03*
Y248425D02*
D03*
Y224803D02*
D03*
X47638Y189370D02*
D03*
X41732Y177559D02*
D03*
Y153937D02*
D03*
Y130315D02*
D03*
X47638Y118504D02*
D03*
X41732Y106693D02*
D03*
X47638Y94882D02*
D03*
X41732Y83071D02*
D03*
X47638Y71260D02*
D03*
X41732Y59449D02*
D03*
X47638Y47638D02*
D03*
Y24016D02*
D03*
X41732Y12205D02*
D03*
X35827Y260236D02*
D03*
X29921Y248425D02*
D03*
X35827Y236614D02*
D03*
X29921Y224803D02*
D03*
X35827Y212992D02*
D03*
X29921Y201181D02*
D03*
X35827Y189370D02*
D03*
X29921Y177559D02*
D03*
X35827Y165748D02*
D03*
Y142126D02*
D03*
X29921Y130315D02*
D03*
X35827Y118504D02*
D03*
X29921Y106693D02*
D03*
X35827Y94882D02*
D03*
X29921Y83071D02*
D03*
X35827Y71260D02*
D03*
X29921Y59449D02*
D03*
X35827Y47638D02*
D03*
X29921Y35827D02*
D03*
X35827Y24016D02*
D03*
X29921Y12205D02*
D03*
X18110Y272047D02*
D03*
Y248425D02*
D03*
X24016Y236614D02*
D03*
X18110Y224803D02*
D03*
X24016Y212992D02*
D03*
X18110Y201181D02*
D03*
X24016Y189370D02*
D03*
X18110Y177559D02*
D03*
X24016Y165748D02*
D03*
Y142126D02*
D03*
X18110Y130315D02*
D03*
X24016Y118504D02*
D03*
X18110Y106693D02*
D03*
X24016Y94882D02*
D03*
X18110Y83071D02*
D03*
X24016Y71260D02*
D03*
X18110Y59449D02*
D03*
X24016Y47638D02*
D03*
X18110Y35827D02*
D03*
X24016Y24016D02*
D03*
X18110Y12205D02*
D03*
X12205Y260236D02*
D03*
X6299Y248425D02*
D03*
Y224803D02*
D03*
Y201181D02*
D03*
X12205Y189370D02*
D03*
X6299Y177559D02*
D03*
X12205Y165748D02*
D03*
X6299Y153937D02*
D03*
Y130315D02*
D03*
X12205Y118504D02*
D03*
X6299Y106693D02*
D03*
X12205Y94882D02*
D03*
X6299Y83071D02*
D03*
X12205Y71260D02*
D03*
X6299Y59449D02*
D03*
X12205Y47638D02*
D03*
X6299Y35827D02*
D03*
X12205Y24016D02*
D03*
D78*
X98425Y175197D02*
D03*
X175197Y167323D02*
D03*
X198819Y153543D02*
D03*
X285433Y159449D02*
D03*
X176575Y193504D02*
D03*
D79*
X80315Y53150D02*
D03*
X301575Y96457D02*
D03*
M02*
